<svg width="247" height="149" viewBox="0 0 247 149" fill="none" xmlns="http://www.w3.org/2000/svg">
<g clip-path="url(#clip0)">
<path d="M142.217 56.0198C146.726 56.0198 150.382 52.3745 150.382 47.8778C150.382 43.3811 146.726 39.7358 142.217 39.7358C137.707 39.7358 134.052 43.3811 134.052 47.8778C134.052 52.3745 137.707 56.0198 142.217 56.0198Z" fill="#2F2E41"/>
<path d="M144.492 39.9599C145.905 39.9601 147.293 40.3259 148.522 41.0216C149.751 41.7173 150.778 42.719 151.502 43.9289C152.227 45.1388 152.624 46.5154 152.655 47.9241C152.686 49.3329 152.35 50.7255 151.679 51.966C152.387 51.0828 152.903 50.0622 153.193 48.9693C153.484 47.8765 153.543 46.7352 153.366 45.6184C153.19 44.5015 152.783 43.4335 152.17 42.4824C151.556 41.5313 150.751 40.718 149.806 40.0943C148.86 39.4706 147.794 39.0502 146.677 38.8599C145.559 38.6696 144.414 38.7136 143.314 38.9889C142.215 39.2643 141.184 39.7652 140.29 40.4595C139.395 41.1538 138.655 42.0264 138.117 43.0216C138.88 42.0661 139.85 41.2946 140.953 40.7644C142.057 40.2343 143.266 39.9593 144.492 39.9599Z" fill="#2F2E41"/>
<path d="M126.959 47.8604C140.206 47.8604 150.944 37.1524 150.944 23.9434C150.944 10.7344 140.206 0.0263672 126.959 0.0263672C113.713 0.0263672 102.974 10.7344 102.974 23.9434C102.974 37.1524 113.713 47.8604 126.959 47.8604Z" fill="#2F2E41"/>
<path d="M108.135 9.10397C112.268 4.46923 118.045 1.61692 124.246 1.14903C130.448 0.681145 136.59 2.63428 141.375 6.59623C141.179 6.41032 140.985 6.2229 140.781 6.04224C136.026 1.82952 129.789 -0.32764 123.439 0.0451802C117.09 0.418 111.149 3.29027 106.924 8.03029C102.698 12.7703 100.533 18.9899 100.906 25.3213C101.278 31.6527 104.157 37.5773 108.91 41.7922C109.113 41.9728 109.323 42.1431 109.531 42.3155C105.025 38.0409 102.36 32.1877 102.099 25.9912C101.839 19.7947 104.003 13.7396 108.135 9.10397Z" fill="#2F2E41"/>
<path d="M126.756 47.6577C135.287 47.6577 142.204 40.7611 142.204 32.2536C142.204 23.7461 135.287 16.8494 126.756 16.8494C118.224 16.8494 111.308 23.7461 111.308 32.2536C111.308 40.7611 118.224 47.6577 126.756 47.6577Z" fill="#FFB8B8"/>
<path d="M115.78 37.1182C115.78 37.1182 117.812 55.7653 114.56 57.7922C111.308 59.8191 133.26 62.6567 133.26 62.6567C133.26 62.6567 130.008 42.388 138.139 37.1182H115.78Z" fill="#FFB8B8"/>
<path d="M135.293 54.5491C135.293 54.5491 141.346 51.7304 132.628 52.7344C123.91 53.7384 116.389 49.8873 116.389 49.8873C116.389 49.8873 113.747 47.2524 113.341 50.09C112.934 52.9276 114.56 58.1975 105.617 59.0082C96.673 59.8189 88.5426 57.3867 85.2904 63.4673C82.0382 69.5479 83.6643 95.8972 83.6643 95.8972C83.6643 95.8972 89.7621 117.787 94.6404 121.03C99.5187 124.273 142.204 119.814 142.204 119.814L154.399 97.924V72.3855C154.399 72.3855 152.773 63.4673 141.391 65.8996C141.391 65.8996 134.073 64.2781 134.48 60.6297C134.886 56.9813 135.293 54.5491 135.293 54.5491Z" fill="#D0CDE1"/>
<path d="M96.2537 136.522C96.505 135.43 96.6732 134.812 96.6732 134.812L96.5431 133.924L95.2038 124.855L94.6407 121.03C99.5179 119.003 100.738 109.679 100.738 109.679L100.922 109.569L101.755 109.073V109.071L104.743 107.283L104.803 107.247L106.01 108.048L108.462 109.679C117.041 115.97 125.777 115.858 131.168 114.867C134.464 114.261 136.512 113.328 136.512 113.328L142.425 111.361L142.609 111.301L142.791 111.328L146.259 111.851L146.322 111.862L146.609 111.905L145.806 117.442L144.642 125.488C147.718 127.112 150.452 130.164 152.844 133.924C153.373 134.757 153.886 135.622 154.383 136.522C155.029 137.685 155.646 138.895 156.234 140.134C156.305 140.282 156.375 140.432 156.445 140.582C156.671 141.067 156.895 141.557 157.113 142.049H95.1769C95.2576 141.555 95.3384 141.083 95.4169 140.629C95.421 140.613 95.424 140.598 95.4259 140.582C95.4551 140.43 95.482 140.282 95.5067 140.134C95.7804 138.658 96.0451 137.425 96.2537 136.522Z" fill="#2F2E41"/>
<path d="M93.8274 58.6028C93.8274 58.6028 98.2991 66.7103 96.673 76.8446C95.0469 86.979 101.551 112.112 101.551 112.112L106.43 110.896C106.43 110.896 103.177 89.8166 103.99 84.9521C104.804 80.0876 104.804 61.0351 100.738 58.6028C96.673 56.1706 93.8274 58.6028 93.8274 58.6028Z" fill="#2F2E41"/>
<path d="M141.105 67.0283L142.814 111.91L146.066 113.936C146.066 113.936 150.741 64.6836 148.302 64.6836H143.339C143.035 64.6836 142.735 64.7451 142.456 64.8645C142.177 64.9838 141.926 65.1585 141.717 65.3778C141.508 65.5971 141.346 65.8565 141.241 66.1403C141.135 66.424 141.089 66.7261 141.105 67.0283Z" fill="#2F2E41"/>
<path d="M103.787 111.099C104.91 111.099 105.82 110.191 105.82 109.072C105.82 107.953 104.91 107.045 103.787 107.045C102.665 107.045 101.755 107.953 101.755 109.072C101.755 110.191 102.665 111.099 103.787 111.099Z" fill="#38B6FF"/>
<path d="M144.44 113.126C145.562 113.126 146.472 112.218 146.472 111.099C146.472 109.979 145.562 109.072 144.44 109.072C143.317 109.072 142.407 109.979 142.407 111.099C142.407 112.218 143.317 113.126 144.44 113.126Z" fill="#38B6FF"/>
<path d="M113.544 12.9982V28.4024H117.121L121.674 23.5379L121.065 28.4024H136.878L135.902 23.5379L137.854 28.4024H140.374V12.9982H113.544Z" fill="#2F2E41"/>
<path d="M111.105 31.2401C111.778 31.2401 112.324 30.2419 112.324 29.0106C112.324 27.7792 111.778 26.781 111.105 26.781C110.431 26.781 109.885 27.7792 109.885 29.0106C109.885 30.2419 110.431 31.2401 111.105 31.2401Z" fill="#FFB8B8"/>
<path d="M142.407 31.2401C143.081 31.2401 143.627 30.2419 143.627 29.0106C143.627 27.7792 143.081 26.781 142.407 26.781C141.733 26.781 141.187 27.7792 141.187 29.0106C141.187 30.2419 141.733 31.2401 142.407 31.2401Z" fill="#FFB8B8"/>
<path d="M150.741 110.896C150.741 110.896 132.244 107.45 131.024 113.531C129.805 119.612 151.554 116.977 151.554 116.977L150.741 110.896Z" fill="#FFB8B8"/>
<path d="M150.334 69.1426C150.334 69.1426 194.645 104.41 186.515 112.923C178.384 121.436 147.489 119.004 147.489 119.004L149.521 108.869L167.408 106.842L158.465 97.9241L150.334 98.7349V69.1426Z" fill="#D0CDE1"/>
<path d="M84.8838 127.922L90.5752 132.381C90.5752 132.381 94.6404 144.947 100.738 141.299C106.836 137.651 95.0469 124.679 95.0469 124.679L88.136 122.246L84.8838 127.922Z" fill="#FFB8B8"/>
<path d="M90.5752 62.6566L84.8992 64.3599C84.8992 64.3599 45.451 93.465 43.8249 101.572C42.1988 109.68 51.5489 114.139 51.5489 114.139L86.9165 130.759L90.5752 121.03L73.9077 112.518C73.9077 112.518 75.1273 110.085 70.249 109.68C65.3707 109.275 64.5577 104.005 64.5577 104.005C64.5577 104.005 74.3142 89.0059 79.599 92.2489C84.8839 95.4919 86.5099 97.9241 86.5099 97.9241L90.5752 62.6566Z" fill="#D0CDE1"/>
<path d="M171.531 137.911V139.269C171.532 139.641 171.463 140.011 171.327 140.358C171.267 140.513 171.194 140.663 171.11 140.806C170.842 141.253 170.463 141.624 170.009 141.881C169.554 142.138 169.041 142.273 168.519 142.273H68.3389C67.8165 142.273 67.303 142.138 66.8488 141.881C66.3945 141.624 66.0151 141.253 65.7478 140.806C65.6632 140.663 65.5904 140.513 65.5302 140.358C65.3945 140.011 65.3252 139.641 65.326 139.269V137.911C65.3259 137.516 65.4038 137.126 65.5551 136.761C65.7065 136.396 65.9284 136.065 66.2082 135.786C66.488 135.507 66.8202 135.286 67.1858 135.135C67.5514 134.984 67.9432 134.906 68.3389 134.906H74.1135V134.273C74.1134 134.257 74.1167 134.241 74.123 134.225C74.1293 134.21 74.1385 134.196 74.1502 134.185C74.1619 134.173 74.1757 134.164 74.191 134.158C74.2062 134.151 74.2226 134.148 74.2391 134.148H77.252C77.2685 134.148 77.2848 134.151 77.3001 134.158C77.3154 134.164 77.3292 134.173 77.3409 134.185C77.3526 134.196 77.3618 134.21 77.3681 134.225C77.3744 134.241 77.3777 134.257 77.3776 134.273V134.906H79.2598V134.273C79.2598 134.257 79.2631 134.241 79.2694 134.225C79.2757 134.21 79.2849 134.196 79.2966 134.185C79.3083 134.173 79.3221 134.164 79.3374 134.158C79.3526 134.151 79.369 134.148 79.3855 134.148H82.3984C82.4149 134.148 82.4312 134.151 82.4465 134.158C82.4618 134.164 82.4756 134.173 82.4873 134.185C82.499 134.196 82.5082 134.21 82.5145 134.225C82.5208 134.241 82.524 134.257 82.524 134.273V134.906H84.4085V134.273C84.4085 134.257 84.4117 134.241 84.418 134.225C84.4243 134.21 84.4335 134.196 84.4452 134.185C84.4569 134.173 84.4708 134.164 84.486 134.158C84.5013 134.151 84.5176 134.148 84.5341 134.148H87.547C87.5635 134.148 87.5799 134.151 87.5951 134.158C87.6104 134.164 87.6242 134.173 87.6359 134.185C87.6476 134.196 87.6568 134.21 87.6631 134.225C87.6695 134.241 87.6727 134.257 87.6726 134.273V134.906H89.5549V134.273C89.5548 134.257 89.5581 134.241 89.5644 134.225C89.5707 134.21 89.5799 134.196 89.5916 134.185C89.6033 134.173 89.6171 134.164 89.6324 134.158C89.6477 134.151 89.664 134.148 89.6805 134.148H92.6934C92.7099 134.148 92.7263 134.151 92.7415 134.158C92.7568 134.164 92.7706 134.173 92.7823 134.185C92.794 134.196 92.8032 134.21 92.8095 134.225C92.8158 134.241 92.8191 134.257 92.819 134.273V134.906H94.7013V134.273C94.7012 134.257 94.7045 134.241 94.7108 134.225C94.7171 134.21 94.7263 134.196 94.738 134.185C94.7497 134.173 94.7635 134.164 94.7788 134.158C94.794 134.151 94.8104 134.148 94.8269 134.148H97.8398C97.8563 134.148 97.8727 134.151 97.8879 134.158C97.9032 134.164 97.917 134.173 97.9287 134.185C97.9404 134.196 97.9496 134.21 97.9559 134.225C97.9622 134.241 97.9655 134.257 97.9654 134.273V134.906H99.8499V134.273C99.8499 134.257 99.8531 134.241 99.8594 134.225C99.8657 134.21 99.875 134.196 99.8866 134.185C99.8983 134.173 99.9122 134.164 99.9274 134.158C99.9427 134.151 99.959 134.148 99.9755 134.148H102.988C103.005 134.148 103.021 134.151 103.037 134.158C103.052 134.164 103.066 134.173 103.077 134.185C103.089 134.196 103.098 134.21 103.105 134.225C103.111 134.241 103.114 134.257 103.114 134.273V134.906H104.996V134.273C104.996 134.257 105 134.241 105.006 134.225C105.012 134.21 105.021 134.196 105.033 134.185C105.045 134.173 105.059 134.164 105.074 134.158C105.089 134.151 105.105 134.148 105.122 134.148H128.723C128.739 134.148 128.756 134.151 128.771 134.158C128.786 134.164 128.8 134.173 128.812 134.185C128.823 134.196 128.832 134.21 128.839 134.225C128.845 134.241 128.848 134.257 128.848 134.273V134.906H130.733V134.273C130.733 134.257 130.736 134.241 130.742 134.225C130.749 134.21 130.758 134.196 130.769 134.185C130.781 134.173 130.795 134.164 130.81 134.158C130.826 134.151 130.842 134.148 130.858 134.148H133.871C133.904 134.148 133.936 134.162 133.96 134.185C133.983 134.209 133.997 134.24 133.997 134.273V134.906H135.879V134.273C135.879 134.257 135.882 134.241 135.889 134.225C135.895 134.21 135.904 134.196 135.916 134.185C135.928 134.173 135.941 134.164 135.957 134.158C135.972 134.151 135.988 134.148 136.005 134.148H139.018C139.034 134.148 139.051 134.151 139.066 134.158C139.081 134.164 139.095 134.173 139.107 134.185C139.118 134.196 139.127 134.21 139.134 134.225C139.14 134.241 139.143 134.257 139.143 134.273V134.906H141.026V134.273C141.025 134.257 141.029 134.241 141.035 134.225C141.041 134.21 141.051 134.196 141.062 134.185C141.074 134.173 141.088 134.164 141.103 134.158C141.118 134.151 141.135 134.148 141.151 134.148H144.164C144.181 134.148 144.197 134.151 144.212 134.158C144.227 134.164 144.241 134.173 144.253 134.185C144.265 134.196 144.274 134.21 144.28 134.225C144.286 134.241 144.29 134.257 144.29 134.273V134.906H146.174V134.273C146.174 134.257 146.177 134.241 146.184 134.225C146.19 134.21 146.199 134.196 146.211 134.185C146.223 134.173 146.236 134.164 146.252 134.158C146.267 134.151 146.283 134.148 146.3 134.148H149.313C149.346 134.148 149.377 134.162 149.4 134.185C149.423 134.209 149.436 134.24 149.436 134.273V134.906H151.321V134.273C151.321 134.257 151.324 134.241 151.33 134.225C151.336 134.21 151.346 134.196 151.357 134.185C151.369 134.173 151.383 134.164 151.398 134.158C151.413 134.151 151.43 134.148 151.446 134.148H154.459C154.476 134.148 154.492 134.151 154.507 134.158C154.522 134.164 154.536 134.173 154.548 134.185C154.56 134.196 154.569 134.21 154.575 134.225C154.582 134.241 154.585 134.257 154.585 134.273V134.906H156.467V134.273C156.467 134.257 156.47 134.241 156.476 134.225C156.483 134.21 156.492 134.196 156.504 134.185C156.515 134.173 156.529 134.164 156.544 134.158C156.56 134.151 156.576 134.148 156.593 134.148H159.605C159.622 134.148 159.638 134.151 159.654 134.158C159.669 134.164 159.683 134.173 159.694 134.185C159.706 134.196 159.715 134.21 159.722 134.225C159.728 134.241 159.731 134.257 159.731 134.273V134.906H168.519C168.914 134.906 169.306 134.984 169.672 135.135C170.037 135.286 170.369 135.507 170.649 135.786C170.929 136.065 171.151 136.396 171.302 136.761C171.454 137.126 171.532 137.516 171.531 137.911Z" fill="#3F3D56"/>
<path d="M200.662 140.357H36.2196V140.804H200.662V140.357Z" fill="#3F3D56"/>
<path d="M163.465 80.7239H126.125V79.9564H109.193V80.7239H71.6993C71.0294 80.7239 70.387 80.9892 69.9133 81.4615C69.4396 81.9339 69.1735 82.5745 69.1735 83.2425V134.228C69.1735 134.896 69.4396 135.536 69.9133 136.009C70.387 136.481 71.0294 136.746 71.6993 136.746H163.465C164.135 136.746 164.777 136.481 165.251 136.009C165.724 135.536 165.991 134.896 165.991 134.228V83.2425C165.991 82.9117 165.925 82.5842 165.798 82.2786C165.671 81.9731 165.485 81.6954 165.251 81.4615C165.016 81.2277 164.738 81.0421 164.431 80.9156C164.125 80.789 163.796 80.7239 163.465 80.7239Z" fill="#3F3D56"/>
<path d="M117.655 104.117C120.753 104.117 123.264 101.613 123.264 98.5242C123.264 95.4354 120.753 92.9315 117.655 92.9315C114.558 92.9315 112.047 95.4354 112.047 98.5242C112.047 101.613 114.558 104.117 117.655 104.117Z" stroke="#D0CDE1" stroke-width="2" stroke-miterlimit="10"/>
<path d="M115.861 106.13C118.958 106.13 121.469 103.626 121.469 100.537C121.469 97.4486 118.958 94.9447 115.861 94.9447C112.763 94.9447 110.252 97.4486 110.252 100.537C110.252 103.626 112.763 106.13 115.861 106.13Z" fill="#D0CDE1"/>
<path d="M48.238 148.441H5.83741V148.947H48.238V148.441Z" fill="#3F3D56"/>
<path d="M233.32 148.441H190.919V148.947H233.32V148.441Z" fill="#3F3D56"/>
<path d="M30.5417 132.147C26.0748 139.419 27.6116 148.465 27.6116 148.465C27.6116 148.465 36.3907 145.72 40.8575 138.448C45.3244 131.176 43.7876 122.131 43.7876 122.131C43.7876 122.131 35.0085 124.875 30.5417 132.147Z" fill="#3F3D56"/>
<path d="M27.4293 148.525L27.1753 148.485C27.0835 148.47 17.9419 146.96 12.467 140.428C6.99211 133.896 7.12386 124.657 7.12565 124.564L7.1311 124.308L7.38507 124.348C7.47692 124.362 16.6185 125.873 22.0934 132.405C27.5683 138.937 27.4365 148.176 27.4347 148.268L27.4293 148.525Z" fill="#38B6FF"/>
<path d="M27.79 148.755L27.5446 148.678C27.4559 148.65 18.6336 145.824 14.1744 138.565C9.71516 131.306 11.199 122.185 11.2144 122.093L11.2573 121.841L11.5027 121.917C11.5914 121.945 20.4137 124.771 24.8729 132.03C29.3321 139.29 27.8483 148.411 27.8329 148.502L27.79 148.755ZM11.6192 122.429C11.4161 123.96 10.6066 131.9 14.5569 138.331C18.5074 144.762 25.9686 147.651 27.4281 148.166C27.6312 146.635 28.4407 138.695 24.4904 132.264C20.5399 125.833 13.0788 122.945 11.6192 122.429H11.6192Z" fill="#3F3D56"/>
<path d="M27.8903 124.902C30.6161 124.902 32.8258 122.698 32.8258 119.98C32.8258 117.262 30.6161 115.058 27.8903 115.058C25.1645 115.058 22.9548 117.262 22.9548 119.98C22.9548 122.698 25.1645 124.902 27.8903 124.902Z" fill="#3F3D56"/>
<path d="M89.6893 57.7731L61.3758 29.3169H48.0091V28.8695H61.5631L61.6291 28.936L90.0083 57.4585L89.6893 57.7731Z" fill="#3F3D56"/>
<path d="M156.189 56.8783L184.502 28.4221H197.869V27.9747H184.315L184.249 28.0412L155.87 56.5638L156.189 56.8783Z" fill="#3F3D56"/>
<path d="M32.7539 15.2881H6.10352e-05V21.7481H32.7539V15.2881Z" fill="#D0CDE1"/>
<path d="M32.7539 25.2007H6.10352e-05V31.6607H32.7539V25.2007Z" fill="#D0CDE1"/>
<path d="M32.7539 35.1135H6.10352e-05V41.5735H32.7539V35.1135Z" fill="#D0CDE1"/>
<path opacity="0.15" d="M13.5499 15.2881H-7.62939e-06V21.7481H13.5499V15.2881Z" fill="black"/>
<path opacity="0.15" d="M4.38668 25.2008H0V31.6608H4.38668V25.2008Z" fill="black"/>
<path opacity="0.15" d="M21.8359 35.1135H6.10352e-05V41.5735H21.8359V35.1135Z" fill="black"/>
<path d="M247 16.7393H214.196V19.6541H247V16.7393Z" fill="#D0CDE1"/>
<path d="M208.403 16.3619H201.907V22.8394H208.403V16.3619Z" fill="#38B6FF"/>
<path d="M208.403 26.0784H201.907V32.5558H208.403V26.0784Z" fill="#38B6FF"/>
<path d="M208.403 35.7944H201.907V42.2719H208.403V35.7944Z" fill="#38B6FF"/>
<path d="M210.198 21.4972H203.254V14.5723H210.198V21.4972ZM203.702 21.0498H209.749V15.0197H203.702V21.0498Z" fill="#3F3D56"/>
<path d="M247 26.4554H214.196V29.3703H247V26.4554Z" fill="#D0CDE1"/>
<path d="M210.198 31.2134H203.254V24.2886H210.198V31.2134ZM203.702 30.766H209.749V24.736H203.702V30.766Z" fill="#3F3D56"/>
<path d="M247 36.1719H214.196V39.0867H247V36.1719Z" fill="#D0CDE1"/>
<path d="M210.198 40.9296H203.254V34.0048H210.198V40.9296ZM203.702 40.4822H209.749V34.4522H203.702V40.4822Z" fill="#3F3D56"/>
<path d="M42.4005 22.1584C44.3829 22.1584 45.99 20.5559 45.99 18.5791C45.99 16.6023 44.3829 14.9998 42.4005 14.9998C40.4181 14.9998 38.8111 16.6023 38.8111 18.5791C38.8111 20.5559 40.4181 22.1584 42.4005 22.1584Z" fill="#38B6FF"/>
<path d="M42.4005 32.8963C44.3829 32.8963 45.99 31.2938 45.99 29.317C45.99 27.3402 44.3829 25.7377 42.4005 25.7377C40.4181 25.7377 38.8111 27.3402 38.8111 29.317C38.8111 31.2938 40.4181 32.8963 42.4005 32.8963Z" fill="#38B6FF"/>
<path d="M42.4005 42.5156C44.3829 42.5156 45.99 40.9131 45.99 38.9363C45.99 36.9596 44.3829 35.3571 42.4005 35.3571C40.4181 35.3571 38.8111 36.9596 38.8111 38.9363C38.8111 40.9131 40.4181 42.5156 42.4005 42.5156Z" fill="#38B6FF"/>
<path d="M40.6058 21.4871C39.8515 21.4871 39.1141 21.2641 38.487 20.8462C37.8598 20.4283 37.371 19.8344 37.0823 19.1395C36.7937 18.4446 36.7181 17.6799 36.8653 16.9422C37.0124 16.2045 37.3757 15.5268 37.909 14.995C38.4424 14.4631 39.122 14.1009 39.8618 13.9542C40.6016 13.8074 41.3684 13.8828 42.0653 14.1706C42.7622 14.4584 43.3578 14.9459 43.7769 15.5713C44.1959 16.1967 44.4196 16.932 44.4196 17.6841C44.4185 18.6924 44.0163 19.6591 43.3013 20.372C42.5863 21.085 41.6169 21.486 40.6058 21.4871ZM40.6058 14.3285C39.9402 14.3285 39.2896 14.5253 38.7362 14.894C38.1829 15.2628 37.7515 15.7868 37.4968 16.4C37.2421 17.0131 37.1755 17.6878 37.3053 18.3388C37.4352 18.9897 37.7557 19.5876 38.2263 20.0569C38.6969 20.5262 39.2965 20.8458 39.9493 20.9752C40.6021 21.1047 41.2787 21.0383 41.8936 20.7843C42.5085 20.5303 43.034 20.1002 43.4038 19.5484C43.7736 18.9966 43.9709 18.3478 43.9709 17.6841C43.9699 16.7945 43.6151 15.9415 42.9842 15.3125C42.3533 14.6834 41.498 14.3295 40.6058 14.3285Z" fill="#3F3D56"/>
<path d="M40.6058 32.2252C39.8515 32.2252 39.1141 32.0021 38.487 31.5842C37.8598 31.1664 37.371 30.5724 37.0823 29.8775C36.7937 29.1826 36.7181 28.4179 36.8653 27.6802C37.0124 26.9425 37.3757 26.2649 37.909 25.733C38.4424 25.2012 39.122 24.839 39.8618 24.6922C40.6016 24.5455 41.3684 24.6208 42.0653 24.9086C42.7622 25.1965 43.3578 25.6839 43.7769 26.3093C44.1959 26.9347 44.4196 27.67 44.4196 28.4222C44.4185 29.4304 44.0163 30.3971 43.3013 31.11C42.5863 31.823 41.6169 32.224 40.6058 32.2252ZM40.6058 25.0666C39.9402 25.0666 39.2896 25.2634 38.7362 25.6321C38.1829 26.0008 37.7515 26.5249 37.4968 27.138C37.2421 27.7512 37.1755 28.4259 37.3053 29.0768C37.4352 29.7277 37.7557 30.3256 38.2263 30.7949C38.6969 31.2642 39.2965 31.5838 39.9493 31.7133C40.6021 31.8428 41.2787 31.7763 41.8936 31.5223C42.5085 31.2683 43.034 30.8383 43.4038 30.2864C43.7736 29.7346 43.9709 29.0858 43.9709 28.4222C43.9699 27.5325 43.6151 26.6796 42.9842 26.0505C42.3533 25.4214 41.498 25.0676 40.6058 25.0666Z" fill="#3F3D56"/>
<path d="M40.6058 41.8446C39.8515 41.8446 39.1141 41.6215 38.487 41.2036C37.8598 40.7857 37.371 40.1918 37.0823 39.4969C36.7937 38.802 36.7181 38.0373 36.8653 37.2996C37.0124 36.5619 37.3757 35.8843 37.909 35.3524C38.4424 34.8205 39.122 34.4583 39.8618 34.3116C40.6016 34.1649 41.3684 34.2402 42.0653 34.528C42.7622 34.8159 43.3578 35.3033 43.7769 35.9287C44.1959 36.5541 44.4196 37.2894 44.4196 38.0415C44.4185 39.0498 44.0163 40.0165 43.3013 40.7294C42.5863 41.4424 41.6169 41.8434 40.6058 41.8446ZM40.6058 34.6859C39.9402 34.6859 39.2896 34.8827 38.7362 35.2515C38.1829 35.6202 37.7515 36.1442 37.4968 36.7574C37.2421 37.3706 37.1755 38.0453 37.3053 38.6962C37.4352 39.3471 37.7557 39.945 38.2263 40.4143C38.6969 40.8836 39.2965 41.2032 39.9493 41.3327C40.6021 41.4621 41.2787 41.3957 41.8936 41.1417C42.5085 40.8877 43.034 40.4576 43.4038 39.9058C43.7736 39.354 43.9709 38.7052 43.9709 38.0415C43.9699 37.1519 43.6151 36.299 42.9842 35.6699C42.3533 35.0408 41.498 34.6869 40.6058 34.6859Z" fill="#3F3D56"/>
<path d="M221.874 133.341H221.425V129.985C221.425 129.807 221.496 129.636 221.622 129.511C221.749 129.385 221.92 129.314 222.098 129.314H223.22C223.279 129.314 223.336 129.29 223.378 129.248C223.42 129.206 223.444 129.149 223.444 129.09V126.853C223.444 126.794 223.42 126.737 223.378 126.695C223.336 126.653 223.279 126.629 223.22 126.629H222.098C221.92 126.629 221.749 126.558 221.622 126.433C221.496 126.307 221.425 126.136 221.425 125.958V124.84C221.425 124.78 221.401 124.724 221.359 124.682C221.317 124.64 221.26 124.616 221.201 124.616H219.182C219.003 124.616 218.832 124.545 218.706 124.419C218.58 124.293 218.509 124.123 218.509 123.945V123.721C218.509 123.662 218.485 123.605 218.443 123.563C218.401 123.521 218.344 123.498 218.284 123.497H210.208C210.148 123.498 210.091 123.521 210.049 123.563C210.007 123.605 209.984 123.662 209.984 123.721V123.945C209.983 124.123 209.912 124.293 209.786 124.419C209.66 124.545 209.489 124.616 209.311 124.616H207.292C207.232 124.616 207.175 124.64 207.133 124.682C207.091 124.724 207.067 124.78 207.067 124.84V125.958C207.067 126.136 206.996 126.307 206.87 126.433C206.744 126.558 206.573 126.629 206.394 126.629H205.272C205.213 126.629 205.156 126.653 205.114 126.695C205.072 126.737 205.048 126.794 205.048 126.853V129.09C205.048 129.149 205.072 129.206 205.114 129.248C205.156 129.29 205.213 129.314 205.272 129.314H206.619C206.797 129.314 206.968 129.385 207.094 129.511C207.22 129.636 207.291 129.807 207.292 129.985V133.341H206.843V129.985C206.843 129.926 206.819 129.869 206.777 129.827C206.735 129.785 206.678 129.761 206.619 129.761H205.272C205.094 129.761 204.923 129.69 204.797 129.564C204.671 129.439 204.6 129.268 204.599 129.09V126.853C204.6 126.675 204.671 126.505 204.797 126.379C204.923 126.253 205.094 126.182 205.272 126.182H206.394C206.454 126.182 206.511 126.158 206.553 126.116C206.595 126.074 206.618 126.018 206.619 125.958V124.84C206.619 124.662 206.69 124.491 206.816 124.365C206.942 124.24 207.113 124.169 207.292 124.169H209.311C209.37 124.169 209.427 124.145 209.469 124.103C209.511 124.061 209.535 124.004 209.535 123.945V123.721C209.535 123.543 209.606 123.373 209.732 123.247C209.858 123.121 210.03 123.05 210.208 123.05H218.284C218.463 123.05 218.634 123.121 218.76 123.247C218.886 123.373 218.957 123.543 218.957 123.721V123.945C218.957 124.004 218.981 124.061 219.023 124.103C219.065 124.145 219.122 124.169 219.182 124.169H221.201C221.379 124.169 221.55 124.24 221.676 124.365C221.803 124.491 221.874 124.662 221.874 124.84V125.958C221.874 126.018 221.897 126.074 221.939 126.116C221.982 126.158 222.039 126.182 222.098 126.182H223.22C223.398 126.182 223.569 126.253 223.695 126.379C223.822 126.505 223.893 126.675 223.893 126.853V129.09C223.893 129.268 223.822 129.439 223.695 129.564C223.569 129.69 223.398 129.761 223.22 129.761H222.098C222.039 129.761 221.982 129.785 221.939 129.827C221.897 129.869 221.874 129.926 221.874 129.985V133.341Z" fill="#3F3D56"/>
<path d="M221.201 149H207.516C207.337 149 207.166 148.929 207.04 148.803C206.914 148.677 206.843 148.507 206.843 148.329V138.709H207.292V148.329C207.292 148.388 207.315 148.445 207.357 148.487C207.399 148.529 207.456 148.553 207.516 148.553H221.201C221.26 148.553 221.317 148.529 221.359 148.487C221.401 148.445 221.425 148.388 221.425 148.329V138.709H221.874V148.329C221.874 148.507 221.803 148.677 221.676 148.803C221.55 148.929 221.379 149 221.201 149Z" fill="#3F3D56"/>
<path d="M224.117 134.906H207.292C207.044 134.906 206.843 135.107 206.843 135.354V139.828C206.843 140.075 207.044 140.275 207.292 140.275H224.117C224.365 140.275 224.566 140.075 224.566 139.828V135.354C224.566 135.107 224.365 134.906 224.117 134.906Z" fill="#38B6FF"/>
<path d="M222.659 138.933H205.833C205.655 138.933 205.484 138.862 205.358 138.736C205.231 138.611 205.161 138.44 205.16 138.262V133.788C205.161 133.61 205.231 133.439 205.358 133.314C205.484 133.188 205.655 133.117 205.833 133.117H222.659C222.837 133.117 223.008 133.188 223.135 133.314C223.261 133.439 223.332 133.61 223.332 133.788V138.262C223.332 138.44 223.261 138.611 223.135 138.736C223.008 138.862 222.837 138.933 222.659 138.933ZM205.833 133.564C205.774 133.564 205.717 133.588 205.675 133.63C205.633 133.672 205.609 133.729 205.609 133.788V138.262C205.609 138.321 205.633 138.378 205.675 138.42C205.717 138.462 205.774 138.486 205.833 138.486H222.659C222.718 138.486 222.775 138.462 222.818 138.42C222.86 138.378 222.883 138.321 222.883 138.262V133.788C222.883 133.729 222.86 133.672 222.818 133.63C222.775 133.588 222.718 133.564 222.659 133.564H205.833Z" fill="#3F3D56"/>
<path d="M213.798 121.484C213.201 117.478 213.044 113.419 213.328 109.379L213.798 102.693C211.208 107.83 211.793 114.592 213.798 121.484V121.484Z" fill="#D0CDE1"/>
<path d="M215.816 122.603C215.529 120.212 215.454 117.801 215.59 115.397L215.816 111.417C214.571 114.475 214.852 118.5 215.816 122.603Z" fill="#D0CDE1"/>
</g>
<defs>
<clipPath id="clip0">
<rect width="247" height="149" fill="white"/>
</clipPath>
</defs>
</svg>
