<svg width="348" height="126" viewBox="0 0 348 126" fill="none" xmlns="http://www.w3.org/2000/svg">
<path d="M182.5 125.5L213 7H348V125.5H182.5Z" fill="#DB00FF"/>
<path d="M2.43 60.245C2.43 54.575 3.564 49.526 5.832 45.098C8.154 40.67 11.448 37.241 15.714 34.811C19.98 32.327 25.002 31.085 30.78 31.085C35.748 31.085 40.176 32.03 44.064 33.92C48.006 35.756 51.192 38.375 53.622 41.777C56.106 45.179 57.753 49.148 58.563 53.684H39.609C38.745 51.794 37.503 50.336 35.883 49.31C34.317 48.23 32.508 47.69 30.456 47.69C27.432 47.69 25.029 48.824 23.247 51.092C21.519 53.36 20.655 56.411 20.655 60.245C20.655 64.079 21.519 67.13 23.247 69.398C25.029 71.666 27.432 72.8 30.456 72.8C32.508 72.8 34.317 72.287 35.883 71.261C37.503 70.181 38.745 68.696 39.609 66.806H58.563C57.753 71.342 56.106 75.311 53.622 78.713C51.192 82.115 48.006 84.761 44.064 86.651C40.176 88.487 35.748 89.405 30.78 89.405C25.002 89.405 19.98 88.19 15.714 85.76C11.448 83.276 8.154 79.82 5.832 75.392C3.564 70.964 2.43 65.915 2.43 60.245ZM86.7453 89.567C82.1553 89.567 78.0243 88.622 74.3523 86.732C70.6803 84.842 67.7913 82.142 65.6853 78.632C63.6333 75.068 62.6073 70.91 62.6073 66.158C62.6073 61.406 63.6333 57.275 65.6853 53.765C67.7913 50.201 70.6803 47.474 74.3523 45.584C78.0243 43.694 82.1553 42.749 86.7453 42.749C91.3353 42.749 95.4663 43.694 99.1383 45.584C102.81 47.474 105.672 50.201 107.724 53.765C109.83 57.275 110.883 61.406 110.883 66.158C110.883 70.91 109.83 75.068 107.724 78.632C105.672 82.142 102.81 84.842 99.1383 86.732C95.4663 88.622 91.3353 89.567 86.7453 89.567ZM86.7453 74.015C88.4193 74.015 89.8233 73.367 90.9573 72.071C92.0913 70.721 92.6583 68.75 92.6583 66.158C92.6583 63.566 92.0913 61.622 90.9573 60.326C89.8233 58.976 88.4193 58.301 86.7453 58.301C85.0713 58.301 83.6673 58.976 82.5333 60.326C81.3993 61.622 80.8323 63.566 80.8323 66.158C80.8323 68.75 81.3723 70.721 82.4523 72.071C83.5863 73.367 85.0173 74.015 86.7453 74.015ZM148.527 42.992C153.765 42.992 157.842 44.747 160.758 48.257C163.728 51.767 165.213 56.519 165.213 62.513V89H147.312V64.781C147.312 62.621 146.718 60.92 145.53 59.678C144.396 58.382 142.857 57.734 140.913 57.734C138.915 57.734 137.349 58.382 136.215 59.678C135.081 60.92 134.514 62.621 134.514 64.781V89H116.532V43.316H134.514V50.282C135.918 48.122 137.781 46.367 140.103 45.017C142.479 43.667 145.287 42.992 148.527 42.992ZM196.177 71.909L203.467 43.316H222.583L207.355 89H184.918L169.69 43.316H188.806L196.177 71.909Z" fill="black"/>
<path d="M271.58 65.753C271.58 66.995 271.499 68.183 271.337 69.317H242.42C242.69 73.259 244.337 75.23 247.361 75.23C249.305 75.23 250.709 74.339 251.573 72.557H270.608C269.96 75.797 268.583 78.713 266.477 81.305C264.425 83.843 261.806 85.868 258.62 87.38C255.488 88.838 252.032 89.567 248.252 89.567C243.716 89.567 239.666 88.622 236.102 86.732C232.592 84.842 229.838 82.142 227.84 78.632C225.896 75.068 224.924 70.91 224.924 66.158C224.924 61.406 225.896 57.275 227.84 53.765C229.838 50.201 232.592 47.474 236.102 45.584C239.666 43.694 243.716 42.749 248.252 42.749C252.788 42.749 256.811 43.694 260.321 45.584C263.885 47.42 266.639 50.066 268.583 53.522C270.581 56.978 271.58 61.055 271.58 65.753ZM253.355 61.46C253.355 59.948 252.869 58.814 251.897 58.058C250.925 57.248 249.71 56.843 248.252 56.843C245.066 56.843 243.203 58.382 242.663 61.46H253.355ZM295.249 51.74C297.085 49.094 299.326 46.988 301.972 45.422C304.618 43.802 307.372 42.992 310.234 42.992V62.189H305.131C301.729 62.189 299.218 62.783 297.598 63.971C296.032 65.159 295.249 67.265 295.249 70.289V89H277.267V43.316H295.249V51.74ZM343.508 73.691V89H336.704C324.176 89 317.912 82.763 317.912 70.289V58.301H312.242V43.316H317.912V32.3H335.894V43.316H343.346V58.301H335.894V70.613C335.894 71.693 336.137 72.476 336.623 72.962C337.163 73.448 338.027 73.691 339.215 73.691H343.508Z" fill="white"/>
<mask id="mask0" mask-type="alpha" maskUnits="userSpaceOnUse" x="183" y="8" width="165" height="115">
<path d="M183 123L212.5 8H348V123H183Z" fill="black"/>
</mask>
<g mask="url(#mask0)">
<path d="M2.43 60.245C2.43 54.575 3.564 49.526 5.832 45.098C8.154 40.67 11.448 37.241 15.714 34.811C19.98 32.327 25.002 31.085 30.78 31.085C35.748 31.085 40.176 32.03 44.064 33.92C48.006 35.756 51.192 38.375 53.622 41.777C56.106 45.179 57.753 49.148 58.563 53.684H39.609C38.745 51.794 37.503 50.336 35.883 49.31C34.317 48.23 32.508 47.69 30.456 47.69C27.432 47.69 25.029 48.824 23.247 51.092C21.519 53.36 20.655 56.411 20.655 60.245C20.655 64.079 21.519 67.13 23.247 69.398C25.029 71.666 27.432 72.8 30.456 72.8C32.508 72.8 34.317 72.287 35.883 71.261C37.503 70.181 38.745 68.696 39.609 66.806H58.563C57.753 71.342 56.106 75.311 53.622 78.713C51.192 82.115 48.006 84.761 44.064 86.651C40.176 88.487 35.748 89.405 30.78 89.405C25.002 89.405 19.98 88.19 15.714 85.76C11.448 83.276 8.154 79.82 5.832 75.392C3.564 70.964 2.43 65.915 2.43 60.245ZM86.7453 89.567C82.1553 89.567 78.0243 88.622 74.3523 86.732C70.6803 84.842 67.7913 82.142 65.6853 78.632C63.6333 75.068 62.6073 70.91 62.6073 66.158C62.6073 61.406 63.6333 57.275 65.6853 53.765C67.7913 50.201 70.6803 47.474 74.3523 45.584C78.0243 43.694 82.1553 42.749 86.7453 42.749C91.3353 42.749 95.4663 43.694 99.1383 45.584C102.81 47.474 105.672 50.201 107.724 53.765C109.83 57.275 110.883 61.406 110.883 66.158C110.883 70.91 109.83 75.068 107.724 78.632C105.672 82.142 102.81 84.842 99.1383 86.732C95.4663 88.622 91.3353 89.567 86.7453 89.567ZM86.7453 74.015C88.4193 74.015 89.8233 73.367 90.9573 72.071C92.0913 70.721 92.6583 68.75 92.6583 66.158C92.6583 63.566 92.0913 61.622 90.9573 60.326C89.8233 58.976 88.4193 58.301 86.7453 58.301C85.0713 58.301 83.6673 58.976 82.5333 60.326C81.3993 61.622 80.8323 63.566 80.8323 66.158C80.8323 68.75 81.3723 70.721 82.4523 72.071C83.5863 73.367 85.0173 74.015 86.7453 74.015ZM148.527 42.992C153.765 42.992 157.842 44.747 160.758 48.257C163.728 51.767 165.213 56.519 165.213 62.513V89H147.312V64.781C147.312 62.621 146.718 60.92 145.53 59.678C144.396 58.382 142.857 57.734 140.913 57.734C138.915 57.734 137.349 58.382 136.215 59.678C135.081 60.92 134.514 62.621 134.514 64.781V89H116.532V43.316H134.514V50.282C135.918 48.122 137.781 46.367 140.103 45.017C142.479 43.667 145.287 42.992 148.527 42.992ZM196.177 71.909L203.467 43.316H222.583L207.355 89H184.918L169.69 43.316H188.806L196.177 71.909ZM271.58 65.753C271.58 66.995 271.499 68.183 271.337 69.317H242.42C242.69 73.259 244.337 75.23 247.361 75.23C249.305 75.23 250.709 74.339 251.573 72.557H270.608C269.96 75.797 268.583 78.713 266.477 81.305C264.425 83.843 261.806 85.868 258.62 87.38C255.488 88.838 252.032 89.567 248.252 89.567C243.716 89.567 239.666 88.622 236.102 86.732C232.592 84.842 229.838 82.142 227.84 78.632C225.896 75.068 224.924 70.91 224.924 66.158C224.924 61.406 225.896 57.275 227.84 53.765C229.838 50.201 232.592 47.474 236.102 45.584C239.666 43.694 243.716 42.749 248.252 42.749C252.788 42.749 256.811 43.694 260.321 45.584C263.885 47.42 266.639 50.066 268.583 53.522C270.581 56.978 271.58 61.055 271.58 65.753ZM253.355 61.46C253.355 59.948 252.869 58.814 251.897 58.058C250.925 57.248 249.71 56.843 248.252 56.843C245.066 56.843 243.203 58.382 242.663 61.46H253.355ZM295.249 51.74C297.085 49.094 299.326 46.988 301.972 45.422C304.618 43.802 307.372 42.992 310.234 42.992V62.189H305.131C301.729 62.189 299.218 62.783 297.598 63.971C296.032 65.159 295.249 67.265 295.249 70.289V89H277.267V43.316H295.249V51.74ZM343.508 73.691V89H336.704C324.176 89 317.912 82.763 317.912 70.289V58.301H312.242V43.316H317.912V32.3H335.894V43.316H343.346V58.301H335.894V70.613C335.894 71.693 336.137 72.476 336.623 72.962C337.163 73.448 338.027 73.691 339.215 73.691H343.508Z" fill="white"/>
</g>
</svg>
