<svg width="361" height="457" viewBox="0 0 361 457" fill="none" xmlns="http://www.w3.org/2000/svg">
<path d="M191.5 317L213 234L361.5 -334V456.5L191.5 317Z" fill="url(#paint0_linear)"/>
<path d="M2.43 287.245C2.43 281.575 3.564 276.526 5.832 272.098C8.154 267.67 11.448 264.241 15.714 261.811C19.98 259.327 25.002 258.085 30.78 258.085C35.748 258.085 40.176 259.03 44.064 260.92C48.006 262.756 51.192 265.375 53.622 268.777C56.106 272.179 57.753 276.148 58.563 280.684H39.609C38.745 278.794 37.503 277.336 35.883 276.31C34.317 275.23 32.508 274.69 30.456 274.69C27.432 274.69 25.029 275.824 23.247 278.092C21.519 280.36 20.655 283.411 20.655 287.245C20.655 291.079 21.519 294.13 23.247 296.398C25.029 298.666 27.432 299.8 30.456 299.8C32.508 299.8 34.317 299.287 35.883 298.261C37.503 297.181 38.745 295.696 39.609 293.806H58.563C57.753 298.342 56.106 302.311 53.622 305.713C51.192 309.115 48.006 311.761 44.064 313.651C40.176 315.487 35.748 316.405 30.78 316.405C25.002 316.405 19.98 315.19 15.714 312.76C11.448 310.276 8.154 306.82 5.832 302.392C3.564 297.964 2.43 292.915 2.43 287.245ZM86.7453 316.567C82.1553 316.567 78.0243 315.622 74.3523 313.732C70.6803 311.842 67.7913 309.142 65.6853 305.632C63.6333 302.068 62.6073 297.91 62.6073 293.158C62.6073 288.406 63.6333 284.275 65.6853 280.765C67.7913 277.201 70.6803 274.474 74.3523 272.584C78.0243 270.694 82.1553 269.749 86.7453 269.749C91.3353 269.749 95.4663 270.694 99.1383 272.584C102.81 274.474 105.672 277.201 107.724 280.765C109.83 284.275 110.883 288.406 110.883 293.158C110.883 297.91 109.83 302.068 107.724 305.632C105.672 309.142 102.81 311.842 99.1383 313.732C95.4663 315.622 91.3353 316.567 86.7453 316.567ZM86.7453 301.015C88.4193 301.015 89.8233 300.367 90.9573 299.071C92.0913 297.721 92.6583 295.75 92.6583 293.158C92.6583 290.566 92.0913 288.622 90.9573 287.326C89.8233 285.976 88.4193 285.301 86.7453 285.301C85.0713 285.301 83.6673 285.976 82.5333 287.326C81.3993 288.622 80.8323 290.566 80.8323 293.158C80.8323 295.75 81.3723 297.721 82.4523 299.071C83.5863 300.367 85.0173 301.015 86.7453 301.015ZM148.527 269.992C153.765 269.992 157.842 271.747 160.758 275.257C163.728 278.767 165.213 283.519 165.213 289.513V316H147.312V291.781C147.312 289.621 146.718 287.92 145.53 286.678C144.396 285.382 142.857 284.734 140.913 284.734C138.915 284.734 137.349 285.382 136.215 286.678C135.081 287.92 134.514 289.621 134.514 291.781V316H116.532V270.316H134.514V277.282C135.918 275.122 137.781 273.367 140.103 272.017C142.479 270.667 145.287 269.992 148.527 269.992ZM196.177 298.909L203.467 270.316H222.583L207.355 316H184.918L169.69 270.316H188.806L196.177 298.909Z" fill="#222222"/>
<path d="M271.58 292.753C271.58 293.995 271.499 295.183 271.337 296.317H242.42C242.69 300.259 244.337 302.23 247.361 302.23C249.305 302.23 250.709 301.339 251.573 299.557H270.608C269.96 302.797 268.583 305.713 266.477 308.305C264.425 310.843 261.806 312.868 258.62 314.38C255.488 315.838 252.032 316.567 248.252 316.567C243.716 316.567 239.666 315.622 236.102 313.732C232.592 311.842 229.838 309.142 227.84 305.632C225.896 302.068 224.924 297.91 224.924 293.158C224.924 288.406 225.896 284.275 227.84 280.765C229.838 277.201 232.592 274.474 236.102 272.584C239.666 270.694 243.716 269.749 248.252 269.749C252.788 269.749 256.811 270.694 260.321 272.584C263.885 274.42 266.639 277.066 268.583 280.522C270.581 283.978 271.58 288.055 271.58 292.753ZM253.355 288.46C253.355 286.948 252.869 285.814 251.897 285.058C250.925 284.248 249.71 283.843 248.252 283.843C245.066 283.843 243.203 285.382 242.663 288.46H253.355ZM295.249 278.74C297.085 276.094 299.326 273.988 301.972 272.422C304.618 270.802 307.372 269.992 310.234 269.992V289.189H305.131C301.729 289.189 299.218 289.783 297.598 290.971C296.032 292.159 295.249 294.265 295.249 297.289V316H277.267V270.316H295.249V278.74ZM343.508 300.691V316H336.704C324.176 316 317.912 309.763 317.912 297.289V285.301H312.242V270.316H317.912V259.3H335.894V270.316H343.346V285.301H335.894V297.613C335.894 298.693 336.137 299.476 336.623 299.962C337.163 300.448 338.027 300.691 339.215 300.691H343.508Z" fill="#819E09"/>
<path d="M5.832 272.098L4.94634 271.634L4.94196 271.642L5.832 272.098ZM15.714 261.811L16.209 262.68L16.2172 262.675L15.714 261.811ZM44.064 260.92L43.6268 261.819L43.6343 261.823L43.6418 261.826L44.064 260.92ZM53.622 268.777L52.8082 269.358L52.8144 269.367L53.622 268.777ZM58.563 280.684V281.684H59.7574L59.5474 280.508L58.563 280.684ZM39.609 280.684L38.6995 281.1L38.9666 281.684H39.609V280.684ZM35.883 276.31L35.3153 277.133L35.3314 277.144L35.3479 277.155L35.883 276.31ZM23.247 278.092L22.4607 277.474L22.4561 277.48L22.4516 277.486L23.247 278.092ZM23.247 296.398L22.4516 297.004L22.4561 297.01L22.4607 297.016L23.247 296.398ZM35.883 298.261L36.431 299.097L36.4377 299.093L35.883 298.261ZM39.609 293.806V292.806H38.9666L38.6995 293.39L39.609 293.806ZM58.563 293.806L59.5474 293.982L59.7574 292.806H58.563V293.806ZM53.622 305.713L52.8143 305.123L52.8083 305.132L53.622 305.713ZM44.064 313.651L44.491 314.555L44.4963 314.553L44.064 313.651ZM15.714 312.76L15.2108 313.624L15.219 313.629L15.714 312.76ZM5.832 302.392L4.94192 302.848L4.94638 302.856L5.832 302.392ZM3.43 287.245C3.43 281.711 4.53583 276.822 6.72204 272.554L4.94196 271.642C2.59217 276.23 1.43 281.439 1.43 287.245H3.43ZM6.71762 272.562C8.9525 268.301 12.1124 265.013 16.209 262.68L15.219 260.942C10.7836 263.469 7.3555 267.039 4.94638 271.634L6.71762 272.562ZM16.2172 262.675C20.3061 260.294 25.1484 259.085 30.78 259.085V257.085C24.8556 257.085 19.6539 258.36 15.2108 260.947L16.2172 262.675ZM30.78 259.085C35.6191 259.085 39.894 260.005 43.6268 261.819L44.5012 260.021C40.458 258.055 35.8769 257.085 30.78 257.085V259.085ZM43.6418 261.826C47.434 263.593 50.4827 266.102 52.8083 269.358L54.4357 268.196C51.9014 264.648 48.5781 261.919 44.4862 260.014L43.6418 261.826ZM52.8144 269.367C55.2006 272.635 56.7927 276.459 57.5786 280.86L59.5474 280.508C58.7133 275.837 57.0114 271.723 54.4296 268.187L52.8144 269.367ZM58.563 279.684H39.609V281.684H58.563V279.684ZM40.5185 280.268C39.5809 278.217 38.2155 276.604 36.4181 275.465L35.3479 277.155C36.7905 278.068 37.9091 279.371 38.6995 281.1L40.5185 280.268ZM36.4507 275.487C34.7045 274.282 32.694 273.69 30.456 273.69V275.69C32.322 275.69 33.9295 276.178 35.3153 277.133L36.4507 275.487ZM30.456 273.69C27.1424 273.69 24.4427 274.952 22.4607 277.474L24.0333 278.71C25.6153 276.696 27.7216 275.69 30.456 275.69V273.69ZM22.4516 277.486C20.5517 279.98 19.655 283.267 19.655 287.245H21.655C21.655 283.555 22.4863 280.74 24.0424 278.698L22.4516 277.486ZM19.655 287.245C19.655 291.223 20.5517 294.51 22.4516 297.004L24.0424 295.792C22.4863 293.75 21.655 290.935 21.655 287.245H19.655ZM22.4607 297.016C24.4427 299.538 27.1424 300.8 30.456 300.8V298.8C27.7216 298.8 25.6153 297.794 24.0333 295.78L22.4607 297.016ZM30.456 300.8C32.6832 300.8 34.6866 300.24 36.431 299.097L35.335 297.425C33.9474 298.334 32.3328 298.8 30.456 298.8V300.8ZM36.4377 299.093C38.2229 297.903 39.5826 296.269 40.5185 294.222L38.6995 293.39C37.9074 295.123 36.7831 296.459 35.3283 297.429L36.4377 299.093ZM39.609 294.806H58.563V292.806H39.609V294.806ZM57.5786 293.63C56.7927 298.031 55.2006 301.855 52.8144 305.123L54.4296 306.303C57.0114 302.767 58.7133 298.653 59.5474 293.982L57.5786 293.63ZM52.8083 305.132C50.4809 308.39 47.4287 310.929 43.6317 312.749L44.4963 314.553C48.5833 312.593 51.9031 309.84 54.4357 306.294L52.8083 305.132ZM43.637 312.747C39.9018 314.511 35.6232 315.405 30.78 315.405V317.405C35.8728 317.405 40.4502 316.463 44.491 314.555L43.637 312.747ZM30.78 315.405C25.1447 315.405 20.2994 314.221 16.209 311.891L15.219 313.629C19.6606 316.159 24.8593 317.405 30.78 317.405V315.405ZM16.2172 311.896C12.1159 309.508 8.95346 306.191 6.71762 301.928L4.94638 302.856C7.35454 307.449 10.7801 311.044 15.2108 313.624L16.2172 311.896ZM6.72204 301.936C4.53584 297.668 3.43 292.779 3.43 287.245H1.43C1.43 293.051 2.59217 298.26 4.94196 302.848L6.72204 301.936ZM74.3523 313.732L74.81 312.843L74.3523 313.732ZM65.6853 305.632L64.8187 306.131L64.8232 306.139L64.8278 306.146L65.6853 305.632ZM65.6853 280.765L64.8244 280.256L64.822 280.26L65.6853 280.765ZM74.3523 272.584L74.81 273.473L74.3523 272.584ZM99.1383 272.584L98.6807 273.473L99.1383 272.584ZM107.724 280.765L106.858 281.264L106.862 281.272L106.867 281.279L107.724 280.765ZM107.724 305.632L106.863 305.123L106.861 305.127L107.724 305.632ZM99.1383 313.732L98.6807 312.843L99.1383 313.732ZM90.9573 299.071L91.7099 299.73L91.7165 299.722L91.723 299.714L90.9573 299.071ZM90.9573 287.326L90.1916 287.969L90.1981 287.977L90.2047 287.985L90.9573 287.326ZM82.5333 287.326L83.2859 287.985L83.2925 287.977L83.299 287.969L82.5333 287.326ZM82.4523 299.071L81.6714 299.696L81.6852 299.713L81.6997 299.73L82.4523 299.071ZM86.7453 315.567C82.2965 315.567 78.3252 314.652 74.81 312.843L73.8947 314.621C77.7234 316.592 82.0141 317.567 86.7453 317.567V315.567ZM74.81 312.843C71.3019 311.037 68.5521 308.466 66.5428 305.118L64.8278 306.146C67.0305 309.818 70.0587 312.647 73.8947 314.621L74.81 312.843ZM66.5519 305.133C64.6001 301.743 63.6073 297.762 63.6073 293.158H61.6073C61.6073 298.058 62.6665 302.393 64.8187 306.131L66.5519 305.133ZM63.6073 293.158C63.6073 288.553 64.6002 284.602 66.5486 281.27L64.822 280.26C62.6664 283.948 61.6073 288.259 61.6073 293.158H63.6073ZM66.5462 281.274C68.5566 277.872 71.306 275.277 74.81 273.473L73.8947 271.695C70.0546 273.671 67.026 276.53 64.8244 280.256L66.5462 281.274ZM74.81 273.473C78.3252 271.664 82.2965 270.749 86.7453 270.749V268.749C82.0141 268.749 77.7234 269.724 73.8947 271.695L74.81 273.473ZM86.7453 270.749C91.1941 270.749 95.1654 271.664 98.6807 273.473L99.5959 271.695C95.7672 269.724 91.4765 268.749 86.7453 268.749V270.749ZM98.6807 273.473C102.182 275.276 104.902 277.867 106.858 281.264L108.591 280.266C106.443 276.535 103.438 273.672 99.5959 271.695L98.6807 273.473ZM106.867 281.279C108.865 284.611 109.883 288.558 109.883 293.158H111.883C111.883 288.254 110.795 283.939 108.582 280.25L106.867 281.279ZM109.883 293.158C109.883 297.758 108.866 301.735 106.863 305.123L108.585 306.141C110.795 302.401 111.883 298.062 111.883 293.158H109.883ZM106.861 305.127C104.907 308.47 102.186 311.038 98.6807 312.843L99.5959 314.621C103.434 312.646 106.438 309.814 108.588 306.137L106.861 305.127ZM98.6807 312.843C95.1654 314.652 91.1941 315.567 86.7453 315.567V317.567C91.4765 317.567 95.7672 316.592 99.5959 314.621L98.6807 312.843ZM86.7453 302.015C88.717 302.015 90.3922 301.235 91.7099 299.73L90.2047 298.412C89.2544 299.499 88.1216 300.015 86.7453 300.015V302.015ZM91.723 299.714C93.0655 298.116 93.6583 295.878 93.6583 293.158H91.6583C91.6583 295.622 91.1171 297.326 90.1916 298.428L91.723 299.714ZM93.6583 293.158C93.6583 290.442 93.0671 288.219 91.7099 286.667L90.2047 287.985C91.1155 289.025 91.6583 290.69 91.6583 293.158H93.6583ZM91.723 286.683C90.4106 285.12 88.7322 284.301 86.7453 284.301V286.301C88.1064 286.301 89.236 286.832 90.1916 287.969L91.723 286.683ZM86.7453 284.301C84.7584 284.301 83.08 285.12 81.7676 286.683L83.299 287.969C84.2546 286.832 85.3842 286.301 86.7453 286.301V284.301ZM81.7807 286.667C80.4235 288.219 79.8323 290.442 79.8323 293.158H81.8323C81.8323 290.69 82.3751 289.025 83.2859 287.985L81.7807 286.667ZM79.8323 293.158C79.8323 295.868 80.394 298.099 81.6714 299.696L83.2332 298.446C82.3506 297.343 81.8323 295.632 81.8323 293.158H79.8323ZM81.6997 299.73C83.0244 301.243 84.7301 302.015 86.7453 302.015V300.015C85.3045 300.015 84.1482 299.491 83.2049 298.412L81.6997 299.73ZM160.758 275.257L159.989 275.896L159.995 275.903L160.758 275.257ZM165.213 316V317H166.213V316H165.213ZM147.312 316H146.312V317H147.312V316ZM145.53 286.678L144.778 287.337L144.792 287.353L144.808 287.369L145.53 286.678ZM136.215 286.678L136.954 287.352L136.961 287.344L136.968 287.337L136.215 286.678ZM134.514 316V317H135.514V316H134.514ZM116.532 316H115.532V317H116.532V316ZM116.532 270.316V269.316H115.532V270.316H116.532ZM134.514 270.316H135.514V269.316H134.514V270.316ZM134.514 277.282H133.514V280.655L135.353 277.827L134.514 277.282ZM140.103 272.017L139.609 271.147L139.601 271.152L140.103 272.017ZM148.527 270.992C153.517 270.992 157.293 272.65 159.989 275.896L161.528 274.618C158.392 270.844 154.014 268.992 148.527 268.992V270.992ZM159.995 275.903C162.771 279.184 164.213 283.683 164.213 289.513H166.213C166.213 283.355 164.686 278.35 161.522 274.611L159.995 275.903ZM164.213 289.513V316H166.213V289.513H164.213ZM165.213 315H147.312V317H165.213V315ZM148.312 316V291.781H146.312V316H148.312ZM148.312 291.781C148.312 289.433 147.662 287.46 146.253 285.987L144.808 287.369C145.775 288.38 146.312 289.809 146.312 291.781H148.312ZM146.283 286.019C144.933 284.477 143.104 283.734 140.913 283.734V285.734C142.61 285.734 143.859 286.287 144.778 287.337L146.283 286.019ZM140.913 283.734C138.678 283.734 136.818 284.471 135.463 286.019L136.968 287.337C137.881 286.293 139.153 285.734 140.913 285.734V283.734ZM135.477 286.004C134.131 287.478 133.514 289.445 133.514 291.781H135.514C135.514 289.797 136.032 288.362 136.954 287.352L135.477 286.004ZM133.514 291.781V316H135.514V291.781H133.514ZM134.514 315H116.532V317H134.514V315ZM117.532 316V270.316H115.532V316H117.532ZM116.532 271.316H134.514V269.316H116.532V271.316ZM133.514 270.316V277.282H135.514V270.316H133.514ZM135.353 277.827C136.668 275.804 138.414 274.156 140.606 272.882L139.601 271.152C137.149 272.578 135.169 274.44 133.676 276.737L135.353 277.827ZM140.597 272.886C142.797 271.637 145.428 270.992 148.527 270.992V268.992C145.146 268.992 142.162 269.697 139.609 271.148L140.597 272.886ZM196.177 298.909L195.209 299.159L197.146 299.156L196.177 298.909ZM203.467 270.316V269.316H202.69L202.498 270.069L203.467 270.316ZM222.583 270.316L223.532 270.632L223.97 269.316H222.583V270.316ZM207.355 316V317H208.076L208.304 316.316L207.355 316ZM184.918 316L183.969 316.316L184.197 317H184.918V316ZM169.69 270.316V269.316H168.303L168.741 270.632L169.69 270.316ZM188.806 270.316L189.774 270.066L189.581 269.316H188.806V270.316ZM197.146 299.156L204.436 270.563L202.498 270.069L195.208 298.662L197.146 299.156ZM203.467 271.316H222.583V269.316H203.467V271.316ZM221.634 270L206.406 315.684L208.304 316.316L223.532 270.632L221.634 270ZM207.355 315H184.918V317H207.355V315ZM185.867 315.684L170.639 270L168.741 270.632L183.969 316.316L185.867 315.684ZM169.69 271.316H188.806V269.316H169.69V271.316ZM187.838 270.566L195.209 299.159L197.145 298.659L189.774 270.066L187.838 270.566ZM271.337 296.317V297.317H272.204L272.327 296.458L271.337 296.317ZM242.42 296.317V295.317H241.349L241.422 296.385L242.42 296.317ZM251.573 299.557V298.557H250.946L250.673 299.121L251.573 299.557ZM270.608 299.557L271.588 299.753L271.828 298.557H270.608V299.557ZM266.477 308.305L265.701 307.674L265.699 307.676L266.477 308.305ZM258.62 314.38L259.042 315.287L259.048 315.283L258.62 314.38ZM236.102 313.732L235.628 314.612L235.633 314.615L236.102 313.732ZM227.84 305.632L226.962 306.111L226.966 306.119L226.971 306.127L227.84 305.632ZM227.84 280.765L226.967 280.276L226.965 280.28L227.84 280.765ZM236.102 272.584L235.633 271.701L235.628 271.704L236.102 272.584ZM260.321 272.584L259.847 273.464L259.855 273.469L259.863 273.473L260.321 272.584ZM268.583 280.522L267.711 281.012L267.717 281.023L268.583 280.522ZM253.355 288.46V289.46H254.355V288.46H253.355ZM251.897 285.058L251.257 285.826L251.269 285.837L251.283 285.847L251.897 285.058ZM242.663 288.46L241.678 288.287L241.472 289.46H242.663V288.46ZM270.58 292.753C270.58 293.952 270.502 295.092 270.347 296.176L272.327 296.458C272.496 295.274 272.58 294.038 272.58 292.753H270.58ZM271.337 295.317H242.42V297.317H271.337V295.317ZM241.422 296.385C241.564 298.461 242.076 300.18 243.09 301.393C244.138 302.647 245.611 303.23 247.361 303.23V301.23C246.087 301.23 245.224 300.827 244.625 300.111C243.992 299.353 243.545 298.115 243.417 296.249L241.422 296.385ZM247.361 303.23C248.49 303.23 249.52 302.969 250.408 302.406C251.294 301.843 251.975 301.019 252.473 299.993L250.673 299.121C250.306 299.877 249.853 300.389 249.336 300.717C248.82 301.045 248.176 301.23 247.361 301.23V303.23ZM251.573 300.557H270.608V298.557H251.573V300.557ZM269.627 299.361C269.011 302.44 267.705 305.207 265.701 307.674L267.253 308.936C269.46 306.219 270.908 303.154 271.588 299.753L269.627 299.361ZM265.699 307.676C263.749 310.089 261.253 312.024 258.191 313.477L259.048 315.283C262.359 313.712 265.101 311.597 267.254 308.934L265.699 307.676ZM258.198 313.473C255.21 314.864 251.9 315.567 248.252 315.567V317.567C252.164 317.567 255.766 316.812 259.042 315.287L258.198 313.473ZM248.252 315.567C243.858 315.567 239.973 314.653 236.57 312.849L235.633 314.615C239.359 316.591 243.573 317.567 248.252 317.567V315.567ZM236.576 312.852C233.233 311.052 230.615 308.486 228.709 305.137L226.971 306.127C229.06 309.798 231.95 312.632 235.628 314.612L236.576 312.852ZM228.718 305.153C226.866 301.759 225.924 297.771 225.924 293.158H223.924C223.924 298.049 224.925 302.377 226.962 306.111L228.718 305.153ZM225.924 293.158C225.924 288.544 226.867 284.586 228.715 281.249L226.965 280.28C224.925 283.964 223.924 288.268 223.924 293.158H225.924ZM228.712 281.254C230.62 277.851 233.237 275.262 236.576 273.464L235.628 271.704C231.946 273.686 229.056 276.551 226.967 280.276L228.712 281.254ZM236.57 273.467C239.973 271.663 243.858 270.749 248.252 270.749V268.749C243.573 268.749 239.359 269.725 235.633 271.701L236.57 273.467ZM248.252 270.749C252.645 270.749 256.501 271.663 259.847 273.464L260.795 271.704C257.12 269.725 252.93 268.749 248.252 268.749V270.749ZM259.863 273.473C263.255 275.22 265.864 277.729 267.711 281.012L269.454 280.032C267.413 276.403 264.515 273.62 260.779 271.695L259.863 273.473ZM267.717 281.023C269.613 284.301 270.58 288.199 270.58 292.753H272.58C272.58 287.911 271.549 283.655 269.448 280.021L267.717 281.023ZM254.355 288.46C254.355 286.717 253.782 285.257 252.511 284.269L251.283 285.847C251.956 286.371 252.355 287.179 252.355 288.46H254.355ZM252.537 284.29C251.358 283.308 249.906 282.843 248.252 282.843V284.843C249.513 284.843 250.491 285.188 251.257 285.826L252.537 284.29ZM248.252 282.843C246.501 282.843 244.989 283.267 243.828 284.226C242.665 285.187 241.977 286.584 241.678 288.287L243.648 288.633C243.889 287.258 244.402 286.346 245.102 285.768C245.804 285.188 246.816 284.843 248.252 284.843V282.843ZM242.663 289.46H253.355V287.46H242.663V289.46ZM295.249 278.74H294.249V281.935L296.07 279.31L295.249 278.74ZM301.972 272.422L302.481 273.283L302.488 273.279L302.494 273.275L301.972 272.422ZM310.234 269.992H311.234V268.992H310.234V269.992ZM310.234 289.189V290.189H311.234V289.189H310.234ZM297.598 290.971L297.006 290.165L297 290.169L296.993 290.174L297.598 290.971ZM295.249 316V317H296.249V316H295.249ZM277.267 316H276.267V317H277.267V316ZM277.267 270.316V269.316H276.267V270.316H277.267ZM295.249 270.316H296.249V269.316H295.249V270.316ZM296.07 279.31C297.828 276.777 299.965 274.772 302.481 273.283L301.462 271.561C298.687 273.204 296.341 275.411 294.427 278.17L296.07 279.31ZM302.494 273.275C304.996 271.743 307.572 270.992 310.234 270.992V268.992C307.172 268.992 304.239 269.861 301.45 271.569L302.494 273.275ZM309.234 269.992V289.189H311.234V269.992H309.234ZM310.234 288.189H305.131V290.189H310.234V288.189ZM305.131 288.189C301.649 288.189 298.881 288.79 297.006 290.165L298.189 291.777C299.555 290.776 301.809 290.189 305.131 290.189V288.189ZM296.993 290.174C295.067 291.636 294.249 294.125 294.249 297.289H296.249C296.249 294.405 296.996 292.682 298.202 291.768L296.993 290.174ZM294.249 297.289V316H296.249V297.289H294.249ZM295.249 315H277.267V317H295.249V315ZM278.267 316V270.316H276.267V316H278.267ZM277.267 271.316H295.249V269.316H277.267V271.316ZM294.249 270.316V278.74H296.249V270.316H294.249ZM343.508 300.691H344.508V299.691H343.508V300.691ZM343.508 316V317H344.508V316H343.508ZM317.912 285.301H318.912V284.301H317.912V285.301ZM312.242 285.301H311.242V286.301H312.242V285.301ZM312.242 270.316V269.316H311.242V270.316H312.242ZM317.912 270.316V271.316H318.912V270.316H317.912ZM317.912 259.3V258.3H316.912V259.3H317.912ZM335.894 259.3H336.894V258.3H335.894V259.3ZM335.894 270.316H334.894V271.316H335.894V270.316ZM343.346 270.316H344.346V269.316H343.346V270.316ZM343.346 285.301V286.301H344.346V285.301H343.346ZM335.894 285.301V284.301H334.894V285.301H335.894ZM336.623 299.962L335.916 300.669L335.935 300.688L335.954 300.705L336.623 299.962ZM342.508 300.691V316H344.508V300.691H342.508ZM343.508 315H336.704V317H343.508V315ZM336.704 315C330.593 315 326.194 313.479 323.316 310.614C320.439 307.749 318.912 303.371 318.912 297.289H316.912C316.912 303.681 318.518 308.659 321.905 312.031C325.291 315.402 330.287 317 336.704 317V315ZM318.912 297.289V285.301H316.912V297.289H318.912ZM317.912 284.301H312.242V286.301H317.912V284.301ZM313.242 285.301V270.316H311.242V285.301H313.242ZM312.242 271.316H317.912V269.316H312.242V271.316ZM318.912 270.316V259.3H316.912V270.316H318.912ZM317.912 260.3H335.894V258.3H317.912V260.3ZM334.894 259.3V270.316H336.894V259.3H334.894ZM335.894 271.316H343.346V269.316H335.894V271.316ZM342.346 270.316V285.301H344.346V270.316H342.346ZM343.346 284.301H335.894V286.301H343.346V284.301ZM334.894 285.301V297.613H336.894V285.301H334.894ZM334.894 297.613C334.894 298.811 335.16 299.912 335.916 300.669L337.33 299.255C337.115 299.04 336.894 298.575 336.894 297.613H334.894ZM335.954 300.705C336.764 301.434 337.928 301.691 339.215 301.691V299.691C338.127 299.691 337.563 299.462 337.292 299.219L335.954 300.705ZM339.215 301.691H343.508V299.691H339.215V301.691Z" fill="#D5D5D5"/>
<mask id="mask0" mask-type="alpha" maskUnits="userSpaceOnUse" x="183" y="235" width="165" height="115">
<path d="M183 350L212.5 235H348V350H183Z" fill="black"/>
</mask>
<g mask="url(#mask0)">
<path d="M2.43 287.245C2.43 281.575 3.564 276.526 5.832 272.098C8.154 267.67 11.448 264.241 15.714 261.811C19.98 259.327 25.002 258.085 30.78 258.085C35.748 258.085 40.176 259.03 44.064 260.92C48.006 262.756 51.192 265.375 53.622 268.777C56.106 272.179 57.753 276.148 58.563 280.684H39.609C38.745 278.794 37.503 277.336 35.883 276.31C34.317 275.23 32.508 274.69 30.456 274.69C27.432 274.69 25.029 275.824 23.247 278.092C21.519 280.36 20.655 283.411 20.655 287.245C20.655 291.079 21.519 294.13 23.247 296.398C25.029 298.666 27.432 299.8 30.456 299.8C32.508 299.8 34.317 299.287 35.883 298.261C37.503 297.181 38.745 295.696 39.609 293.806H58.563C57.753 298.342 56.106 302.311 53.622 305.713C51.192 309.115 48.006 311.761 44.064 313.651C40.176 315.487 35.748 316.405 30.78 316.405C25.002 316.405 19.98 315.19 15.714 312.76C11.448 310.276 8.154 306.82 5.832 302.392C3.564 297.964 2.43 292.915 2.43 287.245ZM86.7453 316.567C82.1553 316.567 78.0243 315.622 74.3523 313.732C70.6803 311.842 67.7913 309.142 65.6853 305.632C63.6333 302.068 62.6073 297.91 62.6073 293.158C62.6073 288.406 63.6333 284.275 65.6853 280.765C67.7913 277.201 70.6803 274.474 74.3523 272.584C78.0243 270.694 82.1553 269.749 86.7453 269.749C91.3353 269.749 95.4663 270.694 99.1383 272.584C102.81 274.474 105.672 277.201 107.724 280.765C109.83 284.275 110.883 288.406 110.883 293.158C110.883 297.91 109.83 302.068 107.724 305.632C105.672 309.142 102.81 311.842 99.1383 313.732C95.4663 315.622 91.3353 316.567 86.7453 316.567ZM86.7453 301.015C88.4193 301.015 89.8233 300.367 90.9573 299.071C92.0913 297.721 92.6583 295.75 92.6583 293.158C92.6583 290.566 92.0913 288.622 90.9573 287.326C89.8233 285.976 88.4193 285.301 86.7453 285.301C85.0713 285.301 83.6673 285.976 82.5333 287.326C81.3993 288.622 80.8323 290.566 80.8323 293.158C80.8323 295.75 81.3723 297.721 82.4523 299.071C83.5863 300.367 85.0173 301.015 86.7453 301.015ZM148.527 269.992C153.765 269.992 157.842 271.747 160.758 275.257C163.728 278.767 165.213 283.519 165.213 289.513V316H147.312V291.781C147.312 289.621 146.718 287.92 145.53 286.678C144.396 285.382 142.857 284.734 140.913 284.734C138.915 284.734 137.349 285.382 136.215 286.678C135.081 287.92 134.514 289.621 134.514 291.781V316H116.532V270.316H134.514V277.282C135.918 275.122 137.781 273.367 140.103 272.017C142.479 270.667 145.287 269.992 148.527 269.992ZM196.177 298.909L203.467 270.316H222.583L207.355 316H184.918L169.69 270.316H188.806L196.177 298.909ZM271.58 292.753C271.58 293.995 271.499 295.183 271.337 296.317H242.42C242.69 300.259 244.337 302.23 247.361 302.23C249.305 302.23 250.709 301.339 251.573 299.557H270.608C269.96 302.797 268.583 305.713 266.477 308.305C264.425 310.843 261.806 312.868 258.62 314.38C255.488 315.838 252.032 316.567 248.252 316.567C243.716 316.567 239.666 315.622 236.102 313.732C232.592 311.842 229.838 309.142 227.84 305.632C225.896 302.068 224.924 297.91 224.924 293.158C224.924 288.406 225.896 284.275 227.84 280.765C229.838 277.201 232.592 274.474 236.102 272.584C239.666 270.694 243.716 269.749 248.252 269.749C252.788 269.749 256.811 270.694 260.321 272.584C263.885 274.42 266.639 277.066 268.583 280.522C270.581 283.978 271.58 288.055 271.58 292.753ZM253.355 288.46C253.355 286.948 252.869 285.814 251.897 285.058C250.925 284.248 249.71 283.843 248.252 283.843C245.066 283.843 243.203 285.382 242.663 288.46H253.355ZM295.249 278.74C297.085 276.094 299.326 273.988 301.972 272.422C304.618 270.802 307.372 269.992 310.234 269.992V289.189H305.131C301.729 289.189 299.218 289.783 297.598 290.971C296.032 292.159 295.249 294.265 295.249 297.289V316H277.267V270.316H295.249V278.74ZM343.508 300.691V316H336.704C324.176 316 317.912 309.763 317.912 297.289V285.301H312.242V270.316H317.912V259.3H335.894V270.316H343.346V285.301H335.894V297.613C335.894 298.693 336.137 299.476 336.623 299.962C337.163 300.448 338.027 300.691 339.215 300.691H343.508Z" fill="white"/>
</g>
<defs>
<linearGradient id="paint0_linear" x1="276.5" y1="-334" x2="276.5" y2="456.5" gradientUnits="userSpaceOnUse">
<stop stop-color="#F2BB2F"/>
<stop offset="1" stop-color="#F28D2F"/>
</linearGradient>
</defs>
</svg>
