<svg width="348" height="126" viewBox="0 0 348 126" fill="none" xmlns="http://www.w3.org/2000/svg">
<path d="M182.5 125.5L213 7H348V125.5H182.5Z" fill="#DB00FF"/>
<path d="M2.43 60.245C2.43 54.575 3.564 49.526 5.832 45.098C8.154 40.67 11.448 37.241 15.714 34.811C19.98 32.327 25.002 31.085 30.78 31.085C35.748 31.085 40.176 32.03 44.064 33.92C48.006 35.756 51.192 38.375 53.622 41.777C56.106 45.179 57.753 49.148 58.563 53.684H39.609C38.745 51.794 37.503 50.336 35.883 49.31C34.317 48.23 32.508 47.69 30.456 47.69C27.432 47.69 25.029 48.824 23.247 51.092C21.519 53.36 20.655 56.411 20.655 60.245C20.655 64.079 21.519 67.13 23.247 69.398C25.029 71.666 27.432 72.8 30.456 72.8C32.508 72.8 34.317 72.287 35.883 71.261C37.503 70.181 38.745 68.696 39.609 66.806H58.563C57.753 71.342 56.106 75.311 53.622 78.713C51.192 82.115 48.006 84.761 44.064 86.651C40.176 88.487 35.748 89.405 30.78 89.405C25.002 89.405 19.98 88.19 15.714 85.76C11.448 83.276 8.154 79.82 5.832 75.392C3.564 70.964 2.43 65.915 2.43 60.245ZM86.7453 89.567C82.1553 89.567 78.0243 88.622 74.3523 86.732C70.6803 84.842 67.7913 82.142 65.6853 78.632C63.6333 75.068 62.6073 70.91 62.6073 66.158C62.6073 61.406 63.6333 57.275 65.6853 53.765C67.7913 50.201 70.6803 47.474 74.3523 45.584C78.0243 43.694 82.1553 42.749 86.7453 42.749C91.3353 42.749 95.4663 43.694 99.1383 45.584C102.81 47.474 105.672 50.201 107.724 53.765C109.83 57.275 110.883 61.406 110.883 66.158C110.883 70.91 109.83 75.068 107.724 78.632C105.672 82.142 102.81 84.842 99.1383 86.732C95.4663 88.622 91.3353 89.567 86.7453 89.567ZM86.7453 74.015C88.4193 74.015 89.8233 73.367 90.9573 72.071C92.0913 70.721 92.6583 68.75 92.6583 66.158C92.6583 63.566 92.0913 61.622 90.9573 60.326C89.8233 58.976 88.4193 58.301 86.7453 58.301C85.0713 58.301 83.6673 58.976 82.5333 60.326C81.3993 61.622 80.8323 63.566 80.8323 66.158C80.8323 68.75 81.3723 70.721 82.4523 72.071C83.5863 73.367 85.0173 74.015 86.7453 74.015ZM148.527 42.992C153.765 42.992 157.842 44.747 160.758 48.257C163.728 51.767 165.213 56.519 165.213 62.513V89H147.312V64.781C147.312 62.621 146.718 60.92 145.53 59.678C144.396 58.382 142.857 57.734 140.913 57.734C138.915 57.734 137.349 58.382 136.215 59.678C135.081 60.92 134.514 62.621 134.514 64.781V89H116.532V43.316H134.514V50.282C135.918 48.122 137.781 46.367 140.103 45.017C142.479 43.667 145.287 42.992 148.527 42.992ZM196.177 71.909L203.467 43.316H222.583L207.355 89H184.918L169.69 43.316H188.806L196.177 71.909Z" fill="#050505"/>
<path d="M271.58 65.753C271.58 66.995 271.499 68.183 271.337 69.317H242.42C242.69 73.259 244.337 75.23 247.361 75.23C249.305 75.23 250.709 74.339 251.573 72.557H270.608C269.96 75.797 268.583 78.713 266.477 81.305C264.425 83.843 261.806 85.868 258.62 87.38C255.488 88.838 252.032 89.567 248.252 89.567C243.716 89.567 239.666 88.622 236.102 86.732C232.592 84.842 229.838 82.142 227.84 78.632C225.896 75.068 224.924 70.91 224.924 66.158C224.924 61.406 225.896 57.275 227.84 53.765C229.838 50.201 232.592 47.474 236.102 45.584C239.666 43.694 243.716 42.749 248.252 42.749C252.788 42.749 256.811 43.694 260.321 45.584C263.885 47.42 266.639 50.066 268.583 53.522C270.581 56.978 271.58 61.055 271.58 65.753ZM253.355 61.46C253.355 59.948 252.869 58.814 251.897 58.058C250.925 57.248 249.71 56.843 248.252 56.843C245.066 56.843 243.203 58.382 242.663 61.46H253.355ZM295.249 51.74C297.085 49.094 299.326 46.988 301.972 45.422C304.618 43.802 307.372 42.992 310.234 42.992V62.189H305.131C301.729 62.189 299.218 62.783 297.598 63.971C296.032 65.159 295.249 67.265 295.249 70.289V89H277.267V43.316H295.249V51.74ZM343.508 73.691V89H336.704C324.176 89 317.912 82.763 317.912 70.289V58.301H312.242V43.316H317.912V32.3H335.894V43.316H343.346V58.301H335.894V70.613C335.894 71.693 336.137 72.476 336.623 72.962C337.163 73.448 338.027 73.691 339.215 73.691H343.508Z" fill="#819E09"/>
<path d="M5.832 45.098L4.94634 44.6336L4.94196 44.6421L5.832 45.098ZM15.714 34.811L16.209 35.68L16.2172 35.6752L15.714 34.811ZM44.064 33.92L43.6268 34.8194L43.6343 34.823L43.6418 34.8265L44.064 33.92ZM53.622 41.777L52.8082 42.3583L52.8144 42.3667L53.622 41.777ZM58.563 53.684V54.684H59.7574L59.5474 53.5082L58.563 53.684ZM39.609 53.684L38.6995 54.0998L38.9666 54.684H39.609V53.684ZM35.883 49.31L35.3153 50.1332L35.3314 50.1443L35.3479 50.1548L35.883 49.31ZM23.247 51.092L22.4607 50.4742L22.4561 50.48L22.4516 50.486L23.247 51.092ZM23.247 69.398L22.4516 70.004L22.4561 70.01L22.4607 70.0158L23.247 69.398ZM35.883 71.261L36.431 72.0975L36.4377 72.093L35.883 71.261ZM39.609 66.806V65.806H38.9666L38.6995 66.3902L39.609 66.806ZM58.563 66.806L59.5474 66.9818L59.7574 65.806H58.563V66.806ZM53.622 78.713L52.8143 78.1233L52.8083 78.1318L53.622 78.713ZM44.064 86.651L44.491 87.5553L44.4963 87.5527L44.064 86.651ZM15.714 85.76L15.2108 86.6242L15.219 86.6289L15.714 85.76ZM5.832 75.392L4.94192 75.8479L4.94638 75.8564L5.832 75.392ZM3.43 60.245C3.43 54.7112 4.53584 49.8222 6.72204 45.5539L4.94196 44.6421C2.59217 49.2298 1.43 54.4388 1.43 60.245H3.43ZM6.71762 45.5624C8.9525 41.3005 12.1124 38.0134 16.209 35.6799L15.219 33.9421C10.7836 36.4686 7.3555 40.0395 4.94638 44.6336L6.71762 45.5624ZM16.2172 35.6752C20.3061 33.2943 25.1484 32.085 30.78 32.085V30.085C24.8556 30.085 19.6539 31.3597 15.2108 33.9468L16.2172 35.6752ZM30.78 32.085C35.6191 32.085 39.894 33.0048 43.6268 34.8194L44.5012 33.0206C40.458 31.0552 35.8769 30.085 30.78 30.085V32.085ZM43.6418 34.8265C47.434 36.5927 50.4826 39.1024 52.8083 42.3582L54.4357 41.1958C51.9014 37.6476 48.5781 34.9193 44.4862 33.0135L43.6418 34.8265ZM52.8144 42.3667C55.2006 45.6348 56.7927 49.4591 57.5786 53.8598L59.5474 53.5082C58.7133 48.8369 57.0114 44.7232 54.4296 41.1873L52.8144 42.3667ZM58.563 52.684H39.609V54.684H58.563V52.684ZM40.5185 53.2682C39.5809 51.2174 38.2155 49.6036 36.4181 48.4652L35.3479 50.1548C36.7905 51.0684 37.9091 52.3706 38.6995 54.0998L40.5185 53.2682ZM36.4507 48.4868C34.7045 47.2825 32.694 46.69 30.456 46.69V48.69C32.322 48.69 33.9295 49.1775 35.3153 50.1332L36.4507 48.4868ZM30.456 46.69C27.1424 46.69 24.4427 47.9517 22.4607 50.4742L24.0333 51.7098C25.6153 49.6963 27.7216 48.69 30.456 48.69V46.69ZM22.4516 50.486C20.5517 52.9795 19.655 56.2669 19.655 60.245H21.655C21.655 56.5551 22.4863 53.7405 24.0424 51.698L22.4516 50.486ZM19.655 60.245C19.655 64.2231 20.5517 67.5105 22.4516 70.004L24.0424 68.792C22.4863 66.7495 21.655 63.9349 21.655 60.245H19.655ZM22.4607 70.0158C24.4427 72.5383 27.1424 73.8 30.456 73.8V71.8C27.7216 71.8 25.6153 70.7937 24.0333 68.7802L22.4607 70.0158ZM30.456 73.8C32.6832 73.8 34.6866 73.2403 36.431 72.0975L35.335 70.4245C33.9474 71.3336 32.3328 71.8 30.456 71.8V73.8ZM36.4377 72.093C38.2229 70.9029 39.5826 69.2689 40.5185 67.2218L38.6995 66.3902C37.9074 68.1231 36.7831 69.4591 35.3283 70.4289L36.4377 72.093ZM39.609 67.806H58.563V65.806H39.609V67.806ZM57.5786 66.6302C56.7927 71.0309 55.2006 74.8552 52.8144 78.1233L54.4296 79.3027C57.0114 75.7668 58.7133 71.6531 59.5474 66.9818L57.5786 66.6302ZM52.8083 78.1318C50.4809 81.3901 47.4287 83.9288 43.6317 85.7493L44.4963 87.5527C48.5833 85.5932 51.9031 82.8399 54.4357 79.2942L52.8083 78.1318ZM43.637 85.7468C39.9018 87.5106 35.6232 88.405 30.78 88.405V90.405C35.8728 90.405 40.4502 89.4634 44.491 87.5552L43.637 85.7468ZM30.78 88.405C25.1447 88.405 20.2994 87.2211 16.209 84.8911L15.219 86.6289C19.6606 89.1589 24.8593 90.405 30.78 90.405V88.405ZM16.2172 84.8958C12.1159 82.5077 8.95346 79.1913 6.71762 74.9276L4.94638 75.8564C7.35454 80.4487 10.7801 84.0443 15.2108 86.6242L16.2172 84.8958ZM6.72204 74.9361C4.53584 70.6678 3.43 65.7788 3.43 60.245H1.43C1.43 66.0512 2.59217 71.2602 4.94196 75.8479L6.72204 74.9361ZM74.3523 86.732L74.8099 85.8429L74.3523 86.732ZM65.6853 78.632L64.8187 79.131L64.8232 79.1388L64.8278 79.1465L65.6853 78.632ZM65.6853 53.765L64.8244 53.2563L64.822 53.2603L65.6853 53.765ZM74.3523 45.584L74.8099 46.4731L74.8099 46.4731L74.3523 45.584ZM99.1383 45.584L98.6807 46.4731L98.6807 46.4731L99.1383 45.584ZM107.724 53.765L106.858 54.264L106.862 54.2718L106.867 54.2795L107.724 53.765ZM107.724 78.632L106.863 78.1233L106.861 78.1273L107.724 78.632ZM99.1383 86.732L98.6807 85.8429L98.6807 85.8429L99.1383 86.732ZM90.9573 72.071L91.7099 72.7295L91.7165 72.7219L91.723 72.7142L90.9573 72.071ZM90.9573 60.326L90.1916 60.9692L90.1981 60.9769L90.2047 60.9845L90.9573 60.326ZM82.5333 60.326L83.2859 60.9845L83.2925 60.9769L83.299 60.9692L82.5333 60.326ZM82.4523 72.071L81.6714 72.6957L81.6852 72.7129L81.6997 72.7295L82.4523 72.071ZM86.7453 88.567C82.2965 88.567 78.3252 87.6522 74.8099 85.8429L73.8947 87.6211C77.7234 89.5918 82.0141 90.567 86.7453 90.567V88.567ZM74.8099 85.8429C71.3019 84.0373 68.5521 81.4663 66.5428 78.1175L64.8278 79.1465C67.0305 82.8177 70.0587 85.6467 73.8947 87.6211L74.8099 85.8429ZM66.5519 78.133C64.6001 74.743 63.6073 70.7624 63.6073 66.158H61.6073C61.6073 71.0576 62.6665 75.393 64.8187 79.131L66.5519 78.133ZM63.6073 66.158C63.6073 61.5531 64.6002 57.6024 66.5486 54.2697L64.822 53.2603C62.6664 56.9476 61.6073 61.2589 61.6073 66.158H63.6073ZM66.5462 54.2737C68.5566 50.8716 71.306 48.2767 74.8099 46.4731L73.8947 44.6949C70.0546 46.6713 67.026 49.5304 64.8244 53.2563L66.5462 54.2737ZM74.8099 46.4731C78.3252 44.6638 82.2965 43.749 86.7453 43.749V41.749C82.0141 41.749 77.7234 42.7242 73.8947 44.6949L74.8099 46.4731ZM86.7453 43.749C91.1941 43.749 95.1654 44.6638 98.6807 46.4731L99.5959 44.6949C95.7672 42.7242 91.4765 41.749 86.7453 41.749V43.749ZM98.6807 46.4731C102.182 48.2755 104.902 50.8674 106.858 54.264L108.591 53.266C106.443 49.5346 103.438 46.6725 99.5959 44.6949L98.6807 46.4731ZM106.867 54.2795C108.865 57.6105 109.883 61.5577 109.883 66.158H111.883C111.883 61.2543 110.795 56.9395 108.582 53.2505L106.867 54.2795ZM109.883 66.158C109.883 70.7579 108.866 74.735 106.863 78.1233L108.585 79.1407C110.795 75.401 111.883 71.0621 111.883 66.158H109.883ZM106.861 78.1273C104.907 81.4705 102.186 84.0384 98.6807 85.8429L99.5959 87.6211C103.434 85.6456 106.438 82.8135 108.588 79.1367L106.861 78.1273ZM98.6807 85.8429C95.1654 87.6522 91.1941 88.567 86.7453 88.567V90.567C91.4765 90.567 95.7672 89.5918 99.5959 87.6211L98.6807 85.8429ZM86.7453 75.015C88.717 75.015 90.3922 74.2354 91.7099 72.7295L90.2047 71.4125C89.2544 72.4986 88.1216 73.015 86.7453 73.015V75.015ZM91.723 72.7142C93.0655 71.116 93.6583 68.8778 93.6583 66.158H91.6583C91.6583 68.6222 91.1171 70.326 90.1916 71.4278L91.723 72.7142ZM93.6583 66.158C93.6583 63.4422 93.0671 61.2186 91.7099 59.6675L90.2047 60.9845C91.1155 62.0254 91.6583 63.6898 91.6583 66.158H93.6583ZM91.723 59.6828C90.4106 58.1204 88.7322 57.301 86.7453 57.301V59.301C88.1064 59.301 89.236 59.8316 90.1916 60.9692L91.723 59.6828ZM86.7453 57.301C84.7584 57.301 83.08 58.1204 81.7676 59.6828L83.299 60.9692C84.2546 59.8316 85.3842 59.301 86.7453 59.301V57.301ZM81.7807 59.6675C80.4235 61.2186 79.8323 63.4422 79.8323 66.158H81.8323C81.8323 63.6898 82.3751 62.0254 83.2859 60.9845L81.7807 59.6675ZM79.8323 66.158C79.8323 68.8684 80.394 71.0989 81.6714 72.6957L83.2332 71.4463C82.3506 70.3431 81.8323 68.6316 81.8323 66.158H79.8323ZM81.6997 72.7295C83.0244 74.2434 84.7301 75.015 86.7453 75.015V73.015C85.3045 73.015 84.1482 72.4906 83.2049 71.4125L81.6997 72.7295ZM160.758 48.257L159.989 48.896L159.995 48.9029L160.758 48.257ZM165.213 89V90H166.213V89H165.213ZM147.312 89H146.312V90H147.312V89ZM145.53 59.678L144.778 60.3365L144.792 60.3532L144.808 60.3692L145.53 59.678ZM136.215 59.678L136.954 60.3523L136.961 60.3445L136.968 60.3365L136.215 59.678ZM134.514 89V90H135.514V89H134.514ZM116.532 89H115.532V90H116.532V89ZM116.532 43.316V42.316H115.532V43.316H116.532ZM134.514 43.316H135.514V42.316H134.514V43.316ZM134.514 50.282H133.514V53.6554L135.353 50.827L134.514 50.282ZM140.103 45.017L139.609 44.1475L139.601 44.1525L140.103 45.017ZM148.527 43.992C153.517 43.992 157.293 45.65 159.989 48.896L161.528 47.618C158.392 43.844 154.014 41.992 148.527 41.992V43.992ZM159.995 48.9029C162.771 52.1836 164.213 56.6825 164.213 62.513H166.213C166.213 56.3555 164.686 51.3504 161.522 47.6111L159.995 48.9029ZM164.213 62.513V89H166.213V62.513H164.213ZM165.213 88H147.312V90H165.213V88ZM148.312 89V64.781H146.312V89H148.312ZM148.312 64.781C148.312 62.4327 147.662 60.4595 146.253 58.9868L144.808 60.3692C145.775 61.3805 146.312 62.8093 146.312 64.781H148.312ZM146.283 59.0195C144.933 57.4771 143.104 56.734 140.913 56.734V58.734C142.61 58.734 143.859 59.2869 144.778 60.3365L146.283 59.0195ZM140.913 56.734C138.678 56.734 136.818 57.4708 135.463 59.0195L136.968 60.3365C137.881 59.2932 139.153 58.734 140.913 58.734V56.734ZM135.477 59.0037C134.131 60.4777 133.514 62.4447 133.514 64.781H135.514C135.514 62.7973 136.032 61.3623 136.954 60.3523L135.477 59.0037ZM133.514 64.781V89H135.514V64.781H133.514ZM134.514 88H116.532V90H134.514V88ZM117.532 89V43.316H115.532V89H117.532ZM116.532 44.316H134.514V42.316H116.532V44.316ZM133.514 43.316V50.282H135.514V43.316H133.514ZM135.353 50.827C136.668 48.804 138.414 47.1562 140.606 45.8815L139.601 44.1525C137.149 45.5778 135.169 47.44 133.676 49.737L135.353 50.827ZM140.597 45.8865C142.797 44.6367 145.428 43.992 148.527 43.992V41.992C145.146 41.992 142.162 42.6973 139.609 44.1475L140.597 45.8865ZM196.177 71.909L195.209 72.1586L197.146 72.1561L196.177 71.909ZM203.467 43.316V42.316H202.69L202.498 43.0689L203.467 43.316ZM222.583 43.316L223.532 43.6322L223.97 42.316H222.583V43.316ZM207.355 89V90H208.076L208.304 89.3162L207.355 89ZM184.918 89L183.969 89.3162L184.197 90H184.918V89ZM169.69 43.316V42.316H168.303L168.741 43.6322L169.69 43.316ZM188.806 43.316L189.774 43.0664L189.581 42.316H188.806V43.316ZM197.146 72.1561L204.436 43.5631L202.498 43.0689L195.208 71.6619L197.146 72.1561ZM203.467 44.316H222.583V42.316H203.467V44.316ZM221.634 42.9998L206.406 88.6838L208.304 89.3162L223.532 43.6322L221.634 42.9998ZM207.355 88H184.918V90H207.355V88ZM185.867 88.6838L170.639 42.9998L168.741 43.6322L183.969 89.3162L185.867 88.6838ZM169.69 44.316H188.806V42.316H169.69V44.316ZM187.838 43.5656L195.209 72.1586L197.145 71.6594L189.774 43.0664L187.838 43.5656ZM271.337 69.317V70.317H272.204L272.327 69.4584L271.337 69.317ZM242.42 69.317V68.317H241.349L241.422 69.3853L242.42 69.317ZM251.573 72.557V71.557H250.946L250.673 72.1207L251.573 72.557ZM270.608 72.557L271.588 72.7531L271.828 71.557H270.608V72.557ZM266.477 81.305L265.701 80.6744L265.699 80.6763L266.477 81.305ZM258.62 87.38L259.042 88.2866L259.048 88.2834L258.62 87.38ZM236.102 86.732L235.628 87.6125L235.633 87.6155L236.102 86.732ZM227.84 78.632L226.962 79.1109L226.966 79.1188L226.971 79.1267L227.84 78.632ZM227.84 53.765L226.967 53.276L226.965 53.2805L227.84 53.765ZM236.102 45.584L235.633 44.7005L235.628 44.7035L236.102 45.584ZM260.321 45.584L259.847 46.4645L259.855 46.4688L259.863 46.473L260.321 45.584ZM268.583 53.522L267.711 54.0123L267.717 54.0225L268.583 53.522ZM253.355 61.46V62.46H254.355V61.46H253.355ZM251.897 58.058L251.257 58.8262L251.269 58.837L251.283 58.8474L251.897 58.058ZM242.663 61.46L241.678 61.2872L241.472 62.46H242.663V61.46ZM270.58 65.753C270.58 66.9516 270.502 68.0921 270.347 69.1756L272.327 69.4584C272.496 68.2739 272.58 67.0384 272.58 65.753H270.58ZM271.337 68.317H242.42V70.317H271.337V68.317ZM241.422 69.3853C241.564 71.4606 242.076 73.1795 243.09 74.393C244.138 75.6471 245.611 76.23 247.361 76.23V74.23C246.087 74.23 245.224 73.8274 244.625 73.1105C243.992 72.353 243.545 71.1154 243.417 69.2487L241.422 69.3853ZM247.361 76.23C248.49 76.23 249.52 75.9694 250.408 75.4061C251.294 74.8434 251.975 74.0192 252.473 72.9933L250.673 72.1207C250.306 72.8768 249.853 73.3891 249.336 73.7174C248.82 74.0451 248.176 74.23 247.361 74.23V76.23ZM251.573 73.557H270.608V71.557H251.573V73.557ZM269.627 72.3609C269.011 75.4398 267.705 78.2071 265.701 80.6744L267.253 81.9356C269.46 79.2189 270.908 76.1542 271.588 72.7531L269.627 72.3609ZM265.699 80.6763C263.749 83.0885 261.253 85.0236 258.191 86.4766L259.048 88.2834C262.359 86.7124 265.101 84.5975 267.254 81.9337L265.699 80.6763ZM258.198 86.4734C255.21 87.8643 251.9 88.567 248.252 88.567V90.567C252.164 90.567 255.766 89.8117 259.042 88.2866L258.198 86.4734ZM248.252 88.567C243.858 88.567 239.973 87.6529 236.57 85.8485L235.633 87.6155C239.359 89.5911 243.573 90.567 248.252 90.567V88.567ZM236.576 85.8515C233.233 84.0517 230.615 81.4865 228.709 78.1373L226.971 79.1267C229.06 82.7975 231.95 85.6323 235.628 87.6125L236.576 85.8515ZM228.718 78.1531C226.866 74.7593 225.924 70.7713 225.924 66.158H223.924C223.924 71.0487 224.925 75.3767 226.962 79.1109L228.718 78.1531ZM225.924 66.158C225.924 61.5442 226.867 57.5861 228.715 54.2495L226.965 53.2805C224.925 56.9639 223.924 61.2678 223.924 66.158H225.924ZM228.712 54.254C230.62 50.8513 233.237 48.2621 236.576 46.4645L235.628 44.7035C231.946 46.6859 229.056 49.5507 226.967 53.276L228.712 54.254ZM236.57 46.4675C239.973 44.6631 243.858 43.749 248.252 43.749V41.749C243.573 41.749 239.359 42.7249 235.633 44.7005L236.57 46.4675ZM248.252 43.749C252.645 43.749 256.501 44.6632 259.847 46.4645L260.795 44.7035C257.12 42.7248 252.93 41.749 248.252 41.749V43.749ZM259.863 46.473C263.255 48.2204 265.864 50.7288 267.711 54.0123L269.454 53.0317C267.413 49.4032 264.515 46.6196 260.779 44.695L259.863 46.473ZM267.717 54.0225C269.613 57.3014 270.58 61.1994 270.58 65.753H272.58C272.58 60.9106 271.549 56.6546 269.448 53.0215L267.717 54.0225ZM254.355 61.46C254.355 59.7174 253.782 58.2573 252.511 57.2686L251.283 58.8474C251.956 59.3707 252.355 60.1786 252.355 61.46H254.355ZM252.537 57.2898C251.358 56.3076 249.906 55.843 248.252 55.843V57.843C249.513 57.843 250.491 58.1884 251.257 58.8262L252.537 57.2898ZM248.252 55.843C246.501 55.843 244.989 56.2673 243.828 57.2263C242.665 58.1873 241.977 59.5839 241.678 61.2872L243.648 61.6328C243.889 60.2581 244.402 59.3462 245.102 58.7682C245.804 58.1882 246.816 57.843 248.252 57.843V55.843ZM242.663 62.46H253.355V60.46H242.663V62.46ZM295.249 51.74H294.249V54.9353L296.07 52.3101L295.249 51.74ZM301.972 45.422L302.481 46.2826L302.488 46.2788L302.494 46.2748L301.972 45.422ZM310.234 42.992H311.234V41.992H310.234V42.992ZM310.234 62.189V63.189H311.234V62.189H310.234ZM297.598 63.971L297.006 63.1646L297 63.1694L296.993 63.1743L297.598 63.971ZM295.249 89V90H296.249V89H295.249ZM277.267 89H276.267V90H277.267V89ZM277.267 43.316V42.316H276.267V43.316H277.267ZM295.249 43.316H296.249V42.316H295.249V43.316ZM296.07 52.3101C297.828 49.7765 299.965 47.7718 302.481 46.2826L301.462 44.5614C298.687 46.2041 296.341 48.4115 294.427 51.1699L296.07 52.3101ZM302.494 46.2748C304.996 44.7427 307.572 43.992 310.234 43.992V41.992C307.172 41.992 304.239 42.8613 301.45 44.5691L302.494 46.2748ZM309.234 42.992V62.189H311.234V42.992H309.234ZM310.234 61.189H305.131V63.189H310.234V61.189ZM305.131 61.189C301.649 61.189 298.881 61.7901 297.006 63.1646L298.189 64.7774C299.555 63.7759 301.809 63.189 305.131 63.189V61.189ZM296.993 63.1743C295.067 64.6357 294.249 67.1246 294.249 70.289H296.249C296.249 67.4054 296.997 65.6823 298.202 64.7677L296.993 63.1743ZM294.249 70.289V89H296.249V70.289H294.249ZM295.249 88H277.267V90H295.249V88ZM278.267 89V43.316H276.267V89H278.267ZM277.267 44.316H295.249V42.316H277.267V44.316ZM294.249 43.316V51.74H296.249V43.316H294.249ZM343.508 73.691H344.508V72.691H343.508V73.691ZM343.508 89V90H344.508V89H343.508ZM317.912 58.301H318.912V57.301H317.912V58.301ZM312.242 58.301H311.242V59.301H312.242V58.301ZM312.242 43.316V42.316H311.242V43.316H312.242ZM317.912 43.316V44.316H318.912V43.316H317.912ZM317.912 32.3V31.3H316.912V32.3H317.912ZM335.894 32.3H336.894V31.3H335.894V32.3ZM335.894 43.316H334.894V44.316H335.894V43.316ZM343.346 43.316H344.346V42.316H343.346V43.316ZM343.346 58.301V59.301H344.346V58.301H343.346ZM335.894 58.301V57.301H334.894V58.301H335.894ZM336.623 72.962L335.916 73.6691L335.935 73.6877L335.954 73.7053L336.623 72.962ZM342.508 73.691V89H344.508V73.691H342.508ZM343.508 88H336.704V90H343.508V88ZM336.704 88C330.593 88 326.194 86.4794 323.316 83.6136C320.439 80.7486 318.912 76.3708 318.912 70.289H316.912C316.912 76.6812 318.518 81.6589 321.905 85.0309C325.291 88.4021 330.287 90 336.704 90V88ZM318.912 70.289V58.301H316.912V70.289H318.912ZM317.912 57.301H312.242V59.301H317.912V57.301ZM313.242 58.301V43.316H311.242V58.301H313.242ZM312.242 44.316H317.912V42.316H312.242V44.316ZM318.912 43.316V32.3H316.912V43.316H318.912ZM317.912 33.3H335.894V31.3H317.912V33.3ZM334.894 32.3V43.316H336.894V32.3H334.894ZM335.894 44.316H343.346V42.316H335.894V44.316ZM342.346 43.316V58.301H344.346V43.316H342.346ZM343.346 57.301H335.894V59.301H343.346V57.301ZM334.894 58.301V70.613H336.894V58.301H334.894ZM334.894 70.613C334.894 71.8113 335.16 72.9124 335.916 73.6691L337.33 72.2549C337.115 72.0396 336.894 71.5747 336.894 70.613H334.894ZM335.954 73.7053C336.764 74.434 337.928 74.691 339.215 74.691V72.691C338.127 72.691 337.563 72.462 337.292 72.2187L335.954 73.7053ZM339.215 74.691H343.508V72.691H339.215V74.691Z" fill="#454545"/>
<mask id="mask0" mask-type="alpha" maskUnits="userSpaceOnUse" x="183" y="8" width="165" height="115">
<path d="M183 123L212.5 8H348V123H183Z" fill="black"/>
</mask>
<g mask="url(#mask0)">
<path d="M2.43 60.245C2.43 54.575 3.564 49.526 5.832 45.098C8.154 40.67 11.448 37.241 15.714 34.811C19.98 32.327 25.002 31.085 30.78 31.085C35.748 31.085 40.176 32.03 44.064 33.92C48.006 35.756 51.192 38.375 53.622 41.777C56.106 45.179 57.753 49.148 58.563 53.684H39.609C38.745 51.794 37.503 50.336 35.883 49.31C34.317 48.23 32.508 47.69 30.456 47.69C27.432 47.69 25.029 48.824 23.247 51.092C21.519 53.36 20.655 56.411 20.655 60.245C20.655 64.079 21.519 67.13 23.247 69.398C25.029 71.666 27.432 72.8 30.456 72.8C32.508 72.8 34.317 72.287 35.883 71.261C37.503 70.181 38.745 68.696 39.609 66.806H58.563C57.753 71.342 56.106 75.311 53.622 78.713C51.192 82.115 48.006 84.761 44.064 86.651C40.176 88.487 35.748 89.405 30.78 89.405C25.002 89.405 19.98 88.19 15.714 85.76C11.448 83.276 8.154 79.82 5.832 75.392C3.564 70.964 2.43 65.915 2.43 60.245ZM86.7453 89.567C82.1553 89.567 78.0243 88.622 74.3523 86.732C70.6803 84.842 67.7913 82.142 65.6853 78.632C63.6333 75.068 62.6073 70.91 62.6073 66.158C62.6073 61.406 63.6333 57.275 65.6853 53.765C67.7913 50.201 70.6803 47.474 74.3523 45.584C78.0243 43.694 82.1553 42.749 86.7453 42.749C91.3353 42.749 95.4663 43.694 99.1383 45.584C102.81 47.474 105.672 50.201 107.724 53.765C109.83 57.275 110.883 61.406 110.883 66.158C110.883 70.91 109.83 75.068 107.724 78.632C105.672 82.142 102.81 84.842 99.1383 86.732C95.4663 88.622 91.3353 89.567 86.7453 89.567ZM86.7453 74.015C88.4193 74.015 89.8233 73.367 90.9573 72.071C92.0913 70.721 92.6583 68.75 92.6583 66.158C92.6583 63.566 92.0913 61.622 90.9573 60.326C89.8233 58.976 88.4193 58.301 86.7453 58.301C85.0713 58.301 83.6673 58.976 82.5333 60.326C81.3993 61.622 80.8323 63.566 80.8323 66.158C80.8323 68.75 81.3723 70.721 82.4523 72.071C83.5863 73.367 85.0173 74.015 86.7453 74.015ZM148.527 42.992C153.765 42.992 157.842 44.747 160.758 48.257C163.728 51.767 165.213 56.519 165.213 62.513V89H147.312V64.781C147.312 62.621 146.718 60.92 145.53 59.678C144.396 58.382 142.857 57.734 140.913 57.734C138.915 57.734 137.349 58.382 136.215 59.678C135.081 60.92 134.514 62.621 134.514 64.781V89H116.532V43.316H134.514V50.282C135.918 48.122 137.781 46.367 140.103 45.017C142.479 43.667 145.287 42.992 148.527 42.992ZM196.177 71.909L203.467 43.316H222.583L207.355 89H184.918L169.69 43.316H188.806L196.177 71.909ZM271.58 65.753C271.58 66.995 271.499 68.183 271.337 69.317H242.42C242.69 73.259 244.337 75.23 247.361 75.23C249.305 75.23 250.709 74.339 251.573 72.557H270.608C269.96 75.797 268.583 78.713 266.477 81.305C264.425 83.843 261.806 85.868 258.62 87.38C255.488 88.838 252.032 89.567 248.252 89.567C243.716 89.567 239.666 88.622 236.102 86.732C232.592 84.842 229.838 82.142 227.84 78.632C225.896 75.068 224.924 70.91 224.924 66.158C224.924 61.406 225.896 57.275 227.84 53.765C229.838 50.201 232.592 47.474 236.102 45.584C239.666 43.694 243.716 42.749 248.252 42.749C252.788 42.749 256.811 43.694 260.321 45.584C263.885 47.42 266.639 50.066 268.583 53.522C270.581 56.978 271.58 61.055 271.58 65.753ZM253.355 61.46C253.355 59.948 252.869 58.814 251.897 58.058C250.925 57.248 249.71 56.843 248.252 56.843C245.066 56.843 243.203 58.382 242.663 61.46H253.355ZM295.249 51.74C297.085 49.094 299.326 46.988 301.972 45.422C304.618 43.802 307.372 42.992 310.234 42.992V62.189H305.131C301.729 62.189 299.218 62.783 297.598 63.971C296.032 65.159 295.249 67.265 295.249 70.289V89H277.267V43.316H295.249V51.74ZM343.508 73.691V89H336.704C324.176 89 317.912 82.763 317.912 70.289V58.301H312.242V43.316H317.912V32.3H335.894V43.316H343.346V58.301H335.894V70.613C335.894 71.693 336.137 72.476 336.623 72.962C337.163 73.448 338.027 73.691 339.215 73.691H343.508Z" fill="white"/>
</g>
</svg>
