<svg width="375" height="690" viewBox="0 0 375 690" fill="none" xmlns="http://www.w3.org/2000/svg">
<path d="M-212 8.19388C-245.333 -2.73129 -278.667 -2.73129 -312 8.19388V681.806C-278.667 670.881 -245.333 670.881 -212 681.806C-178.667 692.731 -145.333 692.731 -112 681.806C-78.6667 670.881 -45.3333 670.881 -12 681.806C21.3333 692.731 54.6667 692.731 88 681.806C121.333 670.881 154.667 670.881 188 681.806C221.333 692.731 254.667 692.731 288 681.806C321.333 670.881 354.667 670.881 388 681.806C421.333 692.731 454.667 692.731 488 681.806C521.333 670.881 554.667 670.881 588 681.806C621.333 692.731 654.667 692.731 688 681.806V8.19388C654.667 19.1191 621.333 19.1191 588 8.19388C554.667 -2.73129 521.333 -2.73129 488 8.19388C454.667 19.1191 421.333 19.1191 388 8.19388C354.667 -2.73129 321.333 -2.73129 288 8.19388C254.667 19.1191 221.333 19.1191 188 8.19388C154.667 -2.73129 121.333 -2.73129 88 8.19388C54.6667 19.1191 21.3333 19.1191 -12 8.19388C-45.3333 -2.73129 -78.6667 -2.73129 -112 8.19388C-145.333 19.1191 -178.667 19.1191 -212 8.19388Z" fill="#F38F30"/>
</svg>
