<svg width="375" height="690" viewBox="0 0 375 690" fill="none" xmlns="http://www.w3.org/2000/svg">
<path d="M-212 8.19388C-245.333 -2.73129 -278.667 -2.73129 -312 8.19388V681.806C-278.667 670.881 -245.333 670.881 -212 681.806C-178.667 692.731 -145.333 692.731 -112 681.806C-78.6667 670.881 -45.3333 670.881 -12 681.806C21.3333 692.731 54.6667 692.731 88 681.806C121.333 670.881 154.667 670.881 188 681.806C221.333 692.731 254.667 692.731 288 681.806C321.333 670.881 354.667 670.881 388 681.806C421.333 692.731 454.667 692.731 488 681.806C521.333 670.881 554.667 670.881 588 681.806C621.333 692.731 654.667 692.731 688 681.806V8.19388C654.667 19.1191 621.333 19.1191 588 8.19388C554.667 -2.73129 521.333 -2.73129 488 8.19388C454.667 19.1191 421.333 19.1191 388 8.19388C354.667 -2.73129 321.333 -2.73129 288 8.19388C254.667 19.1191 221.333 19.1191 188 8.19388C154.667 -2.73129 121.333 -2.73129 88 8.19388C54.6667 19.1191 21.3333 19.1191 -12 8.19388C-45.3333 -2.73129 -78.6667 -2.73129 -112 8.19388C-145.333 19.1191 -178.667 19.1191 -212 8.19388Z" fill="#F38F30"/>
<rect x="26" y="160" width="324" height="457" rx="7" fill="white"/>
<rect x="46" y="535" width="284" height="53" rx="2" fill="#F38F30"/>
<path d="M167.162 570.154C166.135 570.154 165.211 569.978 164.39 569.626C163.568 569.259 162.923 568.746 162.454 568.086C161.984 567.426 161.75 566.656 161.75 565.776H164.434C164.492 566.436 164.749 566.979 165.204 567.404C165.673 567.829 166.326 568.042 167.162 568.042C168.027 568.042 168.702 567.837 169.186 567.426C169.67 567.001 169.912 566.458 169.912 565.798C169.912 565.285 169.758 564.867 169.45 564.544C169.156 564.221 168.782 563.972 168.328 563.796C167.888 563.62 167.272 563.429 166.48 563.224C165.482 562.96 164.668 562.696 164.038 562.432C163.422 562.153 162.894 561.728 162.454 561.156C162.014 560.584 161.794 559.821 161.794 558.868C161.794 557.988 162.014 557.218 162.454 556.558C162.894 555.898 163.51 555.392 164.302 555.04C165.094 554.688 166.01 554.512 167.052 554.512C168.533 554.512 169.743 554.886 170.682 555.634C171.635 556.367 172.163 557.379 172.266 558.67H169.494C169.45 558.113 169.186 557.636 168.702 557.24C168.218 556.844 167.58 556.646 166.788 556.646C166.069 556.646 165.482 556.829 165.028 557.196C164.573 557.563 164.346 558.091 164.346 558.78C164.346 559.249 164.485 559.638 164.764 559.946C165.057 560.239 165.424 560.474 165.864 560.65C166.304 560.826 166.905 561.017 167.668 561.222C168.68 561.501 169.501 561.779 170.132 562.058C170.777 562.337 171.32 562.769 171.76 563.356C172.214 563.928 172.442 564.698 172.442 565.666C172.442 566.443 172.229 567.177 171.804 567.866C171.393 568.555 170.784 569.113 169.978 569.538C169.186 569.949 168.247 570.154 167.162 570.154ZM186.511 563.642C186.511 564.097 186.482 564.507 186.423 564.874H177.161C177.234 565.842 177.594 566.619 178.239 567.206C178.884 567.793 179.676 568.086 180.615 568.086C181.964 568.086 182.918 567.521 183.475 566.392H186.181C185.814 567.507 185.147 568.423 184.179 569.142C183.226 569.846 182.038 570.198 180.615 570.198C179.456 570.198 178.415 569.941 177.491 569.428C176.582 568.9 175.863 568.167 175.335 567.228C174.822 566.275 174.565 565.175 174.565 563.928C174.565 562.681 174.814 561.589 175.313 560.65C175.826 559.697 176.538 558.963 177.447 558.45C178.371 557.937 179.427 557.68 180.615 557.68C181.759 557.68 182.778 557.929 183.673 558.428C184.568 558.927 185.264 559.631 185.763 560.54C186.262 561.435 186.511 562.469 186.511 563.642ZM183.893 562.85C183.878 561.926 183.548 561.185 182.903 560.628C182.258 560.071 181.458 559.792 180.505 559.792C179.64 559.792 178.899 560.071 178.283 560.628C177.667 561.171 177.3 561.911 177.183 562.85H183.893ZM195.095 557.68C196.048 557.68 196.899 557.878 197.647 558.274C198.41 558.67 199.004 559.257 199.429 560.034C199.854 560.811 200.067 561.75 200.067 562.85V570H197.581V563.224C197.581 562.139 197.31 561.31 196.767 560.738C196.224 560.151 195.484 559.858 194.545 559.858C193.606 559.858 192.858 560.151 192.301 560.738C191.758 561.31 191.487 562.139 191.487 563.224V570H188.979V557.878H191.487V559.264C191.898 558.765 192.418 558.377 193.049 558.098C193.694 557.819 194.376 557.68 195.095 557.68ZM202.43 563.884C202.43 562.667 202.68 561.589 203.178 560.65C203.692 559.711 204.381 558.985 205.246 558.472C206.126 557.944 207.102 557.68 208.172 557.68C208.964 557.68 209.742 557.856 210.504 558.208C211.282 558.545 211.898 559 212.352 559.572V553.72H214.882V570H212.352V568.174C211.942 568.761 211.37 569.245 210.636 569.626C209.918 570.007 209.089 570.198 208.15 570.198C207.094 570.198 206.126 569.934 205.246 569.406C204.381 568.863 203.692 568.115 203.178 567.162C202.68 566.194 202.43 565.101 202.43 563.884ZM212.352 563.928C212.352 563.092 212.176 562.366 211.824 561.75C211.487 561.134 211.04 560.665 210.482 560.342C209.925 560.019 209.324 559.858 208.678 559.858C208.033 559.858 207.432 560.019 206.874 560.342C206.317 560.65 205.862 561.112 205.51 561.728C205.173 562.329 205.004 563.048 205.004 563.884C205.004 564.72 205.173 565.453 205.51 566.084C205.862 566.715 206.317 567.199 206.874 567.536C207.446 567.859 208.048 568.02 208.678 568.02C209.324 568.02 209.925 567.859 210.482 567.536C211.04 567.213 211.487 566.744 211.824 566.128C212.176 565.497 212.352 564.764 212.352 563.928Z" fill="white"/>
<path d="M46 227H330" stroke="#222222" stroke-width="2" stroke-linecap="round" stroke-linejoin="round"/>
<path d="M66.1104 218H63.6024L56.0564 206.582V218H53.5484V202.688H56.0564L63.6024 214.084V202.688H66.1104V218ZM68.5679 211.884C68.5679 210.667 68.8172 209.589 69.3159 208.65C69.8292 207.711 70.5186 206.985 71.3839 206.472C72.2639 205.944 73.2319 205.68 74.2879 205.68C75.2412 205.68 76.0699 205.871 76.7739 206.252C77.4926 206.619 78.0646 207.081 78.4899 207.638V205.878H81.0199V218H78.4899V216.196C78.0646 216.768 77.4852 217.245 76.7519 217.626C76.0186 218.007 75.1826 218.198 74.2439 218.198C73.2026 218.198 72.2492 217.934 71.3839 217.406C70.5186 216.863 69.8292 216.115 69.3159 215.162C68.8172 214.194 68.5679 213.101 68.5679 211.884ZM78.4899 211.928C78.4899 211.092 78.3139 210.366 77.9619 209.75C77.6246 209.134 77.1772 208.665 76.6199 208.342C76.0626 208.019 75.4612 207.858 74.8159 207.858C74.1706 207.858 73.5692 208.019 73.0119 208.342C72.4546 208.65 71.9999 209.112 71.6479 209.728C71.3106 210.329 71.1419 211.048 71.1419 211.884C71.1419 212.72 71.3106 213.453 71.6479 214.084C71.9999 214.715 72.4546 215.199 73.0119 215.536C73.5839 215.859 74.1852 216.02 74.8159 216.02C75.4612 216.02 76.0626 215.859 76.6199 215.536C77.1772 215.213 77.6246 214.744 77.9619 214.128C78.3139 213.497 78.4899 212.764 78.4899 211.928ZM98.9881 205.68C99.9414 205.68 100.792 205.878 101.54 206.274C102.303 206.67 102.897 207.257 103.322 208.034C103.762 208.811 103.982 209.75 103.982 210.85V218H101.496V211.224C101.496 210.139 101.225 209.31 100.682 208.738C100.139 208.151 99.3987 207.858 98.4601 207.858C97.5214 207.858 96.7734 208.151 96.2161 208.738C95.6734 209.31 95.4021 210.139 95.4021 211.224V218H92.9161V211.224C92.9161 210.139 92.6447 209.31 92.1021 208.738C91.5594 208.151 90.8187 207.858 89.8801 207.858C88.9414 207.858 88.1934 208.151 87.6361 208.738C87.0934 209.31 86.8221 210.139 86.8221 211.224V218H84.3141V205.878H86.8221V207.264C87.2327 206.765 87.7534 206.377 88.3841 206.098C89.0147 205.819 89.6894 205.68 90.4081 205.68C91.3761 205.68 92.2414 205.885 93.0041 206.296C93.7667 206.707 94.3534 207.301 94.7641 208.078C95.1307 207.345 95.7027 206.765 96.4801 206.34C97.2574 205.9 98.0934 205.68 98.9881 205.68ZM118.283 211.642C118.283 212.097 118.254 212.507 118.195 212.874H108.933C109.007 213.842 109.366 214.619 110.011 215.206C110.657 215.793 111.449 216.086 112.387 216.086C113.737 216.086 114.69 215.521 115.247 214.392H117.953C117.587 215.507 116.919 216.423 115.951 217.142C114.998 217.846 113.81 218.198 112.387 218.198C111.229 218.198 110.187 217.941 109.263 217.428C108.354 216.9 107.635 216.167 107.107 215.228C106.594 214.275 106.337 213.175 106.337 211.928C106.337 210.681 106.587 209.589 107.085 208.65C107.599 207.697 108.31 206.963 109.219 206.45C110.143 205.937 111.199 205.68 112.387 205.68C113.531 205.68 114.551 205.929 115.445 206.428C116.34 206.927 117.037 207.631 117.535 208.54C118.034 209.435 118.283 210.469 118.283 211.642ZM115.665 210.85C115.651 209.926 115.321 209.185 114.675 208.628C114.03 208.071 113.231 207.792 112.277 207.792C111.412 207.792 110.671 208.071 110.055 208.628C109.439 209.171 109.073 209.911 108.955 210.85H115.665Z" fill="#222222"/>
<path d="M46 276H330" stroke="#222222" stroke-width="2" stroke-linecap="round" stroke-linejoin="round"/>
<path d="M54.7039 253.734V258.222H59.9839V260.268H54.7039V264.954H60.6439V267H52.1959V251.688H60.6439V253.734H54.7039ZM78.407 254.68C79.3603 254.68 80.211 254.878 80.959 255.274C81.7217 255.67 82.3157 256.257 82.741 257.034C83.181 257.811 83.401 258.75 83.401 259.85V267H80.915V260.224C80.915 259.139 80.6437 258.31 80.101 257.738C79.5583 257.151 78.8177 256.858 77.879 256.858C76.9403 256.858 76.1923 257.151 75.635 257.738C75.0923 258.31 74.821 259.139 74.821 260.224V267H72.335V260.224C72.335 259.139 72.0637 258.31 71.521 257.738C70.9783 257.151 70.2377 256.858 69.299 256.858C68.3603 256.858 67.6123 257.151 67.055 257.738C66.5123 258.31 66.241 259.139 66.241 260.224V267H63.733V254.878H66.241V256.264C66.6517 255.765 67.1723 255.377 67.803 255.098C68.4337 254.819 69.1083 254.68 69.827 254.68C70.795 254.68 71.6603 254.885 72.423 255.296C73.1857 255.707 73.7723 256.301 74.183 257.078C74.5497 256.345 75.1217 255.765 75.899 255.34C76.6763 254.9 77.5123 254.68 78.407 254.68ZM85.7564 260.884C85.7564 259.667 86.0057 258.589 86.5044 257.65C87.0177 256.711 87.707 255.985 88.5724 255.472C89.4524 254.944 90.4204 254.68 91.4764 254.68C92.4297 254.68 93.2584 254.871 93.9624 255.252C94.681 255.619 95.2531 256.081 95.6784 256.638V254.878H98.2084V267H95.6784V265.196C95.2531 265.768 94.6737 266.245 93.9404 266.626C93.207 267.007 92.3711 267.198 91.4324 267.198C90.391 267.198 89.4377 266.934 88.5724 266.406C87.707 265.863 87.0177 265.115 86.5044 264.162C86.0057 263.194 85.7564 262.101 85.7564 260.884ZM95.6784 260.928C95.6784 260.092 95.5024 259.366 95.1504 258.75C94.813 258.134 94.3657 257.665 93.8084 257.342C93.251 257.019 92.6497 256.858 92.0044 256.858C91.359 256.858 90.7577 257.019 90.2004 257.342C89.643 257.65 89.1884 258.112 88.8364 258.728C88.499 259.329 88.3304 260.048 88.3304 260.884C88.3304 261.72 88.499 262.453 88.8364 263.084C89.1884 263.715 89.643 264.199 90.2004 264.536C90.7724 264.859 91.3737 265.02 92.0044 265.02C92.6497 265.02 93.251 264.859 93.8084 264.536C94.3657 264.213 94.813 263.744 95.1504 263.128C95.5024 262.497 95.6784 261.764 95.6784 260.928ZM102.779 253.272C102.324 253.272 101.943 253.118 101.635 252.81C101.327 252.502 101.173 252.121 101.173 251.666C101.173 251.211 101.327 250.83 101.635 250.522C101.943 250.214 102.324 250.06 102.779 250.06C103.219 250.06 103.593 250.214 103.901 250.522C104.209 250.83 104.363 251.211 104.363 251.666C104.363 252.121 104.209 252.502 103.901 252.81C103.593 253.118 103.219 253.272 102.779 253.272ZM104.011 254.878V267H101.503V254.878H104.011ZM109.811 250.72V267H107.303V250.72H109.811Z" fill="#222222"/>
<path d="M46 325H330" stroke="#222222" stroke-width="2" stroke-linecap="round" stroke-linejoin="round"/>
<path d="M67.3136 300.71V316H64.8056V305.528L60.1416 316H58.4036L53.7176 305.528V316H51.2096V300.71H53.9156L59.2836 312.7L64.6296 300.71H67.3136ZM81.72 309.642C81.72 310.097 81.6906 310.507 81.632 310.874H72.37C72.4433 311.842 72.8026 312.619 73.448 313.206C74.0933 313.793 74.8853 314.086 75.824 314.086C77.1733 314.086 78.1266 313.521 78.684 312.392H81.39C81.0233 313.507 80.356 314.423 79.388 315.142C78.4346 315.846 77.2466 316.198 75.824 316.198C74.6653 316.198 73.624 315.941 72.7 315.428C71.7906 314.9 71.072 314.167 70.544 313.228C70.0306 312.275 69.774 311.175 69.774 309.928C69.774 308.681 70.0233 307.589 70.522 306.65C71.0353 305.697 71.7466 304.963 72.656 304.45C73.58 303.937 74.636 303.68 75.824 303.68C76.968 303.68 77.9873 303.929 78.882 304.428C79.7766 304.927 80.4733 305.631 80.972 306.54C81.4706 307.435 81.72 308.469 81.72 309.642ZM79.102 308.85C79.0873 307.926 78.7573 307.185 78.112 306.628C77.4666 306.071 76.6673 305.792 75.714 305.792C74.8486 305.792 74.108 306.071 73.492 306.628C72.876 307.171 72.5093 307.911 72.392 308.85H79.102ZM88.5881 316.198C87.6348 316.198 86.7768 316.029 86.0141 315.692C85.2661 315.34 84.6721 314.871 84.2321 314.284C83.7921 313.683 83.5574 313.015 83.5281 312.282H86.1241C86.1681 312.795 86.4101 313.228 86.8501 313.58C87.3048 313.917 87.8694 314.086 88.5441 314.086C89.2481 314.086 89.7908 313.954 90.1721 313.69C90.5681 313.411 90.7661 313.059 90.7661 312.634C90.7661 312.179 90.5461 311.842 90.1061 311.622C89.6808 311.402 88.9988 311.16 88.0601 310.896C87.1508 310.647 86.4101 310.405 85.8381 310.17C85.2661 309.935 84.7674 309.576 84.3421 309.092C83.9314 308.608 83.7261 307.97 83.7261 307.178C83.7261 306.533 83.9168 305.946 84.2981 305.418C84.6794 304.875 85.2221 304.45 85.9261 304.142C86.6448 303.834 87.4661 303.68 88.3901 303.68C89.7688 303.68 90.8761 304.032 91.7121 304.736C92.5628 305.425 93.0174 306.371 93.0761 307.574H90.5681C90.5241 307.031 90.3041 306.599 89.9081 306.276C89.5121 305.953 88.9768 305.792 88.3021 305.792C87.6421 305.792 87.1361 305.917 86.7841 306.166C86.4321 306.415 86.2561 306.745 86.2561 307.156C86.2561 307.479 86.3734 307.75 86.6081 307.97C86.8428 308.19 87.1288 308.366 87.4661 308.498C87.8034 308.615 88.3021 308.769 88.9621 308.96C89.8421 309.195 90.5608 309.437 91.1181 309.686C91.6901 309.921 92.1814 310.273 92.5921 310.742C93.0028 311.211 93.2154 311.835 93.2301 312.612C93.2301 313.301 93.0394 313.917 92.6581 314.46C92.2768 315.003 91.7341 315.428 91.0301 315.736C90.3408 316.044 89.5268 316.198 88.5881 316.198ZM100.34 316.198C99.3867 316.198 98.5287 316.029 97.766 315.692C97.018 315.34 96.424 314.871 95.984 314.284C95.544 313.683 95.3094 313.015 95.28 312.282H97.876C97.92 312.795 98.162 313.228 98.602 313.58C99.0567 313.917 99.6214 314.086 100.296 314.086C101 314.086 101.543 313.954 101.924 313.69C102.32 313.411 102.518 313.059 102.518 312.634C102.518 312.179 102.298 311.842 101.858 311.622C101.433 311.402 100.751 311.16 99.812 310.896C98.9027 310.647 98.162 310.405 97.59 310.17C97.018 309.935 96.5194 309.576 96.094 309.092C95.6834 308.608 95.478 307.97 95.478 307.178C95.478 306.533 95.6687 305.946 96.05 305.418C96.4314 304.875 96.974 304.45 97.678 304.142C98.3967 303.834 99.218 303.68 100.142 303.68C101.521 303.68 102.628 304.032 103.464 304.736C104.315 305.425 104.769 306.371 104.828 307.574H102.32C102.276 307.031 102.056 306.599 101.66 306.276C101.264 305.953 100.729 305.792 100.054 305.792C99.394 305.792 98.888 305.917 98.536 306.166C98.184 306.415 98.008 306.745 98.008 307.156C98.008 307.479 98.1254 307.75 98.36 307.97C98.5947 308.19 98.8807 308.366 99.218 308.498C99.5554 308.615 100.054 308.769 100.714 308.96C101.594 309.195 102.313 309.437 102.87 309.686C103.442 309.921 103.933 310.273 104.344 310.742C104.755 311.211 104.967 311.835 104.982 312.612C104.982 313.301 104.791 313.917 104.41 314.46C104.029 315.003 103.486 315.428 102.782 315.736C102.093 316.044 101.279 316.198 100.34 316.198ZM106.856 309.884C106.856 308.667 107.105 307.589 107.604 306.65C108.117 305.711 108.807 304.985 109.672 304.472C110.552 303.944 111.52 303.68 112.576 303.68C113.529 303.68 114.358 303.871 115.062 304.252C115.781 304.619 116.353 305.081 116.778 305.638V303.878H119.308V316H116.778V314.196C116.353 314.768 115.773 315.245 115.04 315.626C114.307 316.007 113.471 316.198 112.532 316.198C111.491 316.198 110.537 315.934 109.672 315.406C108.807 314.863 108.117 314.115 107.604 313.162C107.105 312.194 106.856 311.101 106.856 309.884ZM116.778 309.928C116.778 309.092 116.602 308.366 116.25 307.75C115.913 307.134 115.465 306.665 114.908 306.342C114.351 306.019 113.749 305.858 113.104 305.858C112.459 305.858 111.857 306.019 111.3 306.342C110.743 306.65 110.288 307.112 109.936 307.728C109.599 308.329 109.43 309.048 109.43 309.884C109.43 310.72 109.599 311.453 109.936 312.084C110.288 312.715 110.743 313.199 111.3 313.536C111.872 313.859 112.473 314.02 113.104 314.02C113.749 314.02 114.351 313.859 114.908 313.536C115.465 313.213 115.913 312.744 116.25 312.128C116.602 311.497 116.778 310.764 116.778 309.928ZM127.486 303.68C128.425 303.68 129.253 303.871 129.972 304.252C130.705 304.619 131.277 305.081 131.688 305.638V303.878H134.218V316.198C134.218 317.313 133.983 318.303 133.514 319.168C133.045 320.048 132.363 320.737 131.468 321.236C130.588 321.735 129.532 321.984 128.3 321.984C126.657 321.984 125.293 321.595 124.208 320.818C123.123 320.055 122.507 319.014 122.36 317.694H124.846C125.037 318.325 125.44 318.831 126.056 319.212C126.687 319.608 127.435 319.806 128.3 319.806C129.312 319.806 130.126 319.498 130.742 318.882C131.373 318.266 131.688 317.371 131.688 316.198V314.174C131.263 314.746 130.683 315.23 129.95 315.626C129.231 316.007 128.41 316.198 127.486 316.198C126.43 316.198 125.462 315.934 124.582 315.406C123.717 314.863 123.027 314.115 122.514 313.162C122.015 312.194 121.766 311.101 121.766 309.884C121.766 308.667 122.015 307.589 122.514 306.65C123.027 305.711 123.717 304.985 124.582 304.472C125.462 303.944 126.43 303.68 127.486 303.68ZM131.688 309.928C131.688 309.092 131.512 308.366 131.16 307.75C130.823 307.134 130.375 306.665 129.818 306.342C129.261 306.019 128.659 305.858 128.014 305.858C127.369 305.858 126.767 306.019 126.21 306.342C125.653 306.65 125.198 307.112 124.846 307.728C124.509 308.329 124.34 309.048 124.34 309.884C124.34 310.72 124.509 311.453 124.846 312.084C125.198 312.715 125.653 313.199 126.21 313.536C126.782 313.859 127.383 314.02 128.014 314.02C128.659 314.02 129.261 313.859 129.818 313.536C130.375 313.213 130.823 312.744 131.16 312.128C131.512 311.497 131.688 310.764 131.688 309.928ZM148.622 309.642C148.622 310.097 148.593 310.507 148.534 310.874H139.272C139.346 311.842 139.705 312.619 140.35 313.206C140.996 313.793 141.788 314.086 142.726 314.086C144.076 314.086 145.029 313.521 145.586 312.392H148.292C147.926 313.507 147.258 314.423 146.29 315.142C145.337 315.846 144.149 316.198 142.726 316.198C141.568 316.198 140.526 315.941 139.602 315.428C138.693 314.9 137.974 314.167 137.446 313.228C136.933 312.275 136.676 311.175 136.676 309.928C136.676 308.681 136.926 307.589 137.424 306.65C137.938 305.697 138.649 304.963 139.558 304.45C140.482 303.937 141.538 303.68 142.726 303.68C143.87 303.68 144.89 303.929 145.784 304.428C146.679 304.927 147.376 305.631 147.874 306.54C148.373 307.435 148.622 308.469 148.622 309.642ZM146.004 308.85C145.99 307.926 145.66 307.185 145.014 306.628C144.369 306.071 143.57 305.792 142.616 305.792C141.751 305.792 141.01 306.071 140.394 306.628C139.778 307.171 139.412 307.911 139.294 308.85H146.004Z" fill="#222222"/>
<path d="M97.2059 66.154L91.9409 85H87.4859L83.9489 71.581L80.2499 85L75.8219 85.027L70.7459 66.154H74.7959L78.1169 80.788L81.9509 66.154H86.1629L89.7809 80.707L93.1289 66.154H97.2059ZM98.702 77.467C98.702 75.955 98.999 74.614 99.593 73.444C100.205 72.274 101.024 71.374 102.05 70.744C103.094 70.114 104.255 69.799 105.533 69.799C106.649 69.799 107.621 70.024 108.449 70.474C109.295 70.924 109.97 71.491 110.474 72.175V70.042H114.281V85H110.474V82.813C109.988 83.515 109.313 84.1 108.449 84.568C107.603 85.018 106.622 85.243 105.506 85.243C104.246 85.243 103.094 84.919 102.05 84.271C101.024 83.623 100.205 82.714 99.593 81.544C98.999 80.356 98.702 78.997 98.702 77.467ZM110.474 77.521C110.474 76.603 110.294 75.82 109.934 75.172C109.574 74.506 109.088 74.002 108.476 73.66C107.864 73.3 107.207 73.12 106.505 73.12C105.803 73.12 105.155 73.291 104.561 73.633C103.967 73.975 103.481 74.479 103.103 75.145C102.743 75.793 102.563 76.567 102.563 77.467C102.563 78.367 102.743 79.159 103.103 79.843C103.481 80.509 103.967 81.022 104.561 81.382C105.173 81.742 105.821 81.922 106.505 81.922C107.207 81.922 107.864 81.751 108.476 81.409C109.088 81.049 109.574 80.545 109.934 79.897C110.294 79.231 110.474 78.439 110.474 77.521ZM126.262 69.826C128.044 69.826 129.484 70.393 130.582 71.527C131.68 72.643 132.229 74.209 132.229 76.225V85H128.449V76.738C128.449 75.55 128.152 74.641 127.558 74.011C126.964 73.363 126.154 73.039 125.128 73.039C124.084 73.039 123.256 73.363 122.644 74.011C122.05 74.641 121.753 75.55 121.753 76.738V85H117.973V70.042H121.753V71.905C122.257 71.257 122.896 70.753 123.67 70.393C124.462 70.015 125.326 69.826 126.262 69.826ZM140.224 73.147V80.383C140.224 80.887 140.341 81.256 140.575 81.49C140.827 81.706 141.241 81.814 141.817 81.814H143.572V85H141.196C138.01 85 136.417 83.452 136.417 80.356V73.147H134.635V70.042H136.417V66.343H140.224V70.042H143.572V73.147H140.224ZM171.301 69.826C173.137 69.826 174.613 70.393 175.729 71.527C176.863 72.643 177.43 74.209 177.43 76.225V85H173.65V76.738C173.65 75.568 173.353 74.677 172.759 74.065C172.165 73.435 171.355 73.12 170.329 73.12C169.303 73.12 168.484 73.435 167.872 74.065C167.278 74.677 166.981 75.568 166.981 76.738V85H163.201V76.738C163.201 75.568 162.904 74.677 162.31 74.065C161.716 73.435 160.906 73.12 159.88 73.12C158.836 73.12 158.008 73.435 157.396 74.065C156.802 74.677 156.505 75.568 156.505 76.738V85H152.725V70.042H156.505V71.851C156.991 71.221 157.612 70.726 158.368 70.366C159.142 70.006 159.988 69.826 160.906 69.826C162.076 69.826 163.12 70.078 164.038 70.582C164.956 71.068 165.667 71.77 166.171 72.688C166.657 71.824 167.359 71.131 168.277 70.609C169.213 70.087 170.221 69.826 171.301 69.826ZM194.922 77.197C194.922 77.737 194.886 78.223 194.814 78.655H183.879C183.969 79.735 184.347 80.581 185.013 81.193C185.679 81.805 186.498 82.111 187.47 82.111C188.874 82.111 189.873 81.508 190.467 80.302H194.544C194.112 81.742 193.284 82.93 192.06 83.866C190.836 84.784 189.333 85.243 187.551 85.243C186.111 85.243 184.815 84.928 183.663 84.298C182.529 83.65 181.638 82.741 180.99 81.571C180.36 80.401 180.045 79.051 180.045 77.521C180.045 75.973 180.36 74.614 180.99 73.444C181.62 72.274 182.502 71.374 183.636 70.744C184.77 70.114 186.075 69.799 187.551 69.799C188.973 69.799 190.242 70.105 191.358 70.717C192.492 71.329 193.365 72.202 193.977 73.336C194.607 74.452 194.922 75.739 194.922 77.197ZM191.007 76.117C190.989 75.145 190.638 74.371 189.954 73.795C189.27 73.201 188.433 72.904 187.443 72.904C186.507 72.904 185.715 73.192 185.067 73.768C184.437 74.326 184.05 75.109 183.906 76.117H191.007ZM208.515 73.147V80.383C208.515 80.887 208.632 81.256 208.866 81.49C209.118 81.706 209.532 81.814 210.108 81.814H211.863V85H209.487C206.301 85 204.708 83.452 204.708 80.356V73.147H202.926V70.042H204.708V66.343H208.515V70.042H211.863V73.147H208.515ZM221.224 85.243C219.784 85.243 218.488 84.928 217.336 84.298C216.184 83.65 215.275 82.741 214.609 81.571C213.961 80.401 213.637 79.051 213.637 77.521C213.637 75.991 213.97 74.641 214.636 73.471C215.32 72.301 216.247 71.401 217.417 70.771C218.587 70.123 219.892 69.799 221.332 69.799C222.772 69.799 224.077 70.123 225.247 70.771C226.417 71.401 227.335 72.301 228.001 73.471C228.685 74.641 229.027 75.991 229.027 77.521C229.027 79.051 228.676 80.401 227.974 81.571C227.29 82.741 226.354 83.65 225.166 84.298C223.996 84.928 222.682 85.243 221.224 85.243ZM221.224 81.949C221.908 81.949 222.547 81.787 223.141 81.463C223.753 81.121 224.239 80.617 224.599 79.951C224.959 79.285 225.139 78.475 225.139 77.521C225.139 76.099 224.761 75.01 224.005 74.254C223.267 73.48 222.358 73.093 221.278 73.093C220.198 73.093 219.289 73.48 218.551 74.254C217.831 75.01 217.471 76.099 217.471 77.521C217.471 78.943 217.822 80.041 218.524 80.815C219.244 81.571 220.144 81.949 221.224 81.949ZM242.014 72.229C242.5 71.509 243.166 70.924 244.012 70.474C244.876 70.024 245.857 69.799 246.955 69.799C248.233 69.799 249.385 70.114 250.411 70.744C251.455 71.374 252.274 72.274 252.868 73.444C253.48 74.596 253.786 75.937 253.786 77.467C253.786 78.997 253.48 80.356 252.868 81.544C252.274 82.714 251.455 83.623 250.411 84.271C249.385 84.919 248.233 85.243 246.955 85.243C245.839 85.243 244.858 85.027 244.012 84.595C243.184 84.145 242.518 83.569 242.014 82.867V85H238.234V65.02H242.014V72.229ZM249.925 77.467C249.925 76.567 249.736 75.793 249.358 75.145C248.998 74.479 248.512 73.975 247.9 73.633C247.306 73.291 246.658 73.12 245.956 73.12C245.272 73.12 244.624 73.3 244.012 73.66C243.418 74.002 242.932 74.506 242.554 75.172C242.194 75.838 242.014 76.621 242.014 77.521C242.014 78.421 242.194 79.204 242.554 79.87C242.932 80.536 243.418 81.049 244.012 81.409C244.624 81.751 245.272 81.922 245.956 81.922C246.658 81.922 247.306 81.742 247.9 81.382C248.512 81.022 248.998 80.509 249.358 79.843C249.736 79.177 249.925 78.385 249.925 77.467ZM270.653 70.042V85H266.846V83.11C266.36 83.758 265.721 84.271 264.929 84.649C264.155 85.009 263.309 85.189 262.391 85.189C261.221 85.189 260.186 84.946 259.286 84.46C258.386 83.956 257.675 83.227 257.153 82.273C256.649 81.301 256.397 80.149 256.397 78.817V70.042H260.177V78.277C260.177 79.465 260.474 80.383 261.068 81.031C261.662 81.661 262.472 81.976 263.498 81.976C264.542 81.976 265.361 81.661 265.955 81.031C266.549 80.383 266.846 79.465 266.846 78.277V70.042H270.653ZM276.3 68.26C275.634 68.26 275.076 68.053 274.626 67.639C274.194 67.207 273.978 66.676 273.978 66.046C273.978 65.416 274.194 64.894 274.626 64.48C275.076 64.048 275.634 63.832 276.3 63.832C276.966 63.832 277.515 64.048 277.947 64.48C278.397 64.894 278.622 65.416 278.622 66.046C278.622 66.676 278.397 67.207 277.947 67.639C277.515 68.053 276.966 68.26 276.3 68.26ZM278.163 70.042V85H274.383V70.042H278.163ZM285.678 65.02V85H281.898V65.02H285.678ZM288.44 77.467C288.44 75.955 288.737 74.614 289.331 73.444C289.943 72.274 290.771 71.374 291.815 70.744C292.859 70.114 294.02 69.799 295.298 69.799C296.27 69.799 297.197 70.015 298.079 70.447C298.961 70.861 299.663 71.419 300.185 72.121V65.02H304.019V85H300.185V82.786C299.717 83.524 299.06 84.118 298.214 84.568C297.368 85.018 296.387 85.243 295.271 85.243C294.011 85.243 292.859 84.919 291.815 84.271C290.771 83.623 289.943 82.714 289.331 81.544C288.737 80.356 288.44 78.997 288.44 77.467ZM300.212 77.521C300.212 76.603 300.032 75.82 299.672 75.172C299.312 74.506 298.826 74.002 298.214 73.66C297.602 73.3 296.945 73.12 296.243 73.12C295.541 73.12 294.893 73.291 294.299 73.633C293.705 73.975 293.219 74.479 292.841 75.145C292.481 75.793 292.301 76.567 292.301 77.467C292.301 78.367 292.481 79.159 292.841 79.843C293.219 80.509 293.705 81.022 294.299 81.382C294.911 81.742 295.559 81.922 296.243 81.922C296.945 81.922 297.602 81.751 298.214 81.409C298.826 81.049 299.312 80.545 299.672 79.897C300.032 79.231 300.212 78.439 300.212 77.521ZM112.512 126.243C111.072 126.243 109.776 125.928 108.624 125.298C107.472 124.65 106.563 123.741 105.897 122.571C105.249 121.401 104.925 120.051 104.925 118.521C104.925 116.991 105.258 115.641 105.924 114.471C106.608 113.301 107.535 112.401 108.705 111.771C109.875 111.123 111.18 110.799 112.62 110.799C114.06 110.799 115.365 111.123 116.535 111.771C117.705 112.401 118.623 113.301 119.289 114.471C119.973 115.641 120.315 116.991 120.315 118.521C120.315 120.051 119.964 121.401 119.262 122.571C118.578 123.741 117.642 124.65 116.454 125.298C115.284 125.928 113.97 126.243 112.512 126.243ZM112.512 122.949C113.196 122.949 113.835 122.787 114.429 122.463C115.041 122.121 115.527 121.617 115.887 120.951C116.247 120.285 116.427 119.475 116.427 118.521C116.427 117.099 116.049 116.01 115.293 115.254C114.555 114.48 113.646 114.093 112.566 114.093C111.486 114.093 110.577 114.48 109.839 115.254C109.119 116.01 108.759 117.099 108.759 118.521C108.759 119.943 109.11 121.041 109.812 121.815C110.532 122.571 111.432 122.949 112.512 122.949ZM131.377 110.826C133.159 110.826 134.599 111.393 135.697 112.527C136.795 113.643 137.344 115.209 137.344 117.225V126H133.564V117.738C133.564 116.55 133.267 115.641 132.673 115.011C132.079 114.363 131.269 114.039 130.243 114.039C129.199 114.039 128.371 114.363 127.759 115.011C127.165 115.641 126.868 116.55 126.868 117.738V126H123.088V111.042H126.868V112.905C127.372 112.257 128.011 111.753 128.785 111.393C129.577 111.015 130.441 110.826 131.377 110.826ZM154.844 118.197C154.844 118.737 154.808 119.223 154.736 119.655H143.801C143.891 120.735 144.269 121.581 144.935 122.193C145.601 122.805 146.42 123.111 147.392 123.111C148.796 123.111 149.795 122.508 150.389 121.302H154.466C154.034 122.742 153.206 123.93 151.982 124.866C150.758 125.784 149.255 126.243 147.473 126.243C146.033 126.243 144.737 125.928 143.585 125.298C142.451 124.65 141.56 123.741 140.912 122.571C140.282 121.401 139.967 120.051 139.967 118.521C139.967 116.973 140.282 115.614 140.912 114.444C141.542 113.274 142.424 112.374 143.558 111.744C144.692 111.114 145.997 110.799 147.473 110.799C148.895 110.799 150.164 111.105 151.28 111.717C152.414 112.329 153.287 113.202 153.899 114.336C154.529 115.452 154.844 116.739 154.844 118.197ZM150.929 117.117C150.911 116.145 150.56 115.371 149.876 114.795C149.192 114.201 148.355 113.904 147.365 113.904C146.429 113.904 145.637 114.192 144.989 114.768C144.359 115.326 143.972 116.109 143.828 117.117H150.929ZM170.894 114.147H168.275V126H164.441V114.147H162.74V111.042H164.441V110.286C164.441 108.45 164.963 107.1 166.007 106.236C167.051 105.372 168.626 104.967 170.732 105.021V108.207C169.814 108.189 169.175 108.342 168.815 108.666C168.455 108.99 168.275 109.575 168.275 110.421V111.042H170.894V114.147ZM179.986 126.243C178.546 126.243 177.25 125.928 176.098 125.298C174.946 124.65 174.037 123.741 173.371 122.571C172.723 121.401 172.399 120.051 172.399 118.521C172.399 116.991 172.732 115.641 173.398 114.471C174.082 113.301 175.009 112.401 176.179 111.771C177.349 111.123 178.654 110.799 180.094 110.799C181.534 110.799 182.839 111.123 184.009 111.771C185.179 112.401 186.097 113.301 186.763 114.471C187.447 115.641 187.789 116.991 187.789 118.521C187.789 120.051 187.438 121.401 186.736 122.571C186.052 123.741 185.116 124.65 183.928 125.298C182.758 125.928 181.444 126.243 179.986 126.243ZM179.986 122.949C180.67 122.949 181.309 122.787 181.903 122.463C182.515 122.121 183.001 121.617 183.361 120.951C183.721 120.285 183.901 119.475 183.901 118.521C183.901 117.099 183.523 116.01 182.767 115.254C182.029 114.48 181.12 114.093 180.04 114.093C178.96 114.093 178.051 114.48 177.313 115.254C176.593 116.01 176.233 117.099 176.233 118.521C176.233 119.943 176.584 121.041 177.286 121.815C178.006 122.571 178.906 122.949 179.986 122.949ZM194.342 113.364C194.828 112.572 195.458 111.951 196.232 111.501C197.024 111.051 197.924 110.826 198.932 110.826V114.795H197.933C196.745 114.795 195.845 115.074 195.233 115.632C194.639 116.19 194.342 117.162 194.342 118.548V126H190.562V111.042H194.342V113.364ZM222.221 111.042L212.96 133.074H208.937L212.177 125.622L206.183 111.042H210.422L214.283 121.491L218.198 111.042H222.221ZM230.901 126.243C229.461 126.243 228.165 125.928 227.013 125.298C225.861 124.65 224.952 123.741 224.286 122.571C223.638 121.401 223.314 120.051 223.314 118.521C223.314 116.991 223.647 115.641 224.313 114.471C224.997 113.301 225.924 112.401 227.094 111.771C228.264 111.123 229.569 110.799 231.009 110.799C232.449 110.799 233.754 111.123 234.924 111.771C236.094 112.401 237.012 113.301 237.678 114.471C238.362 115.641 238.704 116.991 238.704 118.521C238.704 120.051 238.353 121.401 237.651 122.571C236.967 123.741 236.031 124.65 234.843 125.298C233.673 125.928 232.359 126.243 230.901 126.243ZM230.901 122.949C231.585 122.949 232.224 122.787 232.818 122.463C233.43 122.121 233.916 121.617 234.276 120.951C234.636 120.285 234.816 119.475 234.816 118.521C234.816 117.099 234.438 116.01 233.682 115.254C232.944 114.48 232.035 114.093 230.955 114.093C229.875 114.093 228.966 114.48 228.228 115.254C227.508 116.01 227.148 117.099 227.148 118.521C227.148 119.943 227.499 121.041 228.201 121.815C228.921 122.571 229.821 122.949 230.901 122.949ZM255.598 111.042V126H251.791V124.11C251.305 124.758 250.666 125.271 249.874 125.649C249.1 126.009 248.254 126.189 247.336 126.189C246.166 126.189 245.131 125.946 244.231 125.46C243.331 124.956 242.62 124.227 242.098 123.273C241.594 122.301 241.342 121.149 241.342 119.817V111.042H245.122V119.277C245.122 120.465 245.419 121.383 246.013 122.031C246.607 122.661 247.417 122.976 248.443 122.976C249.487 122.976 250.306 122.661 250.9 122.031C251.494 121.383 251.791 120.465 251.791 119.277V111.042H255.598ZM264.592 106.506C266.464 106.506 267.967 107.019 269.101 108.045C270.253 109.053 270.829 110.448 270.829 112.23C270.829 113.994 270.262 115.344 269.128 116.28C267.994 117.198 266.491 117.657 264.619 117.657L264.511 119.736H261.19L261.055 115.146H262.27C263.836 115.146 265.042 114.939 265.888 114.525C266.734 114.111 267.157 113.355 267.157 112.257C267.157 111.465 266.923 110.835 266.455 110.367C266.005 109.899 265.384 109.665 264.592 109.665C263.764 109.665 263.116 109.89 262.648 110.34C262.198 110.79 261.973 111.411 261.973 112.203H258.409C258.391 111.105 258.625 110.124 259.111 109.26C259.597 108.396 260.308 107.721 261.244 107.235C262.198 106.749 263.314 106.506 264.592 106.506ZM262.837 126.189C262.153 126.189 261.586 125.982 261.136 125.568C260.704 125.136 260.488 124.605 260.488 123.975C260.488 123.345 260.704 122.823 261.136 122.409C261.586 121.977 262.153 121.761 262.837 121.761C263.503 121.761 264.052 121.977 264.484 122.409C264.916 122.823 265.132 123.345 265.132 123.975C265.132 124.605 264.916 125.136 264.484 125.568C264.052 125.982 263.503 126.189 262.837 126.189Z" fill="white"/>
</svg>
