<svg width="375" height="644" viewBox="0 0 375 644" fill="none" xmlns="http://www.w3.org/2000/svg">
<path d="M-239 7.52957C-272.333 -2.50986 -305.667 -2.50986 -339 7.52957V644H661V7.52957C627.667 17.569 594.333 17.569 561 7.52957C527.667 -2.50986 494.333 -2.50986 461 7.52957C427.667 17.569 394.333 17.569 361 7.52957C327.667 -2.50986 294.333 -2.50986 261 7.52957C227.667 17.569 194.333 17.569 161 7.52957C127.667 -2.50986 94.3333 -2.50986 61 7.52957C27.6667 17.569 -5.66666 17.569 -39 7.52957C-72.3333 -2.50986 -105.667 -2.50986 -139 7.52957C-172.333 17.569 -205.667 17.569 -239 7.52957Z" fill="#F28D2F"/>
</svg>
