<svg width="234" height="243" viewBox="0 0 234 243" fill="none" xmlns="http://www.w3.org/2000/svg">
<path d="M202.659 110.34C202.623 113.22 202.491 116.447 202.197 119.846L210.448 109.502L210.506 109.664C209.831 107.33 208.832 105.103 207.538 103.049L207.603 103.201L202.659 110.34Z" fill="#57B894"/>
<path d="M202.665 109.835L207.454 102.919C206.077 100.834 204.428 99.219 202.545 98.234C202.447 98.1828 202.349 98.135 202.25 98.0876C202.323 98.8672 202.723 103.446 202.665 109.835Z" fill="#57B894"/>
<path d="M211.48 129.911C211.683 128.705 211.84 127.501 211.952 126.301L199.51 136.126L199.493 136.039C199.306 136.748 199.11 137.445 198.907 138.129L211.451 129.72L211.48 129.911Z" fill="#57B894"/>
<path d="M200.929 129.51L212.065 119.134L212.109 119.313C211.966 116.105 211.445 112.924 210.558 109.839L202.149 120.38C201.859 123.565 201.452 126.608 200.929 129.51Z" fill="#57B894"/>
<path d="M201.938 120.201L187.042 105.318L187.106 105.136C185.898 107.075 184.888 109.131 184.091 111.273L201.042 127.437C201.446 124.911 201.734 122.47 201.938 120.201Z" fill="#57B894"/>
<path d="M200.653 129.698C200.767 129.081 200.874 128.468 200.974 127.859L183.96 111.636L184.023 111.453C183.742 112.207 183.477 112.987 183.231 113.79L183.292 113.606L200.653 129.698Z" fill="#57B894"/>
<path d="M199.599 135.627L211.938 125.884L211.974 126.07C212.168 123.894 212.217 121.707 212.119 119.524L200.832 130.041C200.472 131.974 200.061 133.836 199.599 135.627Z" fill="#57B894"/>
<path d="M182.048 129.038L196 145.299C196.947 143.166 197.766 140.977 198.452 138.746L181.66 122.951C181.624 125.05 181.727 127.149 181.97 129.234L182.048 129.038Z" fill="#57B894"/>
<path d="M202.012 98.0871L202.126 98.0281C199.197 96.6673 196.13 97.0101 193.272 98.7287L202.436 109.837C202.497 102.924 202.019 98.1555 202.012 98.0871Z" fill="#57B894"/>
<path d="M198.552 139.292C197.92 141.301 197.18 143.274 196.335 145.202L208.994 137.655L209.018 137.843C209.905 136.116 210.571 134.283 210.999 132.387C211.164 131.642 211.311 130.896 211.44 130.148L198.746 138.658C198.682 138.87 198.618 139.083 198.552 139.292Z" fill="#57B894"/>
<path d="M202.43 110.352L193.056 98.9888L193.128 98.8151C190.983 100.142 188.959 102.246 187.203 104.986L201.977 119.748C202.266 116.387 202.394 113.198 202.43 110.352Z" fill="#57B894"/>
<path d="M198.572 138.354C199.387 135.644 200.056 132.892 200.576 130.11L183.172 113.979C182.843 115.069 182.548 116.2 182.287 117.372C181.928 119.051 181.722 120.76 181.672 122.477L198.56 138.362L198.572 138.354Z" fill="#57B894"/>
<path d="M216.499 155.807C214.644 158.001 212.496 160.402 210.112 162.832L223.029 160.156L222.971 160.318C223.932 158.087 224.575 155.731 224.882 153.319L224.836 153.479L216.499 155.807Z" fill="#57B894"/>
<path d="M224.091 146.409C224.048 146.307 224.002 146.207 223.957 146.108C223.518 146.755 220.922 150.537 216.823 155.421L224.899 153.166C225.162 150.677 224.916 148.376 224.091 146.409Z" fill="#57B894"/>
<path d="M197.757 173.57C197.163 173.995 196.571 174.407 195.98 174.803L210.976 176.37L210.877 176.536C211.798 175.737 212.683 174.912 213.531 174.059L197.714 173.647L197.757 173.57Z" fill="#57B894"/>
<path d="M203.005 169.462L218.165 168.611L218.084 168.777C220.009 166.214 221.626 163.431 222.9 160.486L209.737 163.212C207.493 165.479 205.249 167.562 203.005 169.462Z" fill="#57B894"/>
<path d="M198.099 173.32L213.784 173.728L213.694 173.894C215.224 172.343 216.649 170.69 217.959 168.946L202.594 169.808C201.09 171.066 199.592 172.237 198.099 173.32Z" fill="#57B894"/>
<path d="M179.43 182.198C179.534 182.079 179.64 181.958 179.748 181.831C182.903 181.134 185.963 180.058 188.861 178.625L188.635 167.314C188.744 167.018 188.85 166.721 188.952 166.421L189.192 178.462C191.275 177.426 193.294 176.265 195.238 174.986L192.578 154.046C192.686 153.981 192.796 153.915 192.908 153.847L195.564 174.76L195.579 174.762C197.925 173.197 200.187 171.507 202.352 169.698L199.584 149.102C199.69 149.013 199.797 148.923 199.904 148.833L202.673 169.43C203.152 169.028 203.624 168.624 204.087 168.219L201.58 147.352C201.686 147.254 201.792 147.155 201.898 147.055L204.407 167.938C206.321 166.251 208.091 164.556 209.688 162.939L207.656 141.924L207.821 141.825C207.25 142.011 206.67 142.223 206.087 142.454C207.132 141.103 208.06 139.663 208.859 138.152L196.08 145.771C195.271 147.56 194.346 149.293 193.311 150.959C193.084 151.2 192.858 151.445 192.635 151.697L192.668 151.953C192.569 152.101 192.469 152.248 192.369 152.394L192.325 152.054C192.198 152.201 192.072 152.352 191.947 152.502C193.459 150.342 194.765 148.043 195.848 145.637L181.999 129.495C182.173 130.994 182.405 132.5 182.68 133.992C181.372 132.112 179.819 130.418 178.061 128.956L178.17 129.08L175.663 137.406C176.513 140.156 177.381 143.266 178.146 146.59L182.748 134.36C182.783 134.545 182.819 134.73 182.855 134.914L178.264 147.113C178.968 150.232 179.516 153.252 179.911 156.175L185.668 145.807C185.712 145.949 185.757 146.089 185.801 146.229L179.982 156.71C180.234 158.66 180.415 160.559 180.526 162.406L187.676 151.688C187.725 151.82 187.773 151.95 187.82 152.077L180.595 162.908L180.553 162.831C180.592 163.563 180.621 164.286 180.638 165L188.801 154.608C188.855 154.743 188.905 154.868 188.952 154.981L180.648 165.553C180.651 165.775 180.656 165.997 180.657 166.217C180.674 168.323 180.577 170.43 180.366 172.526L181.159 171.619C181.019 171.961 180.882 172.298 180.749 172.631L180.299 173.147C180.263 173.459 180.223 173.768 180.182 174.076C180.028 174.475 179.881 174.864 179.739 175.243C179.854 174.53 179.954 173.813 180.037 173.091L161.903 162.043C167.126 173.482 176.335 184.116 176.924 184.791C177.32 183.931 177.678 183.052 177.996 182.153C178.104 182.136 178.213 182.118 178.321 182.1C178.283 182.208 178.247 182.317 178.209 182.424C178.152 182.433 178.095 182.444 178.039 182.453C178.086 182.463 178.135 182.474 178.186 182.485C177.959 183.115 177.717 183.73 177.46 184.33C177.823 183.962 178.366 183.393 179.025 182.657C183.19 183.471 194.366 185.077 203.63 181.203L188.954 178.876C185.929 180.377 182.73 181.493 179.43 182.198ZM188.552 163.167L188.879 162.793L188.89 163.324L188.562 163.698L188.552 163.167Z" fill="#57B894"/>
<path d="M223.774 145.955L223.898 145.982C222.506 143.056 219.927 141.354 216.635 140.844L216.646 155.276C221.078 149.991 223.736 146.012 223.774 145.955Z" fill="#57B894"/>
<path d="M194.968 175.471C193.207 176.613 191.386 177.658 189.512 178.601L204.049 180.906L203.948 181.066C205.727 180.305 207.403 179.32 208.935 178.135C209.535 177.667 210.122 177.186 210.695 176.693L195.52 175.108C195.336 175.229 195.152 175.352 194.968 175.471Z" fill="#57B894"/>
<path d="M210.005 162.615C212.36 160.212 214.482 157.838 216.315 155.669L216.304 140.906L216.469 140.818C213.975 140.465 211.082 140.788 207.991 141.772L210.005 162.615Z" fill="#57B894"/>
<path d="M177.941 128.859C175.991 127.303 173.926 126.28 171.832 125.928C171.723 125.91 171.615 125.895 171.507 125.881C171.816 126.599 173.604 130.83 175.513 136.924L177.941 128.859Z" fill="#57B894"/>
<path d="M178.008 147.008L159.266 137.483L159.272 137.29C158.718 139.509 158.39 141.779 158.291 144.064L179.381 154.168C178.988 151.64 178.512 149.23 178.008 147.008Z" fill="#57B894"/>
<path d="M179.446 154.591L158.278 144.449L158.281 144.256C158.246 145.061 158.234 145.884 158.246 146.725L158.248 146.531L179.707 156.44C179.625 155.817 179.539 155.201 179.446 154.591Z" fill="#57B894"/>
<path d="M180.394 165.728L159.569 155.925C160.18 157.933 160.923 159.897 161.795 161.804L161.81 161.593L180.078 172.722C180.322 170.399 180.428 168.064 180.394 165.728Z" fill="#57B894"/>
<path d="M171.281 125.954L171.37 125.863C168.166 125.479 165.356 126.758 163.165 129.281L175.295 136.997C173.228 130.404 171.308 126.017 171.281 125.954Z" fill="#57B894"/>
<path d="M175.448 137.488L163.04 129.595L163.055 129.407C161.423 131.336 160.145 133.966 159.317 137.118L177.907 146.565C177.148 143.279 176.29 140.207 175.448 137.488Z" fill="#57B894"/>
<path d="M180.388 165.319C180.33 162.488 180.12 159.663 179.76 156.855L158.249 146.922C158.271 148.061 158.338 149.229 158.45 150.424C158.625 152.133 158.955 153.822 159.435 155.471L180.379 165.33L180.388 165.319Z" fill="#57B894"/>
<path d="M162.859 115.179L100.383 107.261C97.5516 83.5797 101.83 60.4604 109.134 37.4691L171.61 45.3868C162.182 67.9424 159.415 91.2226 162.859 115.179Z" fill="#F2F2F2"/>
<path d="M156.042 50.6651L117.862 45.8265L117.345 49.9506L155.525 54.7892L156.042 50.6651Z" fill="#38B6FF"/>
<path opacity="0.3" d="M160.784 61.4179L109.037 54.8597L108.778 56.9218L160.526 63.4799L160.784 61.4179Z" fill="#38B6FF"/>
<path opacity="0.3" d="M159.949 68.0798L108.201 61.5217L107.943 63.5838L159.691 70.1418L159.949 68.0798Z" fill="#38B6FF"/>
<path opacity="0.3" d="M159.114 74.7417L107.366 68.1836L107.108 70.2456L158.855 76.8037L159.114 74.7417Z" fill="#38B6FF"/>
<path opacity="0.3" d="M158.279 81.4037L106.531 74.8456L106.272 76.9076L158.02 83.4657L158.279 81.4037Z" fill="#38B6FF"/>
<path opacity="0.3" d="M157.443 88.0656L105.696 81.5074L105.437 83.5695L157.185 90.1276L157.443 88.0656Z" fill="#38B6FF"/>
<path opacity="0.3" d="M156.608 94.7275L104.86 88.1694L104.602 90.2315L156.35 96.7896L156.608 94.7275Z" fill="#38B6FF"/>
<path opacity="0.3" d="M155.773 101.39L104.025 94.8314L103.767 96.8935L155.514 103.452L155.773 101.39Z" fill="#38B6FF"/>
<path d="M135.45 88.8483L77 65.2944C80.2206 41.6635 90.1781 20.385 103.031 0L161.481 23.5539C146.683 42.9771 138.147 64.7957 135.45 88.8483Z" fill="#E6E6E6"/>
<path d="M144.258 24.3941L108.538 10L107 13.8583L142.719 28.2524L144.258 24.3941Z" fill="#38B6FF"/>
<path opacity="0.3" d="M144.797 39.3094L96.3838 19.8L95.6147 21.7292L144.028 41.2385L144.797 39.3094Z" fill="#38B6FF"/>
<path opacity="0.3" d="M142.312 45.542L93.899 26.0327L93.1299 27.9619L141.543 47.4712L142.312 45.542Z" fill="#38B6FF"/>
<path opacity="0.3" d="M139.827 51.7747L91.4142 32.2654L90.6452 34.1945L139.058 53.7039L139.827 51.7747Z" fill="#38B6FF"/>
<path opacity="0.3" d="M137.343 58.0073L88.9295 38.4979L88.1604 40.4271L136.574 59.9364L137.343 58.0073Z" fill="#38B6FF"/>
<path opacity="0.3" d="M134.858 64.2399L86.4447 44.7306L85.6756 46.6597L134.089 66.1691L134.858 64.2399Z" fill="#38B6FF"/>
<path opacity="0.3" d="M132.373 70.4726L83.96 50.9633L83.1909 52.8924L131.604 72.4017L132.373 70.4726Z" fill="#38B6FF"/>
<path opacity="0.3" d="M129.888 76.7052L81.4752 57.1959L80.7061 59.1251L129.119 78.6344L129.888 76.7052Z" fill="#38B6FF"/>
<path d="M118.819 97.521H55.8483C50.0931 74.3818 51.4617 50.9062 55.8483 27.177H118.819C112.271 50.7408 112.421 74.1862 118.819 97.521Z" fill="#F2F2F2"/>
<path d="M104.03 34.3713H65.5483V38.528H104.03V34.3713Z" fill="#38B6FF"/>
<path opacity="0.3" d="M110.073 44.4434H57.9155V46.5217H110.073V44.4434Z" fill="#38B6FF"/>
<path opacity="0.3" d="M110.073 51.158H57.9155V53.2363H110.073V51.158Z" fill="#38B6FF"/>
<path opacity="0.3" d="M110.073 57.8727H57.9155V59.951H110.073V57.8727Z" fill="#38B6FF"/>
<path opacity="0.3" d="M110.073 64.5873H57.9155V66.6656H110.073V64.5873Z" fill="#38B6FF"/>
<path opacity="0.3" d="M110.073 71.302H57.9155V73.3803H110.073V71.302Z" fill="#38B6FF"/>
<path opacity="0.3" d="M110.073 78.0166H57.9155V80.0949H110.073V78.0166Z" fill="#38B6FF"/>
<path opacity="0.3" d="M110.073 84.7312H57.9155V86.8095H110.073V84.7312Z" fill="#38B6FF"/>
<path d="M76.3733 83.478L54.6792 66.5215C54.4622 66.142 54.1494 65.8267 53.7725 65.6075C53.3956 65.3883 52.9678 65.2728 52.5324 65.2728H40.8237C40.1669 65.2728 39.537 65.5351 39.0726 66.0021C38.6081 66.469 38.3472 67.1023 38.3472 67.7626V171.662C38.3472 173.804 39.1935 175.858 40.6999 177.373C42.2063 178.887 44.2495 179.738 46.3798 179.738H166.575C167.63 179.738 168.674 179.529 169.649 179.123C170.623 178.717 171.509 178.123 172.255 177.373C173 176.623 173.592 175.732 173.996 174.753C174.399 173.773 174.607 172.723 174.607 171.662V90.8183C174.607 88.8716 173.838 87.0045 172.469 85.628C171.1 84.2514 169.243 83.478 167.306 83.478H76.3733Z" fill="#3F3D56"/>
<path d="M170.519 107.573H148.718V115.245H170.519V107.573Z" fill="#38B6FF"/>
<path d="M0 195.523C0 195.523 99.7116 138.191 220.118 195.523H0Z" fill="#F2F2F2"/>
<path d="M21.3556 63.9575C21.3556 63.9575 22.4257 69.66 21.6766 70.0903C21.0715 70.4727 20.4989 70.9045 19.9643 71.3815L21.8906 74.0713L26.4923 75.0396L30.88 70.9511V66.8626C30.88 66.8626 29.5958 64.8183 29.8099 63.5272C30.0239 62.236 21.3556 63.9575 21.3556 63.9575Z" fill="#FBBEBE"/>
<path opacity="0.1" d="M21.3556 63.9575C21.3556 63.9575 22.4257 69.66 21.6766 70.0903C21.0715 70.4727 20.4989 70.9045 19.9643 71.3815L21.8906 74.0713L26.4923 75.0396L30.88 70.9511V66.8626C30.88 66.8626 29.5958 64.8183 29.8099 63.5272C30.0239 62.236 21.3556 63.9575 21.3556 63.9575Z" fill="black"/>
<path d="M13.9714 73.7485L13.3293 74.0713C13.3293 74.0713 11.9381 74.6093 11.296 79.2358C10.6539 83.8623 9.15567 94.9444 9.58374 95.2671C10.0118 95.5899 9.79777 97.7418 9.79777 97.7418L13.0083 80.8497L13.9714 73.7485Z" fill="#2F2E41"/>
<path d="M21.5813 47.4898C21.4834 47.6952 21.4491 47.935 21.3572 48.1442C20.9401 49.0944 19.7528 48.8818 18.8964 49.2412C18.1711 49.5455 17.6298 50.3813 17.573 51.2845C17.5489 51.6679 17.6048 52.0546 17.5706 52.437C17.5072 53.1432 17.145 53.7652 17.0161 54.459C16.7029 56.1445 17.4337 58.8063 18.2588 57.8967C18.519 57.6099 18.8447 57.4197 19.1257 57.1615C19.8556 56.4909 20.2273 55.4247 20.8202 54.5878C20.8952 54.4651 20.9984 54.3622 21.1212 54.2879C21.5545 54.0714 21.9401 54.6508 22.2826 55.0305C22.4569 55.2218 22.6697 55.3737 22.907 55.476C23.1442 55.5783 23.4003 55.6286 23.6583 55.6236C23.9164 55.6187 24.1704 55.5586 24.4036 55.4473C24.6367 55.336 24.8436 55.176 25.0106 54.9781C25.1151 54.8252 25.2451 54.6917 25.3949 54.5833C25.562 54.506 25.7501 54.4874 25.929 54.5306C26.7735 54.6801 27.5342 55.1355 28.0673 55.8107C28.3533 56.1626 28.5924 56.5766 28.9352 56.8494C29.278 57.1222 29.7781 57.2121 30.0868 56.8878C30.7081 57.3294 30.9398 58.2669 30.9415 59.1206C30.9431 59.9743 30.7692 60.8225 30.8116 61.6748C30.854 62.527 31.1868 63.4468 31.8624 63.7595C31.9687 62.9835 32.3693 62.2788 32.9805 61.7928C33.4406 61.4485 33.9997 61.2779 34.3888 60.8286C35.1678 59.929 34.921 58.4326 34.9509 57.1491C34.9878 55.5662 35.5335 54.0528 35.6299 52.4733C35.678 51.6839 35.5969 50.8376 35.1837 50.213C34.8709 49.7968 34.4745 49.4515 34.0201 49.1996L30.3469 46.8303C30.1838 46.7091 29.9989 46.6209 29.8023 46.5706C29.2616 46.473 28.7942 46.9829 28.2816 47.2076C27.854 47.36 27.3983 47.4156 26.9469 47.3703C25.5209 47.3315 25.1196 47.6099 24.1611 46.6758C24.0865 46.6001 23.9952 46.543 23.8946 46.5093C23.7941 46.4755 23.687 46.4661 23.5821 46.4817C23.0088 46.573 21.8949 46.8318 21.5813 47.4898Z" fill="#2F2E41"/>
<path d="M23.6029 177.468L25.8501 182.417L21.4624 183.924L19.2152 182.74L19.7504 177.468H23.6029Z" fill="#FBBEBE"/>
<path d="M21.5696 181.664C21.5696 181.664 18.038 179.512 17.3959 180.266C16.7538 181.019 11.617 186.506 11.617 186.506C11.617 186.506 3.69783 190.81 9.79777 191.455C15.8977 192.101 25.8502 187.69 25.8502 187.69C25.8502 187.69 26.3853 181.88 25.9573 181.772C25.5292 181.664 23.7099 182.74 22.8538 182.417C22.381 182.253 21.9447 181.997 21.5696 181.664Z" fill="#2F2E41"/>
<path d="M29.3817 182.74V187.151L23.6029 185.86L24.887 181.342L29.3817 182.74Z" fill="#FBBEBE"/>
<path d="M23.4959 184.247C23.4959 184.247 29.3818 183.278 29.9169 186.183C30.4519 189.088 31.8431 193.392 30.4519 194.468C29.0607 195.544 21.8906 196.943 21.7836 195.114C21.6766 193.285 22.5327 189.734 22.5327 189.734C22.5327 189.734 23.0678 186.937 22.7468 186.183C22.4257 185.43 23.4959 184.247 23.4959 184.247Z" fill="#2F2E41"/>
<path d="M11.7397 111.594C11.7397 111.594 6.90832 142.393 10.8679 157.456C14.8275 172.519 17.61 181.449 17.61 181.449C17.61 181.449 24.459 179.513 24.459 178.221C24.459 176.93 21.7836 157.779 21.1415 155.95C20.4994 154.121 19.4292 153.475 20.3924 151.969C21.3555 150.462 22.9608 140.779 22.9608 140.779C22.9608 140.779 26.4923 156.81 26.7064 157.241C26.9204 157.671 24.459 182.31 24.459 182.31C24.459 182.31 31.5232 187.464 31.9502 183.601C32.0572 182.633 36.7659 148.311 36.7659 147.88C36.7659 147.45 38.6922 114.526 35.5887 112.912C32.4852 111.299 11.7397 111.594 11.7397 111.594Z" fill="#2F2E41"/>
<path d="M25.5292 66.1094C29.5482 66.1094 32.8063 62.8337 32.8063 58.793C32.8063 54.7523 29.5482 51.4767 25.5292 51.4767C21.5101 51.4767 18.2521 54.7523 18.2521 58.793C18.2521 62.8337 21.5101 66.1094 25.5292 66.1094Z" fill="#FBBEBE"/>
<path d="M23.9239 73.3181V72.565L21.7836 69.0144C21.7836 69.0144 19.6433 69.2296 19.3222 70.1979C19.0012 71.1663 15.3626 78.913 15.3626 78.913L11.51 113.666C11.51 113.666 22.1047 116.248 23.7099 114.419C25.3152 112.59 31.4151 72.7802 31.4151 72.7802L32.2712 67.9385C32.2712 67.9385 30.8012 65.7866 30.466 66.1094C30.1309 66.4322 24.566 72.6726 24.566 72.6726L24.459 73.6409L23.9239 73.3181Z" fill="#38B6FF"/>
<path d="M21.7301 68.3151C21.7301 68.3151 19.7503 67.8309 19.1082 69.0144C18.4661 70.198 18.4661 70.6283 17.824 71.0587C17.1819 71.4891 13.4363 73.4258 13.2223 74.1789C13.0083 74.9321 8.40655 98.7101 8.40655 98.7101C8.40655 98.7101 6.15921 105.811 7.22937 110.653C8.29954 115.495 7.55042 116.463 9.79777 116.893C12.0451 117.324 12.3662 117.324 12.3662 116.678C12.3662 116.033 15.2556 94.1912 17.2889 92.6849C19.3222 91.1786 18.7872 74.7169 18.7872 74.7169C18.7872 74.7169 21.6766 71.1663 21.6766 70.6283C21.6766 70.0904 22.1582 68.2747 21.7301 68.3151Z" fill="#2F2E41"/>
<path d="M27.7765 72.2422C28.0751 72.2922 32.1642 66.9701 32.4853 67.1853C32.8063 67.4005 34.4115 70.1979 34.6256 70.1979C34.8396 70.1979 43.936 72.4574 44.6851 76.6535C45.4343 80.8496 39.4413 94.1912 39.4413 94.1912C39.4413 94.1912 36.8729 101.83 37.408 105.166C37.7711 107.706 37.6987 110.289 37.194 112.805C36.9799 113.666 36.2308 114.634 36.4449 115.064C36.6589 115.495 31.7361 114.526 29.7028 115.71C27.6695 116.893 18.5731 117.754 19.1082 116.463C19.6433 115.172 19.9643 110.115 21.4626 104.735C22.9608 99.3556 26.8134 86.6596 26.1713 85.7989C25.5292 84.9382 27.1344 72.1346 27.7765 72.2422Z" fill="#2F2E41"/>
<path d="M43.4009 75.3624L44.7922 76.6535C44.7922 76.6535 46.3974 79.451 46.1834 80.7421C45.9693 82.0332 50.6781 101.508 48.7518 102.153C46.8255 102.799 42.2238 106.026 41.6887 106.887C41.1536 107.748 39.8694 109.254 39.0133 109.685C38.1571 110.115 37.301 110.868 36.7659 110.438C36.2308 110.007 35.0536 101.185 35.9098 100.862C36.7659 100.539 37.622 99.5709 38.4782 99.5709C39.3343 99.5709 39.8694 98.7101 39.8694 97.957C39.8694 97.2038 39.2273 92.6849 39.2273 92.6849L37.8361 82.0332L43.4009 75.3624Z" fill="#2F2E41"/>
<path d="M22.8652 48.5604C22.7786 48.7157 22.7482 48.8969 22.667 49.0551C22.2982 49.7734 21.2484 49.6127 20.4911 49.8844C20.1711 50.0048 19.8914 50.2137 19.6844 50.487C19.4774 50.7603 19.3514 51.0868 19.321 51.429C19.2997 51.7189 19.3492 52.0112 19.3188 52.3003C19.2629 52.8342 18.9426 53.3044 18.8286 53.8289C18.5517 55.103 19.1978 57.1152 19.9274 56.4276C20.1574 56.2107 20.4454 56.067 20.6939 55.8718C21.3393 55.3649 21.668 54.5589 22.1922 53.9262C22.2619 53.8306 22.3531 53.7529 22.4584 53.6995C22.8414 53.5359 23.1824 53.9738 23.4853 54.2609C23.8203 54.5567 24.253 54.7166 24.6989 54.7093C25.1448 54.702 25.572 54.528 25.8973 54.2213C25.9928 54.103 26.1077 54.0021 26.2371 53.9228C26.3875 53.8641 26.5514 53.8503 26.7094 53.883C27.4299 53.9827 28.096 54.3236 28.6001 54.8507C28.8276 55.139 29.0848 55.4022 29.3675 55.6359C29.6706 55.8421 30.1128 55.91 30.3858 55.6649C30.9351 55.9988 31.14 56.7075 31.1415 57.3528C31.1429 57.9982 30.9891 58.6394 31.0266 59.2837C31.0642 59.9279 31.3584 60.6232 31.9557 60.8596C32.0106 60.557 32.1266 60.2689 32.2967 60.0132C32.4668 59.7575 32.6872 59.5395 32.9444 59.3729C33.3512 59.1126 33.8456 58.9837 34.1896 58.644C34.8784 57.9639 34.6602 56.8327 34.6866 55.8625C34.7193 54.6658 35.2017 53.5218 35.287 52.3277C35.3296 51.731 35.2578 51.0913 34.8925 50.6191C34.6048 50.2961 34.2547 50.0355 33.8636 49.853L30.6158 48.0619C30.4678 47.9688 30.3049 47.9023 30.1342 47.8656C29.6561 47.7918 29.2428 48.1772 28.7896 48.3471C28.4075 48.4628 28.007 48.5045 27.6094 48.4701C26.3486 48.4408 25.9937 48.6513 25.1462 47.9451C25.0756 47.8864 24.9937 47.8431 24.9055 47.8178C24.8174 47.7925 24.7251 47.7859 24.6343 47.7983C24.1274 47.8674 23.1424 48.063 22.8652 48.5604Z" fill="#2F2E41"/>
<!-- <path d="M12.6025 231.372H6.30762V238H3.58984V222.359H13.5264V224.551H6.30762V229.202H12.6025V231.372ZM22.2383 236.861C21.472 237.764 20.3835 238.215 18.9727 238.215C17.7122 238.215 16.7562 237.846 16.1045 237.108C15.46 236.371 15.1377 235.304 15.1377 233.907V226.377H17.748V233.875C17.748 235.35 18.3604 236.088 19.585 236.088C20.8525 236.088 21.7083 235.633 22.1523 234.724V226.377H24.7627V238H22.3027L22.2383 236.861ZM30.1982 238H27.5879V221.5H30.1982V238ZM35.8271 238H33.2168V221.5H35.8271V238ZM52.585 233.972C52.585 233.284 52.3415 232.754 51.8545 232.382C51.3747 232.009 50.5046 231.633 49.2441 231.254C47.9837 230.874 46.9811 230.452 46.2363 229.986C44.8112 229.091 44.0986 227.924 44.0986 226.484C44.0986 225.224 44.6107 224.186 45.6348 223.369C46.666 222.553 48.0016 222.145 49.6416 222.145C50.7301 222.145 51.7005 222.345 52.5527 222.746C53.4049 223.147 54.0745 223.72 54.5615 224.465C55.0485 225.202 55.292 226.022 55.292 226.925H52.585C52.585 226.108 52.3271 225.471 51.8115 225.013C51.3031 224.547 50.5726 224.314 49.6201 224.314C48.7321 224.314 48.041 224.504 47.5469 224.884C47.0599 225.263 46.8164 225.793 46.8164 226.474C46.8164 227.047 47.0814 227.526 47.6113 227.913C48.1413 228.293 49.015 228.665 50.2324 229.03C51.4499 229.388 52.4274 229.8 53.165 230.266C53.9027 230.724 54.4434 231.254 54.7871 231.855C55.1309 232.45 55.3027 233.148 55.3027 233.95C55.3027 235.254 54.8014 236.292 53.7988 237.065C52.8034 237.832 51.4499 238.215 49.7383 238.215C48.6068 238.215 47.5648 238.007 46.6123 237.592C45.667 237.169 44.9294 236.589 44.3994 235.852C43.8766 235.114 43.6152 234.255 43.6152 233.273H46.333C46.333 234.161 46.6266 234.849 47.2139 235.336C47.8011 235.823 48.6426 236.066 49.7383 236.066C50.6836 236.066 51.3926 235.877 51.8652 235.497C52.3451 235.11 52.585 234.602 52.585 233.972ZM60.7061 223.552V226.377H62.7578V228.311H60.7061V234.799C60.7061 235.243 60.792 235.565 60.9639 235.766C61.1429 235.959 61.458 236.056 61.9092 236.056C62.21 236.056 62.5143 236.02 62.8223 235.948V237.968C62.2279 238.132 61.6549 238.215 61.1035 238.215C59.0983 238.215 58.0957 237.108 58.0957 234.896V228.311H56.1836V226.377H58.0957V223.552H60.7061ZM71.7061 238C71.5915 237.778 71.4912 237.416 71.4053 236.915C70.5745 237.782 69.5576 238.215 68.3545 238.215C67.1872 238.215 66.2347 237.882 65.4971 237.216C64.7594 236.55 64.3906 235.726 64.3906 234.745C64.3906 233.506 64.849 232.557 65.7656 231.898C66.6895 231.232 68.0072 230.899 69.7188 230.899H71.3193V230.137C71.3193 229.535 71.151 229.055 70.8145 228.697C70.4779 228.332 69.9658 228.149 69.2783 228.149C68.6839 228.149 68.1969 228.3 67.8174 228.601C67.4378 228.894 67.248 229.27 67.248 229.729H64.6377C64.6377 229.091 64.849 228.497 65.2715 227.945C65.694 227.387 66.2669 226.95 66.9902 226.635C67.7207 226.32 68.5335 226.162 69.4287 226.162C70.7894 226.162 71.8743 226.506 72.6836 227.193C73.4928 227.874 73.9082 228.833 73.9297 230.072V235.314C73.9297 236.36 74.0765 237.194 74.3701 237.817V238H71.7061ZM68.8379 236.12C69.3535 236.12 69.8369 235.995 70.2881 235.744C70.7464 235.493 71.0902 235.157 71.3193 234.734V232.543H69.9121C68.9453 232.543 68.2184 232.711 67.7314 233.048C67.2445 233.384 67.001 233.861 67.001 234.477C67.001 234.978 67.1657 235.379 67.4951 235.68C67.8317 235.973 68.2793 236.12 68.8379 236.12ZM81.4385 236.131C82.0902 236.131 82.6309 235.941 83.0605 235.562C83.4902 235.182 83.7194 234.713 83.748 234.154H86.208C86.1794 234.878 85.9538 235.554 85.5312 236.185C85.1087 236.808 84.5358 237.302 83.8125 237.667C83.0892 238.032 82.3086 238.215 81.4707 238.215C79.8451 238.215 78.556 237.688 77.6035 236.636C76.651 235.583 76.1748 234.129 76.1748 232.274V232.006C76.1748 230.237 76.6475 228.823 77.5928 227.763C78.5381 226.696 79.8271 226.162 81.46 226.162C82.8421 226.162 83.9665 226.567 84.833 227.376C85.7067 228.178 86.165 229.234 86.208 230.545H83.748C83.7194 229.879 83.4902 229.331 83.0605 228.901C82.638 228.472 82.0973 228.257 81.4385 228.257C80.5934 228.257 79.9417 228.565 79.4834 229.181C79.0251 229.789 78.7923 230.717 78.7852 231.963V232.382C78.7852 233.642 79.0107 234.584 79.4619 235.207C79.9202 235.823 80.5791 236.131 81.4385 236.131ZM91.9551 233.016L90.7949 234.208V238H88.1846V221.5H90.7949V231.018L91.6113 229.997L94.8232 226.377H97.96L93.6416 231.222L98.4219 238H95.4033L91.9551 233.016ZM105.404 238V222.359H110.023C111.406 222.359 112.63 222.667 113.697 223.283C114.771 223.899 115.602 224.773 116.189 225.904C116.777 227.036 117.07 228.332 117.07 229.793V230.577C117.07 232.06 116.773 233.363 116.179 234.487C115.591 235.612 114.75 236.478 113.654 237.087C112.566 237.696 111.316 238 109.905 238H105.404ZM108.122 224.551V235.83H109.895C111.32 235.83 112.412 235.386 113.171 234.498C113.937 233.603 114.327 232.321 114.342 230.652V229.782C114.342 228.085 113.973 226.789 113.235 225.894C112.498 224.998 111.427 224.551 110.023 224.551H108.122ZM124.644 238.215C122.989 238.215 121.646 237.696 120.615 236.657C119.591 235.612 119.079 234.222 119.079 232.489V232.167C119.079 231.007 119.301 229.972 119.745 229.062C120.196 228.146 120.826 227.433 121.636 226.925C122.445 226.416 123.347 226.162 124.343 226.162C125.925 226.162 127.146 226.667 128.006 227.677C128.872 228.687 129.306 230.115 129.306 231.963V233.016H121.711C121.79 233.975 122.108 234.734 122.667 235.293C123.233 235.852 123.942 236.131 124.794 236.131C125.99 236.131 126.964 235.647 127.716 234.681L129.123 236.023C128.658 236.718 128.035 237.259 127.254 237.646C126.48 238.025 125.61 238.215 124.644 238.215ZM124.332 228.257C123.616 228.257 123.036 228.507 122.592 229.009C122.155 229.51 121.876 230.208 121.754 231.104H126.728V230.91C126.67 230.036 126.438 229.378 126.029 228.934C125.621 228.482 125.055 228.257 124.332 228.257ZM135.289 234.691L137.749 226.377H140.445L136.417 238H134.15L130.09 226.377H132.797L135.289 234.691ZM147.052 238.215C145.397 238.215 144.055 237.696 143.023 236.657C141.999 235.612 141.487 234.222 141.487 232.489V232.167C141.487 231.007 141.709 229.972 142.153 229.062C142.604 228.146 143.235 227.433 144.044 226.925C144.853 226.416 145.756 226.162 146.751 226.162C148.334 226.162 149.555 226.667 150.414 227.677C151.281 228.687 151.714 230.115 151.714 231.963V233.016H144.119C144.198 233.975 144.517 234.734 145.075 235.293C145.641 235.852 146.35 236.131 147.202 236.131C148.398 236.131 149.372 235.647 150.124 234.681L151.531 236.023C151.066 236.718 150.443 237.259 149.662 237.646C148.889 238.025 148.019 238.215 147.052 238.215ZM146.74 228.257C146.024 228.257 145.444 228.507 145 229.009C144.563 229.51 144.284 230.208 144.162 231.104H149.136V230.91C149.078 230.036 148.846 229.378 148.438 228.934C148.029 228.482 147.464 228.257 146.74 228.257ZM156.526 238H153.916V221.5H156.526V238ZM158.89 232.081C158.89 230.942 159.115 229.918 159.566 229.009C160.018 228.092 160.651 227.39 161.468 226.903C162.284 226.409 163.222 226.162 164.282 226.162C165.851 226.162 167.122 226.667 168.096 227.677C169.077 228.687 169.607 230.026 169.686 231.694L169.696 232.307C169.696 233.452 169.474 234.477 169.03 235.379C168.593 236.281 167.963 236.979 167.14 237.474C166.323 237.968 165.378 238.215 164.304 238.215C162.664 238.215 161.35 237.671 160.361 236.582C159.38 235.486 158.89 234.029 158.89 232.21V232.081ZM161.5 232.307C161.5 233.503 161.747 234.441 162.241 235.121C162.735 235.794 163.423 236.131 164.304 236.131C165.185 236.131 165.868 235.787 166.355 235.1C166.85 234.412 167.097 233.406 167.097 232.081C167.097 230.907 166.842 229.976 166.334 229.288C165.833 228.601 165.149 228.257 164.282 228.257C163.43 228.257 162.753 228.597 162.252 229.277C161.751 229.951 161.5 230.96 161.5 232.307ZM182.082 232.307C182.082 234.104 181.674 235.54 180.857 236.614C180.041 237.681 178.945 238.215 177.57 238.215C176.296 238.215 175.275 237.796 174.509 236.958V242.469H171.898V226.377H174.305L174.412 227.559C175.178 226.628 176.22 226.162 177.538 226.162C178.956 226.162 180.066 226.692 180.868 227.752C181.677 228.805 182.082 230.269 182.082 232.146V232.307ZM179.482 232.081C179.482 230.921 179.25 230.001 178.784 229.32C178.326 228.64 177.667 228.3 176.808 228.3C175.741 228.3 174.974 228.74 174.509 229.621V234.777C174.981 235.68 175.755 236.131 176.829 236.131C177.66 236.131 178.308 235.798 178.773 235.132C179.246 234.459 179.482 233.442 179.482 232.081ZM186.755 226.377L186.83 227.591C187.646 226.638 188.764 226.162 190.182 226.162C191.736 226.162 192.799 226.757 193.372 227.945C194.217 226.757 195.406 226.162 196.938 226.162C198.22 226.162 199.173 226.517 199.796 227.226C200.426 227.935 200.748 228.98 200.763 230.362V238H198.152V230.438C198.152 229.7 197.991 229.159 197.669 228.815C197.347 228.472 196.813 228.3 196.068 228.3C195.474 228.3 194.987 228.461 194.607 228.783C194.235 229.098 193.974 229.514 193.823 230.029L193.834 238H191.224V230.352C191.188 228.984 190.49 228.3 189.129 228.3C188.083 228.3 187.342 228.726 186.905 229.578V238H184.295V226.377H186.755ZM208.562 238.215C206.907 238.215 205.564 237.696 204.533 236.657C203.509 235.612 202.997 234.222 202.997 232.489V232.167C202.997 231.007 203.219 229.972 203.663 229.062C204.114 228.146 204.744 227.433 205.554 226.925C206.363 226.416 207.265 226.162 208.261 226.162C209.843 226.162 211.064 226.667 211.924 227.677C212.79 228.687 213.224 230.115 213.224 231.963V233.016H205.629C205.708 233.975 206.026 234.734 206.585 235.293C207.151 235.852 207.86 236.131 208.712 236.131C209.908 236.131 210.882 235.647 211.634 234.681L213.041 236.023C212.576 236.718 211.952 237.259 211.172 237.646C210.398 238.025 209.528 238.215 208.562 238.215ZM208.25 228.257C207.534 228.257 206.954 228.507 206.51 229.009C206.073 229.51 205.794 230.208 205.672 231.104H210.646V230.91C210.588 230.036 210.355 229.378 209.947 228.934C209.539 228.482 208.973 228.257 208.25 228.257ZM217.682 226.377L217.757 227.72C218.616 226.681 219.744 226.162 221.141 226.162C223.561 226.162 224.793 227.548 224.836 230.319V238H222.226V230.47C222.226 229.732 222.064 229.188 221.742 228.837C221.427 228.479 220.908 228.3 220.185 228.3C219.132 228.3 218.348 228.776 217.832 229.729V238H215.222V226.377H217.682ZM230.776 223.552V226.377H232.828V228.311H230.776V234.799C230.776 235.243 230.862 235.565 231.034 235.766C231.213 235.959 231.528 236.056 231.979 236.056C232.28 236.056 232.585 236.02 232.893 235.948V237.968C232.298 238.132 231.725 238.215 231.174 238.215C229.169 238.215 228.166 237.108 228.166 234.896V228.311H226.254V226.377H228.166V223.552H230.776Z" fill="#222433"/> -->
<path d="M66.8193 48.9873H63.958V52H62.7227V44.8906H67.2393V45.8867H63.958V48.001H66.8193V48.9873ZM70.7451 47.8008C70.5889 47.7747 70.4277 47.7617 70.2617 47.7617C69.7181 47.7617 69.3519 47.9701 69.1631 48.3867V52H67.9766V46.7168H69.1094L69.1387 47.3076C69.4251 46.8486 69.8223 46.6191 70.3301 46.6191C70.4993 46.6191 70.6393 46.6419 70.75 46.6875L70.7451 47.8008ZM71.0967 49.3096C71.0967 48.792 71.1992 48.3265 71.4043 47.9131C71.6094 47.4964 71.8975 47.1774 72.2686 46.9561C72.6396 46.7314 73.0661 46.6191 73.5479 46.6191C74.2607 46.6191 74.8385 46.8486 75.2812 47.3076C75.7272 47.7666 75.9681 48.3753 76.0039 49.1338L76.0088 49.4121C76.0088 49.9329 75.9079 50.3984 75.7061 50.8086C75.5075 51.2188 75.221 51.5361 74.8467 51.7607C74.4756 51.9854 74.0459 52.0977 73.5576 52.0977C72.8122 52.0977 72.2148 51.8503 71.7656 51.3555C71.3197 50.8574 71.0967 50.195 71.0967 49.3682V49.3096ZM72.2832 49.4121C72.2832 49.9557 72.3955 50.3822 72.6201 50.6914C72.8447 50.9974 73.1572 51.1504 73.5576 51.1504C73.958 51.1504 74.2689 50.9941 74.4902 50.6816C74.7148 50.3691 74.8271 49.9118 74.8271 49.3096C74.8271 48.7757 74.7116 48.3525 74.4805 48.04C74.2526 47.7275 73.9417 47.5713 73.5479 47.5713C73.1605 47.5713 72.8529 47.7259 72.625 48.0352C72.3971 48.3411 72.2832 48.8001 72.2832 49.4121ZM78.1133 46.7168L78.1475 47.3271C78.5381 46.8551 79.0508 46.6191 79.6855 46.6191C80.7858 46.6191 81.3457 47.249 81.3652 48.5088V52H80.1787V48.5771C80.1787 48.2419 80.1055 47.9945 79.959 47.835C79.8158 47.6722 79.5798 47.5908 79.251 47.5908C78.7725 47.5908 78.416 47.8073 78.1816 48.2402V52H76.9951V46.7168H78.1133ZM84.0654 45.4326V46.7168H84.998V47.5957H84.0654V50.5449C84.0654 50.7467 84.1045 50.8932 84.1826 50.9844C84.264 51.0723 84.4072 51.1162 84.6123 51.1162C84.749 51.1162 84.8874 51.0999 85.0273 51.0674V51.9854C84.7572 52.0602 84.4967 52.0977 84.2461 52.0977C83.3346 52.0977 82.8789 51.5947 82.8789 50.5889V47.5957H82.0098V46.7168H82.8789V45.4326H84.0654ZM88.2354 52.0977C87.4834 52.0977 86.873 51.8617 86.4043 51.3896C85.9388 50.9144 85.7061 50.2829 85.7061 49.4951V49.3486C85.7061 48.8213 85.807 48.3509 86.0088 47.9375C86.2139 47.5208 86.5003 47.1969 86.8682 46.9658C87.236 46.7347 87.6462 46.6191 88.0986 46.6191C88.818 46.6191 89.373 46.8486 89.7637 47.3076C90.1576 47.7666 90.3545 48.416 90.3545 49.2559V49.7344H86.9023C86.9382 50.1706 87.083 50.5156 87.3369 50.7695C87.5941 51.0234 87.9163 51.1504 88.3037 51.1504C88.8473 51.1504 89.29 50.9307 89.6318 50.4912L90.2715 51.1016C90.0599 51.4173 89.7767 51.6631 89.4219 51.8389C89.0703 52.0114 88.6748 52.0977 88.2354 52.0977ZM88.0938 47.5713C87.7682 47.5713 87.5046 47.6852 87.3027 47.9131C87.1042 48.141 86.9772 48.4583 86.9219 48.8652H89.1826V48.7773C89.1566 48.3802 89.0508 48.0807 88.8652 47.8789C88.6797 47.6738 88.4225 47.5713 88.0938 47.5713ZM92.3809 46.7168L92.415 47.3271C92.8057 46.8551 93.3184 46.6191 93.9531 46.6191C95.0534 46.6191 95.6133 47.249 95.6328 48.5088V52H94.4463V48.5771C94.4463 48.2419 94.373 47.9945 94.2266 47.835C94.0833 47.6722 93.8473 47.5908 93.5186 47.5908C93.04 47.5908 92.6836 47.8073 92.4492 48.2402V52H91.2627V46.7168H92.3809ZM96.624 49.3193C96.624 48.5055 96.8128 47.8529 97.1904 47.3613C97.568 46.8665 98.0742 46.6191 98.709 46.6191C99.2689 46.6191 99.7214 46.8145 100.066 47.2051V44.5H101.253V52H100.179L100.12 51.4531C99.7653 51.8828 99.2917 52.0977 98.6992 52.0977C98.0807 52.0977 97.5794 51.8486 97.1953 51.3506C96.8145 50.8525 96.624 50.1755 96.624 49.3193ZM97.8105 49.4219C97.8105 49.959 97.9131 50.3789 98.1182 50.6816C98.3265 50.9811 98.6211 51.1309 99.002 51.1309C99.487 51.1309 99.8418 50.9144 100.066 50.4814V48.2256C99.8483 47.8024 99.4967 47.5908 99.0117 47.5908C98.6276 47.5908 98.3314 47.7438 98.123 48.0498C97.9147 48.3525 97.8105 48.8099 97.8105 49.4219Z" fill="black"/>
<path d="M102.758 20.536L105.606 14.0218L107.838 14.9977C108.575 15.3197 109.071 15.7124 109.327 16.1759C109.583 16.6394 109.583 17.1634 109.327 17.7481C109.197 18.0463 108.999 18.2796 108.734 18.4478C108.468 18.616 108.152 18.6979 107.784 18.6936C108.094 18.9429 108.287 19.242 108.362 19.5909C108.441 19.9381 108.4 20.2966 108.238 20.6665C107.971 21.2779 107.569 21.6617 107.031 21.8177C106.497 21.975 105.865 21.8939 105.134 21.5745L102.758 20.536ZM105.175 18.0914L104.285 20.1271L105.543 20.6766C105.897 20.8317 106.213 20.865 106.49 20.7764C106.767 20.6877 106.974 20.4868 107.111 20.1737C107.407 19.4966 107.212 18.9993 106.526 18.682L105.175 18.0914ZM105.539 17.2592L106.648 17.7442C107 17.898 107.309 17.9389 107.575 17.8669C107.846 17.7932 108.045 17.6102 108.172 17.3179C108.313 16.9957 108.322 16.7227 108.2 16.4987C108.081 16.276 107.827 16.0799 107.439 15.9104L106.339 15.4293L105.539 17.2592ZM111.326 24.2811C111.319 24.1678 111.343 23.9989 111.398 23.7745C110.895 23.9841 110.392 23.9795 109.891 23.7604C109.405 23.5479 109.069 23.2358 108.883 22.8241C108.697 22.4125 108.693 22.0023 108.872 21.5937C109.097 21.0777 109.461 20.7659 109.963 20.6584C110.469 20.5492 111.078 20.6504 111.791 20.962L112.458 21.2533L112.597 20.9357C112.706 20.6851 112.723 20.4547 112.648 20.2442C112.575 20.0309 112.395 19.8616 112.108 19.7364C111.861 19.6282 111.631 19.6022 111.418 19.6584C111.206 19.7115 111.059 19.8336 110.975 20.0245L109.888 19.5493C110.004 19.2838 110.2 19.0747 110.477 18.9219C110.754 18.7662 111.073 18.6886 111.431 18.689C111.793 18.6908 112.16 18.7731 112.533 18.9361C113.1 19.1838 113.489 19.5245 113.701 19.9582C113.914 20.3888 113.912 20.8641 113.696 21.3841L112.741 23.5674C112.551 24.0029 112.46 24.3771 112.469 24.6901L112.436 24.7661L111.326 24.2811ZM110.474 22.976C110.689 23.0699 110.913 23.1057 111.146 23.0834C111.383 23.0625 111.587 22.9848 111.76 22.8506L112.159 21.9379L111.572 21.6817C111.17 21.5057 110.836 21.4434 110.572 21.495C110.308 21.5465 110.12 21.7005 110.008 21.957C109.917 22.1658 109.912 22.3628 109.995 22.5481C110.082 22.7317 110.241 22.8743 110.474 22.976ZM115.72 25.2744C115.991 25.3931 116.251 25.4125 116.499 25.3326C116.747 25.2528 116.928 25.0991 117.042 24.8717L118.066 25.3195C117.923 25.6156 117.706 25.8564 117.415 26.0419C117.125 26.2245 116.797 26.326 116.429 26.3464C116.061 26.3669 115.703 26.3008 115.354 26.1483C114.677 25.8523 114.236 25.3984 114.031 24.7866C113.826 24.1747 113.892 23.4825 114.23 22.71L114.279 22.5981C114.601 21.8614 115.055 21.3584 115.642 21.089C116.23 20.8167 116.864 20.8292 117.544 21.1264C118.119 21.378 118.514 21.7513 118.728 22.2461C118.946 22.7392 118.944 23.2626 118.723 23.8162L117.699 23.3684C117.808 23.0858 117.812 22.8159 117.712 22.5587C117.614 22.3028 117.428 22.1149 117.153 21.9949C116.802 21.8411 116.474 21.8507 116.171 22.0238C115.869 22.1939 115.604 22.5378 115.374 23.0555L115.297 23.2299C115.068 23.7549 114.99 24.1882 115.065 24.5298C115.144 24.8698 115.362 25.118 115.72 25.2744ZM120.667 25.8915L119.967 26.177L119.277 27.7563L118.189 27.2811L121.193 20.4089L122.28 20.8841L120.548 24.8482L121.074 24.5717L123.07 23.6487L124.377 24.2198L121.696 25.4514L122.453 29.1448L121.196 28.5953L120.667 25.8915ZM124.978 30.3549C124.289 30.0537 123.824 29.593 123.584 28.9728C123.347 28.3509 123.387 27.679 123.703 26.9572L123.761 26.823C123.972 26.3398 124.253 25.9492 124.604 25.6512C124.959 25.3515 125.351 25.1695 125.78 25.1051C126.21 25.0406 126.632 25.099 127.047 25.2802C127.706 25.5684 128.123 26.0009 128.297 26.5779C128.474 27.1563 128.394 27.8302 128.058 28.5997L127.866 29.0382L124.703 27.6555C124.561 28.0696 124.555 28.4438 124.686 28.7781C124.82 29.1137 125.065 29.3591 125.42 29.5143C125.918 29.732 126.412 29.708 126.901 29.4422L127.242 30.2577C126.922 30.4623 126.564 30.574 126.169 30.593C125.777 30.6103 125.38 30.5309 124.978 30.3549ZM126.661 26.1507C126.363 26.0203 126.075 26.0191 125.799 26.1471C125.526 26.2763 125.283 26.5163 125.069 26.867L127.14 27.7724L127.176 27.6919C127.311 27.3176 127.334 27.0008 127.245 26.7416C127.157 26.4793 126.962 26.2824 126.661 26.1507ZM130.931 27.0848L130.718 27.6578C131.265 27.3817 131.829 27.3708 132.411 27.625C133.419 28.0657 133.68 28.8671 133.193 30.0293L131.795 33.2282L130.708 32.753L132.079 29.6167C132.213 29.3094 132.245 29.0534 132.175 28.8486C132.109 28.6421 131.925 28.473 131.624 28.3413C131.185 28.1497 130.772 28.2053 130.384 28.5081L128.878 31.9531L127.791 31.4779L129.907 26.637L130.931 27.0848ZM133.777 31.1689C134.103 30.4233 134.537 29.9009 135.08 29.6017C135.624 29.2996 136.187 29.2756 136.769 29.5298C137.282 29.7541 137.618 30.1143 137.778 30.6104L138.861 28.1318L139.949 28.607L136.945 35.4792L135.96 35.0489L136.126 34.5244C135.629 34.776 135.109 34.7831 134.566 34.5458C133.999 34.2981 133.639 33.8692 133.487 33.259C133.337 32.6501 133.434 31.9534 133.777 31.1689ZM134.823 31.7381C134.608 32.2303 134.534 32.6561 134.6 33.0156C134.671 33.3735 134.881 33.6287 135.23 33.7812C135.675 33.9755 136.087 33.9192 136.466 33.6125L137.369 31.5455C137.339 31.0704 137.101 30.7357 136.657 30.5414C136.305 30.3876 135.972 30.4091 135.659 30.6061C135.347 30.8 135.068 31.1774 134.823 31.7381Z" fill="black"/>
</svg>
