<svg width="274" height="272" viewBox="0 0 274 272" fill="none" xmlns="http://www.w3.org/2000/svg">
<g clip-path="url(#clip0)">
<path d="M251.167 158.667V238H205.5V153H245.458C248.609 153 251.167 155.539 251.167 158.667H251.167Z" fill="#61E3A7"/>
<path d="M205.5 153V238H159.833V153H205.5Z" fill="#33C481"/>
<path d="M159.833 107.667V238H114.167V107.667C114.167 104.539 116.724 102 119.875 102H154.125C157.276 102 159.833 104.539 159.833 107.667H159.833Z" fill="#21A366"/>
<path d="M114.167 136V238H68.5V141.667C68.5 138.539 71.0573 136 74.2083 136H114.167Z" fill="#0C9354"/>
<path d="M68.5 170V238H22.8333V175.667C22.8333 172.539 25.3907 170 28.5417 170H68.5Z" fill="#185C37"/>
<path d="M112.772 90.9687C112.407 93.2336 109.455 93.9393 108.095 92.083C108.095 92.083 108.095 92.083 108.095 92.083L73.4911 44.8004L73.4909 44.8002C72.1302 42.9442 73.7114 40.367 76.0074 40.7296L76.0076 40.7296L114.305 46.7533L114.305 46.7533C117.281 47.2194 119.309 49.9992 118.84 52.9498L112.772 90.9673L112.772 90.9687Z" fill="#38B6FF" stroke="black" stroke-width="0.5"/>
<path d="M25.2381 109.558C23.4632 107.148 23.9973 103.766 26.4319 102.002C26.4361 101.999 26.4402 101.996 26.4444 101.993L26.4445 101.993L94.8574 52.6514L107.172 69.4745L38.7618 118.814L38.7617 118.814C36.3209 120.576 32.9033 120.039 31.1354 117.617L31.1352 117.617L25.2385 109.559L25.2381 109.558Z" fill="#38B6FF" stroke="black" stroke-width="0.5"/>
<path d="M97.0078 49.6294L113.583 72.4412L100.76 81.7593L83 57.3181L94.2209 49.1648C95.1057 48.5218 96.3542 48.73 97.0078 49.6294L97.0078 49.6294Z" fill="#38B6FF"/>
<path d="M209.296 116.518C214.399 115.702 216.951 113.044 216.951 108.545C216.951 104.901 214.399 101.926 209.296 99.62C207.093 98.6736 204.467 97.58 201.481 96.441C193.13 93.2053 187.427 89.7033 184.379 85.9293C181.805 82.7503 180.321 78.982 179.915 74.6243C179.339 68.3797 181.314 61.9253 185.527 57.443C189.511 53.193 194.831 50.728 201.487 50.0423V42.449C201.476 40.9133 202.674 39.6666 204.147 39.6666H206.619C208.092 39.6666 209.29 40.9133 209.29 42.449V49.8156C215.872 50.1386 220.998 51.1473 224.663 52.836C225.605 53.2723 226.153 54.2866 226.153 55.3633V64.0673C226.153 66.0677 224.172 67.4447 222.431 66.5947C218.412 64.6453 214.034 63.3987 209.29 62.866C206.864 62.5883 203.947 62.5033 201.293 63.0077C196.778 63.886 194.038 66.861 194.032 71.1733C194.026 75.004 196.475 78.1037 201.476 80.767C204.227 82.2516 206.904 83.2773 209.29 84.0026C217.122 86.666 222.705 90.2983 226.096 94.0723C229.486 97.8463 231.182 102.408 231.182 107.763C231.182 113.934 229.292 118.909 225.508 122.678C221.723 126.452 216.317 128.747 209.29 129.563V138.879C209.29 140.414 208.092 141.661 206.619 141.661H204.147C202.674 141.661 201.476 140.414 201.476 138.879V129.897C194.82 129.863 188.592 128.418 182.781 125.562C181.839 125.097 181.245 124.072 181.245 122.984V114.433C181.245 112.359 183.335 110.908 185.11 111.843C186.651 112.653 188.449 113.43 190.504 114.172C194.609 115.657 198.268 116.512 201.476 116.739C204.216 116.909 206.83 116.847 209.296 116.518L209.296 116.518Z" fill="#38B6FF"/>
</g>
<defs>
<clipPath id="clip0">
<rect width="274" height="272" fill="white"/>
</clipPath>
</defs>
</svg>
