<svg  viewBox="0 0 247 175" fill="none" xmlns="http://www.w3.org/2000/svg">
<g clip-path="url(#clip0)">
<path d="M22.8702 156.52C35.4502 156.52 45.6483 155.801 45.6483 154.913C45.6483 154.026 35.4502 153.306 22.8702 153.306C10.2903 153.306 0.0921707 154.026 0.0921707 154.913C0.0921707 155.801 10.2903 156.52 22.8702 156.52Z" fill="#D0CDE1"/>
<path d="M92.0084 175C124.716 175 151.231 173.741 151.231 172.188C151.231 170.635 124.716 169.376 92.0084 169.376C59.3004 169.376 32.7854 170.635 32.7854 172.188C32.7854 173.741 59.3004 175 92.0084 175Z" fill="#D0CDE1"/>
<path d="M122.826 58.4958L123.898 56.621L118.538 55.5497L118.002 58.228L118.806 60.3706L122.826 58.4958Z" fill="#38B6FF"/>
<path opacity="0.2" d="M122.826 58.4958L123.898 56.621L118.538 55.5497L118.002 58.228L118.806 60.3706L122.826 58.4958Z" fill="white"/>
<path d="M119.744 57.2905C123.592 57.2905 126.711 54.1729 126.711 50.3271C126.711 46.4812 123.592 43.3636 119.744 43.3636C115.896 43.3636 112.777 46.4812 112.777 50.3271C112.777 54.1729 115.896 57.2905 119.744 57.2905Z" fill="#FFB8B8"/>
<path d="M113.849 50.3271L108.221 59.7011L116.528 64.5219L120.816 54.6124L113.849 50.3271Z" fill="#FFB8B8"/>
<path d="M113.313 61.3079L106.077 58.3618C106.077 58.3618 95.0901 60.2366 94.0182 63.7183C92.9463 67.2001 92.9463 95.3218 92.9463 95.3218C92.9463 95.3218 90.2665 102.285 94.0182 102.553C94.0182 102.553 92.9463 104.16 94.0182 104.428C95.0901 104.696 106.077 104.428 110.365 105.767C114.652 107.106 123.228 108.177 123.228 106.838V104.428C123.228 104.428 125.104 102.553 124.032 99.3392C122.96 96.1253 121.62 89.1618 121.62 89.1618C121.62 89.1618 129.659 71.4853 128.855 69.3427C128.051 67.2001 118.236 60.5747 118.236 60.5747L113.313 61.3079Z" fill="#38B6FF"/>
<path d="M96.698 95.3219L96.966 97.4645L100.718 92.9115H99.3778L96.698 95.3219Z" fill="#FFB8B8"/>
<path d="M113.313 61.3079L105.541 59.4332C105.541 59.4332 103.933 58.094 103.933 56.4871C103.933 54.8801 106.345 52.4697 107.953 50.8627C108.093 50.7193 108.261 50.6057 108.446 50.5288C108.631 50.4519 108.83 50.4133 109.03 50.4154C110.622 50.402 112.552 52.4884 112.552 52.4884L110.41 56.0585L110.314 56.2165L113.313 61.3079Z" fill="#38B6FF"/>
<path d="M119.303 58.1097L123.898 56.6209C123.898 56.6209 125.372 62.3792 123.764 62.647C122.156 62.9148 113.313 62.1113 113.313 62.1113L119.303 58.1097Z" fill="#38B6FF"/>
<path d="M94.5542 103.089L91.0705 122.908C91.0705 122.908 89.7306 125.318 90.2665 126.39C90.8025 127.461 91.0705 127.461 90.2665 127.997C89.4626 128.532 88.3907 127.997 88.6587 129.336C88.8193 130.13 88.9089 130.936 88.9266 131.746L81.4233 157.457C81.4233 157.457 76.5997 159.6 80.0834 160.939C83.5671 162.278 87.0508 163.35 87.8547 162.01C88.6587 160.671 87.8547 159.064 87.8547 159.064L100.182 129.604C100.182 129.604 102.058 126.925 102.058 125.318C102.058 123.711 108.221 112.195 108.221 112.195C108.221 112.195 108.489 123.711 108.757 124.515C109.025 125.318 108.221 126.925 108.221 127.997C108.221 129.068 107.685 129.068 108.221 129.604C108.757 130.139 108.757 136.299 108.757 136.299C108.757 136.299 105.541 160.136 107.417 160.404C109.293 160.671 114.652 160.136 114.652 159.064C114.652 157.993 113.849 157.725 113.849 157.725L117.332 137.37C117.332 137.37 117.064 136.031 117.6 134.96C118.136 133.889 118.136 133.889 118.136 133.353C118.136 132.817 117.868 132.55 118.136 132.282C118.311 132.051 118.405 131.768 118.404 131.478C118.404 131.478 117.868 129.871 118.136 129.604C118.404 129.336 124.3 109.249 122.424 106.838C120.548 104.428 94.5542 103.089 94.5542 103.089Z" fill="#2F2E41"/>
<path d="M107.685 159.6L105.809 163.885C105.809 163.885 101.522 168.706 104.737 169.777C107.953 170.849 109.025 170.581 109.025 170.581C109.025 170.581 110.365 170.849 110.365 171.384C110.365 171.92 121.084 175.937 121.888 172.456C122.692 168.974 113.581 162.546 113.581 162.546V159.332L107.685 159.6Z" fill="#2F2E41"/>
<path d="M87.0147 161.584L87.4205 166.243C87.4205 166.243 89.9399 172.182 86.5502 172.169C83.1606 172.156 82.2307 171.559 82.2307 171.559C82.2307 171.559 80.8755 171.385 80.7041 171.892C80.5326 172.4 69.091 172.779 69.4436 169.223C69.7963 165.667 80.486 162.49 80.486 162.49L81.5147 159.445L87.0147 161.584Z" fill="#2F2E41"/>
<path d="M112.958 52.2333C113.388 52.2045 113.675 51.7356 113.794 51.2895C113.913 50.8435 113.944 50.3547 114.187 49.9714C114.853 48.9211 116.585 49.3453 117.289 48.3235C117.721 47.695 117.631 46.6717 118.255 46.2719C118.65 46.0194 119.152 46.1494 119.587 46.3081C121.271 46.9277 122.826 47.8533 124.174 49.0382L124.733 48.5829L125.432 49.9794C125.703 49.6528 126.226 49.906 126.453 50.2691C126.681 50.6322 126.791 51.0962 127.115 51.3607C127.632 51.7822 128.439 51.4252 128.752 50.814C129.065 50.2027 129.014 49.4555 128.905 48.7674C128.635 47.0436 128.059 45.3818 127.204 43.8604L127.843 43.4769L127.017 43.3589L127.333 42.6415L126.467 42.6314L126.809 42.0181C125.645 42.4174 124.442 41.686 123.33 41.1408C121.47 40.2288 119.378 39.7912 117.358 40.13C116.323 40.2979 115.335 40.6793 114.456 41.25C113.577 41.8208 112.826 42.5682 112.252 43.4448C111.372 44.8284 110.863 46.8375 111.303 48.4944C111.704 50.0005 113.45 50.2349 112.958 52.2333Z" fill="#2F2E41"/>
<path d="M95.6261 62.647C95.6261 62.647 94.0182 62.3792 92.9463 64.5218C91.8744 66.6644 83.8351 83.8053 87.8547 89.1618C91.8744 94.5183 95.6261 96.1253 95.6261 96.1253L96.43 96.3931L100.45 92.1079L99.1098 90.2331C99.1098 90.2331 99.1098 88.3583 98.0379 88.0905C96.966 87.8227 96.966 88.6261 96.698 87.5548C96.43 86.4835 97.7699 87.287 96.43 86.2157C95.0901 85.1444 96.162 84.6088 96.162 84.6088L95.6261 62.647Z" fill="#38B6FF"/>
<path d="M124.032 98.4019L123.764 100.545L120.012 95.9915H121.352L124.032 98.4019Z" fill="#FFB8B8"/>
<path d="M123.63 68.4053C123.63 68.4053 127.381 66.5305 128.453 68.6732C129.525 70.8158 136.895 86.8853 132.875 92.2418C128.855 97.5984 125.104 99.2053 125.104 99.2053L124.3 99.4731L120.28 95.1879L121.62 93.3131C121.62 93.3131 121.62 91.4384 122.692 91.1705C123.764 90.9027 123.764 91.7062 124.032 90.6349C124.3 89.5636 122.96 90.3671 124.3 89.2958C125.64 88.2244 124.568 87.6888 124.568 87.6888L123.63 68.4053Z" fill="#38B6FF"/>
<path opacity="0.2" d="M98.1719 73.2263L95.2241 85.0106L98.7078 89.2958L97.1 83.9393L98.1719 73.2263Z" fill="white"/>
<path opacity="0.2" d="M112.552 52.4884L110.41 56.0585C109.065 55.5925 108.953 52.4723 109.03 50.4154C110.622 50.402 112.552 52.4884 112.552 52.4884Z" fill="white"/>
<path d="M67.0233 164.894C67.0698 169.66 64.2513 171.351 60.7547 171.385C60.6735 171.386 60.5926 171.386 60.5122 171.385C60.3501 171.383 60.1897 171.377 60.0309 171.367C56.873 171.175 54.4039 169.45 54.3606 165.017C54.3158 160.431 60.1248 154.585 60.5605 154.153L60.5612 154.153C60.5778 154.136 60.5863 154.128 60.5863 154.128C60.5863 154.128 66.9768 160.129 67.0233 164.894Z" fill="#D0CDE1"/>
<path d="M57.9149 141.906C57.9477 145.27 55.9582 146.464 53.49 146.488C53.4327 146.488 53.3756 146.488 53.3188 146.487C53.2044 146.486 53.0912 146.482 52.9791 146.475C50.7499 146.339 49.0071 145.121 48.9765 141.993C48.9449 138.755 53.0453 134.629 53.3529 134.324L53.3534 134.323C53.3651 134.312 53.3711 134.306 53.3711 134.306C53.3711 134.306 57.8821 138.542 57.9149 141.906Z" fill="#D0CDE1"/>
<path d="M53.4196 147.149C62.2996 147.149 69.4983 146.641 69.4983 146.014C69.4983 145.388 62.2996 144.88 53.4196 144.88C44.5397 144.88 37.341 145.388 37.341 146.014C37.341 146.641 44.5397 147.149 53.4196 147.149Z" fill="#D0CDE1"/>
<path d="M247 74.9406H140.679V129.041H247V74.9406Z" fill="#3F3D56"/>
<path d="M170.735 93.1576H159.968V94.0543H170.735V93.1576Z" fill="#38B6FF"/>
<path d="M185.091 93.1576H174.324V94.0543H185.091V93.1576Z" fill="#38B6FF"/>
<path d="M205.953 101.453H195.186V102.349H205.953V101.453Z" fill="#38B6FF"/>
<path d="M220.534 101.453H209.766V102.349H220.534V101.453Z" fill="#38B6FF"/>
<path d="M220.534 93.1576H188.905V94.0543H220.534V93.1576Z" fill="#38B6FF"/>
<path d="M191.597 101.453H159.968V102.349H191.597V101.453Z" fill="#38B6FF"/>
<path d="M191.597 109.748H159.968V110.645H191.597V109.748Z" fill="#38B6FF"/>
<path d="M220.534 109.748H198.55V110.645H220.534V109.748Z" fill="#38B6FF"/>
<path d="M156.941 96.9434L153.153 93.1576L156.941 89.3716L157.699 90.1291L154.669 93.1576L157.699 96.1859L156.941 96.9434Z" fill="#38B6FF"/>
<path d="M230.738 114.431L229.98 113.673L233.011 110.644L229.98 107.616L230.738 106.859L234.526 110.644L230.738 114.431Z" fill="#38B6FF"/>
<path d="M226.75 106.678L224.507 114.076L225.533 114.387L227.776 106.989L226.75 106.678Z" fill="#38B6FF"/>
<path d="M24.8713 147.755L44.7198 118.255L24.9119 150.928L24.9533 154.248C23.5043 154.259 22.0693 154.235 20.6484 154.175L21.6329 111.505L21.6059 111.176L21.6422 111.113L21.7365 107.081L-7.62939e-06 75.5396L21.7108 104.063L21.7879 104.915L22.5314 72.6762L3.75698 39.9755L22.5849 67.0128L22.3884 0.222296L22.3888 0L22.3952 0.218628L23.6415 52.8585L40.7521 31.4762L23.6975 57.3933L24.0709 86.2302L39.8163 58.0865L24.1288 90.4697L24.3367 106.504L47.2347 67.3007L24.4063 112.098L24.8713 147.755Z" fill="#D0CDE1"/>
</g>
<defs>
<clipPath id="clip0">
<rect width="247" height="175" fill="white"/>
</clipPath>
</defs>
</svg>
