<svg width="37" height="37" viewBox="0 0 37 37" fill="none" xmlns="http://www.w3.org/2000/svg">
<g clip-path="url(#clip0)">
<path d="M31.5248 31.5258H26.0425V22.9402C26.0425 20.8929 26.006 18.2574 23.1912 18.2574C20.3359 18.2574 19.899 20.4881 19.899 22.7912V31.5252H14.4169V13.8698H19.6797V16.2826H19.7534C20.2801 15.3821 21.0412 14.6412 21.9556 14.139C22.87 13.6367 23.9036 13.3919 24.9461 13.4306C30.5026 13.4306 31.5271 17.0855 31.5271 21.8403L31.5248 31.5258ZM8.23095 11.4566C6.47388 11.4569 5.04923 10.0327 5.04894 8.27561C5.04866 6.51854 6.47272 5.0939 8.22979 5.09361C9.98686 5.09317 11.4115 6.51738 11.4118 8.27445C11.4119 9.11823 11.0769 9.92751 10.4804 10.5243C9.88387 11.121 9.07472 11.4564 8.23095 11.4566ZM10.9721 31.5259H5.48413V13.8698H10.972V31.5258L10.9721 31.5259ZM34.2578 0.00220461H2.72936C1.23925 -0.014561 0.0172344 1.17912 -0.000976562 2.66924V34.3292C0.0166562 35.8201 1.23852 37.0149 2.72922 36.9993H34.2578C35.7517 37.0178 36.9784 35.823 36.999 34.3292V2.66678C36.9778 1.17377 35.751 -0.0197641 34.2578 -0.000252422" fill="#0A66C2"/>
</g>
<defs>
<clipPath id="clip0">
<rect width="37" height="37" fill="white"/>
</clipPath>
</defs>
</svg>
