<svg width="50" height="50" viewBox="0 0 50 50" fill="none" xmlns="http://www.w3.org/2000/svg">
<path d="M45.3125 7.8125H4.6875C3.82324 7.8125 3.125 8.51074 3.125 9.375V40.625C3.125 41.4893 3.82324 42.1875 4.6875 42.1875H45.3125C46.1768 42.1875 46.875 41.4893 46.875 40.625V9.375C46.875 8.51074 46.1768 7.8125 45.3125 7.8125ZM41.3672 13.1299L25.9619 25.1172C25.5811 25.415 25.0488 25.415 24.668 25.1172L9.25781 13.1299C9.19972 13.0851 9.15711 13.0232 9.13596 12.9529C9.11481 12.8826 9.11617 12.8075 9.13986 12.7381C9.16355 12.6686 9.20837 12.6083 9.26805 12.5656C9.32773 12.5229 9.39928 12.5 9.47266 12.5H41.1523C41.2257 12.5 41.2973 12.5229 41.3569 12.5656C41.4166 12.6083 41.4615 12.6686 41.4851 12.7381C41.5088 12.8075 41.5102 12.8826 41.489 12.9529C41.4679 13.0232 41.4253 13.0851 41.3672 13.1299Z" fill="#222222"/>
</svg>
