<svg width="43" height="43" viewBox="0 0 43 43" fill="none" xmlns="http://www.w3.org/2000/svg">
<path d="M26.4627 27.772L29.0261 25.2076C29.3713 24.8665 29.8082 24.633 30.2835 24.5354C30.7589 24.4379 31.2523 24.4805 31.7039 24.658L34.8281 25.9059C35.2845 26.0913 35.6758 26.4076 35.9528 26.8151C36.2298 27.2225 36.38 27.7029 36.3845 28.1956V33.9198C36.3818 34.255 36.3114 34.5862 36.1774 34.8935C36.0434 35.2007 35.8487 35.4776 35.6049 35.7076C35.3612 35.9376 35.0734 36.1158 34.759 36.2316C34.4445 36.3473 34.1099 36.3983 33.7753 36.3813C11.8832 35.0189 7.46588 16.4724 6.63047 9.37436C6.59169 9.02579 6.62713 8.67297 6.73444 8.33909C6.84175 8.00521 7.01851 7.69784 7.2531 7.43721C7.48768 7.17658 7.77476 6.96859 8.09547 6.82692C8.41617 6.68526 8.76322 6.61313 9.11379 6.61528H14.6412C15.1344 6.61674 15.6159 6.76579 16.0238 7.04326C16.4317 7.32073 16.7473 7.71392 16.9299 8.17227L18.1773 11.2977C18.3607 11.7477 18.4075 12.2418 18.3118 12.7182C18.2162 13.1947 17.9823 13.6324 17.6395 13.9766L15.076 16.5411C15.076 16.5411 16.5523 26.5356 26.4627 27.772Z" fill="#222222"/>
</svg>
