<svg xmlns="http://www.w3.org/2000/svg" x="0px" y="0px"
width="40" height="40"
viewBox="0 0 172 172"
style=" fill:#000000;"><g fill="none" fill-rule="nonzero" stroke="none" stroke-width="1" stroke-linecap="butt" stroke-linejoin="miter" stroke-miterlimit="10" stroke-dasharray="" stroke-dashoffset="0" font-family="none" font-weight="none" font-size="none" text-anchor="none" style="mix-blend-mode: normal"><path d="M0,172v-172h172v172z" fill="none"></path><g><path d="M7.1122,101.05l4.6655,-17.2h148.4446l4.6655,17.2z" fill="#38b6ff"></path><path d="M158.5754,86l3.5002,12.9h-152.1512l3.5002,-12.9h145.1508M161.8649,81.7h-151.7298l-5.8351,21.5h163.4l-5.8351,-21.5z" fill="#333333"></path><path d="M6.9058,83.85l5.0052,-25.8h148.178l5.0052,25.8z" fill="#38b6ff"></path><path d="M158.3174,60.2l4.1667,21.5h-152.9725l4.1667,-21.5h144.6391M161.8649,55.9h-151.7298l-5.8351,30.1h163.4l-5.8351,-30.1z" fill="#333333"></path><path d="M17.2,152.65c-5.9254,0 -10.75,-4.8203 -10.75,-10.75v-16.3099l3.0401,-3.0401h153.0198l3.0401,3.0401v16.3099c0,5.9297 -4.8246,10.75 -10.75,10.75z" fill="#38b6ff"></path><path d="M161.6198,124.7l1.7802,1.7802v15.4198c0,4.7429 -3.8571,8.6 -8.6,8.6h-137.6c-4.7429,0 -8.6,-3.8571 -8.6,-8.6v-15.4198l1.7802,-1.7802h151.2396M163.4,120.4h-154.8l-4.3,4.3v17.2c0,7.1251 5.7749,12.9 12.9,12.9h137.6c7.1251,0 12.9,-5.7749 12.9,-12.9v-17.2l-4.3,-4.3z" fill="#333333"></path><path d="M137.6,75.25c-12.0185,0 -32.938,-14.9253 -33.1444,-15.0758l-1.075,-0.774l-1.1739,0.6149c-5.3707,2.7993 -20.812,10.0749 -27.6705,10.0749c-8.4022,0 -22.0547,-4.9794 -22.1923,-5.031l-0.7009,-0.258l-0.7095,0.2322c-0.1548,0.0516 -15.5273,5.0568 -22.2654,5.0568h-26.2687c0.8858,-4.3258 3.9001,-10.0749 5.1858,-12.2292l2.5241,-4.1108h152.4694l1.7243,3.8829l4.6913,8.4581c-5.6373,2.5198 -21.4398,9.159 -31.3943,9.159z" fill="#ecf0f1"></path><path d="M161.1812,55.9l1.1567,2.6058l0.0774,0.1763l0.0946,0.1677l3.4615,6.235c-7.5637,3.2422 -20.4035,8.0152 -28.3714,8.0152c-9.3955,0 -26.2085,-10.5909 -31.8931,-14.6716l-2.15,-1.5437l-2.3478,1.2255c-7.2842,3.8012 -20.9668,9.8298 -26.6772,9.8298c-8.0152,0 -21.3194,-4.8461 -21.4527,-4.8977l-1.4018,-0.516l-1.419,0.4644c-4.2097,1.376 -16.2884,4.945 -21.5989,4.945h-23.4393c1.0793,-3.1648 2.8896,-6.7596 4.1753,-8.9268l1.9135,-3.1089h149.8722M163.9719,51.6h-155.0666l-3.1734,5.16c0,0 -5.7319,9.632 -5.7319,15.48c0,0 21.5,0 28.6638,0c7.1638,0 22.9362,-5.16 22.9362,-5.16c0,0 14.0395,5.16 22.9362,5.16c8.8924,0 28.6638,-10.32 28.6638,-10.32c0,0 21.5387,15.48 34.4,15.48c12.8613,0 34.4,-10.32 34.4,-10.32l-5.7319,-10.32l-2.2962,-5.16z" fill="#333333"></path><path d="M151.0848,135.45c-10.4619,0 -17.9439,-4.9579 -18.017,-5.0095l-1.0105,-0.6794l-1.1051,0.5203c-0.1075,0.0516 -11.1069,5.1686 -22.016,5.1686c-10.9048,0 -21.9042,-5.117 -22.016,-5.1686l-0.6751,-0.3182l-0.7224,0.1677c-0.2322,0.0559 -23.3404,5.3191 -39.6546,5.3191c-13.2225,0 -34.787,-7.0262 -42.3765,-9.6449c3.6292,-4.4204 7.3143,-6.8241 8.5441,-7.5551h147.6491l9.1203,8.5484c-3.3755,2.8294 -11.1198,8.6516 -17.7203,8.6516z" fill="#ecf0f1"></path><path d="M158.8334,120.4l6.6994,6.2823c-3.9302,3.0057 -9.7653,6.6177 -14.448,6.6177c-9.6879,0 -16.7571,-4.6053 -16.813,-4.6397l-2.0253,-1.3588l-2.2059,1.0363c-0.1118,0.0473 -10.707,4.9622 -21.1087,4.9622c-10.4017,0 -20.9969,-4.9149 -21.0958,-4.9622l-1.3459,-0.6364l-1.4534,0.3354c-0.2279,0.0516 -23.091,5.2632 -39.1687,5.2632c-11.4294,0 -29.4249,-5.4395 -38.5925,-8.4839c2.2446,-2.2747 4.2914,-3.7238 5.375,-4.4161h146.1828M160.5319,116.1h-149.0638c0,0 -6.2264,3.2508 -11.4681,10.75c0,0 29.111,10.75 45.8681,10.75c16.7528,0 40.1319,-5.375 40.1319,-5.375c0,0 11.3864,5.375 22.9319,5.375c11.5455,0 22.9362,-5.375 22.9362,-5.375c0,0 7.9765,5.375 19.2167,5.375c9.6578,0 20.9152,-10.75 20.9152,-10.75l-11.4681,-10.75z" fill="#333333"></path><g><path d="M6.4672,53.75c0.2752,-11.8078 4.8246,-34.4 79.5328,-34.4c74.7082,0 79.2576,22.5922 79.5328,34.4z" fill="#38b6ff"></path><path d="M86,21.5c67.9916,0 76.2562,18.6018 77.2624,30.1h-1.3975h-151.7298h-1.3975c1.0062,-11.4982 9.2708,-30.1 77.2624,-30.1M86,17.2c-76.0928,0 -81.7,23.435 -81.7,38.7h5.8351h151.7298h5.8351c0,-15.265 -5.6072,-38.7 -81.7,-38.7z" fill="#333333"></path></g><g><path d="M10.75,118.25c-4.7429,0 -8.6,-3.8571 -8.6,-8.6c0,-4.7429 3.8571,-8.6 8.6,-8.6h150.5c4.7429,0 8.6,3.8571 8.6,8.6c0,4.7429 -3.8571,8.6 -8.6,8.6z" fill="#ffffff"></path><path d="M161.25,103.2c3.5561,0 6.45,2.8939 6.45,6.45c0,3.5561 -2.8939,6.45 -6.45,6.45h-150.5c-3.5561,0 -6.45,-2.8939 -6.45,-6.45c0,-3.5561 2.8939,-6.45 6.45,-6.45h150.5M161.25,98.9h-150.5c-5.9383,0 -10.75,4.8117 -10.75,10.75c0,5.9383 4.8117,10.75 10.75,10.75h150.5c5.9383,0 10.75,-4.8117 10.75,-10.75c0,-5.9383 -4.8117,-10.75 -10.75,-10.75z" fill="#333333"></path></g><g fill="#ffffff"><path d="M62.35,25.8c-1.18741,0 -2.15,0.96259 -2.15,2.15c0,1.18741 0.96259,2.15 2.15,2.15c1.18741,0 2.15,-0.96259 2.15,-2.15c0,-1.18741 -0.96259,-2.15 -2.15,-2.15z"></path></g><g fill="#ffffff"><path d="M66.65,38.7c-1.18741,0 -2.15,0.96259 -2.15,2.15c0,1.18741 0.96259,2.15 2.15,2.15c1.18741,0 2.15,-0.96259 2.15,-2.15c0,-1.18741 -0.96259,-2.15 -2.15,-2.15z"></path></g><g fill="#ffffff"><path d="M49.45,34.4c-1.18741,0 -2.15,0.96259 -2.15,2.15c0,1.18741 0.96259,2.15 2.15,2.15c1.18741,0 2.15,-0.96259 2.15,-2.15c0,-1.18741 -0.96259,-2.15 -2.15,-2.15z"></path></g></g></g></svg>