<?xml version="1.0" encoding="utf-8"?>
<!-- Generator: Adobe Illustrator 27.5.0, SVG Export Plug-In . SVG Version: 6.00 Build 0)  -->
<svg version="1.1" xmlns="http://www.w3.org/2000/svg" xmlns:xlink="http://www.w3.org/1999/xlink"
  x="0px" y="0px"
  viewBox="50 50 450 450" style="enable-background:new 0 0 500 500;" xml:space="preserve">
<g id="Background_Complete">
	<g>
		<rect y="382.398" style="fill:#EBEBEB;" width="500" height="0.25"/>
		<rect x="416.779" y="398.494" style="fill:#EBEBEB;" width="33.122" height="0.25"/>
		<rect x="322.527" y="401.208" style="fill:#EBEBEB;" width="8.693" height="0.25"/>
		<rect x="396.586" y="389.208" style="fill:#EBEBEB;" width="19.192" height="0.25"/>
		<rect x="52.459" y="390.888" style="fill:#EBEBEB;" width="43.193" height="0.25"/>
		<rect x="104.556" y="390.888" style="fill:#EBEBEB;" width="6.333" height="0.25"/>
		<rect x="131.471" y="395.111" style="fill:#EBEBEB;" width="93.676" height="0.25"/>
		<path style="fill:#EBEBEB;" d="M237.014,337.8H43.915c-3.147,0-5.708-2.561-5.708-5.708V60.66c0-3.147,2.561-5.708,5.708-5.708
			h193.099c3.146,0,5.707,2.561,5.707,5.708v271.432C242.721,335.239,240.16,337.8,237.014,337.8z M43.915,55.203
			c-3.01,0-5.458,2.448-5.458,5.458v271.432c0,3.01,2.448,5.458,5.458,5.458h193.099c3.009,0,5.457-2.448,5.457-5.458V60.66
			c0-3.009-2.448-5.458-5.457-5.458H43.915z"/>
		<path style="fill:#EBEBEB;" d="M453.31,337.8H260.212c-3.147,0-5.707-2.561-5.707-5.708V60.66c0-3.147,2.561-5.708,5.707-5.708
			H453.31c3.148,0,5.708,2.561,5.708,5.708v271.432C459.019,335.239,456.458,337.8,453.31,337.8z M260.212,55.203
			c-3.009,0-5.457,2.448-5.457,5.458v271.432c0,3.01,2.448,5.458,5.457,5.458H453.31c3.01,0,5.458-2.448,5.458-5.458V60.66
			c0-3.009-2.448-5.458-5.458-5.458H260.212z"/>
	</g>
	<g>
		
			<path style="fill:none;stroke:#E0E0E0;stroke-width:1.7968;stroke-linecap:round;stroke-linejoin:round;stroke-miterlimit:10;" d="
			M406.931,168.813c12.58,33.185-48.048,86.936-135.417,120.056c-87.368,33.12-168.393,33.068-180.973-0.116"/>
		
			<path style="fill:none;stroke:#E0E0E0;stroke-width:1.7968;stroke-linecap:round;stroke-linejoin:round;stroke-miterlimit:10;" d="
			M349.388,369.261c-28.525,21.114-96.713-22.652-152.301-97.753c-55.588-75.101-77.527-153.099-49.002-174.212"/>
		<g>
			<g>
				<path style="fill:#EBEBEB;" d="M117.784,244.209c-0.031-4.373,0.151-8.689,0.537-12.949
					c3.292-36.479,21.485-68.711,48.469-90.507c22.367-18.067,50.783-28.97,81.771-29.19c0.803-0.006,1.606-0.002,2.399,0.002
					c16.556,0.183,32.378,3.418,46.932,9.168h0.009c44.486,17.603,77.16,58.723,82.533,108.144c0.476,4.428,0.74,8.915,0.772,13.462
					c0.078,10.981-1.191,21.652-3.654,31.857c-7.274,30.248-24.997,56.467-49.173,74.577
					c-21.741,16.273-48.695,26.004-77.951,26.212c-15.673,0.111-30.727-2.52-44.694-7.443
					C154.833,349.618,118.189,301.28,117.784,244.209z"/>
			</g>
			<g>
				<path style="opacity:0.4;fill:#F5F5F5;enable-background:new    ;" d="M210.033,339.223c-2.473,0.24-3.586,3.279-4.09,5.756
					c-0.747,3.721-1.505,7.441-2.252,11.162c4.533,2.125,4.157,7.653,2.045,11.402c-50.903-17.925-87.547-66.263-87.952-123.335
					c-0.031-4.373,0.151-8.689,0.537-12.949c0.106-0.068,0.222-0.127,0.338-0.186c3.589-1.696,6.422,1.373,9.129,3.105
					c0.612,0.391,8.504,4.225,8.607,3.159c-0.332,3.445-0.146,6.94,0.55,10.33c0.053,0.257,0.124,0.538,0.341,0.686
					c0.514,0.352,1.095-0.357,1.283-0.951c0.48-1.519,0.685-3.12,1.255-4.607c0.57-1.487,1.61-2.915,3.129-3.394
					c1.527-0.481,3.192,0.085,4.777-0.136c1.934-0.27,3.548-1.707,4.524-3.398c0.942-1.633,1.38-3.52,1.856-5.317
					c1.861,4.131,6.581,1.584,9.354,4.923c0.891,1.073,1.962,2.619,3.255,2.1c1.231-0.495,1.372-2.596,2.688-2.759
					c0.921-0.114,1.595,0.898,1.731,1.816c0.136,0.918-0.012,1.899,0.376,2.743c0.544,1.185,2.197,1.692,3.313,1.017
					c1.002-0.607,1.39-1.838,2.016-2.828c0.626-0.99,1.97-1.824,2.913-1.129c0.222,0.164,0.387,0.394,0.515,0.639
					c0.914,1.76-0.122,3.895-1.347,5.455c-1.225,1.56-2.735,3.12-2.864,5.099c0.71,0.509,1.836,0.272,2.282-0.479
					c0.155-0.262,0.242-0.576,0.474-0.771c0.506-0.425,1.255-0.021,1.81,0.338c2.614,1.689,5.917,2.275,8.952,1.588
					c0.226-4.014,0.452-8.029,0.679-12.043c0.909-0.031,1.455-0.089,1.799-1.022c3.011,2.932,5.771,6.09,9.09,8.734
					c0.398,0.316,0.822,0.662,0.957,1.152c0.14,0.511-0.072,1.053-0.04,1.582c0.107,1.753,2.456,2.212,4.211,2.166
					c0.509,0.283,0.216,1.119-0.293,1.403c-0.509,0.283-1.147,0.311-1.607,0.669c-0.688,0.535-0.699,1.58-0.448,2.415
					c0.873,2.901,4.419,4.667,7.26,3.617c0.338-0.125,0.68-0.296,0.882-0.594c0.444-0.657,0.024-1.525-0.057-2.313
					c-0.32-3.11,3.036-2.386,4.584-1.526c2.098,1.166,3.275,4.259,3.667,6.471c0.458,2.585,2.412,19.742,8.137,17.37
					c0.537-0.223,0.926-0.706,1.198-1.219c0.827-1.557,0.769-3.434,1.375-5.091c0.605-1.656,2.491-3.166,4.031-2.308
					c0.618,0.344,1.012,0.991,1.602,1.38c1.646,1.084,3.987-0.218,5.78,0.6c0.824,0.376,1.396,1.144,2.143,1.656
					c0.747,0.512,1.921,0.676,2.448-0.061c0.59-0.825-0.101-2.07,0.383-2.962c0.508-0.936,2.088-0.742,2.625,0.178
					c0.536,0.921,0.213,2.138-0.448,2.974c-0.346,0.437-0.792,0.838-0.907,1.384c-0.206,0.978,0.721,1.79,1.542,2.359
					c1.306,0.904,2.612,1.808,3.917,2.712c-0.085,0.904-0.967,1.534-1.841,1.78c-0.874,0.245-1.809,0.235-2.677,0.524
					c-4.18,1.394-4.164,7.598-9.648,6.381c0.326-1.647-1.431-3.325-3.061-2.923c-2.011,0.495-3.309,3.36-5.301,2.794
					c-0.693-0.197-1.221-0.8-1.921-0.966c-1.935-0.459-2.882,2.514-3.427,3.781c-1.805,4.199,1.004,4.707,0.89,8.455
					c-0.052,1.715-1.322,3.163-1.637,4.849c-0.29,1.552,0.255,3.158,0.044,4.723c-0.578,4.302-6.272,1.693-8.794,1.195
					c1.372,2.438-0.668,5.404-2.891,7.094c-3.416,2.596-2.831,2.373-3.256,6.12c-0.113,0.99-0.68,1.993-1.619,2.326
					c-1.634,0.58-3.224-1.035-4.949-1.204c-0.828-0.081-1.668,0.18-2.488,0.041c-2.153-0.364-2.903-3.003-4.307-4.676
					c-1.228-1.463-3.206-2.262-5.105-2.061c-0.154,1.105-0.159,2.231-0.014,3.337c1.206,0.745,2.412,1.489,3.619,2.234
					c1.067,0.659,2.172,1.355,2.832,2.421c0.37,0.597,0.598,1.307,1.133,1.762c1.064,0.904,2.658,0.358,4.051,0.268
					c3.378-0.22,8.877,1.886,12.131,2.954c3.469,1.139,4.682,3.592,7.88,4.692c0.564,0.194,0.69,1.011,0.358,1.506
					c-0.333,0.495-0.947,0.716-1.534,0.819c-1.362,0.241-2.805,0.003-4.018-0.662c1.592,0.872-3.059,4.713-3.902,4.902
					c-1.379,0.31-3.234-0.729-4.638-0.8c-3.481-0.177-5.497,0.515-3.211,4.3c0.874,1.447,1.894,3.292,0.934,4.683
					c-0.921-0.383-2.031,0.171-2.547,1.025c-0.516,0.854-0.555,1.913-0.441,2.904c0.076,0.668,0.239,1.374,0.727,1.836
					c0.261,0.247,0.605,0.413,0.804,0.713c0.648,0.975-0.683,2.043-1.776,2.463"/>
				<path style="opacity:0.4;fill:#F5F5F5;enable-background:new    ;" d="M325.295,188.342c-1.083-0.812-2.623-0.158-3.751,0.59
					c-1.128,0.748-2.453,1.621-3.725,1.16c-0.025-1.57-0.049-3.139-0.074-4.709c-0.005-0.295-0.023-0.624-0.237-0.827
					c-0.217-0.206-0.552-0.205-0.851-0.192c-1.01,0.046-2.02,0.092-3.03,0.139c-0.843,0.926,1.505,2.057,1.171,3.264
					c-0.148,0.533-0.75,0.765-1.238,1.027c-4.16,2.232-1.521,6.872,0.364,9.392c2.188,2.926,2.042,6.913,1.806,10.562
					c-0.087,1.297-0.241,2.75-1.242,3.598c-0.971,0.839-2.404,0.781-3.649,1.148c-2.153,0.625-3.678,2.531-5.693,3.523
					c-7.042,3.465-11.683-4.072-9.39-10.009c1.189-3.077,1.698-2.493,1.017-5.783c-0.284-1.371,0.171-2.99-1.257-3.926
					c-1.512-0.992-3.694,0.073-3.815,1.915c-0.118,1.807-0.532,3.526,0.21,5.223c-2.083-0.773-4.563-0.282-6.839-0.283
					c0.325,2.098-2.382,3.945-4.217,2.879c0.061-1.027-0.218-2.442-1.247-2.434c-0.3,0.002-0.58,0.146-0.839,0.299
					c-1.08,0.637-2.035,1.485-3.173,2.018c-1.749,0.816-6.777,0.429-7.562,2.789c-0.138,0.415-0.136,0.869-0.3,1.274
					c-0.349,0.864-1.446,1.285-2.336,1.009c-0.89-0.276-1.529-1.129-1.702-2.045c-0.115-0.61-0.051-1.249-0.21-1.849
					c-0.847-3.188-4.12-0.692-5.582-1.551c-0.701-0.412-3.59-5.846-3.654-6.505c-1.391,1.731-3.471,3.191-5.784,3.082
					c-2.533-0.118-3.613-2.132-4.183-4.592c-0.601-2.598-0.632-5.694-1.201-7.577c-0.306-1.011-0.567-2.239,0.148-3.016
					c0.895-0.972,2.799-0.6,3.449-1.75c0.206-0.365,0.223-0.802,0.294-1.215c0.416-2.423,3.132-4.178,5.512-3.562
					c0.779-0.51,0.791-1.615,0.837-2.545c0.046-0.929,0.439-2.079,1.367-2.144c1.067-0.076,1.551,1.32,1.534,2.389
					c-0.018,1.09-0.187,2.178-0.503,3.222c-0.236,0.78-0.554,1.615-0.277,2.381c0.209,0.579,0.719,0.989,1.219,1.349
					c1.204,0.867,2.574,1.647,4.058,1.636c1.484-0.011,3.045-1.089,3.103-2.571c0.016-0.398-0.073-0.804,0.02-1.191
					c0.239-0.995,1.509-1.338,2.523-1.201c1.014,0.137,2.024,0.561,3.027,0.357c1.003-0.204,1.836-1.51,1.125-2.246
					c1.347-0.472,3.274-0.707,3.804,0.618c0.17,0.426,0.123,0.901,0.131,1.36c0.052,2.829,3.569,6.912,5.969,3.954
					c1.578-1.945-1.139-5.483,1.692-7.083c1.353-0.765,3.19-0.089,4.529-0.88c0.418-0.496-0.3-1.167-0.928-1.332
					c-1.984-0.522-4.225,0.087-5.673,1.54c-0.802-1.648,0.437-4.065-0.962-5.249c-1.382-1.169-4.039,0.207-5.075-1.278
					c-0.296-0.425-0.343-0.97-0.38-1.488c-0.183-2.554,0.603-7.241-3.004-7.669c-0.437-0.052-0.893-0.019-1.303-0.178
					c-1.245-0.484-1.235-2.227-1.004-3.543c1.355-0.583,2.809,0.421,4.113,1.111c1.304,0.69,3.373,0.806,3.818-0.601
					c0.318-1.007-0.472-2.268,0.196-3.087c0.309-0.38,0.856-0.524,1.118-0.938c0.634-1.001-0.907-2.005-1.181-3.158
					c-0.377-1.589,1.746-2.609,3.374-2.488c1.629,0.121,3.451,0.668,4.766-0.3c0.417-0.307,0.725-0.737,1.113-1.081
					c1.192-1.057,2.929-1.152,4.522-1.193c2.542-0.066-3.242-10.521-3.299-11.158c-0.437-4.85,4.534-7.432,7.383-10.516
					c1.488-1.626,2.577-3.55,3.668-5.473c42.831,16.949,74.502,56.28,81.687,101.807c0.322,2.041,0.706,4.152,0.72,6.187
					c-3.006-0.848-7.682-3.098-10.735-1.269c-3.876,2.322-1.071,8.073-5.539,9.774c-1.106-0.015-0.787-1.837-1.428-2.739
					c-0.356-0.501-1.008-0.669-1.557-0.947c-0.549-0.277-1.08-0.87-0.858-1.443c-0.967-0.76-2.3,0.209-3.198,1.049
					c-1.056,0.988-2.264,1.896-3.679,2.193c-2.948,0.62-5.671-1.494-8.326-2.917c-2.195-1.176-4.588-1.926-6.965-2.669
					c1.15,0.068,1.732-1.522,1.289-2.585c-0.443-1.063-1.444-1.769-2.177-2.658c-1.249-1.516-0.289-3.281-1.333-4.892
					c-1.291-2.003-3.778-3.408-3.988-5.777c-0.262-2.872,2.918-4.703,5.59-5.767c-1.416-3.241-5.254-5.468-5.25-9.009
					c0-1.364,0.61-2.636,1.201-3.859c1.211-2.505,2.422-5.009,3.633-7.505c0.505-1.039,1.02-2.184,0.712-3.295
					c-0.348-1.313-1.688-2.068-2.892-2.669c-1.311-0.658-2.622-1.317-3.932-1.975c-0.544-0.267-1.136-0.543-1.725-0.443
					c-0.638,0.111-1.108,0.617-1.501,1.133c-2.138,2.773-3.157,6.379-2.804,9.869c-4.649-0.693-9.215-1.957-13.553-3.774
					c0.482,2.686-0.626,5.651,0.206,8.167"/>
				<path style="opacity:0.4;fill:#F5F5F5;enable-background:new    ;" d="M216.392,210.322c-1.251,0.898-2.256,2.27-2.333,3.808
					c-0.048,0.949,0.255,1.879,0.316,2.827c0.061,0.948-0.206,2.03-1.038,2.488c-1.062,0.585-2.344-0.143-3.332-0.845
					c-0.803-0.571-1.667-1.232-1.864-2.197c-0.144-0.706,0.106-1.436,0.043-2.154c-0.124-1.421-1.382-2.42-2.386-3.433
					c-1.004-1.013-1.857-2.607-1.066-3.794c0.521-0.781,1.577-1.054,2.136-1.808c1.363-1.839-1.102-4.414,0.027-6.088
					c1.338-1.984,4.656-0.969,6.491,0.034c1.858,1.015,3.209,2.897,4.538,4.491C221.682,208.156,220.369,207.466,216.392,210.322z"
					/>
				<path style="opacity:0.4;fill:#F5F5F5;enable-background:new    ;" d="M166.898,140.714
					c22.037-19.117,52.791-28.946,81.663-29.151c0.803-0.006,1.606-0.002,2.399,0.002c3.809,4.295,5.83,12.432-1.717,13.951
					c-0.004,0.824,0.471,1.028,0.887,1.686c0.653,1.034-0.436,2.336-1.566,2.803c-3.707,1.531-8.207,1.442-7.618,6.463
					c0.702,5.988,3.531,2.177,6.64,4.345c0.45,0.314,0.714,0.825,1.074,1.239c1.322,1.518,3.641,1.506,5.648,1.372
					c-0.503-1.177,0.279-2.716,1.525-3.003c0.47-0.108,0.999-0.071,1.39-0.354c0.84-0.608,0.204-2.042-0.754-2.437
					c-0.959-0.395-2.061-0.231-3.056-0.521c-0.995-0.29-1.903-1.47-1.299-2.312c0.252-0.352,0.69-0.516,1.113-0.611
					c1.773-0.4,3.73,0.143,5.044,1.399c0.331-0.953,1.36-1.612,2.365-1.514c1.004,0.098,1.887,0.943,2.027,1.943
					c0.206,1.461-0.797,3.45,0.51,4.134c-1.159-0.304-2.477,0.111-3.253,1.026c-3.055,3.601-1.237,12.356-9.288,10.889
					c-1.293-0.236-2.53-0.786-3.843-0.856c-1.313-0.07-2.817,0.541-3.165,1.809c-1.691-2.454-6.03-1.93-7.472-4.538
					c-0.679-1.228-0.37-2.915,0.699-3.823c0.178-0.151,0.382-0.293,0.468-0.51c0.175-0.441-0.22-0.894-0.284-1.365
					c-0.111-0.819,0.775-1.453,0.883-2.272c0.152-1.141-1.174-1.87-2.289-2.159c-1.115-0.289-2.476-0.698-2.703-1.827
					c-0.077-0.385,0.005-0.788-0.072-1.173c-0.157-0.776-0.946-1.296-1.731-1.397c-0.786-0.101-1.572,0.125-2.332,0.349
					c-0.518,0.44-0.288,1.314,0.175,1.812c0.463,0.497,1.105,0.824,1.485,1.387c0.213,0.315-0.835,7.141-0.32,6.964
					c-2.442,0.842-7.653,0.967-6.603,4.614c0.371,1.288,1.121,2.629,0.644,3.882c1.716-0.483,3.438-0.945,5.165-1.388
					c0.42,0.554-0.27,1.312-0.944,1.482c-0.674,0.17-1.475,0.146-1.934,0.669c-0.322,0.367-0.364,0.894-0.392,1.382
					c-0.089,1.586-0.177,3.173-0.265,4.759c-0.096,1.721-0.326,3.693-1.752,4.663c-1.621,1.103-3.914,0.225-5.276-1.185
					c-0.327-0.338-0.686-0.734-1.156-0.736c-0.425-0.002-0.771,0.322-1.088,0.606c-1.672,1.495-4.01,2.394-6.194,1.878
					c-2.183-0.516-3.988-2.712-3.621-4.925c0.141-0.851,0.51-1.893-0.149-2.452c-0.387-0.328-1.048-0.368-1.222-0.845
					c-0.218-0.599,0.547-1.032,1.059-1.412c0.925-0.687,1.257-2.064,0.745-3.096c-0.262-0.529-5.021-2.483-5.76-2.123
					c-1.696,0.826-1.396,5.371-1.607,7.124c-0.081,0.677-0.206,1.432-0.753,1.839c-0.855,0.635-2.088-0.025-2.75-0.859
					c-0.662-0.834-1.147-1.892-2.106-2.355c-0.558-0.269-1.198-0.292-1.817-0.311c-1.254-0.037-2.662-0.016-3.546,0.874
					c-0.413,0.416-0.656,0.977-1.068,1.394c-0.942,0.951-2.513,0.905-3.774,0.454c-1.261-0.451-2.395-1.231-3.689-1.576
					c-2.752-0.735-5.899,0.569-8.431-0.738c-1.223-0.632-2.105-2.378-1.136-3.357c0.836-0.845,2.651-0.699,2.873-1.867
					c0.213-1.119-2.529-2.733-3.011-3.712c-0.382-0.775,0.453-2.217-0.43-3.653C169.427,142.327,167.678,141.97,166.898,140.714z"/>
				<path style="opacity:0.4;fill:#F5F5F5;enable-background:new    ;" d="M328.645,329.319c1.565-1.049,3.322-1.653,3.867-3.806
					c0.743-2.932-0.838-4.182-3.755-3.094c-0.259,0.097-0.542,0.199-0.806,0.115c-0.843-0.269-0.245-1.513,0.303-2.207
					c1.283-1.621,1.371-3.797,0.706-5.682c-0.158-0.447,8.054-0.636,8.959-0.141c3.166,1.732,1.103,8.484,4.776,7.345
					c0.248-2.567,0.113-5.225,0.119-7.821c1.251-0.048,2.502-0.095,3.753-0.143c-0.932,0.035-0.378-4.752-0.061-5.275
					c1.232-2.032,5.037-1.168,4.698-5.008c-0.429-4.86-9.841-5.848-8.714-0.272c-2.868,1.097-6.22,1.343-9.286,1.253
					c-0.07,0.987-0.131,1.984-0.192,2.972c-0.713,0.44-1.651,0.515-2.427,0.182c-1.488-2.495-1.261-5.912,0.542-8.199
					c-1.076-1.647,0.234-3.765,1.491-5.284c-3.443-2.52-2.453-8.923,1.591-10.286c4.054-1.364,8.711,3.141,7.492,7.232
					c1.975,0.228,3.868,1.095,5.329,2.439c0.215-5.168,4.109-9.975,9.121-11.249c2.521-0.647,5.511-0.61,7.229-2.567
					c0.768-0.867,1.147-2.011,1.856-2.926c1.611-2.043,4.491-2.46,7.093-2.605c1.741-0.09,3.482-0.121,5.224-0.095
					c-7.274,30.248-24.997,56.467-49.173,74.577c-0.919,0.036-1.867,0.023-2.663-0.397c-1.476-0.793-1.935-2.657-2.237-4.309
					c-1.189-6.426-0.521-10.427,4.707-14.423C328.338,329.531,328.49,329.423,328.645,329.319z"/>
			</g>
			<g>
				<path style="fill:#F5F5F5;enable-background:new    ;" d="M210.033,339.223c-2.473,0.24-3.586,3.279-4.09,5.756
					c-0.747,3.721-1.505,7.441-2.252,11.162c4.533,2.125,4.157,7.653,2.045,11.402c-50.903-17.925-87.547-66.263-87.952-123.335
					c-0.031-4.373,0.151-8.689,0.537-12.949c0.106-0.068,0.222-0.127,0.338-0.186c3.589-1.696,6.422,1.373,9.129,3.105
					c0.612,0.391,8.504,4.225,8.607,3.159c-0.332,3.445-0.146,6.94,0.55,10.33c0.053,0.257,0.124,0.538,0.341,0.686
					c0.514,0.352,1.095-0.357,1.283-0.951c0.48-1.519,0.685-3.12,1.255-4.607c0.57-1.487,1.61-2.915,3.129-3.394
					c1.527-0.481,3.192,0.085,4.777-0.136c1.934-0.27,3.548-1.707,4.524-3.398c0.942-1.633,1.38-3.52,1.856-5.317
					c1.861,4.131,6.581,1.584,9.354,4.923c0.891,1.073,1.962,2.619,3.255,2.1c1.231-0.495,1.372-2.596,2.688-2.759
					c0.921-0.114,1.595,0.898,1.731,1.816c0.136,0.918-0.012,1.899,0.376,2.743c0.544,1.185,2.197,1.692,3.313,1.017
					c1.002-0.607,1.39-1.838,2.016-2.828c0.626-0.99,1.97-1.824,2.913-1.129c0.222,0.164,0.387,0.394,0.515,0.639
					c0.914,1.76-0.122,3.895-1.347,5.455c-1.225,1.56-2.735,3.12-2.864,5.099c0.71,0.509,1.836,0.272,2.282-0.479
					c0.155-0.262,0.242-0.576,0.474-0.771c0.506-0.425,1.255-0.021,1.81,0.338c2.614,1.689,5.917,2.275,8.952,1.588
					c0.226-4.014,0.452-8.029,0.679-12.043c0.909-0.031,1.455-0.089,1.799-1.022c3.011,2.932,5.771,6.09,9.09,8.734
					c0.398,0.316,0.822,0.662,0.957,1.152c0.14,0.511-0.072,1.053-0.04,1.582c0.107,1.753,2.456,2.212,4.211,2.166
					c0.509,0.283,0.216,1.119-0.293,1.403c-0.509,0.283-1.147,0.311-1.607,0.669c-0.688,0.535-0.699,1.58-0.448,2.415
					c0.873,2.901,4.419,4.667,7.26,3.617c0.338-0.125,0.68-0.296,0.882-0.594c0.444-0.657,0.024-1.525-0.057-2.313
					c-0.32-3.11,3.036-2.386,4.584-1.526c2.098,1.166,3.275,4.259,3.667,6.471c0.458,2.585,2.412,19.742,8.137,17.37
					c0.537-0.223,0.926-0.706,1.198-1.219c0.827-1.557,0.769-3.434,1.375-5.091c0.605-1.656,2.491-3.166,4.031-2.308
					c0.618,0.344,1.012,0.991,1.602,1.38c1.646,1.084,3.987-0.218,5.78,0.6c0.824,0.376,1.396,1.144,2.143,1.656
					c0.747,0.512,1.921,0.676,2.448-0.061c0.59-0.825-0.101-2.07,0.383-2.962c0.508-0.936,2.088-0.742,2.625,0.178
					c0.536,0.921,0.213,2.138-0.448,2.974c-0.346,0.437-0.792,0.838-0.907,1.384c-0.206,0.978,0.721,1.79,1.542,2.359
					c1.306,0.904,2.612,1.808,3.917,2.712c-0.085,0.904-0.967,1.534-1.841,1.78c-0.874,0.245-1.809,0.235-2.677,0.524
					c-4.18,1.394-4.164,7.598-9.648,6.381c0.326-1.647-1.431-3.325-3.061-2.923c-2.011,0.495-3.309,3.36-5.301,2.794
					c-0.693-0.197-1.221-0.8-1.921-0.966c-1.935-0.459-2.882,2.514-3.427,3.781c-1.805,4.199,1.004,4.707,0.89,8.455
					c-0.052,1.715-1.322,3.163-1.637,4.849c-0.29,1.552,0.255,3.158,0.044,4.723c-0.578,4.302-6.272,1.693-8.794,1.195
					c1.372,2.438-0.668,5.404-2.891,7.094c-3.416,2.596-2.831,2.373-3.256,6.12c-0.113,0.99-0.68,1.993-1.619,2.326
					c-1.634,0.58-3.224-1.035-4.949-1.204c-0.828-0.081-1.668,0.18-2.488,0.041c-2.153-0.364-2.903-3.003-4.307-4.676
					c-1.228-1.463-3.206-2.262-5.105-2.061c-0.154,1.105-0.159,2.231-0.014,3.337c1.206,0.745,2.412,1.489,3.619,2.234
					c1.067,0.659,2.172,1.355,2.832,2.421c0.37,0.597,0.598,1.307,1.133,1.762c1.064,0.904,2.658,0.358,4.051,0.268
					c3.378-0.22,8.877,1.886,12.131,2.954c3.469,1.139,4.682,3.592,7.88,4.692c0.564,0.194,0.69,1.011,0.358,1.506
					c-0.333,0.495-0.947,0.716-1.534,0.819c-1.362,0.241-2.805,0.003-4.018-0.662c1.592,0.872-3.059,4.713-3.902,4.902
					c-1.379,0.31-3.234-0.729-4.638-0.8c-3.481-0.177-5.497,0.515-3.211,4.3c0.874,1.447,1.894,3.292,0.934,4.683
					c-0.921-0.383-2.031,0.171-2.547,1.025c-0.516,0.854-0.555,1.913-0.441,2.904c0.076,0.668,0.239,1.374,0.727,1.836
					c0.261,0.247,0.605,0.413,0.804,0.713c0.648,0.975-0.683,2.043-1.776,2.463"/>
				<path style="fill:#F5F5F5;enable-background:new    ;" d="M325.295,188.342c-1.083-0.812-2.623-0.158-3.751,0.59
					c-1.128,0.748-2.453,1.621-3.725,1.16c-0.025-1.57-0.049-3.139-0.074-4.709c-0.005-0.295-0.023-0.624-0.237-0.827
					c-0.217-0.206-0.552-0.205-0.851-0.192c-1.01,0.046-2.02,0.092-3.03,0.139c-0.843,0.926,1.505,2.057,1.171,3.264
					c-0.148,0.533-0.75,0.765-1.238,1.027c-4.16,2.232-1.521,6.872,0.364,9.392c2.188,2.926,2.042,6.913,1.806,10.562
					c-0.087,1.297-0.241,2.75-1.242,3.598c-0.971,0.839-2.404,0.781-3.649,1.148c-2.153,0.625-3.678,2.531-5.693,3.523
					c-7.042,3.465-11.683-4.072-9.39-10.009c1.189-3.077,1.698-2.493,1.017-5.783c-0.284-1.371,0.171-2.99-1.257-3.926
					c-1.512-0.992-3.694,0.073-3.815,1.915c-0.118,1.807-0.532,3.526,0.21,5.223c-2.083-0.773-4.563-0.282-6.839-0.283
					c0.325,2.098-2.382,3.945-4.217,2.879c0.061-1.027-0.218-2.442-1.247-2.434c-0.3,0.002-0.58,0.146-0.839,0.299
					c-1.08,0.637-2.035,1.485-3.173,2.018c-1.749,0.816-6.777,0.429-7.562,2.789c-0.138,0.415-0.136,0.869-0.3,1.274
					c-0.349,0.864-1.446,1.285-2.336,1.009c-0.89-0.276-1.529-1.129-1.702-2.045c-0.115-0.61-0.051-1.249-0.21-1.849
					c-0.847-3.188-4.12-0.692-5.582-1.551c-0.701-0.412-3.59-5.846-3.654-6.505c-1.391,1.731-3.471,3.191-5.784,3.082
					c-2.533-0.118-3.613-2.132-4.183-4.592c-0.601-2.598-0.632-5.694-1.201-7.577c-0.306-1.011-0.567-2.239,0.148-3.016
					c0.895-0.972,2.799-0.6,3.449-1.75c0.206-0.365,0.223-0.802,0.294-1.215c0.416-2.423,3.132-4.178,5.512-3.562
					c0.779-0.51,0.791-1.615,0.837-2.545c0.046-0.929,0.439-2.079,1.367-2.144c1.067-0.076,1.551,1.32,1.534,2.389
					c-0.018,1.09-0.187,2.178-0.503,3.222c-0.236,0.78-0.554,1.615-0.277,2.381c0.209,0.579,0.719,0.989,1.219,1.349
					c1.204,0.867,2.574,1.647,4.058,1.636c1.484-0.011,3.045-1.089,3.103-2.571c0.016-0.398-0.073-0.804,0.02-1.191
					c0.239-0.995,1.509-1.338,2.523-1.201c1.014,0.137,2.024,0.561,3.027,0.357c1.003-0.204,1.836-1.51,1.125-2.246
					c1.347-0.472,3.274-0.707,3.804,0.618c0.17,0.426,0.123,0.901,0.131,1.36c0.052,2.829,3.569,6.912,5.969,3.954
					c1.578-1.945-1.139-5.483,1.692-7.083c1.353-0.765,3.19-0.089,4.529-0.88c0.418-0.496-0.3-1.167-0.928-1.332
					c-1.984-0.522-4.225,0.087-5.673,1.54c-0.802-1.648,0.437-4.065-0.962-5.249c-1.382-1.169-4.039,0.207-5.075-1.278
					c-0.296-0.425-0.343-0.97-0.38-1.488c-0.183-2.554,0.603-7.241-3.004-7.669c-0.437-0.052-0.893-0.019-1.303-0.178
					c-1.245-0.484-1.235-2.227-1.004-3.543c1.355-0.583,2.809,0.421,4.113,1.111c1.304,0.69,3.373,0.806,3.818-0.601
					c0.318-1.007-0.472-2.268,0.196-3.087c0.309-0.38,0.856-0.524,1.118-0.938c0.634-1.001-0.907-2.005-1.181-3.158
					c-0.377-1.589,1.746-2.609,3.374-2.488c1.629,0.121,3.451,0.668,4.766-0.3c0.417-0.307,0.725-0.737,1.113-1.081
					c1.192-1.057,2.929-1.152,4.522-1.193c2.542-0.066-3.242-10.521-3.299-11.158c-0.437-4.85,4.534-7.432,7.383-10.516
					c1.488-1.626,2.577-3.55,3.668-5.473c42.831,16.949,74.502,56.28,81.687,101.807c0.322,2.041,0.706,4.152,0.72,6.187
					c-3.006-0.848-7.682-3.098-10.735-1.269c-3.876,2.322-1.071,8.073-5.539,9.774c-1.106-0.015-0.787-1.837-1.428-2.739
					c-0.356-0.501-1.008-0.669-1.557-0.947c-0.549-0.277-1.08-0.87-0.858-1.443c-0.967-0.76-2.3,0.209-3.198,1.049
					c-1.056,0.988-2.264,1.896-3.679,2.193c-2.948,0.62-5.671-1.494-8.326-2.917c-2.195-1.176-4.588-1.926-6.965-2.669
					c1.15,0.068,1.732-1.522,1.289-2.585c-0.443-1.063-1.444-1.769-2.177-2.658c-1.249-1.516-0.289-3.281-1.333-4.892
					c-1.291-2.003-3.778-3.408-3.988-5.777c-0.262-2.872,2.918-4.703,5.59-5.767c-1.416-3.241-5.254-5.468-5.25-9.009
					c0-1.364,0.61-2.636,1.201-3.859c1.211-2.505,2.422-5.009,3.633-7.505c0.505-1.039,1.02-2.184,0.712-3.295
					c-0.348-1.313-1.688-2.068-2.892-2.669c-1.311-0.658-2.622-1.317-3.932-1.975c-0.544-0.267-1.136-0.543-1.725-0.443
					c-0.638,0.111-1.108,0.617-1.501,1.133c-2.138,2.773-3.157,6.379-2.804,9.869c-4.649-0.693-9.215-1.957-13.553-3.774
					c0.482,2.686-0.626,5.651,0.206,8.167"/>
				<path style="fill:#F5F5F5;enable-background:new    ;" d="M216.392,210.322c-1.251,0.898-2.256,2.27-2.333,3.808
					c-0.048,0.949,0.255,1.879,0.316,2.827c0.061,0.948-0.206,2.03-1.038,2.488c-1.062,0.585-2.344-0.143-3.332-0.845
					c-0.803-0.571-1.667-1.232-1.864-2.197c-0.144-0.706,0.106-1.436,0.043-2.154c-0.124-1.421-1.382-2.42-2.386-3.433
					c-1.004-1.013-1.857-2.607-1.066-3.794c0.521-0.781,1.577-1.054,2.136-1.808c1.363-1.839-1.102-4.414,0.027-6.088
					c1.338-1.984,4.656-0.969,6.491,0.034c1.858,1.015,3.209,2.897,4.538,4.491C221.682,208.156,220.369,207.466,216.392,210.322z"
					/>
				<path style="fill:#F5F5F5;enable-background:new    ;" d="M166.898,140.714c22.037-19.117,52.791-28.946,81.663-29.151
					c0.803-0.006,1.606-0.002,2.399,0.002c3.809,4.295,5.83,12.432-1.717,13.951c-0.004,0.824,0.471,1.028,0.887,1.686
					c0.653,1.034-0.436,2.336-1.566,2.803c-3.707,1.531-8.207,1.442-7.618,6.463c0.702,5.988,3.531,2.177,6.64,4.345
					c0.45,0.314,0.714,0.825,1.074,1.239c1.322,1.518,3.641,1.506,5.648,1.372c-0.503-1.177,0.279-2.716,1.525-3.003
					c0.47-0.108,0.999-0.071,1.39-0.354c0.84-0.608,0.204-2.042-0.754-2.437c-0.959-0.395-2.061-0.231-3.056-0.521
					c-0.995-0.29-1.903-1.47-1.299-2.312c0.252-0.352,0.69-0.516,1.113-0.611c1.773-0.4,3.73,0.143,5.044,1.399
					c0.331-0.953,1.36-1.612,2.365-1.514c1.004,0.098,1.887,0.943,2.027,1.943c0.206,1.461-0.797,3.45,0.51,4.134
					c-1.159-0.304-2.477,0.111-3.253,1.026c-3.055,3.601-1.237,12.356-9.288,10.889c-1.293-0.236-2.53-0.786-3.843-0.856
					c-1.313-0.07-2.817,0.541-3.165,1.809c-1.691-2.454-6.03-1.93-7.472-4.538c-0.679-1.228-0.37-2.915,0.699-3.823
					c0.178-0.151,0.382-0.293,0.468-0.51c0.175-0.441-0.22-0.894-0.284-1.365c-0.111-0.819,0.775-1.453,0.883-2.272
					c0.152-1.141-1.174-1.87-2.289-2.159c-1.115-0.289-2.476-0.698-2.703-1.827c-0.077-0.385,0.005-0.788-0.072-1.173
					c-0.157-0.776-0.946-1.296-1.731-1.397c-0.786-0.101-1.572,0.125-2.332,0.349c-0.518,0.44-0.288,1.314,0.175,1.812
					c0.463,0.497,1.105,0.824,1.485,1.387c0.213,0.315-0.835,7.141-0.32,6.964c-2.442,0.842-7.653,0.967-6.603,4.614
					c0.371,1.288,1.121,2.629,0.644,3.882c1.716-0.483,3.438-0.945,5.165-1.388c0.42,0.554-0.27,1.312-0.944,1.482
					c-0.674,0.17-1.475,0.146-1.934,0.669c-0.322,0.367-0.364,0.894-0.392,1.382c-0.089,1.586-0.177,3.173-0.265,4.759
					c-0.096,1.721-0.326,3.693-1.752,4.663c-1.621,1.103-3.914,0.225-5.276-1.185c-0.327-0.338-0.686-0.734-1.156-0.736
					c-0.425-0.002-0.771,0.322-1.088,0.606c-1.672,1.495-4.01,2.394-6.194,1.878c-2.183-0.516-3.988-2.712-3.621-4.925
					c0.141-0.851,0.51-1.893-0.149-2.452c-0.387-0.328-1.048-0.368-1.222-0.845c-0.218-0.599,0.547-1.032,1.059-1.412
					c0.925-0.687,1.257-2.064,0.745-3.096c-0.262-0.529-5.021-2.483-5.76-2.123c-1.696,0.826-1.396,5.371-1.607,7.124
					c-0.081,0.677-0.206,1.432-0.753,1.839c-0.855,0.635-2.088-0.025-2.75-0.859c-0.662-0.834-1.147-1.892-2.106-2.355
					c-0.558-0.269-1.198-0.292-1.817-0.311c-1.254-0.037-2.662-0.016-3.546,0.874c-0.413,0.416-0.656,0.977-1.068,1.394
					c-0.942,0.951-2.513,0.905-3.774,0.454c-1.261-0.451-2.395-1.231-3.689-1.576c-2.752-0.735-5.899,0.569-8.431-0.738
					c-1.223-0.632-2.105-2.378-1.136-3.357c0.836-0.845,2.651-0.699,2.873-1.867c0.213-1.119-2.529-2.733-3.011-3.712
					c-0.382-0.775,0.453-2.217-0.43-3.653C169.427,142.327,167.678,141.97,166.898,140.714z"/>
				<path style="fill:#F5F5F5;enable-background:new    ;" d="M328.645,329.319c1.565-1.049,3.322-1.653,3.867-3.806
					c0.743-2.932-0.838-4.182-3.755-3.094c-0.259,0.097-0.542,0.199-0.806,0.115c-0.843-0.269-0.245-1.513,0.303-2.207
					c1.283-1.621,1.371-3.797,0.706-5.682c-0.158-0.447,8.054-0.636,8.959-0.141c3.166,1.732,1.103,8.484,4.776,7.345
					c0.248-2.567,0.113-5.225,0.119-7.821c1.251-0.048,2.502-0.095,3.753-0.143c-0.932,0.035-0.378-4.752-0.061-5.275
					c1.232-2.032,5.037-1.168,4.698-5.008c-0.429-4.86-9.841-5.848-8.714-0.272c-2.868,1.097-6.22,1.343-9.286,1.253
					c-0.07,0.987-0.131,1.984-0.192,2.972c-0.713,0.44-1.651,0.515-2.427,0.182c-1.488-2.495-1.261-5.912,0.542-8.199
					c-1.076-1.647,0.234-3.765,1.491-5.284c-3.443-2.52-2.453-8.923,1.591-10.286c4.054-1.364,8.711,3.141,7.492,7.232
					c1.975,0.228,3.868,1.095,5.329,2.439c0.215-5.168,4.109-9.975,9.121-11.249c2.521-0.647,5.511-0.61,7.229-2.567
					c0.768-0.867,1.147-2.011,1.856-2.926c1.611-2.043,4.491-2.46,7.093-2.605c1.741-0.09,3.482-0.121,5.224-0.095
					c-7.274,30.248-24.997,56.467-49.173,74.577c-0.919,0.036-1.867,0.023-2.663-0.397c-1.476-0.793-1.935-2.657-2.237-4.309
					c-1.189-6.426-0.521-10.427,4.707-14.423C328.338,329.531,328.49,329.423,328.645,329.319z"/>
			</g>
		</g>
		<path style="fill:#FAFAFA;" d="M404.786,173.238c0-4.205-3.409-7.614-7.614-7.614c-0.76,0-1.493,0.115-2.186,0.322
			c0.111-0.764,0.171-1.544,0.171-2.338c0-8.905-7.219-16.123-16.123-16.123c-1.015,0-2.007,0.098-2.97,0.278
			c-2.478-4.056-6.933-6.772-12.034-6.772c-7.72,0-13.983,6.203-14.097,13.896c-0.079-0.001-0.155-0.012-0.235-0.012
			c-7.173,0-12.988,5.815-12.988,12.988c0,7.173,5.815,12.988,12.988,12.988h47.698l-0.01-0.011
			C401.491,180.726,404.786,177.37,404.786,173.238z"/>
		<path style="fill:#FAFAFA;" d="M146.956,197.652c0-3.607-2.924-6.53-6.53-6.53c-0.652,0-1.281,0.098-1.875,0.276
			c0.095-0.655,0.147-1.324,0.147-2.005c0-7.637-6.191-13.829-13.829-13.829c-0.87,0-1.721,0.084-2.547,0.238
			c-2.126-3.479-5.946-5.808-10.321-5.808c-6.622,0-11.993,5.32-12.091,11.918c-0.068-0.001-0.133-0.01-0.201-0.01
			c-6.152,0-11.14,4.987-11.14,11.14c0,6.152,4.988,11.14,11.14,11.14h40.91l-0.008-0.009
			C144.131,204.075,146.956,201.196,146.956,197.652z"/>
		<path style="fill:#FAFAFA;" d="M295.213,257.144c0-4.205-3.409-7.614-7.614-7.614c-0.76,0-1.493,0.115-2.186,0.322
			c0.111-0.764,0.171-1.544,0.171-2.338c0-8.905-7.219-16.123-16.123-16.123c-1.015,0-2.007,0.098-2.97,0.278
			c-2.478-4.056-6.933-6.772-12.033-6.772c-7.72,0-13.983,6.203-14.097,13.896c-0.079-0.001-0.156-0.012-0.235-0.012
			c-7.173,0-12.988,5.815-12.988,12.988c0,7.173,5.815,12.988,12.988,12.988h47.698l-0.01-0.011
			C291.918,264.632,295.213,261.276,295.213,257.144z"/>
		<path style="fill:#FAFAFA;" d="M412.77,327.872c0-2.915-2.363-5.278-5.278-5.278c-0.527,0-1.035,0.08-1.516,0.223
			c0.077-0.529,0.118-1.07,0.118-1.621c0-6.173-5.005-11.178-11.178-11.178c-0.704,0-1.391,0.068-2.059,0.192
			c-1.718-2.811-4.806-4.694-8.342-4.694c-5.352,0-9.693,4.3-9.773,9.633c-0.055-0.001-0.108-0.008-0.163-0.008
			c-4.973,0-9.004,4.031-9.004,9.004c0,4.973,4.031,9.004,9.004,9.004h33.067l-0.007-0.008
			C410.486,333.063,412.77,330.737,412.77,327.872z"/>
		<path style="fill:#FAFAFA;" d="M128.244,331.682c0-2.727-2.211-4.938-4.938-4.938c-0.493,0-0.968,0.074-1.418,0.209
			c0.072-0.495,0.111-1.001,0.111-1.516c0-5.775-4.682-10.457-10.457-10.457c-0.658,0-1.302,0.064-1.926,0.18
			c-1.607-2.63-4.497-4.392-7.805-4.392c-5.007,0-9.069,4.023-9.143,9.013c-0.051-0.001-0.101-0.008-0.152-0.008
			c-4.652,0-8.424,3.771-8.424,8.424s3.771,8.424,8.424,8.424h30.936l-0.006-0.007C126.108,336.539,128.244,334.362,128.244,331.682
			z"/>
		
			<path style="fill:none;stroke:#E0E0E0;stroke-width:1.7968;stroke-linecap:round;stroke-linejoin:round;stroke-miterlimit:10;" d="
			M90.542,288.753c-12.58-33.185,48.048-86.936,135.417-120.056c87.368-33.12,168.393-33.068,180.973,0.117"/>
		
			<path style="fill:none;stroke:#E0E0E0;stroke-width:1.7968;stroke-linecap:round;stroke-linejoin:round;stroke-miterlimit:10;" d="
			M148.085,97.295c28.525-21.114,96.713,22.652,152.301,97.753c55.588,75.101,77.527,153.099,49.001,174.212"/>
	</g>
</g>
<g id="Background_Simple" style="display:none;">
	<g style="display:inline;">
		<path style="fill:#81C14B;" d="M246.266,95.615c-79.661,35.841-7.346,99.719-53.342,134.508
			c-45.996,34.789-171.054-5.429-123.38,84.91c55.999,106.116,301.224,91.381,354.097-38.778S325.926,59.775,246.266,95.615z"/>
		<path style="opacity:0.9;fill:#FFFFFF;" d="M246.266,95.615c-79.661,35.841-7.346,99.719-53.342,134.508
			c-45.996,34.789-171.054-5.429-123.38,84.91c55.999,106.116,301.224,91.381,354.097-38.778S325.926,59.775,246.266,95.615z"/>
	</g>
</g>
<g id="Shadow_1_">
	<ellipse id="_x3C_Path_x3E__359_" style="fill:#F5F5F5;" cx="250" cy="416.238" rx="193.889" ry="11.323"/>
</g>
<g id="Graphic">
	<g>
		<path style="fill:#81C14B;" d="M375.701,244.756c-2.42,0.269-4.348,1.933-5.085,4.098l-43.115-7.342
			c0.065-0.698,0.061-1.412-0.019-2.135c-0.638-5.75-5.835-9.909-11.585-9.271c-0.269,0.03-0.53,0.079-0.792,0.129
			c-2.97-10.469-7.622-26.939-11.133-39.382c2.285-1.08,3.749-3.521,3.455-6.17c-0.37-3.335-3.384-5.746-6.719-5.376
			c-3.335,0.37-5.746,3.384-5.376,6.719c0.37,3.335,3.383,5.746,6.717,5.377c1.502,5.322,3.844,13.62,6.189,21.92
			c1.767,6.253,3.533,12.492,4.945,17.47c-4.281,1.703-7.091,6.103-6.559,10.899c0.109,0.979,0.359,1.907,0.712,2.778
			l-35.292,17.521c-2.648-4.458-7.731-7.213-13.21-6.604c-1.988,0.221-3.821,0.871-5.438,1.833l-36.319-52.092
			c5.165-4.025,8.205-10.542,7.431-17.515c-0.894-8.058-6.613-14.428-13.954-16.561l6.814-29.096
			c0.35,0.023,0.705,0.021,1.065-0.019c3.335-0.37,5.746-3.384,5.376-6.718c-0.37-3.335-3.384-5.747-6.718-5.377
			c-3.335,0.37-5.747,3.384-5.377,6.719c0.252,2.273,1.733,4.114,3.706,4.941l-6.814,29.096c-1.809-0.328-3.692-0.413-5.61-0.2
			c-10.677,1.185-18.399,10.835-17.214,21.512c0.057,0.515,0.151,1.016,0.247,1.517l-42.799,10.512
			c-1.577-4.511-6.107-7.517-11.054-6.968c-5.75,0.638-9.909,5.835-9.271,11.585c0.638,5.75,5.835,9.909,11.585,9.27
			c5.75-0.638,9.909-5.835,9.271-11.585c-0.014-0.122-0.041-0.239-0.059-0.36l42.8-10.513c2.653,8.828,11.309,14.807,20.791,13.755
			c2.996-0.332,5.746-1.35,8.145-2.851l36.318,52.091c-3.467,2.826-5.485,7.292-4.956,12.058c0.576,5.193,4.021,9.38,8.575,11.171
			l-8.908,28.852c-1.053-0.219-2.156-0.283-3.282-0.158c-5.75,0.638-9.909,5.836-9.271,11.585c0.083,0.743,0.244,1.457,0.47,2.14
			l-21.434,9.45c-1.218-1.851-3.404-2.975-5.754-2.714c-3.335,0.37-5.746,3.384-5.376,6.719s3.384,5.747,6.719,5.377
			c3.335-0.37,5.747-3.384,5.377-6.719c-0.032-0.286-0.089-0.561-0.158-0.832l21.434-9.449c2.002,3.561,6,5.778,10.31,5.3
			c2.654-0.294,4.961-1.568,6.622-3.411l25.681,19.054c-0.527,1.026-0.771,2.212-0.635,3.442c0.37,3.335,3.384,5.747,6.718,5.377
			c3.335-0.37,5.746-3.384,5.376-6.719c-0.37-3.335-3.384-5.747-6.719-5.377c-1.388,0.154-2.612,0.771-3.546,1.674l-25.683-19.057
			c1.153-1.907,1.721-4.187,1.457-6.568c-0.435-3.919-2.99-7.096-6.393-8.522l8.91-28.857c1.455,0.336,2.984,0.45,4.549,0.277
			c7.464-0.828,12.861-7.574,12.033-15.037c-0.142-1.282-0.47-2.497-0.936-3.636l35.328-17.539c2.096,3.215,5.878,5.171,9.947,4.72
			c4.33-0.48,7.755-3.547,8.912-7.487l43.166,7.351c0.001,0.214,0.012,0.43,0.036,0.647c0.37,3.335,3.384,5.747,6.719,5.377
			c3.335-0.37,5.747-3.384,5.377-6.719C382.05,246.798,379.036,244.386,375.701,244.756z M300.93,181.295
			c2.239-0.248,4.262,1.371,4.51,3.609c0.248,2.239-1.371,4.262-3.609,4.511c-2.238,0.248-4.262-1.371-4.51-3.609
			C297.072,183.566,298.692,181.543,300.93,181.295z M221.824,135.439c0.248,2.238-1.371,4.262-3.609,4.51
			c-2.239,0.249-4.262-1.371-4.51-3.609c-0.249-2.239,1.371-4.262,3.609-4.511C219.552,131.581,221.576,133.2,221.824,135.439z
			 M141.776,206.462c0.516,4.654-2.85,8.86-7.504,9.377c-4.654,0.516-8.861-2.85-9.377-7.503c-0.516-4.654,2.85-8.86,7.504-9.377
			C137.053,198.442,141.259,201.808,141.776,206.462z M187.772,191.689c-1.063-9.581,5.866-18.24,15.447-19.303
			c9.581-1.063,18.24,5.866,19.303,15.447s-5.866,18.24-15.447,19.303C197.495,208.199,188.835,201.27,187.772,191.689z
			 M211.93,336.345c0.248,2.239-1.371,4.262-3.61,4.511c-2.238,0.248-4.262-1.37-4.51-3.61c-0.248-2.239,1.371-4.262,3.609-4.51
			C209.658,332.487,211.682,334.106,211.93,336.345z M245.283,329.155c-4.654,0.517-8.861-2.85-9.377-7.504
			c-0.516-4.654,2.85-8.861,7.504-9.377c4.654-0.516,8.861,2.85,9.377,7.504C253.303,324.432,249.937,328.639,245.283,329.155z
			 M282.767,345.496c2.238-0.248,4.262,1.37,4.51,3.609c0.248,2.239-1.371,4.262-3.609,4.511c-2.238,0.248-4.262-1.37-4.51-3.61
			S280.529,345.745,282.767,345.496z M271.885,267.639c0.707,6.367-3.899,12.122-10.266,12.829
			c-6.367,0.707-12.122-3.899-12.828-10.266c-0.706-6.366,3.898-12.121,10.265-12.828
			C265.424,256.667,271.179,261.272,271.885,267.639z M308.614,241.471c-0.517-4.654,2.85-8.86,7.504-9.377
			c4.654-0.516,8.861,2.85,9.377,7.504c0.516,4.654-2.85,8.861-7.504,9.377C313.337,249.491,309.13,246.125,308.614,241.471z
			 M372.313,251.253c-0.248-2.238,1.371-4.261,3.609-4.51c2.239-0.248,4.262,1.37,4.51,3.608c0.248,2.239-1.371,4.262-3.609,4.511
			C374.585,255.111,372.561,253.492,372.313,251.253z"/>
		<g style="opacity:0.7;">
			<path style="fill:#FFFFFF;" d="M375.701,244.756c-2.42,0.269-4.348,1.933-5.085,4.098l-43.115-7.342
				c0.065-0.698,0.061-1.412-0.019-2.135c-0.638-5.75-5.835-9.909-11.585-9.271c-0.269,0.03-0.53,0.079-0.792,0.129
				c-2.97-10.469-7.622-26.939-11.133-39.382c2.285-1.08,3.749-3.521,3.455-6.17c-0.37-3.335-3.384-5.746-6.719-5.376
				c-3.335,0.37-5.746,3.384-5.376,6.719c0.37,3.335,3.383,5.746,6.717,5.377c1.502,5.322,3.844,13.62,6.189,21.92
				c1.767,6.253,3.533,12.492,4.945,17.47c-4.281,1.703-7.091,6.103-6.559,10.899c0.109,0.979,0.359,1.907,0.712,2.778
				l-35.292,17.521c-2.648-4.458-7.731-7.213-13.21-6.604c-1.988,0.221-3.821,0.871-5.438,1.833l-36.319-52.092
				c5.165-4.025,8.205-10.542,7.431-17.515c-0.894-8.058-6.613-14.428-13.954-16.561l6.814-29.096
				c0.35,0.023,0.705,0.021,1.065-0.019c3.335-0.37,5.746-3.384,5.376-6.718c-0.37-3.335-3.384-5.747-6.718-5.377
				c-3.335,0.37-5.747,3.384-5.377,6.719c0.252,2.273,1.733,4.114,3.706,4.941l-6.814,29.096c-1.809-0.328-3.692-0.413-5.61-0.2
				c-10.677,1.185-18.399,10.835-17.214,21.512c0.057,0.515,0.151,1.016,0.247,1.517l-42.799,10.512
				c-1.577-4.511-6.107-7.517-11.054-6.968c-5.75,0.638-9.909,5.835-9.271,11.585c0.638,5.75,5.835,9.909,11.585,9.27
				c5.75-0.638,9.909-5.835,9.271-11.585c-0.014-0.122-0.041-0.239-0.059-0.36l42.8-10.513c2.653,8.828,11.309,14.807,20.791,13.755
				c2.996-0.332,5.746-1.35,8.145-2.851l36.318,52.091c-3.467,2.826-5.485,7.292-4.956,12.058c0.576,5.193,4.021,9.38,8.575,11.171
				l-8.908,28.852c-1.053-0.219-2.156-0.283-3.282-0.158c-5.75,0.638-9.909,5.836-9.271,11.585c0.083,0.743,0.244,1.457,0.47,2.14
				l-21.434,9.45c-1.218-1.851-3.404-2.975-5.754-2.714c-3.335,0.37-5.746,3.384-5.376,6.719s3.384,5.747,6.719,5.377
				c3.335-0.37,5.747-3.384,5.377-6.719c-0.032-0.286-0.089-0.561-0.158-0.832l21.434-9.449c2.002,3.561,6,5.778,10.31,5.3
				c2.654-0.294,4.961-1.568,6.622-3.411l25.681,19.054c-0.527,1.026-0.771,2.212-0.635,3.442c0.37,3.335,3.384,5.747,6.718,5.377
				c3.335-0.37,5.746-3.384,5.376-6.719c-0.37-3.335-3.384-5.747-6.719-5.377c-1.388,0.154-2.612,0.771-3.546,1.674l-25.683-19.057
				c1.153-1.907,1.721-4.187,1.457-6.568c-0.435-3.919-2.99-7.096-6.393-8.522l8.91-28.857c1.455,0.336,2.984,0.45,4.549,0.277
				c7.464-0.828,12.861-7.574,12.033-15.037c-0.142-1.282-0.47-2.497-0.936-3.636l35.328-17.539c2.096,3.215,5.878,5.171,9.947,4.72
				c4.33-0.48,7.755-3.547,8.912-7.487l43.166,7.351c0.001,0.214,0.012,0.43,0.036,0.647c0.37,3.335,3.384,5.747,6.719,5.377
				c3.335-0.37,5.747-3.384,5.377-6.719C382.05,246.798,379.036,244.386,375.701,244.756z M300.93,181.295
				c2.239-0.248,4.262,1.371,4.51,3.609c0.248,2.239-1.371,4.262-3.609,4.511c-2.238,0.248-4.262-1.371-4.51-3.609
				C297.072,183.566,298.692,181.543,300.93,181.295z M221.824,135.439c0.248,2.238-1.371,4.262-3.609,4.51
				c-2.239,0.249-4.262-1.371-4.51-3.609c-0.249-2.239,1.371-4.262,3.609-4.511C219.552,131.581,221.576,133.2,221.824,135.439z
				 M141.776,206.462c0.516,4.654-2.85,8.86-7.504,9.377c-4.654,0.516-8.861-2.85-9.377-7.503c-0.516-4.654,2.85-8.86,7.504-9.377
				C137.053,198.442,141.259,201.808,141.776,206.462z M187.772,191.689c-1.063-9.581,5.866-18.24,15.447-19.303
				c9.581-1.063,18.24,5.866,19.303,15.447s-5.866,18.24-15.447,19.303C197.495,208.199,188.835,201.27,187.772,191.689z
				 M211.93,336.345c0.248,2.239-1.371,4.262-3.61,4.511c-2.238,0.248-4.262-1.37-4.51-3.61c-0.248-2.239,1.371-4.262,3.609-4.51
				C209.658,332.487,211.682,334.106,211.93,336.345z M245.283,329.155c-4.654,0.517-8.861-2.85-9.377-7.504
				c-0.516-4.654,2.85-8.861,7.504-9.377c4.654-0.516,8.861,2.85,9.377,7.504C253.303,324.432,249.937,328.639,245.283,329.155z
				 M282.767,345.496c2.238-0.248,4.262,1.37,4.51,3.609c0.248,2.239-1.371,4.262-3.609,4.511c-2.238,0.248-4.262-1.37-4.51-3.61
				S280.529,345.745,282.767,345.496z M271.885,267.639c0.707,6.367-3.899,12.122-10.266,12.829
				c-6.367,0.707-12.122-3.899-12.828-10.266c-0.706-6.366,3.898-12.121,10.265-12.828
				C265.424,256.667,271.179,261.272,271.885,267.639z M308.614,241.471c-0.517-4.654,2.85-8.86,7.504-9.377
				c4.654-0.516,8.861,2.85,9.377,7.504c0.516,4.654-2.85,8.861-7.504,9.377C313.337,249.491,309.13,246.125,308.614,241.471z
				 M372.313,251.253c-0.248-2.238,1.371-4.261,3.609-4.51c2.239-0.248,4.262,1.37,4.51,3.608c0.248,2.239-1.371,4.262-3.609,4.511
				C374.585,255.111,372.561,253.492,372.313,251.253z"/>
		</g>
	</g>
</g>
<g id="Plant">
	<g>
		<g>
			<path style="fill:none;stroke:#263238;stroke-width:0.8474;stroke-miterlimit:10;" d="M370.607,357.909c0,0,5.378-4.484,9.991,0
				c4.612,4.484,5.502,32.265,5.502,32.265"/>
			<path style="fill:none;stroke:#263238;stroke-width:0.8474;stroke-miterlimit:10;" d="M386.482,395.539
				c0,0-3.171-32.603,8.767-46.304"/>
			<path style="fill:none;stroke:#263238;stroke-width:0.8474;stroke-miterlimit:10;" d="M385.346,392.103
				c0,0,2.442-37.115-6.511-45.35"/>
			<path style="fill:none;stroke:#263238;stroke-width:0.8474;stroke-miterlimit:10;" d="M386.482,392.103
				c0,0,0.208-24.526,6.862-28.339c6.653-3.813,10.045,8.622,10.045,8.622"/>
			<path style="fill:none;stroke:#263238;stroke-width:0.8474;stroke-miterlimit:10;" d="M383.854,392.103
				c0,0,1.085-18.828-4.07-25.558c-5.155-6.729-10.581,2.883-10.581,2.883"/>
			<path style="fill:none;stroke:#263238;stroke-width:0.8474;stroke-miterlimit:10;" d="M385.65,394.625
				c0,0-3.333-44.033,2.183-51.494"/>
		</g>
		<g>
			<path style="fill:#81C14B;" d="M399.041,367.337c0,0-3.318,1.223-2.331,4.11s11.477,7.639,11.477,7.639s4.393-4.027,0.359-10.576
				C404.51,361.962,399.13,365.271,399.041,367.337z"/>
			<path style="opacity:0.2;enable-background:new    ;" d="M399.041,367.337c0,0-3.318,1.223-2.331,4.11s11.477,7.639,11.477,7.639
				s4.393-4.027,0.359-10.576C404.51,361.962,399.13,365.271,399.041,367.337z"/>
		</g>
		<g>
			<path style="fill:#81C14B;" d="M384.619,361.841c0,0,3.533-0.148,3.733,2.897c0.201,3.045-7.653,11.468-7.653,11.468
				s-5.605-2.026-4.401-9.624S383.741,359.968,384.619,361.841z"/>
			<path style="opacity:0.2;enable-background:new    ;" d="M384.619,361.841c0,0,3.533-0.148,3.733,2.897
				c0.201,3.045-7.653,11.468-7.653,11.468s-5.605-2.026-4.401-9.624S383.741,359.968,384.619,361.841z"/>
		</g>
		<g>
			<path style="fill:#81C14B;" d="M381.628,347.267c0,0,2.355-0.253,2.166-1.688c-0.19-1.435-9.156-5.127-14.446,0.844
				c0,0,3.387,5.819,8.284,5.895C382.528,352.394,381.628,347.267,381.628,347.267z"/>
			<path style="opacity:0.2;enable-background:new    ;" d="M381.628,347.267c0,0,2.355-0.253,2.166-1.688
				c-0.19-1.435-9.156-5.127-14.446,0.844c0,0,3.387,5.819,8.284,5.895C382.528,352.394,381.628,347.267,381.628,347.267z"/>
		</g>
		<g>
			<path style="fill:#81C14B;" d="M386.017,343.783c0,0-2.133,1.031-2.73-0.287c-0.598-1.318,5.059-9.194,12.706-6.924
				c0,0,0.203,6.729-3.913,9.384C387.964,348.61,386.017,343.783,386.017,343.783z"/>
			<path style="opacity:0.2;enable-background:new    ;" d="M386.017,343.783c0,0-2.133,1.031-2.73-0.287
				c-0.598-1.318,5.059-9.194,12.706-6.924c0,0,0.203,6.729-3.913,9.384C387.964,348.61,386.017,343.783,386.017,343.783z"/>
		</g>
		<g>
			<path style="fill:#81C14B;" d="M374.865,366.177c0,0,1.626-1.313-0.129-1.953c-1.754-0.641-10.362-0.459-10.452,8.068
				c0,0,10.025,1.666,11.266-1.582C376.792,367.462,374.865,366.177,374.865,366.177z"/>
			<path style="opacity:0.2;enable-background:new    ;" d="M374.865,366.177c0,0,1.626-1.313-0.129-1.953
				c-1.754-0.641-10.362-0.459-10.452,8.068c0,0,10.025,1.666,11.266-1.582C376.792,367.462,374.865,366.177,374.865,366.177z"/>
		</g>
		<g>
			<path style="fill:#81C14B;" d="M395.308,347.053c0,0-1.625-1.313,0.129-1.953c1.754-0.641,10.362-0.459,10.451,8.068
				c0,0-10.025,1.666-11.266-1.582C393.382,348.338,395.308,347.053,395.308,347.053z"/>
			<path style="opacity:0.2;enable-background:new    ;" d="M395.308,347.053c0,0-1.625-1.313,0.129-1.953
				c1.754-0.641,10.362-0.459,10.451,8.068c0,0-10.025,1.666-11.266-1.582C393.382,348.338,395.308,347.053,395.308,347.053z"/>
		</g>
		<g>
			<path style="fill:#81C14B;" d="M390.009,353.922c0,0-0.143-1.595,1.145-0.97c1.288,0.625,5.775,5.466,1.124,10.06
				c0,0-6.261-4.637-5.133-7.052C388.273,353.545,390.009,353.922,390.009,353.922z"/>
			<path style="opacity:0.2;enable-background:new    ;" d="M390.009,353.922c0,0-0.143-1.595,1.145-0.97
				c1.288,0.625,5.775,5.466,1.124,10.06c0,0-6.261-4.637-5.133-7.052C388.273,353.545,390.009,353.922,390.009,353.922z"/>
		</g>
		<g>
			<path style="fill:#81C14B;" d="M373.412,356.195c0,0,0.972-1.273-0.451-1.431c-1.423-0.158-7.801,1.545-6.316,7.911
				c0,0,7.77-0.584,8.103-3.229C375.081,356.802,373.412,356.195,373.412,356.195z"/>
			<path style="opacity:0.2;enable-background:new    ;" d="M373.412,356.195c0,0,0.972-1.273-0.451-1.431
				c-1.423-0.158-7.801,1.545-6.316,7.911c0,0,7.77-0.584,8.103-3.229C375.081,356.802,373.412,356.195,373.412,356.195z"/>
		</g>
		<polygon style="fill:#263238;" points="399.661,415.738 373.003,415.738 370.126,386.551 402.537,386.551 		"/>
		<polygon style="opacity:0.5;fill:#FFFFFF;enable-background:new    ;" points="399.661,415.738 373.003,415.738 370.126,386.551 
			402.537,386.551 		"/>
		<rect x="368.703" y="383.33" style="fill:#263238;" width="35.257" height="6.44"/>
		<rect x="368.703" y="383.33" style="opacity:0.2;fill:#FFFFFF;enable-background:new    ;" width="35.257" height="6.44"/>
	</g>
</g>
<g id="Character_2">
	<g>
		<g>
			<path style="fill:#81C14B;" d="M387.723,357.946H322.85c-4.015,0-6.985-3.255-6.634-7.27l16.76-191.573
				c0.351-4.015,3.891-7.27,7.906-7.27h64.874c4.015,0,6.985,3.255,6.634,7.27l-16.76,191.573
				C395.278,354.691,391.738,357.946,387.723,357.946z"/>
			<path style="opacity:0.6;fill:#FFFFFF;enable-background:new    ;" d="M387.723,357.946H322.85c-4.015,0-6.985-3.255-6.634-7.27
				l16.76-191.573c0.351-4.015,3.891-7.27,7.906-7.27h64.874c4.015,0,6.985,3.255,6.634,7.27l-16.76,191.573
				C395.278,354.691,391.738,357.946,387.723,357.946z"/>
			<path style="fill:#81C14B;" d="M380.735,357.946h-64.873c-4.015,0-6.985-3.255-6.634-7.27l16.76-191.573
				c0.351-4.015,3.891-7.27,7.906-7.27h64.874c4.015,0,6.985,3.255,6.634,7.27l-16.76,191.573
				C388.289,354.691,384.75,357.946,380.735,357.946z"/>
			<path style="opacity:0.8;fill:#FFFFFF;enable-background:new    ;" d="M380.735,357.946h-64.873c-4.015,0-6.985-3.255-6.634-7.27
				l16.76-191.573c0.351-4.015,3.891-7.27,7.906-7.27h64.874c4.015,0,6.985,3.255,6.634,7.27l-16.76,191.573
				C388.289,354.691,384.75,357.946,380.735,357.946z"/>
			<path style="fill:#263238;" d="M402.753,158.738l-16.792,191.934c-0.138,1.579-1.125,2.805-2.219,2.805h-70.317
				c-1.005,0-1.665-1.123-1.538-2.574l16.832-192.395c0.11-1.257,0.846-2.356,1.717-2.356h17.579c0.496,0,0.906,0.467,1.032,1.141
				l0.502,2.587c0.127,0.668,0.536,1.129,1.033,1.129h29.928c0.497,0,0.986-0.443,1.229-1.111l0.955-2.599
				c0.244-0.674,0.736-1.147,1.232-1.147h17.327C402.213,156.152,402.874,157.354,402.753,158.738z"/>
			<polygon style="fill:#81C14B;" points="401.93,168.145 399.88,191.585 399.78,192.695 398.14,211.465 398.08,212.155 
				397.82,215.105 397.24,221.755 396.79,226.845 396.73,227.535 396.35,231.945 395.75,238.805 394.56,252.425 394.46,253.525 
				387.52,332.835 313.47,332.835 327.88,168.145 			"/>
			<g>
				<g>
					<polygon style="opacity:0.6;fill:#FFFFFF;enable-background:new    ;" points="336.41,163.887 337.325,163.887 
						337.479,162.127 336.564,162.127 					"/>
					<polygon style="opacity:0.6;fill:#FFFFFF;enable-background:new    ;" points="334.919,163.887 335.834,163.887 
						336.039,161.54 335.125,161.54 					"/>
					<polygon style="opacity:0.6;fill:#FFFFFF;enable-background:new    ;" points="333.429,163.887 334.344,163.887 334.6,160.953 
						333.685,160.953 					"/>
					<polygon style="opacity:0.6;fill:#FFFFFF;enable-background:new    ;" points="331.938,163.887 332.853,163.887 
						333.161,160.366 332.246,160.366 					"/>
				</g>
				<g>
					<polygon style="opacity:0.6;fill:#FFFFFF;enable-background:new    ;" points="393.978,163.244 393.436,163.244 
						393.59,161.485 394.132,161.485 					"/>
					<polygon style="opacity:0.6;fill:#FFFFFF;enable-background:new    ;" points="394.294,163.887 398.614,163.887 
						398.88,160.843 394.561,160.843 					"/>
				</g>
			</g>
			<g>
				<path style="opacity:0.6;fill:#263238;enable-background:new    ;" d="M365.918,156.405c-0.071,0.81-0.583,1.467-1.145,1.467
					c-0.561,0-0.959-0.657-0.888-1.467c0.071-0.81,0.583-1.467,1.145-1.467C365.592,154.938,365.989,155.594,365.918,156.405z"/>
				<path style="opacity:0.6;fill:#263238;enable-background:new    ;" d="M367.975,156.405c-0.045,0.519-0.374,0.939-0.733,0.939
					c-0.36,0-0.614-0.421-0.569-0.939c0.045-0.519,0.374-0.94,0.733-0.94C367.766,155.465,368.021,155.886,367.975,156.405z"/>
			</g>
			<g>
				<g style="opacity:0.2;">
					<polygon points="399.88,191.585 399.78,192.695 398.14,211.465 398.08,212.155 397.82,215.105 397.24,221.755 396.79,226.845 
						396.73,227.535 396.35,231.945 395.75,238.805 394.56,252.425 394.46,253.525 346.28,253.525 346.28,191.585 					"/>
				</g>
				<g style="opacity:0.2;">
					<polygon style="fill:#FFFFFF;" points="399.78,192.695 398.14,211.465 398.08,212.155 397.82,215.105 397.24,221.755 
						396.79,226.845 396.73,227.535 396.35,231.945 395.75,238.805 394.56,252.425 347.38,252.425 347.38,192.695 					"/>
				</g>
				<polygon style="opacity:0.2;" points="392.3,227.535 392.3,231.945 396.35,231.945 395.75,238.805 386.13,238.805 
					386.13,231.945 391.61,231.945 391.61,226.845 396.79,226.845 396.73,227.535 				"/>
				<polygon style="opacity:0.2;" points="392.84,215.105 397.82,215.105 397.24,221.755 392.84,221.755 				"/>
				<polygon style="opacity:0.2;" points="398.14,211.465 398.08,212.155 387.36,212.155 384.83,214.685 382.31,212.155 
					366.24,212.155 366.24,216.515 376.97,216.515 376.97,225.395 366.24,225.395 366.24,235.375 372.04,235.375 372.04,241.865 
					359.74,241.865 359.74,235.375 365.55,235.375 365.55,225.395 357.71,225.395 357.71,216.515 365.55,216.515 365.55,211.465 
					382.74,211.465 384.49,209.715 384.49,206.545 375.94,206.545 375.94,200.415 393.72,200.415 393.72,206.545 385.18,206.545 
					385.18,209.715 386.93,211.465 				"/>
			</g>
		</g>
		<g>
			<path style="fill:#263238;" d="M334.324,212.402c0,0-5.107,2.853-2.287,9.408c0,0-3.753,2.726-2.116,8.372
				c1.638,5.647,4.989,5.802,4.989,5.802s-2.204,3.968-0.758,8.764c1.335,4.429,5.195,5.037,5.195,5.037s-3.573,6.78,2.365,11.383
				c12.475,9.671,28.796,3.401,33.842-1.027c7.712-6.768,4.029-13.579,4.029-13.579s3.626-4.936-3.425-12.995
				c0,0,4.231-6.091-2.015-13.321c0,0,3.062-9.949-8.059-12.441c0,0-1.511-4.761-6.246-6.07c-6.183-1.71-8.509,1.309-8.509,1.309
				c-8.359-2.821-10.231,2.706-10.231,2.706S333.952,205.663,334.324,212.402z"/>
			<g>
				<path style="fill:#E9B376;" d="M341.867,261.883c0.002,1.441-0.031,2.692-0.115,4.016c-0.073,1.307-0.174,2.606-0.29,3.903
					c-0.235,2.595-0.625,5.172-1.052,7.745c-0.89,5.14-2.152,10.249-4.018,15.217l-0.348,0.931c-0.129,0.33-0.179,0.525-0.468,1.166
					c-0.485,1.081-1.345,2.183-2.387,2.946c-1.043,0.786-2.182,1.181-3.19,1.397c-1.018,0.211-1.94,0.242-2.791,0.207
					c-1.698-0.086-3.154-0.413-4.531-0.825c-1.375-0.411-2.654-0.908-3.897-1.44c-4.92-2.226-9.249-4.923-13.41-8.091l2.339-3.676
					c2.171,1.038,4.439,2.08,6.678,3.01c2.235,0.955,4.5,1.806,6.733,2.467c2.189,0.674,4.502,1.162,6.175,1.086
					c0.828-0.025,1.294-0.32,1.152-0.315c-0.05-0.002-0.112,0.082-0.104,0.008c-0.032,0.069,0.1-0.338,0.177-0.6l0.257-0.85
					c1.379-4.532,2.314-9.25,3.035-14.01c0.347-2.384,0.593-4.786,0.821-7.187c0.11-1.201,0.206-2.403,0.275-3.6
					c0.067-1.18,0.132-2.437,0.162-3.504L341.867,261.883z"/>
			</g>
			<g>
				<path style="fill:#81C14B;" d="M335.134,251.817c-3.471,1.158-4.887,15.891-4.887,15.891l10.228,5.919
					c0,0,8.277-15.361,5.273-19.052C342.62,250.732,340.199,250.128,335.134,251.817z"/>
			</g>
			<g style="opacity:0.7;">
				<path style="fill:#FFFFFF;" d="M335.134,251.817c-3.471,1.158-4.887,15.891-4.887,15.891l10.228,5.919
					c0,0,8.277-15.361,5.273-19.052C342.62,250.732,340.199,250.128,335.134,251.817z"/>
			</g>
			<polygon style="opacity:0.2;" points="335.689,255.044 334.039,269.91 339.786,273.227 			"/>
			<g>
				<path style="fill:#EBB376;" d="M307.576,289.736l-10.495-0.564l5.703-6.634c0,0,5.407,1.135,6.412,4.567L307.576,289.736z"/>
				<polygon style="fill:#EBB376;" points="291.636,285.811 296.043,280.959 302.785,282.537 297.082,289.172 				"/>
			</g>
			<g>
				<path style="fill:#81C14B;" d="M377.848,300.775c-6.73,0.49-21.02,1.53-34.85,2.53c-11.85-49.75-7.86-51.49-7.86-51.49
					s1.28-0.36,3.24-0.86c2.84-0.72,7.12-1.73,11.1-2.39c5.12-0.85,9.94-1.01,15.83-1.15c3.79-0.1,7.56,0.13,10.36,0.37
					c2.76,0.24,4.58,0.5,4.58,0.5C375.578,277.885,376.237,286.635,377.848,300.775z"/>
			</g>
			<g style="opacity:0.7;">
				<path style="fill:#FFFFFF;" d="M377.01,274.201c-0.8,11.01-0.17,17.74,0.84,26.57c-6.73,0.49-21.02,1.53-34.85,2.53
					c-11.85-49.75-7.86-51.49-7.86-51.49s1.28-0.36,3.24-0.86c2.84-0.72,7.12-1.73,11.1-2.39c5.12-0.85,9.94-1.01,15.83-1.15
					c3.79-0.1,7.56,0.13,10.36,0.37c2.76,0.24,4.58,0.5,4.58,0.5c-1.03,6.51-1.8,12.01-2.36,16.78
					C377.5,268.441,377.21,271.461,377.01,274.201z"/>
			</g>
			<path style="fill:#263238;" d="M384.697,332.831c-1.121-13.057-2.599-24.643-6.848-32.057l-25.646,1.865L343,303.308
				c0,0-0.379,12.878-0.595,29.524H384.697z"/>
			<path style="opacity:0.2;fill:#FFFFFF;enable-background:new    ;" d="M384.697,332.831c-1.121-13.057-2.599-24.643-6.848-32.057
				l-25.646,1.865L343,303.308c0,0-0.379,12.878-0.595,29.524H384.697z"/>
			<path style="fill:#EBB376;" d="M360.439,230.71c-0.628,5.164-0.946,14.566,2.863,17.704c0,0-1.017,5.266-10.477,5.954
				c-10.403,0.756-5.347-4.803-5.347-4.803c5.579-1.769,5.127-5.971,3.85-9.855L360.439,230.71z"/>
			<path style="opacity:0.2;" d="M356.724,234.382l-5.393,5.324c0.305,0.919,0.559,1.855,0.692,2.773
				c2.146-0.471,4.953-3.069,5.018-5.357C357.074,235.981,356.947,234.896,356.724,234.382z"/>
			<g>
				<path style="fill:#EBB376;" d="M360.206,218.263c0.99,8.481,1.59,12.05-1.875,17.115c-5.211,7.62-15.844,6.981-19.348-1.034
					c-3.154-7.214-4.243-19.871,3.37-24.682C349.853,204.922,359.216,209.782,360.206,218.263z"/>
				<path style="fill:#263238;" d="M337.085,213.156c-1.309,4.61,29.214,8.982,23.65,1.262
					C355.17,206.699,340.503,201.118,337.085,213.156z"/>
				<path style="fill:#263238;" d="M353.295,217.242c0.753,4.033,7.407,6.721,7.407,6.721s4.729-7.082-0.245-8.155
					C355.484,214.735,353.295,217.242,353.295,217.242z"/>
				<path style="fill:#263238;" d="M346.708,223.078c0.122,0.683-0.14,1.302-0.587,1.382c-0.447,0.08-0.908-0.409-1.03-1.092
					c-0.123-0.683,0.14-1.302,0.587-1.382C346.125,221.906,346.586,222.395,346.708,223.078z"/>
				<path style="fill:#263238;" d="M338.988,224.463c0.122,0.683-0.14,1.302-0.587,1.382c-0.447,0.08-0.908-0.409-1.03-1.092
					c-0.122-0.683,0.14-1.302,0.587-1.382C338.404,223.291,338.865,223.78,338.988,224.463z"/>
				<path style="fill:#263238;" d="M338.162,223.374l-1.725-0.179C336.436,223.195,337.508,224.326,338.162,223.374z"/>
				<path style="fill:#D58745;" d="M342.108,225.079c0,0-0.632,3.148-1.653,4.796c1.053,0.68,2.517,0.02,2.517,0.02L342.108,225.079
					z"/>
				<path style="fill:#EBB376;" d="M363.859,225.547c-0.303,1.744-1.383,3.186-2.586,4.004c-1.809,1.231-3.409-0.219-3.489-2.291
					c-0.072-1.865,0.783-4.752,2.879-5.155C362.728,221.707,364.205,223.553,363.859,225.547z"/>
				<path style="fill:#263238;" d="M349.525,220.949c-0.163,0.056-0.349,0.004-0.458-0.14c-1.134-1.506-3.561-1.448-3.586-1.448
					c-0.225,0.007-0.413-0.17-0.42-0.395c-0.008-0.224,0.168-0.413,0.395-0.42c0.117-0.004,2.876-0.068,4.262,1.772
					c0.135,0.18,0.099,0.435-0.08,0.571C349.603,220.916,349.565,220.936,349.525,220.949z"/>
				<path style="fill:#263238;" d="M336.028,221.313c-0.132,0.045-0.283,0.022-0.397-0.075c-0.172-0.146-0.192-0.403-0.047-0.574
					c1.458-1.718,3.329-1.503,3.407-1.493c0.223,0.028,0.381,0.232,0.353,0.456c-0.028,0.222-0.231,0.38-0.454,0.353l0,0
					c-0.062-0.007-1.52-0.16-2.685,1.212C336.157,221.249,336.095,221.29,336.028,221.313z"/>
				<path style="fill:#263238;" d="M345.882,221.989l-1.725-0.179C344.157,221.81,345.228,222.94,345.882,221.989z"/>
				<g>
					<path style="fill:#263238;" d="M345.019,232.188c1.043,0.813,2.562,2.563,2.562,2.563c0.183-0.109,0.367-0.218,0.544-0.337
						c2.448-1.542,3.075-3.066,3.027-4.288c-0.029-0.668-0.269-1.25-0.521-1.688c-0.287-0.51-0.607-0.808-0.607-0.808
						c-0.81,1.593-2.982,3.206-4.178,4.019C345.349,231.995,345.019,232.188,345.019,232.188z"/>
					<path style="fill:#FFFFFF;" d="M345.846,231.65l0.775,0.736c2.303-1.458,3.728-2.793,4.01-3.947
						c-0.287-0.51-0.607-0.808-0.607-0.808C349.214,229.223,347.042,230.837,345.846,231.65z"/>
					<path style="fill:#DE5753;" d="M348.125,234.414c2.448-1.542,3.075-3.066,3.027-4.288c-0.814,0.557-1.734,1.32-2.38,2.251
						C348.276,233.086,348.127,233.792,348.125,234.414z"/>
				</g>
			</g>
			<path style="fill:#FFFFFF;" d="M378.222,298.691l1.118,3.055c0.139,0.233-0.129,0.501-0.532,0.53l-35.867,2.608
				c-0.314,0.023-0.585-0.112-0.62-0.308l-0.541-3.096c-0.038-0.215,0.222-0.417,0.565-0.442l35.29-2.566
				C377.895,298.452,378.132,298.541,378.222,298.691z"/>
			<g>
				<path style="fill:#263238;" d="M373.77,302.982l0.945-0.069c0.188-0.014,0.325-0.121,0.303-0.239l-0.738-4.021
					c-0.022-0.118-0.193-0.203-0.382-0.189l-0.945,0.069c-0.188,0.014-0.325,0.121-0.303,0.239l0.738,4.021
					C373.41,302.91,373.581,302.995,373.77,302.982z"/>
				<path style="fill:#263238;" d="M345.622,305.028l0.945-0.069c0.188-0.014,0.324-0.121,0.303-0.239l-0.738-4.021
					c-0.022-0.118-0.193-0.203-0.382-0.189l-0.945,0.069c-0.188,0.014-0.325,0.121-0.303,0.239l0.738,4.021
					C345.262,304.957,345.434,305.042,345.622,305.028z"/>
				<path style="fill:#263238;" d="M359.696,304.005l0.945-0.069c0.188-0.014,0.325-0.121,0.303-0.239l-0.738-4.021
					c-0.022-0.118-0.193-0.203-0.382-0.189l-0.945,0.069c-0.188,0.014-0.325,0.121-0.303,0.239l0.738,4.021
					C359.336,303.933,359.507,304.018,359.696,304.005z"/>
				<g style="opacity:0.2;enable-background:new    ;">
					<path style="fill:#FFFFFF;" d="M373.77,302.982l0.945-0.069c0.188-0.014,0.325-0.121,0.303-0.239l-0.738-4.021
						c-0.022-0.118-0.193-0.203-0.382-0.189l-0.945,0.069c-0.188,0.014-0.325,0.121-0.303,0.239l0.738,4.021
						C373.41,302.91,373.581,302.995,373.77,302.982z"/>
					<path style="fill:#FFFFFF;" d="M345.622,305.028l0.945-0.069c0.188-0.014,0.324-0.121,0.303-0.239l-0.738-4.021
						c-0.022-0.118-0.193-0.203-0.382-0.189l-0.945,0.069c-0.188,0.014-0.325,0.121-0.303,0.239l0.738,4.021
						C345.262,304.957,345.434,305.042,345.622,305.028z"/>
					<path style="fill:#FFFFFF;" d="M359.696,304.005l0.945-0.069c0.188-0.014,0.325-0.121,0.303-0.239l-0.738-4.021
						c-0.022-0.118-0.193-0.203-0.382-0.189l-0.945,0.069c-0.188,0.014-0.325,0.121-0.303,0.239l0.738,4.021
						C359.336,303.933,359.507,304.018,359.696,304.005z"/>
				</g>
			</g>
			<g>
				<path style="fill:#EBB376;" d="M369.79,290.149l-8.862,2.805l3.357-8.079c0,0,5.492-0.603,7.514,2.346L369.79,290.149z"/>
				<polygon style="fill:#EBB376;" points="354.152,290.423 357.329,283.811 364.285,284.875 360.928,292.954 				"/>
			</g>
			<path style="fill:#EBB376;" d="M375.667,247.785c-1.55,1.96-4.4,5.12-8.34,7.72c-0.31,0.21-0.63,0.41-0.96,0.61
				c-3.74,2.27-8.37,3.96-13.74,3.71c-4.94-0.22-8.17-1.36-10.29-2.8c-0.32-0.22-0.61-0.44-0.88-0.67c-2.26-1.9-2.9-4.1-3.08-5.4
				c1.47-0.37,3.33-0.83,5.34-1.27c0.41-0.09,0.82-0.18,1.24-0.26c1.49-0.31,3.03-0.61,4.52-0.86c5.12-0.85,9.94-1.01,15.83-1.15
				c0.43-0.01,0.86-0.02,1.28-0.01c0.34-0.01,0.68-0.01,1.02-0.01C370.598,247.415,373.437,247.595,375.667,247.785z"/>
			<g>
				<path style="fill:#263238;" d="M367.328,255.505c-0.31,0.21-0.63,0.41-0.96,0.61c-0.27-3.9-0.01-6.98,0.22-8.71
					c0.34-0.01,0.68-0.01,1.02-0.01C367.397,248.975,367.138,251.855,367.328,255.505z"/>
			</g>
			<g>
				<path style="fill:#263238;" d="M344.957,249.425c-0.85,1.81-1.98,4.56-2.62,7.6c-0.32-0.22-0.61-0.44-0.88-0.67
					c0.58-2.59,1.49-4.94,2.26-6.67C344.127,249.595,344.538,249.505,344.957,249.425z"/>
			</g>
			<path style="opacity:0.2;" d="M377.89,265.061c-0.39,3.38-0.68,6.4-0.88,9.14c-2.97-3.63-4.36-10.07-4.36-10.07
				C374.68,263.631,376.44,264.081,377.89,265.061z"/>
			<g>
				<path style="fill:#E9B376;" d="M384.677,257.187c2.013,3.96,3.808,7.921,5.471,12.037c0.833,2.055,1.645,4.126,2.35,6.296
					c0.357,1.086,0.702,2.181,1.01,3.347c0.296,1.182,0.58,2.357,0.722,3.914l0.028,0.659l0.006,0.335l-0.024,0.428
					c-0.031,0.314-0.018,0.48-0.135,1.012c-0.094,0.452-0.259,0.883-0.445,1.265c-0.805,1.559-1.833,2.231-2.613,2.726
					c-1.614,0.918-2.898,1.204-4.154,1.494c-2.48,0.522-4.764,0.637-7.036,0.715c-4.536,0.088-8.905-0.232-13.329-0.857l0.162-4.354
					c4.215-0.388,8.503-0.82,12.581-1.458c2.028-0.312,4.051-0.722,5.764-1.259c0.829-0.257,1.632-0.634,1.864-0.851
					c0.125-0.078-0.036-0.131-0.371,0.446c-0.162,0.254-0.246,0.838-0.24,0.708c-0.003,0.008-0.003,0.016-0.002,0.024l-0.015-0.069
					l-0.022-0.15c-0.105-0.592-0.366-1.518-0.668-2.41c-0.295-0.91-0.652-1.859-1.024-2.807c-0.758-1.897-1.575-3.831-2.423-5.757
					c-1.721-3.837-3.554-7.726-5.34-11.529L384.677,257.187z"/>
			</g>
			<g>
				<path style="fill:#81C14B;" d="M380.244,248.287c3.569,0.808,8.636,12.525,8.636,12.525l-12.842,10.67
					c0,0-5.67-9.677-4.531-14.297C372.694,252.375,376.171,247.365,380.244,248.287z"/>
			</g>
			<g style="opacity:0.7;">
				<path style="fill:#FFFFFF;" d="M380.244,248.287c3.569,0.808,8.636,12.525,8.636,12.525l-12.842,10.67
					c0,0-5.67-9.677-4.531-14.297C372.694,252.375,376.171,247.365,380.244,248.287z"/>
			</g>
			<g style="opacity:0.2;enable-background:new    ;">
				<path style="fill:#FFFFFF;" d="M367.328,255.505c-0.31,0.21-0.63,0.41-0.96,0.61c-0.27-3.9-0.01-6.98,0.22-8.71
					c0.34-0.01,0.68-0.01,1.02-0.01C367.397,248.975,367.138,251.855,367.328,255.505z"/>
			</g>
			<g style="opacity:0.2;enable-background:new    ;">
				<path style="fill:#FFFFFF;" d="M344.957,249.425c-0.85,1.81-1.98,4.56-2.62,7.6c-0.32-0.22-0.61-0.44-0.88-0.67
					c0.58-2.59,1.49-4.94,2.26-6.67C344.127,249.595,344.538,249.505,344.957,249.425z"/>
			</g>
		</g>
	</g>
</g>
<g id="Character_1">
	<g>
		<path style="fill:#263238;" d="M232.902,288.826H84.75c-2.849,0-4.792,2.308-4.34,5.156l16.828,106.072
			c0.452,2.848,3.127,5.156,5.976,5.156h148.152c2.849,0,4.792-2.308,4.34-5.156l-16.828-106.072
			C238.427,291.134,235.751,288.826,232.902,288.826z"/>
		<path style="opacity:0.5;fill:#FFFFFF;" d="M232.902,288.826H84.75c-2.849,0-4.792,2.308-4.34,5.156l16.828,106.072
			c0.452,2.848,3.127,5.156,5.976,5.156h148.152c2.849,0,4.792-2.308,4.34-5.156l-16.828-106.072
			C238.427,291.134,235.751,288.826,232.902,288.826z"/>
		<path style="fill:#263238;" d="M233.903,288.826H85.751c-2.849,0-4.792,2.308-4.34,5.156l16.828,106.072
			c0.452,2.848,3.127,5.156,5.976,5.156h148.152c2.849,0,4.792-2.308,4.34-5.156l-16.828-106.072
			C239.427,291.134,236.752,288.826,233.903,288.826z"/>
		<path style="fill:#81C14B;" d="M253.156,396.8h-152.4l-1.06-6.71l-1.3-8.18l-0.76-4.76l-0.98-6.2l-2.14-13.5l-0.34-2.16l-1.3-8.18
			l-0.75-4.76l-3.46-21.79l-1.31-8.25l-0.81-5.12l-2.17-13.68c-0.08-0.51,0.01-0.95,0.27-1.25c0.24-0.28,0.62-0.43,1.1-0.43h148.16
			c1.38,0,2.79,1.22,3.01,2.62L253.156,396.8z"/>
		<path style="opacity:0.7;fill:#FFFFFF;" d="M253.156,396.8h-152.4l-1.06-6.71l-1.3-8.18l-0.76-4.76l-0.98-6.2l-2.14-13.5
			l-0.34-2.16l-1.3-8.18l-0.75-4.76l-3.46-21.79l-1.31-8.25l-0.81-5.12l-2.17-13.68c-0.08-0.51,0.01-0.95,0.27-1.25
			c0.24-0.28,0.62-0.43,1.1-0.43h148.16c1.38,0,2.79,1.22,3.01,2.62L253.156,396.8z"/>
		<g>
			<polygon style="opacity:0.2;fill:#FFFFFF;" points="188.436,307.19 188.436,396.8 100.756,396.8 99.696,390.09 98.396,381.91 
				97.636,377.15 96.656,370.95 94.516,357.45 94.176,355.29 92.876,347.11 92.126,342.35 88.666,320.56 87.356,312.31 
				86.546,307.19 			"/>
			<polygon style="opacity:0.2;" points="184.516,312.31 184.516,342.35 92.126,342.35 88.666,320.56 87.356,312.31 			"/>
			<polygon style="opacity:0.2;" points="184.516,347.11 184.516,377.15 97.636,377.15 96.656,370.95 94.516,357.45 94.176,355.29 
				92.876,347.11 			"/>
			<polygon style="opacity:0.2;" points="184.516,381.91 184.516,396.8 100.756,396.8 99.696,390.09 98.396,381.91 			"/>
			<g style="opacity:0.2;">
				<rect x="109.728" y="317.171" style="fill:#FFFFFF;" width="5.857" height="25.18"/>
				
					<rect x="144.061" y="316.857" transform="matrix(0.9855 -0.1698 0.1698 0.9855 -53.8175 29.7509)" style="fill:#FFFFFF;" width="5.857" height="25.18"/>
				<polygon style="fill:#FFFFFF;" points="94.516,320.49 94.516,342.35 92.126,342.35 88.666,320.56 88.666,320.49 				"/>
				<rect x="102.127" y="320.489" style="fill:#FFFFFF;" width="5.857" height="21.862"/>
				<rect x="136.108" y="320.489" style="fill:#FFFFFF;" width="5.857" height="21.862"/>
				
					<rect x="119.862" y="320.114" transform="matrix(0.9762 -0.2169 0.2169 0.9762 -68.8837 34.5163)" style="fill:#FFFFFF;" width="5.857" height="21.862"/>
				<rect x="96.657" y="315.921" style="fill:#FFFFFF;" width="2.929" height="26.43"/>
				<rect x="131.496" y="315.921" style="fill:#FFFFFF;" width="2.929" height="26.43"/>
				
					<rect x="178.657" y="351.972" transform="matrix(-1 -1.224647e-16 1.224647e-16 -1 363.1715 729.1236)" style="fill:#FFFFFF;" width="5.857" height="25.18"/>
				
					<rect x="150.335" y="351.972" transform="matrix(-1 -1.224647e-16 1.224647e-16 -1 306.5276 729.1236)" style="fill:#FFFFFF;" width="5.857" height="25.18"/>
				
					<rect x="116.002" y="351.657" transform="matrix(-0.9855 -0.1698 0.1698 -0.9855 174.2689 743.402)" style="fill:#FFFFFF;" width="5.857" height="25.18"/>
				
					<rect x="171.4" y="355.29" transform="matrix(-1 -1.224647e-16 1.224647e-16 -1 348.6562 732.4418)" style="fill:#FFFFFF;" width="5.857" height="21.862"/>
				
					<rect x="157.937" y="355.29" transform="matrix(-1 -1.224647e-16 1.224647e-16 -1 321.7306 732.4418)" style="fill:#FFFFFF;" width="5.857" height="21.862"/>
				
					<rect x="123.955" y="355.29" transform="matrix(-1 -1.224647e-16 1.224647e-16 -1 253.7672 732.4418)" style="fill:#FFFFFF;" width="5.857" height="21.862"/>
				
					<rect x="140.201" y="354.915" transform="matrix(-0.9762 -0.2169 0.2169 -0.9762 203.4963 754.028)" style="fill:#FFFFFF;" width="5.857" height="21.862"/>
				
					<rect x="166.335" y="350.722" transform="matrix(-1 -1.224647e-16 1.224647e-16 -1 335.598 727.8735)" style="fill:#FFFFFF;" width="2.929" height="26.43"/>
				
					<rect x="131.496" y="350.722" transform="matrix(-1 -1.224647e-16 1.224647e-16 -1 265.9204 727.8735)" style="fill:#FFFFFF;" width="2.929" height="26.43"/>
				<rect x="102.127" y="355.29" style="fill:#FFFFFF;" width="5.857" height="21.862"/>
				<polygon style="fill:#FFFFFF;" points="99.586,350.72 99.586,377.15 97.636,377.15 96.656,370.95 96.656,350.72 				"/>
				<g>
					<rect x="140.586" y="386.77" style="fill:#FFFFFF;" width="5.86" height="10.03"/>
					<polygon style="fill:#FFFFFF;" points="180.436,396.8 174.486,396.8 172.826,387.14 178.596,386.14 					"/>
					<rect x="119.526" y="390.09" style="fill:#FFFFFF;" width="5.85" height="6.71"/>
					<rect x="132.986" y="390.09" style="fill:#FFFFFF;" width="5.86" height="6.71"/>
					<rect x="166.966" y="390.09" style="fill:#FFFFFF;" width="5.86" height="6.71"/>
					<polygon style="fill:#FFFFFF;" points="155.796,396.8 149.796,396.8 148.417,390.61 154.136,389.34 					"/>
					<rect x="127.516" y="385.52" style="fill:#FFFFFF;" width="2.93" height="11.28"/>
					<rect x="162.356" y="385.52" style="fill:#FFFFFF;" width="2.93" height="11.28"/>
					<polygon style="fill:#FFFFFF;" points="113.046,396.8 107.106,396.8 105.436,387.14 111.206,386.14 					"/>
					<polygon style="fill:#FFFFFF;" points="105.436,390.09 105.436,396.8 100.756,396.8 99.696,390.09 					"/>
				</g>
			</g>
		</g>
		<g>
			<g>
				<path style="fill:#CE7A63;" d="M188.677,327.007l0.802,0.69l0.91,0.754l1.87,1.516c1.264,1.001,2.563,1.971,3.884,2.899
					c2.638,1.86,5.34,3.608,8.098,5.136c1.376,0.773,2.77,1.483,4.174,2.119c1.401,0.651,2.807,1.238,4.219,1.731
					c1.411,0.513,2.825,0.902,4.225,1.216c1.402,0.341,2.785,0.525,4.148,0.627l0.954,0.056c0.018,0.01,0.022,0.037,0.022,0.047
					c0,0.032,0.041,0.074,0.215-0.001c0.357-0.132,1.098-0.822,1.753-1.838c1.339-2.068,2.519-5.042,3.399-8.102
					c1.833-6.17,2.958-13.038,3.9-19.694l7.065-0.01c0.402,3.71,0.518,7.266,0.478,10.936c-0.051,3.654-0.31,7.331-0.874,11.091
					c-0.301,1.877-0.687,3.775-1.214,5.713c-0.533,1.942-1.21,3.913-2.257,5.957c-1.058,2.02-2.443,4.219-4.932,6.155
					c-1.247,0.945-2.814,1.755-4.515,2.2c-0.847,0.231-1.718,0.355-2.573,0.409c-0.255,0.02-0.308,0.013-0.466,0.02l-0.401,0.01
					l-0.803,0.018c-4.283,0.055-8.398-0.656-12.24-1.781c-3.861-1.101-7.475-2.628-10.902-4.373
					c-3.436-1.737-6.669-3.732-9.762-5.893c-1.541-1.088-3.046-2.217-4.524-3.392c-0.737-0.59-1.475-1.182-2.196-1.807l-1.081-0.957
					l-1.152-1.064L188.677,327.007z"/>
			</g>
			<path style="fill:#263238;" d="M212.774,338.115l-6.961,17.2c0,0-0.814-0.239-2.184-0.681c-1.003-0.331-2.31-0.775-3.834-1.306
				c-8.589-3.024-22.475-9.631-25.797-14.976c-4.951-7.968,2.66-14.2,16.983-11.662c6.178,1.095,11.846,5.694,16.106,8.092
				c1.406,0.789,2.614,1.493,3.549,2.043C211.986,337.626,212.774,338.115,212.774,338.115z"/>
			<path style="opacity:0.3;" d="M174.474,339.33c1.722-3.642,6.801,0.002,14.997,0.713c3.656,0.317,16.525,9.029,17.681,11.964
				l-1.342,3.313C205.81,355.319,179.258,347.363,174.474,339.33z"/>
			<g>
				<path style="fill:#CE7A63;" d="M236.051,318.272l9.227-5.695l-8.045-6.62c0,0-7.801,6.726-6.221,9.535L236.051,318.272z"/>
				<polygon style="fill:#CE7A63;" points="246.928,303.017 240.14,299.868 237.234,305.957 245.279,312.577 				"/>
			</g>
			<path style="fill:#263238;" d="M145.614,374.13c1.191,8.608,1.903,16.369,2.407,22.672h51.864
				c1.246-46.846-11.932-70.593-11.932-70.593s-1.975-0.377-5.298-0.721c-2.6-0.247-5.848-0.482-9.15-0.471
				c-5.684,0.037-14.925,1.131-21.289,2.049c-3.697,0.535-7.444,1.354-10.421,2.087c-3.588,0.881-6.077,1.643-6.077,1.643
				c0.337,0.987,0.66,1.964,0.985,2.953C141.188,347.625,143.898,361.735,145.614,374.13z"/>
			<path style="opacity:0.3;" d="M145.615,374.134c-1.716-12.395-4.426-26.505-8.911-40.38c3.32-0.613,9.075-0.836,10.543,4.481
				C148.83,343.948,148.857,357.742,145.615,374.134z"/>
			<g>
				<path style="fill:#CE7A63;" d="M146.111,343.524c-0.558,1.18-1.189,2.59-1.778,3.906c-0.591,1.342-1.191,2.688-1.759,4.045
					c-1.14,2.712-2.263,5.435-3.274,8.176c-2.042,5.466-3.83,11.014-4.919,16.444l-0.381,1.993c0.01-0.184-0.009-0.442-0.106-0.863
					c-0.091-0.406-0.326-0.882-0.596-1.241c-0.257-0.354-0.553-0.575-0.717-0.668c-0.155-0.093-0.258-0.095-0.225-0.065
					c0.025,0.065,0.347,0.22,0.781,0.332c0.88,0.248,2.14,0.366,3.44,0.447c1.311,0.077,2.71,0.07,4.13,0.018
					c5.706-0.182,11.788-0.962,17.718-1.674l1.94,6.794c-2.986,1.294-5.927,2.345-8.986,3.311c-3.049,0.958-6.159,1.776-9.418,2.408
					c-1.635,0.299-3.302,0.557-5.066,0.716c-1.772,0.158-3.602,0.212-5.759-0.04c-1.081-0.139-2.263-0.356-3.655-0.893
					c-0.68-0.258-1.455-0.644-2.241-1.174c-0.791-0.538-1.634-1.313-2.341-2.289c-0.72-0.986-1.235-2.193-1.498-3.346
					c-0.269-1.175-0.271-2.21-0.201-3.158l0.265-2.575c0.076-0.854,0.201-1.68,0.332-2.505c0.132-0.824,0.239-1.663,0.401-2.476
					c0.332-1.618,0.641-3.254,1.044-4.835c0.734-3.204,1.687-6.303,2.688-9.373c1.009-3.069,2.15-6.068,3.376-9.033
					c0.614-1.482,1.246-2.954,1.925-4.413c0.676-1.486,1.35-2.862,2.166-4.433L146.111,343.524z"/>
			</g>
			<path style="fill:#263238;" d="M149.792,346.656c-1.507,6.47-4.246,14.308-6.294,19.796c-0.536,1.454-1.036,2.752-1.445,3.799
				c-0.715,1.841-1.169,2.956-1.169,2.956l-19.989-8.685c0,0,0.164-0.819,0.464-2.2c0.231-1.043,0.533-2.41,0.917-3.99
				c2.292-9.312,7.201-26.005,13.442-27.536C145.049,328.509,152.539,334.928,149.792,346.656z"/>
			<path style="fill:#CE7A63;" d="M150.373,303.144l6.153,4.177l8.378,5.696c-0.127,1.071-0.201,2.149-0.191,3.181
				c-0.012,4.247,1.443,7.971,7.775,8.84c0,0,7.812,4.157-3.003,6.086c0.033,0.69,0.078,2.38-0.203,3.549
				c-1.333-1.616-3.202-2.7-3.838-3.041c-11.938,0.934-14.043-4.436-14.043-4.436C155.597,322.176,152.612,309.852,150.373,303.144z
				"/>
			<path style="opacity:0.2;" d="M164.903,313.017c-0.126,1.071-0.201,2.149-0.191,3.181c-2.949-0.303-7.112-3.014-7.801-5.931
				c-0.259-1.097-0.387-2.169-0.386-2.947L164.903,313.017z"/>
			<path style="fill:#263238;" d="M166.788,277.406c4.818,1.643,8.642,14.402,3.033,17.764
				C164.212,298.532,157.663,274.294,166.788,277.406z"/>
			<path style="fill:#CE7A63;" d="M147.074,293.503c2.857,8.918,4.074,14.266,9.854,17.905c8.694,5.473,18.884-1.113,18.764-10.609
				c-0.109-8.547-4.763-21.695-14.593-23.352C151.413,275.813,144.216,284.585,147.074,293.503z"/>
			<path style="fill:#263238;" d="M154.619,281.509l-1.359-7.911c-2.047,1.137-4.266,1.755-6.361,1.491
				c-9.636-1.216-16.201,5.581-11.27,10.392c-4.233,2.393-1.137,8.215,2.243,11.779c4.697,4.953,9.361,7.03,12.139,4.27
				c2.574-1.617,2.024-11.059,0.755-14.446C148.856,281.981,154.619,281.509,154.619,281.509z"/>
			<path style="fill:#CE7A63;" d="M145.89,303.21c1.817,1.801,4.17,2.739,6.111,2.881c2.92,0.214,3.31-2.51,1.603-4.94
				c-1.536-2.187-4.907-4.934-7.407-4.008C143.735,298.055,143.813,301.151,145.89,303.21z"/>
			<path style="fill:#263238;" d="M161.531,293.023c0.187,0.736,0.732,1.247,1.217,1.142c0.485-0.105,0.726-0.788,0.539-1.524
				c-0.187-0.736-0.732-1.247-1.217-1.142C161.586,291.604,161.344,292.287,161.531,293.023z"/>
			<path style="fill:#263238;" d="M169.914,291.198c0.187,0.736,0.732,1.247,1.217,1.142c0.485-0.105,0.726-0.788,0.539-1.524
				c-0.187-0.736-0.732-1.247-1.217-1.142S169.727,290.462,169.914,291.198z"/>
			<path style="fill:#BA4D3C;" d="M167.342,292.145c0,0,2.766,3.879,5.143,5.524c-1.003,1.501-3.375,1.431-3.375,1.431
				L167.342,292.145z"/>
			<path style="fill:#263238;" d="M158.256,290.901c-0.073,0.007-0.148-0.004-0.22-0.035c-0.225-0.098-0.329-0.361-0.231-0.587
				c0.973-2.234,3.016-2.554,3.102-2.566c0.226-0.056,0.47,0.132,0.505,0.377c0.035,0.244-0.133,0.469-0.376,0.505
				c-0.085,0.014-1.65,0.286-2.414,2.04C158.555,290.789,158.412,290.886,158.256,290.901z"/>
			<path style="fill:#263238;" d="M172.791,287.553c-0.142,0.014-0.288-0.041-0.386-0.158c-1.297-1.558-2.951-1.429-2.967-1.427
				c-0.246,0.022-0.462-0.158-0.484-0.404c-0.022-0.244,0.157-0.46,0.401-0.484c0.001,0,0.002,0,0.003,0
				c0.087-0.008,2.14-0.169,3.732,1.745c0.158,0.189,0.132,0.47-0.057,0.628C172.961,287.512,172.876,287.545,172.791,287.553z"/>
			<g>
				<path style="fill:#CE7A63;" d="M160.232,381.246l9.51,0.136l-6.457-9.951c0,0-8.437,1.396-7.356,5.687L160.232,381.246z"/>
				<polygon style="fill:#CE7A63;" points="175.785,374.899 170.059,366.94 163.285,371.431 169.741,381.382 				"/>
			</g>
			<path style="fill:#263238;" d="M146.441,276.162c0,0,6.041-13.055,18.462-11.01c0,0-2.331,0.629-3.291,1.573
				c0,0,10.7-1.416,14.386,5.977l-2.111-1.112c0,0,3.018,6.127,0,10.392l-0.695-2.045c0,0-4.151,5.656-10.784,4.401l2.214-1.255
				c0,0-11.318,0.161-14.251-2.594C147.44,277.734,146.441,276.162,146.441,276.162z"/>
			<path style="opacity:0.4;fill:#FFFFFF;" d="M188.868,343.536c-0.499,0-0.94,0.253-1.201,0.637l-4.842-1.203
				c-0.08-0.725-0.688-1.291-1.434-1.291c-0.801,0-1.45,0.649-1.45,1.45c0,0.801,0.649,1.45,1.45,1.45
				c0.499,0,0.94-0.253,1.201-0.637l4.842,1.202c0.01,0.095,0.029,0.187,0.057,0.275l-2.705,2.098
				c-0.223-0.139-0.484-0.224-0.766-0.224c-0.801,0-1.45,0.649-1.45,1.45c0,0.801,0.649,1.45,1.45,1.45
				c0.801,0,1.45-0.649,1.45-1.45c0-0.152-0.03-0.296-0.073-0.434l2.705-2.097c0.223,0.139,0.484,0.223,0.766,0.223
				c0.801,0,1.45-0.649,1.45-1.45C190.319,344.185,189.669,343.536,188.868,343.536z"/>
			<g>
				<path style="fill:#263238;" d="M171.082,301.545c0,0-3.017-0.694-11.49-0.694c0.993,2.547,2.845,4.625,7.185,4.585
					C171.117,305.395,171.082,301.545,171.082,301.545z"/>
				<path style="fill:#A02724;" d="M164.765,303.434c2.094-0.02,3.607,0.457,4.727,1.231c-0.617,0.448-1.498,0.755-2.711,0.766
					c-2.094,0.02-3.598-0.446-4.717-1.231C162.681,303.753,163.552,303.445,164.765,303.434z"/>
				<path style="fill:#FFFFFF;" d="M170.698,301.473c-0.24,0.543-0.479,1.087-1.327,1.263c-1.766,0.12-6.284-0.382-7.498-0.635
					c-0.777-0.127-1.44-0.393-1.914-1.25C166.483,300.867,169.67,301.298,170.698,301.473z"/>
			</g>
		</g>
		<g>
			<path style="fill:#263238;" d="M272.14,414.802H110.897c-4.211,0-7.625-3.414-7.625-7.625v-3.864
				c0-1.162,0.942-2.104,2.104-2.104h234.833c1.162,0,2.104,0.942,2.104,2.104l0,0c0,1.051-0.775,1.941-1.817,2.084l-68.069,9.385
				C272.333,414.795,272.237,414.802,272.14,414.802z"/>
			<path style="opacity:0.5;fill:#FFFFFF;" d="M342.316,403.31c0,0.83-0.49,1.56-1.21,1.9c-0.19,0.09-0.39,0.16-0.61,0.19
				l-68.07,9.38c-0.09,0.02-0.19,0.02-0.29,0.02h-161.24c-4.21,0-7.62-3.41-7.62-7.62v-3.87c0-1.16,0.94-2.1,2.1-2.1h234.83
				C341.366,401.21,342.316,402.15,342.316,403.31z"/>
			<path style="opacity:0.2;fill:#FFFFFF;" d="M149.063,414.802h-38.166c-4.211,0-7.625-3.414-7.625-7.625v-3.864
				c0-1.162,0.942-2.104,2.104-2.104h111.756c1.162,0,2.104,0.942,2.104,2.104l0,0c0,1.051-0.776,1.941-1.817,2.084l-68.068,9.385
				C149.255,414.795,149.159,414.802,149.063,414.802z"/>
			<g>
				<path style="opacity:0.2;" d="M114.749,409.79h-4.166c-0.276,0-0.5-0.224-0.5-0.5v-2.57c0-0.276,0.224-0.5,0.5-0.5h4.166
					c0.276,0,0.5,0.224,0.5,0.5v2.57C115.249,409.566,115.025,409.79,114.749,409.79z"/>
				<path style="opacity:0.2;" d="M114.749,409.79H112.2c-0.276,0-0.5-0.224-0.5-0.5v-2.57c0-0.276,0.224-0.5,0.5-0.5h2.549
					c0.276,0,0.5,0.224,0.5,0.5v2.57C115.249,409.566,115.025,409.79,114.749,409.79z"/>
				<path style="opacity:0.2;" d="M123.782,408.789h-4.165c-0.276,0-0.5-0.224-0.5-0.5v-1.57c0-0.276,0.224-0.5,0.5-0.5h4.165
					c0.276,0,0.5,0.224,0.5,0.5v1.57C124.282,408.565,124.058,408.789,123.782,408.789z"/>
				<path style="opacity:0.2;" d="M123.782,408.789h-2.549c-0.276,0-0.5-0.224-0.5-0.5v-1.57c0-0.276,0.224-0.5,0.5-0.5h2.549
					c0.276,0,0.5,0.224,0.5,0.5v1.57C124.282,408.565,124.058,408.789,123.782,408.789z"/>
				<path style="opacity:0.2;" d="M130.837,408.789h-4.165c-0.276,0-0.5-0.224-0.5-0.5v-1.57c0-0.276,0.224-0.5,0.5-0.5h4.165
					c0.276,0,0.5,0.224,0.5,0.5v1.57C131.337,408.565,131.113,408.789,130.837,408.789z"/>
				<path style="opacity:0.2;" d="M130.837,408.789h-2.549c-0.276,0-0.5-0.224-0.5-0.5v-1.57c0-0.276,0.224-0.5,0.5-0.5h2.549
					c0.276,0,0.5,0.224,0.5,0.5v1.57C131.337,408.565,131.113,408.789,130.837,408.789z"/>
			</g>
			<path style="opacity:0.4;fill:#FFFFFF;" d="M342.316,403.31c0,0.83-0.49,1.56-1.21,1.9h-123.08c0.72-0.34,1.21-1.07,1.21-1.9
				c0-1.16-0.94-2.1-2.1-2.1h123.07C341.366,401.21,342.316,402.15,342.316,403.31z"/>
		</g>
	</g>
</g>
<g id="Speech_bubble_2">
	<g>
		<g>
			<path style="fill:#81C14B;" d="M326.514,214.038h-48.858c-4.441,0-8.042-3.6-8.042-8.042v-27.732c0-4.441,3.6-8.042,8.042-8.042
				h48.858c4.441,0,8.042,3.6,8.042,8.042v27.732C334.556,210.438,330.955,214.038,326.514,214.038z"/>
			<path style="fill:#81C14B;" d="M312.094,209.038c0,0,1.091,7.571,13.868,16.989c0,0-6.052-8.581-6.052-16.989H312.094z"/>
			<g style="opacity:0.7;">
				<path style="fill:#FFFFFF;" d="M326.514,214.038h-48.858c-4.441,0-8.042-3.6-8.042-8.042v-27.732c0-4.441,3.6-8.042,8.042-8.042
					h48.858c4.441,0,8.042,3.6,8.042,8.042v27.732C334.556,210.438,330.955,214.038,326.514,214.038z"/>
				<path style="fill:#FFFFFF;" d="M312.094,209.038c0,0,1.091,7.571,13.868,16.989c0,0-6.052-8.581-6.052-16.989H312.094z"/>
			</g>
		</g>
		<g>
			<path style="fill:#81C14B;" d="M281.507,176.402l-1.669,1.396l2.378,3.456l1.9-1.06c1.003,0.961,2.188,1.746,3.518,2.288
				l-0.192,2.161l4.125,0.762l0.593-2.087c1.436-0.031,2.823-0.342,4.103-0.88l1.396,1.669l3.456-2.378l-1.06-1.9
				c0.96-1.004,1.746-2.188,2.288-3.518l2.161,0.192l0.762-4.125l-2.087-0.593c-0.031-1.436-0.342-2.823-0.88-4.103l1.669-1.396
				l-2.378-3.456l-1.9,1.06c-1.004-0.96-2.188-1.746-3.518-2.288l0.192-2.161l-4.125-0.762l-0.593,2.087
				c-1.436,0.031-2.823,0.342-4.103,0.88l-1.396-1.669l-3.456,2.378l1.06,1.9c-0.96,1.003-1.746,2.188-2.288,3.518l-2.161-0.192
				l-0.762,4.125l2.087,0.593C280.658,173.734,280.968,175.121,281.507,176.402z M286.318,171.01
				c0.57-3.084,3.532-5.123,6.616-4.553c3.085,0.57,5.123,3.532,4.553,6.617c-0.57,3.084-3.532,5.123-6.617,4.553
				C287.786,177.057,285.748,174.094,286.318,171.01z"/>
			<path style="opacity:0.6;fill:#81C14B;" d="M312.081,190.776l2.964,0.548l0.426-1.5c1.032-0.023,2.028-0.246,2.948-0.633
				l1.003,1.199l2.483-1.709l-0.762-1.365c0.69-0.721,1.254-1.572,1.644-2.528l1.553,0.138l0.548-2.964l-1.5-0.426
				c-0.022-1.032-0.246-2.028-0.633-2.948l1.199-1.003l-1.709-2.483l-1.365,0.762c-0.721-0.69-1.572-1.255-2.528-1.644l0.138-1.552
				l-2.964-0.548l-0.426,1.5c-1.032,0.023-2.028,0.246-2.948,0.632l-1.003-1.199l-2.483,1.709l0.762,1.365
				c-0.69,0.721-1.254,1.572-1.644,2.527l-1.553-0.138l-0.548,2.964l1.5,0.426c0.022,1.031,0.245,2.028,0.632,2.948l-1.199,1.003
				l1.708,2.483l1.365-0.762c0.721,0.69,1.572,1.255,2.528,1.644L312.081,190.776z M311.274,180.98
				c0.409-2.216,2.538-3.68,4.754-3.271c2.216,0.41,3.681,2.538,3.271,4.754c-0.41,2.216-2.538,3.681-4.754,3.271
				C312.329,185.325,310.864,183.197,311.274,180.98z"/>
			<path style="opacity:0.5;fill:#81C14B;" d="M289.294,197.513c0.027,1.228,0.292,2.415,0.753,3.51l-1.428,1.195l2.035,2.956
				l1.625-0.907c0.859,0.821,1.871,1.494,3.009,1.957l-0.165,1.849l3.529,0.652l0.507-1.785c1.228-0.027,2.415-0.293,3.51-0.753
				l1.194,1.428l2.957-2.034l-0.906-1.626c0.821-0.858,1.493-1.872,1.957-3.009l1.849,0.165l0.652-3.529l-1.785-0.507
				c-0.027-1.228-0.292-2.415-0.753-3.51l1.428-1.194l-2.034-2.956l-1.625,0.906c-0.858-0.821-1.871-1.494-3.009-1.957l0.164-1.849
				l-3.529-0.652l-0.507,1.785c-1.229,0.027-2.415,0.292-3.51,0.753l-1.194-1.427l-2.956,2.034l0.907,1.626
				c-0.822,0.858-1.494,1.871-1.958,3.009l-1.849-0.165l-0.652,3.529L289.294,197.513z M294.162,196.411
				c0.487-2.638,3.021-4.382,5.66-3.894c2.638,0.487,4.382,3.022,3.895,5.66c-0.488,2.639-3.021,4.382-5.66,3.895
				C295.418,201.583,293.675,199.049,294.162,196.411z"/>
		</g>
	</g>
</g>
<g id="Speech_bubble_1">
	<g>
		<g>
			<path style="fill:none;stroke:#81C14B;stroke-width:2;stroke-miterlimit:10;" d="M183.17,240.534h-71.574
				c-6.876,0-12.45-5.574-12.45-12.45v-82.893c0-6.876,5.574-12.45,12.45-12.45h115.698c6.876,0,12.45,5.574,12.45,12.45v82.893
				c0,6.876-5.574,12.45-12.45,12.45h-31.68l-10.56,20.428"/>
			<path style="fill:none;stroke:#81C14B;stroke-width:2;stroke-miterlimit:10;" d="M188.475,240.534
				c0,1.465-1.188,2.653-2.652,2.653c-1.465,0-2.653-1.188-2.653-2.653c0-1.465,1.188-2.653,2.653-2.653
				C187.288,237.882,188.475,239.069,188.475,240.534z"/>
			<path style="fill:none;stroke:#81C14B;stroke-width:2;stroke-miterlimit:10;" d="M186.335,263.615
				c0,1.465-1.188,2.653-2.652,2.653c-1.465,0-2.653-1.188-2.653-2.653c0-1.465,1.188-2.653,2.653-2.653
				C185.148,260.963,186.335,262.15,186.335,263.615z"/>
		</g>
		<g>
			<g>
				<path style="fill:#81C14B;" d="M223.534,228.374H115.356c-2.631,0-4.764-2.133-4.764-4.764v-75.104
					c0-2.631,2.133-4.764,4.764-4.764h108.177c2.631,0,4.764,2.133,4.764,4.764v75.104
					C228.298,226.241,226.165,228.374,223.534,228.374z"/>
				<path style="opacity:0.6;fill:#FFFFFF;" d="M228.296,148.51v75.1c0,2.63-2.13,4.76-4.76,4.76h-108.18
					c-2.63,0-4.76-2.13-4.76-4.76v-75.1c0-2.64,2.13-4.77,4.76-4.77h108.18C226.165,143.74,228.296,145.87,228.296,148.51z"/>
			</g>
			<path style="opacity:0.2;" d="M228.203,172.343v-0.5h-29.1v-27.541h-0.5v27.541h-28.85v-27.541h-0.5v27.541h-28.85v-27.541h-0.5
				v27.541h-29.215v0.5h29.215v27.711h-29.215v0.5h29.215v27.26h0.5v-27.26h28.85v27.26h0.5v-27.26h28.85v27.26h0.5v-27.26h29.1
				v-0.5h-29.1v-27.711H228.203z M140.403,200.054v-27.711h28.85v27.711H140.403z M198.603,200.054h-28.85v-27.711h28.85V200.054z"
				/>
			<path style="fill:#81C14B;" d="M228.296,158.68v64.93c0,2.63-2.13,4.76-4.76,4.76h-108.18c0,0,0,0,0.01-0.01
				c0.23-0.59,7.97-19.32,24.59-19.32c16.88,0,19.42-22.84,29.49-22.84c10.07,0,11.02,13.85,20.09,13.85
				C198.605,200.05,209.096,153.7,228.296,158.68z"/>
			<g>
				<path style="fill:#81C14B;" d="M142.673,156.4c-0.516-0.225-1.046-0.423-1.575-0.609c-0.543-0.172-1.085-0.318-1.628-0.424
					c-0.278-0.066-0.556-0.119-0.834-0.159c-0.013,0-0.04,0-0.053-0.013c-0.516-0.079-1.046-0.132-1.575-0.159
					c-0.304-0.013-0.595-0.026-0.9-0.026c-1.39,0-2.753,0.172-4.063,0.516c-0.265,0.066-0.516,0.146-0.781,0.225
					c-0.251,0.079-0.503,0.159-0.768,0.251c-0.251,0.093-0.503,0.199-0.754,0.304c-0.94,0.397-1.853,0.9-2.713,1.482
					c-0.225,0.145-0.437,0.291-0.648,0.45c-0.198,0.159-0.41,0.318-0.609,0.49c-0.397,0.331-0.781,0.675-1.152,1.046
					c-0.04,0.04-0.079,0.079-0.106,0.119c-0.039,0.027-0.066,0.053-0.092,0.093c-0.119,0.106-0.225,0.225-0.344,0.357
					c-0.172,0.185-0.344,0.384-0.503,0.582c-0.145,0.185-0.291,0.357-0.437,0.543c-0.172,0.225-0.344,0.463-0.503,0.715
					c-0.132,0.199-0.278,0.41-0.41,0.622c-0.145,0.238-0.278,0.477-0.397,0.715c-0.106,0.185-0.212,0.37-0.304,0.569
					c-0.146,0.278-0.265,0.556-0.384,0.847c-0.106,0.238-0.199,0.49-0.291,0.741c-0.066,0.146-0.119,0.304-0.159,0.463
					c-0.053,0.146-0.106,0.291-0.146,0.45c-0.225,0.754-0.397,1.522-0.516,2.303c-0.04,0.252-0.066,0.516-0.093,0.781
					c-0.013,0.079-0.013,0.172-0.026,0.251c-0.039,0.437-0.053,0.887-0.053,1.337c0,1.668,0.252,3.282,0.728,4.804
					c1.575,5.095,5.598,9.119,10.693,10.707c1.535,0.463,3.15,0.728,4.831,0.728c1.667,0,3.282-0.252,4.804-0.728
					c1.773-0.542,3.408-1.398,4.864-2.488l0.006,0.013c0.252-0.185,0.503-0.384,0.741-0.582c0.251-0.212,0.49-0.41,0.715-0.635
					c0.238-0.212,0.45-0.437,0.662-0.662c0.225-0.225,0.436-0.463,0.635-0.701c0.683-0.805,1.261-1.688,1.764-2.613
					c0.023-0.043,0.053-0.083,0.076-0.127c0.093-0.132,0.172-0.278,0.238-0.423c0.145-0.278,0.278-0.569,0.41-0.86
					c0.225-0.529,0.423-1.059,0.595-1.601c0.053-0.185,0.106-0.357,0.146-0.543c0.04-0.119,0.066-0.225,0.093-0.344
					c0.04-0.119,0.066-0.238,0.079-0.357c0.026-0.04,0.026-0.079,0.026-0.119c0.027-0.066,0.039-0.146,0.053-0.212
					c0.026-0.146,0.066-0.291,0.079-0.437c0.053-0.251,0.093-0.49,0.119-0.741c0.013-0.106,0.027-0.199,0.04-0.291
					c0-0.053,0-0.093,0.013-0.132c0.053-0.556,0.079-1.098,0.079-1.654C152.347,164.632,148.377,158.914,142.673,156.4z
					 M136.108,181.506c-5.665,0-10.244-4.592-10.244-10.244c0-2.779,1.085-5.281,2.872-7.12c0.027-0.013,0.04-0.04,0.053-0.053
					c1.866-1.893,4.46-3.07,7.319-3.07c1.482,0,2.885,0.318,4.142,0.873c3.6,1.588,6.101,5.188,6.101,9.37
					c0,3.362-1.628,6.353-4.142,8.219C140.502,180.752,138.398,181.506,136.108,181.506z"/>
				<path style="fill:#FFFFFF;" d="M145.766,184.27c-1.45,1.1-3.09,1.95-4.85,2.5c-1.53,0.48-3.14,0.73-4.81,0.73
					c-1.68,0-3.29-0.26-4.83-0.73c-5.07-1.6-9.09-5.63-10.69-10.7c-0.48-1.53-0.73-3.14-0.73-4.81c0-0.45,0.01-0.9,0.05-1.33
					c0.02-0.08,0.02-0.18,0.03-0.26c0.03-0.26,0.05-0.53,0.09-0.78c0.12-0.78,0.29-1.55,0.52-2.3c0.04-0.16,0.09-0.3,0.14-0.45
					c0.04-0.16,0.1-0.32,0.16-0.46c0.1-0.25,0.19-0.51,0.29-0.74c0.12-0.3,0.24-0.57,0.39-0.85c0.09-0.2,0.2-0.38,0.3-0.57
					c0.12-0.24,0.25-0.48,0.4-0.71c0.13-0.22,0.28-0.43,0.41-0.63c0.16-0.25,0.33-0.49,0.5-0.71c0.15-0.19,0.29-0.36,0.44-0.54
					c0.16-0.2,0.33-0.4,0.5-0.59c0.11-0.13,0.21-0.25,0.33-0.37l0.1-0.09l0.01,0.01l4.27,4.2c-0.01,0.01-0.02,0.04-0.05,0.05
					c-1.79,1.84-2.87,4.34-2.87,7.12c0,5.65,4.58,10.25,10.24,10.25c2.29,0,4.4-0.76,6.1-2.03L145.766,184.27z"/>
				<path style="opacity:0.4;fill:#FFFFFF;" d="M142.673,156.4l-2.422,5.492c-1.257-0.556-2.66-0.873-4.142-0.873
					c-2.859,0-5.453,1.178-7.319,3.07c-0.013,0.013-0.026,0.04-0.053,0.053l-4.315-4.156l-0.013-0.013l0.093-0.093
					c0.039-0.04,0.079-0.079,0.119-0.106c0.371-0.371,0.755-0.715,1.152-1.046c0.198-0.172,0.41-0.331,0.609-0.49
					c0.212-0.159,0.423-0.305,0.648-0.45c0.86-0.582,1.774-1.085,2.713-1.482c0.251-0.106,0.503-0.212,0.754-0.304
					c0.265-0.093,0.516-0.172,0.768-0.251c0.265-0.079,0.516-0.159,0.781-0.225c1.31-0.344,2.673-0.516,4.063-0.516
					c0.304,0,0.596,0.013,0.9,0.026c0.529,0.026,1.059,0.079,1.575,0.159c0.013,0.013,0.04,0.013,0.053,0.013
					c0.278,0.04,0.556,0.093,0.834,0.159c0.543,0.106,1.085,0.252,1.628,0.424C141.627,155.976,142.156,156.175,142.673,156.4z"/>
				<path style="opacity:0.5;" d="M152.347,171.262c0,0.556-0.026,1.098-0.079,1.654c-0.013,0.04-0.013,0.079-0.013,0.132
					c-0.013,0.093-0.027,0.185-0.04,0.291c-0.027,0.251-0.066,0.49-0.119,0.741c-0.013,0.146-0.053,0.291-0.079,0.437
					c-0.014,0.079-0.027,0.146-0.053,0.212c0,0.04,0,0.079-0.026,0.119c-0.013,0.119-0.04,0.238-0.079,0.357
					c-0.027,0.119-0.053,0.225-0.093,0.344c-0.04,0.185-0.093,0.357-0.146,0.543c-0.172,0.543-0.37,1.072-0.595,1.601
					c-0.133,0.291-0.265,0.582-0.41,0.86c-0.066,0.145-0.146,0.291-0.238,0.423c-0.516,0.979-1.138,1.893-1.839,2.74
					c-0.199,0.238-0.41,0.476-0.635,0.701c-0.212,0.225-0.437,0.45-0.662,0.662c-0.225,0.225-0.463,0.424-0.715,0.635
					c-0.238,0.198-0.49,0.397-0.741,0.582l-0.013-0.027l-3.56-4.791c2.514-1.866,4.142-4.857,4.142-8.219H152.347z"/>
			</g>
			<line style="fill:none;stroke:#FFFFFF;stroke-miterlimit:10;" x1="147.996" y1="164.142" x2="157.957" y2="156.973"/>
			<path style="fill:#FFFFFF;" d="M174.007,162.011h-16.912c-0.464,0-0.841-0.376-0.841-0.841v-7.549
				c0-0.464,0.376-0.841,0.841-0.841h16.912c0.464,0,0.841,0.376,0.841,0.841v7.549
				C174.847,161.635,174.471,162.011,174.007,162.011z"/>
			<path style="fill:#FFFFFF;" d="M149.021,164.142c0,0.566-0.459,1.025-1.025,1.025s-1.025-0.459-1.025-1.025
				s0.459-1.025,1.025-1.025S149.021,163.576,149.021,164.142z"/>
			<path style="opacity:0.5;" d="M228.296,196.38v27.23c0,2.63-2.13,4.76-4.76,4.76h-108.18c0,0,0,0,0.01-0.01
				c0.41-0.43,6.983-10.83,17.44-10.83c8.26,0,8.79,5.92,18.68,6.22c9.89,0.3,19.9-19.57,33.59-19.57c13.69,0,15.92,6.82,25.68,7.22
				C220.526,211.79,228.296,196.38,228.296,196.38z"/>
		</g>
	</g>
</g>
</svg>