<svg width="856" height="855" viewBox="0 0 856 855" fill="none" xmlns="http://www.w3.org/2000/svg">
<g clip-path="url(#clip0_928_3)">
<rect width="856" height="855" fill="white"/>
<path d="M-24 0L608.5 -14L224.5 862.5L-24 876V0Z" fill="#8474D2"/>
<path d="M856.635 858.141L223.5 876.5L618.99 -17.5248L880.839 -17.5248L856.635 858.141Z" fill="#74BAD2"/>
<circle cx="223.5" cy="247.5" r="180.5" fill="white"/>
<circle cx="609" cy="598" r="214" fill="white"/>
<path d="M168.392 237.438C168.392 240.575 168.732 243.118 169.325 244.983C170.078 247.081 170.985 249.121 172.037 251.086C172.461 251.764 172.63 252.442 172.63 253.036C172.63 253.883 172.122 254.731 171.02 255.579L165.68 259.139C164.917 259.648 164.154 259.902 163.475 259.902C162.628 259.902 161.78 259.478 160.932 258.715C159.79 257.488 158.769 256.153 157.881 254.731C157.033 253.291 156.185 251.679 155.253 249.73C148.641 257.528 140.333 261.428 130.331 261.428C123.211 261.428 117.531 259.393 113.377 255.325C109.224 251.255 107.105 245.83 107.105 239.049C107.105 231.844 109.648 225.995 114.819 221.587C119.989 217.179 126.856 214.975 135.587 214.975C138.469 214.975 141.436 215.229 144.572 215.653C147.709 216.077 150.93 216.755 154.321 217.518V211.33C154.321 204.887 152.964 200.395 150.336 197.767C147.624 195.139 143.046 193.867 136.519 193.867C133.552 193.867 130.501 194.207 127.364 194.97C124.228 195.732 121.176 196.665 118.209 197.852C116.853 198.445 115.836 198.784 115.242 198.954C114.649 199.124 114.225 199.208 113.886 199.208C112.699 199.208 112.106 198.36 112.106 196.58V192.426C112.106 191.07 112.276 190.053 112.699 189.46C113.123 188.866 113.886 188.273 115.073 187.68C118.04 186.154 121.6 184.882 125.753 183.865C129.908 182.763 134.316 182.255 138.978 182.255C149.066 182.255 156.441 184.543 161.188 189.121C165.85 193.698 168.224 200.649 168.224 209.974V237.438H168.394H168.392ZM133.976 250.323C136.774 250.323 139.656 249.815 142.707 248.797C145.759 247.78 148.472 245.915 150.76 243.372C152.117 241.762 153.134 239.982 153.642 237.947C154.151 235.913 154.49 233.454 154.49 230.572V227.012C151.92 226.386 149.316 225.905 146.691 225.571C144.049 225.235 141.387 225.065 138.723 225.062C133.043 225.062 128.89 226.164 126.093 228.453C123.295 230.742 121.939 233.963 121.939 238.201C121.939 242.185 122.956 245.152 125.075 247.187C127.11 249.306 130.077 250.323 133.976 250.323ZM202.045 259.478C200.519 259.478 199.502 259.224 198.824 258.63C198.146 258.122 197.552 256.935 197.044 255.325L177.124 189.799C176.614 188.103 176.36 187.001 176.36 186.408C176.36 185.052 177.038 184.288 178.395 184.288H186.702C188.312 184.288 189.415 184.543 190.008 185.136C190.686 185.645 191.195 186.832 191.703 188.442L205.944 244.559L219.168 188.442C219.592 186.747 220.101 185.645 220.778 185.136C221.457 184.628 222.644 184.289 224.17 184.289H230.951C232.561 184.289 233.664 184.543 234.341 185.136C235.02 185.645 235.613 186.832 235.952 188.442L249.346 245.237L264.01 188.442C264.518 186.747 265.112 185.645 265.705 185.136C266.383 184.628 267.485 184.289 269.011 184.289H276.894C278.251 184.289 279.014 184.967 279.014 186.408C279.014 186.832 278.929 187.256 278.844 187.764C278.759 188.273 278.59 188.951 278.251 189.884L257.821 255.409C257.313 257.105 256.72 258.207 256.041 258.715C255.363 259.224 254.261 259.563 252.821 259.563H245.531C243.92 259.563 242.818 259.309 242.139 258.715C241.461 258.122 240.868 257.02 240.529 255.325L227.389 200.649L214.335 255.239C213.912 256.935 213.403 258.037 212.725 258.63C212.047 259.224 210.86 259.478 209.335 259.478H202.044H202.045ZM310.972 261.767C306.564 261.767 302.156 261.258 297.918 260.241C293.679 259.224 290.374 258.121 288.17 256.851C286.813 256.087 285.88 255.24 285.542 254.477C285.212 253.729 285.039 252.921 285.033 252.103V247.78C285.033 246 285.711 245.152 286.983 245.152C287.503 245.154 288.018 245.24 288.509 245.407C289.017 245.577 289.78 245.915 290.628 246.254C293.622 247.571 296.748 248.565 299.952 249.221C303.273 249.895 306.652 250.236 310.04 250.238C315.38 250.238 319.534 249.306 322.416 247.441C325.298 245.576 326.824 242.864 326.824 239.388C326.824 237.015 326.061 235.065 324.535 233.454C323.009 231.844 320.127 230.403 315.974 229.046L303.682 225.232C297.494 223.282 292.917 220.4 290.119 216.585C287.322 212.855 285.881 208.702 285.881 204.294C285.881 200.734 286.644 197.597 288.17 194.884C289.695 192.172 291.73 189.799 294.273 187.934C296.816 185.984 299.698 184.543 303.089 183.526C306.479 182.509 310.039 182.085 313.769 182.085C315.634 182.085 317.584 182.17 319.449 182.424C321.399 182.678 323.179 183.017 324.959 183.356C326.654 183.78 328.265 184.204 329.791 184.713C331.317 185.221 332.503 185.73 333.351 186.238C334.538 186.917 335.385 187.595 335.894 188.358C336.403 189.036 336.657 189.968 336.657 191.155V195.139C336.657 196.919 335.979 197.852 334.707 197.852C334.029 197.852 332.927 197.512 331.487 196.834C326.654 194.63 321.229 193.528 315.211 193.528C310.379 193.528 306.564 194.291 303.936 195.902C301.309 197.512 299.952 199.971 299.952 203.446C299.952 205.82 300.8 207.854 302.495 209.465C304.191 211.075 307.327 212.686 311.82 214.127L323.857 217.942C329.96 219.892 334.368 222.604 336.996 226.079C339.624 229.555 340.896 233.539 340.896 237.947C340.896 241.592 340.132 244.898 338.691 247.78C337.166 250.662 335.131 253.205 332.503 255.24C329.875 257.359 326.739 258.885 323.094 259.987C319.279 261.174 315.295 261.767 310.972 261.767V261.767Z" fill="#252F3E"/>
<path d="M326.993 302.964C299.105 323.563 258.585 334.498 223.746 334.498C174.919 334.498 130.925 316.442 97.6958 286.434C95.0678 284.061 97.4408 280.84 100.577 282.704C136.519 303.558 180.853 316.188 226.713 316.188C257.653 316.188 291.645 309.746 322.925 296.522C327.587 294.402 331.571 299.574 326.993 302.964V302.964ZM338.607 289.74C335.047 285.163 315.041 287.536 305.971 288.638C303.258 288.978 302.834 286.604 305.293 284.824C321.229 273.634 347.423 276.856 350.474 280.585C353.526 284.4 349.626 310.593 334.707 323.139C332.419 325.089 330.215 324.072 331.232 321.529C334.622 313.136 342.167 294.233 338.607 289.74V289.74Z" fill="#FF9900"/>
<line x1="623.575" y1="-45.9833" x2="195.575" y2="925.017" stroke="white" stroke-width="10"/>
<path d="M481 697.998L483.123 695.026L583.527 504.512L583.739 502.495L539.48 419.358C535.77 412.394 525.33 414.155 524.114 421.951L481 697.998Z" fill="#FFC24A"/>
<path d="M616.005 565.38L648.96 531.63L615.995 468.7C612.866 462.743 604.129 462.725 601.033 468.7L583.42 502.287V505.147L616.004 565.38H616.005Z" fill="#F4BD62"/>
<path d="M481 697.998L481.962 697.03L485.458 695.61L613.935 567.61L615.563 563.179L583.513 502.105L481 697.998Z" fill="#F6820C"/>
<path d="M620.121 762.551L736.396 697.704L703.192 493.209C702.153 486.811 694.304 484.282 689.724 488.869L481 697.998L596.608 762.546C600.201 764.552 604.248 765.606 608.364 765.607C612.479 765.607 616.527 764.555 620.121 762.551" fill="#FDE068"/>
<path d="M735.353 697.16L702.401 494.218C701.371 487.868 694.843 485.241 690.298 489.794L482.289 697.6L596.628 761.508C600.194 763.499 604.21 764.545 608.294 764.546C612.378 764.547 616.395 763.504 619.962 761.514L735.354 697.159L735.353 697.16Z" fill="#FCCA3F"/>
<path d="M620.121 760.64C616.527 762.645 612.48 763.697 608.364 763.696C604.249 763.695 600.202 762.641 596.609 760.635L481.932 697.015L481.002 697.998L596.609 762.546C600.202 764.552 604.249 765.606 608.365 765.607C612.48 765.608 616.528 764.556 620.122 762.551L736.397 697.704L736.112 695.952L620.122 760.641L620.121 760.64Z" fill="#EEAB37"/>
</g>
<defs>
<clipPath id="clip0_928_3">
<rect width="856" height="855" fill="white"/>
</clipPath>
</defs>
</svg>
