<?xml version="1.0" encoding="utf-8"?>
<!-- Generator: Adobe Illustrator 25.0.1, SVG Export Plug-In . SVG Version: 6.00 Build 0)  -->
<svg version="1.0" id="katman_1" xmlns="http://www.w3.org/2000/svg" xmlns:xlink="http://www.w3.org/1999/xlink" x="0px" y="0px"
	 viewBox="0 0 560 400" style="enable-background:new 0 0 560 400;" xml:space="preserve">
<style type="text/css">
	.st0{fill-rule:evenodd;clip-rule:evenodd;fill:#6772E5;}
</style>
<path class="st0" d="M363.5,146.1c21.8,0,42.3,19.7,42.4,55.8c0,39.4-20.3,57.4-42.6,57.4c-11,0-17.5-4.6-22-7.8l-0.1,35.2
	l-31.1,6.6V148.1h27.4l1.6,7.7C343.5,151.8,351.3,146.1,363.5,146.1L363.5,146.1z M171.6,121.2l-30.4,6.5l-0.1,99.7
	c0,18.4,13.8,32,32.2,32c10.2,0,17.7-1.9,21.8-4.1V230c-4,1.6-23.6,7.3-23.6-11.1v-44.2h23.6v-26.5h-23.6L171.6,121.2z M87.5,179.8
	c0-4.9,4-6.7,10.6-6.7c9.5,0,21.4,2.9,30.9,8v-29.2c-10.3-4.1-20.5-5.7-30.9-5.7c-25.3,0-42.1,13.2-42.1,35.2
	c0,34.3,47.3,28.9,47.3,43.7c0,5.7-5,7.6-11.9,7.6c-10.3,0-23.5-4.2-34-10v29.6c11.6,5,23.3,7.1,34,7.1c25.9,0,43.7-12.8,43.7-35.1
	C134.9,187.2,87.5,193.8,87.5,179.8z M504,203.1c0,3-0.2,9.5-0.2,11.1h-60.9c1.4,14.7,12.1,18.9,24.1,18.9c12.3,0,22-2.6,30.5-6.8
	v24.9c-8.5,4.7-19.7,8.1-34.5,8.1c-30.4,0-51.5-18.9-51.5-56.4c0-31.6,17.9-56.7,47.5-56.7C488.6,146.1,504,171.3,504,203.1z
	 M298.5,148.2v108.9h-31.2V148.2H298.5z M231.8,148.2l2,9.2c7.3-13.4,21.9-10.7,25.9-9.2v28.6c-3.9-1.4-16.3-3.1-23.6,6.5v73.8H205
	V148.2H231.8z M356,231.9c-7.3,0-11.7-2.6-14.7-5.8l-0.1-46.2c3.2-3.6,7.7-6.1,14.8-6.1c11.3,0,19.2,12.7,19.2,29
	C375.2,219.4,367.5,231.9,356,231.9L356,231.9z M474.6,191.3c0-14.1-8.1-19.9-15.7-19.9c-7.8,0-16.4,5.8-16.4,19.9H474.6z
	 M298.5,132.1v-25.3l-31.2,6.6v25.4L298.5,132.1z"/>
</svg>
