<svg width="603" height="588" viewBox="0 0 603 588" fill="none" xmlns="http://www.w3.org/2000/svg">
<path d="M596 131.024V513.919L259.557 580.666L7 444.015V56.6095L310.971 7L596 131.024Z" fill="url(#paint0_linear_1315_11)"/>
<path d="M87.2772 131.024V385.385M87.2772 131.024L310.971 87.2772M87.2772 131.024L7 56.6095M87.2772 385.385L7 444.015M87.2772 385.385L259.557 473.78M87.2772 385.385L310.971 353.815M488.212 434.093V185.143M488.212 434.093L596 513.919M488.212 434.093L310.971 353.815M488.212 434.093L259.557 473.78M488.212 185.143L310.971 87.2772M488.212 185.143L596 131.024M310.971 87.2772C310.971 87.2772 310.971 38.3502 310.971 7M310.971 87.2772V353.815M596 131.024V513.919M596 131.024C596 131.024 422.282 55.4343 310.971 7M596 513.919L259.557 580.666M259.557 580.666L7 444.015M259.557 580.666V473.78M7 444.015V56.6095M7 56.6095C7 56.6095 192.263 26.3737 310.971 7" stroke="black" stroke-width="14" stroke-linejoin="round"/>
<defs>
<linearGradient id="paint0_linear_1315_11" x1="306.912" y1="7" x2="306.912" y2="559.469" gradientUnits="userSpaceOnUse">
<stop stop-color="#D196FF"/>
<stop offset="1" stop-color="#FFA0FB"/>
</linearGradient>
</defs>
</svg>
