<?xml version="1.0" encoding="UTF-8" standalone="no"?>
<!-- Created with Inkscape (http://www.inkscape.org/) -->

<svg
   version="1.1"
   id="svg2"
   width="4266.6665"
   height="2666.6667"
   viewBox="0 0 4266.6665 2666.6667"
   sodipodi:docname="hero.eps"
   xmlns:inkscape="http://www.inkscape.org/namespaces/inkscape"
   xmlns:sodipodi="http://sodipodi.sourceforge.net/DTD/sodipodi-0.dtd"
   xmlns="http://www.w3.org/2000/svg"
   xmlns:svg="http://www.w3.org/2000/svg">
  <defs
     id="defs6" />
  <sodipodi:namedview
     id="namedview4"
     pagecolor="#ffffff"
     bordercolor="#000000"
     borderopacity="0.25"
     inkscape:showpageshadow="2"
     inkscape:pageopacity="0.0"
     inkscape:pagecheckerboard="0"
     inkscape:deskcolor="#d1d1d1" />
  <g
     id="g8"
     inkscape:groupmode="layer"
     inkscape:label="ink_ext_XXXXXX"
     transform="matrix(1.3333333,0,0,-1.3333333,0,2666.6667)">
    <g
       id="g10"
       transform="scale(0.1)">
      <path
         d="M 0,0 H 32000 V 20000 H 0 Z"
         style="fill:#ffffff;fill-opacity:1;fill-rule:nonzero;stroke:none"
         id="path12" />
      <path
         d="m 29772.2,2621.4 -26177.73,7.9 c 0,0 -25.47,28.4 -71.08,82.9 -2.61,3 -5.21,6.2 -7.93,9.5 -116.92,140.3 -352.25,435.8 -627.75,852.3 l -0.23,0.4 c -730.99,1105.7 -1743.94,3063.7 -1573.47,5236.8 48.1,613.4 190.38,1244 460,1877.4 817.7,1921.1 3257.31,3216.1 5455.04,3242.2 22.68,0.3 45.38,0.4 68.02,0.4 825.99,0 1615,-181.2 2267.22,-577.8 118.85,-72.2 268.26,-128 442.11,-166 146.5,-32.1 310.3,-51.6 488.1,-57.8 41.6,-1.5 84.2,-2.2 127.4,-2.2 1434.8,0 3661.4,815.3 4998.1,2779.9 731.1,1074.6 1853.5,1778.1 3143.6,2144.5 60.1,17 120.6,33.4 181.4,48.9 293.4,75.3 594.7,133.7 901.5,175.5 55.2,7.5 110.7,14.5 166.3,20.8 338.9,39.4 683.9,58.8 1031.5,58.8 1048.4,0 2120.8,-176.7 3125.2,-515.9 176.1,-59.4 350.2,-123.9 521.7,-193.4 2516.7,-1019.2 4474.6,-3100.3 4302.5,-6006.1 -6.8,-114.9 -16.9,-231.2 -30.6,-348.7 v 0 h -238.2 v 732 h -47.6 v -732 h -484.6 v 390.5 h -30.5 v -390.5 H 27960 v -837.4 h -405.4 v -210.9 h -437.3 v 363.2 H 26331 v 986.9 h -123.1 v 98.3 h -17.5 v -98.3 h -102.1 v 0.1 h -509.9 v 98.2 h -17.7 v -98.2 h -133 v -496.2 l -660.5,2.7 v -306.3 h -560 v 1893.6 h -146.6 v 141.8 h -19.7 v -141.8 h -356.7 v 141.8 h -19.8 v -141.8 h -566.7 v 141.8 h -19.9 v -141.8 h -400.1 v 141.8 h -19.9 v -141.8 h -110.1 v -2028.5 h -506.8 v 1096.8 H 20381.4 V 11615 h -144.6 v 976 c -7.1,3.9 -14.2,7.9 -21.1,11.7 h -135.1 v 0.5 h -786.3 v -0.5 h -0.7 v -146.4 h 0.7 v -100.6 h -0.7 v -146.2 h 0.7 v -101 h -0.7 v -146.3 h 0.7 v -0.5 l -83.2,0.5 v 765.4 h -118.4 v 109.4 h -13.9 v -109.4 h -648.4 v 109.4 h -14 v -109.4 h -87.5 v -97.1 h -0.4 v -146.2 h 0.4 v -128.6 h -0.4 v -146.2 h 0.4 v -101 h -0.4 v -146.3 h 0.4 v -93.4 h -0.4 v -146.4 h 0.4 v -93.4 h -0.4 v -146.3 h 0.4 v -88 h -0.4 v -92.9 h 0.4 v -10.2 h -293.7 v 732.1 h -43.6 v -732.1 h -443.9 v 390.6 h -28 v -390.6 h -185.3 v -837.3 h -371.5 v -210.9 h -400.6 v 363.3 h -720.4 v 986.8 h -112.8 v 98.3 h -16 v -98.3 h -93.5 v 0.2 h -467.4 v 98.1 h -16.2 v -98.1 h -121.7 v -496.3 l -605.2,2.7 v -306.3 h -513.2 v 1893.6 h -134.2 v 141.8 h -18.1 v -141.8 h -326.7 v 141.8 h -18.3 v -141.8 h -519.1 v 141.8 h -18.2 v -141.8 h -366.7 v 141.8 h -18.1 v -141.8 h -101 v -2028.5 h -464.3 v 1096.8 H 10390.8 V 10463.5 H 9628.69 V 8808.9 l -175.67,-6089.6 1378.48,0.1 c 6.6,-6.8 15.9,-11 26.2,-11 h 3.5 c 10.6,0 20.3,4.2 27.4,11 l 895.7,0.1 c 6.6,-6.8 16,-11.1 26.3,-11.1 h 3.5 c 10.6,0 20.4,4.2 27.5,11.1 l 1621.3,0.2 c 7.2,-7 17,-11.3 27.7,-11.3 h 3.5 c 10.4,0 19.8,4.3 26.5,11.3 l 16308.4,1.7 c -2.2,-4 -4.5,-8 -6.8,-12.1 -16.1,-28.9 -32.9,-58.4 -50,-87.9"
         style="fill:#edf4ff;fill-opacity:1;fill-rule:nonzero;stroke:none"
         id="path14" />
      <path
         d="m 29829,2721.6 v -0.2 l -20375.98,-2.1 175.67,6089.6 v 1654.6 h 762.11 v 1292.2 h 1520.4 v -1096.8 h 464.3 v 2028.5 h 101 v 141.8 h 18.1 v -141.8 h 366.7 v 141.8 h 18.2 v -141.8 h 519.1 v 141.8 h 18.3 v -141.8 h 326.7 v 141.8 h 18.1 v -141.8 h 134.2 v -1893.6 h 513.2 v 306.3 l 605.2,-2.7 v 496.3 h 121.7 v 98.1 h 16.2 v -98.1 h 467.4 v -0.2 h 93.5 v 98.3 h 16 v -98.3 h 112.8 v -986.8 h 720.4 v -363.3 h 400.6 v 210.9 h 371.5 v 837.3 h 185.3 v 390.6 h 28 v -390.6 h 443.9 v 732.1 h 43.6 v -732.1 h 293.7 v 10.2 h -0.4 v 92.9 h 0.4 v 88 h -0.4 v 146.3 h 0.4 v 93.4 h -0.4 v 146.4 h 0.4 v 93.4 h -0.4 v 146.3 h 0.4 v 101 h -0.4 v 146.2 h 0.4 v 128.6 h -0.4 v 146.2 h 0.4 v 97.1 h 87.5 v 109.4 h 14 v -109.4 h 648.4 v 109.4 h 13.9 v -109.4 h 118.4 v -765.4 l 83.2,-0.5 v 0.5 h -0.7 v 146.3 h 0.7 v 101 h -0.7 v 146.2 h 0.7 v 100.6 h -0.7 v 146.4 h 0.7 v 0.5 h 786.3 v -0.5 h 135.1 c 6.9,-3.8 14,-7.8 21.1,-11.7 v -976 h 144.6 v 140.7 h 1659.5 v -1096.8 h 506.8 v 2028.5 h 110.1 v 141.8 h 19.9 v -141.8 h 400.1 v 141.8 h 19.9 v -141.8 h 566.7 v 141.8 h 19.8 v -141.8 h 356.7 v 141.8 h 19.7 v -141.8 h 146.6 v -1893.6 h 560 v 306.3 l 660.5,-2.7 v 496.2 h 133 v 98.2 h 17.7 v -98.2 h 509.9 v -0.1 h 102.1 v 98.3 h 17.5 v -98.3 h 123.1 v -986.9 h 786.3 v -363.2 h 437.3 v 210.9 h 405.4 v 837.4 h 202.2 v 390.5 h 30.5 v -390.5 h 484.6 v 732 h 47.6 v -732 h 238.2 c -25.7,-223.8 -64,-452.2 -115.4,-685.1 -30.4,-137.3 -65.1,-276.2 -104.7,-416.6 -1037.3,-3683.7 3109.4,-3850 1086,-7468.4"
         style="fill:#dfebfa;fill-opacity:1;fill-rule:nonzero;stroke:none"
         id="path16" />
      <path
         d="M 24691.1,17646.5 V 2721.7 h -521.7 v 15118.2 c 176.2,-59.4 350.3,-123.9 521.7,-193.4"
         style="fill:#afcdfb;fill-opacity:1;fill-rule:nonzero;stroke:none"
         id="path18" />
      <path
         d="M 10006.4,13187.4 V 2712.2 H 3523.38 c -2.6,3 -5.2,6.2 -7.92,9.5 -116.92,140.3 -352.25,435.8 -627.75,852.3 l -0.23,0.4 c -731,1105.7 -1743.94,3063.7 -1573.48,5236.8 48.11,613.4 190.39,1244 460.01,1877.4 817.7,1921.1 3257.31,3216.1 5455.03,3242.2 842.71,-9.3 1645.92,-191.2 2312.95,-577.4 124.85,-72.2 281.85,-128 464.41,-166"
         style="fill:#cee1fd;fill-opacity:1;fill-rule:nonzero;stroke:none"
         id="path20" />
      <path
         d="m 20012.8,18297 v -1838 c 0,-143.3 -35,-260.2 -77.7,-260.2 h -11.1 c -42.7,0 -77.5,116.9 -77.5,260.2 v 1817.2 c 55.2,7.5 110.7,14.5 166.3,20.8"
         style="fill:#9fc1f4;fill-opacity:1;fill-rule:nonzero;stroke:none"
         id="path22" />
      <path
         d="m 19886.3,16641 c -605.8,0 -1096.8,-519.3 -1096.8,-1159.8 h 2193.6 c 0,640.5 -491.1,1159.8 -1096.8,1159.8"
         style="fill:#ff9843;fill-opacity:1;fill-rule:nonzero;stroke:none"
         id="path24" />
      <path
         d="m 19973.7,16626.8 c -31.6,6.9 -63.7,10.5 -96.4,10.5 -394.6,0 -714.6,-517.6 -714.6,-1156.1 h 192.7 c 0,585.7 269.2,1069.5 618.3,1145.6"
         style="fill:#ffc48a;fill-opacity:1;fill-rule:nonzero;stroke:none"
         id="path26" />
      <path
         d="m 27109.6,4432.2 c 0,0 -291.9,340.6 -18,556.9 0,0 200,121.1 363.2,111.2 0,0 -231.2,-387.6 -156.4,-426.1 74.8,-38.6 226.4,450.5 226.4,450.5 0,0 455.3,44.1 601.7,-26.3 0,0 -389.1,-318.5 -307.2,-337.5 82,-18.9 502.4,293.7 502.4,293.7 0,0 423.7,-72.1 401.1,-330.6 -22.6,-258.5 -168.6,-338.3 -232.8,-331.4 -64.1,6.8 -439.5,150.1 -447.7,97.5 -8.2,-52.5 217.8,-224.4 376,-232.4 0,0 -298.7,-329.5 -497.3,-234.4 -198.5,95.1 -215.4,245.8 -339.2,302.4 -123.8,56.5 -229.4,56.3 -178.3,-1.3 51.1,-57.7 275.1,-113.7 345.8,-238.9 70.8,-125.2 134.3,-209.6 -71.1,-178.7 -205.4,30.9 -539.3,181.2 -554,353.3 -14.6,172.1 -14.6,172.1 -14.6,172.1"
         style="fill:#77a4e5;fill-opacity:1;fill-rule:nonzero;stroke:none"
         id="path28" />
      <path
         d="m 28514.6,4717 c 0,0 -1150.9,44.4 -1405,-284.8 0,0 -56.2,-168.3 -229.2,-321.6 l -27,-73.5 c 0,0 199.5,210.3 270.8,223 0,0 -111.6,407.8 1390.4,456.9"
         style="fill:#77a4e5;fill-opacity:1;fill-rule:nonzero;stroke:none"
         id="path30" />
      <path
         d="m 26880.4,4110.6 c 0,0 -247,-182.7 -264.2,-509.1 l 44.9,-4 c 0,0 78.9,337.5 221.4,469.5 142.7,132 -2.1,43.6 -2.1,43.6"
         style="fill:#77a4e5;fill-opacity:1;fill-rule:nonzero;stroke:none"
         id="path32" />
      <path
         d="m 26089,4860.5 c 0,0 464.4,260 247.7,612.9 0,0 -173.4,216.7 -359.1,272.4 0,0 99.1,-526.2 0,-538.6 -99.1,-12.4 -68.1,594.3 -68.1,594.3 0,0 -489.1,235.3 -681,216.7 0,0 303.4,-513.9 204.3,-501.5 -99,12.4 -439.6,532.4 -439.6,532.4 0,0 -501.4,92.9 -581.9,-204.3 -80.5,-297.1 49.5,-445.7 123.8,-464.3 74.3,-18.6 551,-12.4 538.6,-74.3 -12.4,-61.9 -334.3,-160.9 -513.8,-105.2 0,0 198.1,-489.1 458.1,-464.3 260,24.7 340.5,185.7 501.5,198.1 160.9,12.4 278.6,-31 198.1,-74.3 -80.5,-43.4 -352.9,-14.2 -482.9,-124.7 -130,-110.6 -235.3,-178.7 6.2,-228.2 241.4,-49.5 674.8,-18.6 761.5,167.2 86.6,185.7 86.6,185.7 86.6,185.7"
         style="fill:#77a4e5;fill-opacity:1;fill-rule:nonzero;stroke:none"
         id="path34" />
      <path
         d="m 24640.4,5752 c 0,0 1300.1,-421 1448.6,-891.5 0,0 -6.1,-210.5 123.9,-452 v -92.8 c 0,0 -136.2,315.7 -210.5,359.1 0,0 290.9,408.6 -1362,1077.2"
         style="fill:#77a4e5;fill-opacity:1;fill-rule:nonzero;stroke:none"
         id="path36" />
      <path
         d="m 26212.9,4408.5 c 0,0 200.4,-304.4 86.2,-675 l -51.6,13.8 c 0,0 50,408.2 -54.9,613.5 -104.9,205.4 20.3,47.7 20.3,47.7"
         style="fill:#77a4e5;fill-opacity:1;fill-rule:nonzero;stroke:none"
         id="path38" />
      <path
         d="m 26827.7,5219.1 c 0,0 -612,342.7 -326.4,807.9 0,0 228.5,285.6 473.3,359.1 0,0 -130.5,-693.7 0,-710 130.6,-16.3 89.8,783.4 89.8,783.4 0,0 644.7,310.1 897.7,285.6 0,0 -399.9,-677.3 -269.3,-661 130.5,16.3 579.4,701.8 579.4,701.8 0,0 661,122.5 767.1,-269.3 106.1,-391.7 -65.3,-587.5 -163.2,-612 -97.9,-24.5 -726.3,-16.3 -710,-97.9 16.3,-81.7 440.7,-212.2 677.3,-138.8 0,0 -261.1,-644.7 -603.8,-612 -342.8,32.6 -448.9,244.8 -661.1,261.1 -212.2,16.3 -367.2,-40.8 -261.1,-97.9 106.1,-57.1 465.1,-18.7 636.5,-164.4 171.4,-145.7 310.1,-235.5 -8.1,-300.8 -318.3,-65.3 -889.6,-24.5 -1003.8,220.4 -114.3,244.8 -114.3,244.8 -114.3,244.8"
         style="fill:#9fc1f4;fill-opacity:1;fill-rule:nonzero;stroke:none"
         id="path40" />
      <path
         d="m 28737.4,6394.2 c 0,0 -1713.8,-554.9 -1909.7,-1175.1 0,0 8.2,-277.5 -163.2,-595.8 v -122.4 c 0,0 179.6,416.2 277.5,473.4 0,0 -383.6,538.6 1795.4,1419.9"
         style="fill:#9fc1f4;fill-opacity:1;fill-rule:nonzero;stroke:none"
         id="path42" />
      <path
         d="m 26664.5,4623.3 c 0,0 -264.3,-401.3 -113.6,-889.8 l 68,18.2 c 0,0 -66,538.1 72.3,808.8 138.2,270.6 -26.7,62.8 -26.7,62.8"
         style="fill:#9fc1f4;fill-opacity:1;fill-rule:nonzero;stroke:none"
         id="path44" />
      <path
         d="m 26807.1,2674 c 662.2,0 1198.9,536.8 1198.9,1199 h -2397.8 c 0,-662.2 536.8,-1199 1198.9,-1199"
         style="fill:#9fc1f4;fill-opacity:1;fill-rule:nonzero;stroke:none"
         id="path46" />
      <path
         d="m 27102.1,2683.2 c -48.7,-6.1 -98.5,-9.2 -148.9,-9.2 -662.2,0 -1198.9,536.8 -1198.9,1199 h 297.9 c 0,-611.8 458.1,-1116.4 1049.9,-1189.8"
         style="fill:#afcdfb;fill-opacity:1;fill-rule:nonzero;stroke:none"
         id="path48" />
      <path
         d="m 28033.3,3836.2 h -2464.5 v 36.8 h 2464.5 v -36.8"
         style="fill:#9fc1f4;fill-opacity:1;fill-rule:nonzero;stroke:none"
         id="path50" />
      <path
         d="m 21225.6,2733 -1178.1,4889.8 82.3,192.5 1167.1,-5081.8 c 3,-13 -6.9,-25.4 -20.2,-25.4 h -19.5 c -15,0 -28.1,10.3 -31.6,24.9"
         style="fill:#77a4e5;fill-opacity:1;fill-rule:nonzero;stroke:none"
         id="path52" />
      <path
         d="m 15908.7,2708.1 v 0 c -24.2,0 -42.6,21.7 -38.7,45.6 l 347,2103.2 h 148.7 l -413.8,-2113.3 c -4.1,-20.6 -22.1,-35.5 -43.2,-35.5"
         style="fill:#77a4e5;fill-opacity:1;fill-rule:nonzero;stroke:none"
         id="path54" />
      <path
         d="m 19237.3,2708.1 v 0 c -24.2,0 -42.6,21.7 -38.7,45.6 l 347,2103.2 h 148.7 l -413.8,-2113.3 c -4,-20.6 -22.1,-35.5 -43.2,-35.5"
         style="fill:#77a4e5;fill-opacity:1;fill-rule:nonzero;stroke:none"
         id="path56" />
      <path
         d="m 20044.4,4852.5 h -4144 l 858.5,5382.5 H 20903 l -858.6,-5382.5"
         style="fill:#f5fbff;fill-opacity:1;fill-rule:nonzero;stroke:none"
         id="path58" />
      <path
         d="m 20354.5,4735.2 h -4759.4 v 158.3 h 4759.4 v -158.3"
         style="fill:#77a4e5;fill-opacity:1;fill-rule:nonzero;stroke:none"
         id="path60" />
      <path
         d="m 18400.1,9108.8 c -3.2,-42.7 -9.5,-84.5 -18.6,-125.3 -86.4,-384.7 -428.9,-679.4 -816,-680.1 -428.2,-0.7 -748.9,358.7 -716.2,802.7 32.7,444.1 406.4,804.6 834.6,805.4 89.8,0.1 174.9,-15.6 252.9,-44.6 35.1,-13 68.9,-28.7 101,-46.9 69.3,-39.3 131,-90 183,-149.9 29,-33.4 55,-69.6 77.7,-108.3 13.2,-22.3 25.2,-45.5 36,-69.5 30.1,-66.6 50.9,-138.9 60.9,-215.2 5.1,-38.3 7.4,-77.6 6.9,-117.7 -0.3,-16.7 -1,-33.6 -2.2,-50.6"
         style="fill:#bdd1f9;fill-opacity:1;fill-rule:nonzero;stroke:none"
         id="path62" />
      <path
         d="m 18334.5,9492.3 -709.8,-384.8 c 0,0 292.9,515.7 413.1,712.5 69.3,-39.3 131,-90 183,-149.9 29,-33.4 55,-69.6 77.7,-108.3 13.2,-22.3 25.2,-45.5 36,-69.5"
         style="fill:#ffffff;fill-opacity:1;fill-rule:nonzero;stroke:none"
         id="path64" />
      <path
         d="m 18408.2,9589.6 -648.3,-351.5 c 0,0 267.5,471.1 377.3,650.9 63.3,-35.9 119.7,-82.2 167.2,-137 26.5,-30.4 50.2,-63.6 70.9,-98.8 12.1,-20.5 23,-41.7 32.9,-63.6"
         style="fill:#f99746;fill-opacity:1;fill-rule:nonzero;stroke:none"
         id="path66" />
      <path
         d="m 16331.1,5281.7 3362.7,-0.2 338.4,1928.4 -3362.7,0.2 z m 3383.3,-20.1 -3410.9,0.3 345.3,1968 3411,-0.2 -345.4,-1968.1"
         style="fill:#bdd1f9;fill-opacity:1;fill-rule:nonzero;stroke:none"
         id="path68" />
      <path
         d="m 19511,5531.5 -3025,0.2 c 0,0 536.6,287.8 683.8,272.7 147.2,-15.1 358.7,-131.6 494.8,-136.1 136,-4.6 283.3,403.9 434.8,384.6 151.4,-19.2 208.4,-380.5 286.8,-345.2 78.4,35.3 313.9,50.6 449.5,0 135.6,-50.6 333.2,160.8 452.4,154.1 119.2,-6.6 222.9,-330.3 222.9,-330.3"
         style="fill:#f99746;fill-opacity:1;fill-rule:nonzero;stroke:none"
         id="path70" />
      <path
         d="m 17213.4,6109.9 -577.8,0.1 5.4,30.6 h 577.7 l -5.3,-30.7"
         style="fill:#f99746;fill-opacity:1;fill-rule:nonzero;stroke:none"
         id="path72" />
      <path
         d="m 17201.9,6044.5 h -577.8 l 5.4,30.7 577.8,-0.1 -5.4,-30.6"
         style="fill:#f99746;fill-opacity:1;fill-rule:nonzero;stroke:none"
         id="path74" />
      <path
         d="m 16659.1,6518.2 3025,-0.2 c 0,0 -435.6,287.8 -588.1,272.8 -152.5,-15.1 -404.9,-131.6 -542.5,-136.1 -137.7,-4.5 -141.6,404 -299.8,384.7 -158.2,-19.2 -342,-380.5 -408,-345.2 -66.1,35.3 -296.1,50.7 -449.5,0.1 -153.3,-50.6 -276.7,160.8 -398.3,154.2 -121.5,-6.6 -338.8,-330.3 -338.8,-330.3"
         style="fill:#bdd1f9;fill-opacity:1;fill-rule:nonzero;stroke:none"
         id="path76" />
      <path
         d="m 17376.6,7040.2 h -577.8 l 5.4,30.6 h 577.8 l -5.4,-30.6"
         style="fill:#bdd1f9;fill-opacity:1;fill-rule:nonzero;stroke:none"
         id="path78" />
      <path
         d="m 17365.1,6974.7 h -577.8 l 5.4,30.7 h 577.8 l -5.4,-30.7"
         style="fill:#bdd1f9;fill-opacity:1;fill-rule:nonzero;stroke:none"
         id="path80" />
      <path
         d="m 16855.2,7504.4 h -132.7 l 115.3,621.7 h 132.7 l -115.3,-621.7"
         style="fill:#bdd1f9;fill-opacity:1;fill-rule:nonzero;stroke:none"
         id="path82" />
      <path
         d="m 17035.9,7504.4 h -132.7 l 89.3,481.6 h 132.7 l -89.3,-481.6"
         style="fill:#bdd1f9;fill-opacity:1;fill-rule:nonzero;stroke:none"
         id="path84" />
      <path
         d="M 17216.7,7504.4 H 17084 l 93.1,502.3 h 132.7 l -93.1,-502.3"
         style="fill:#bdd1f9;fill-opacity:1;fill-rule:nonzero;stroke:none"
         id="path86" />
      <path
         d="m 17397.4,7504.4 h -132.7 l 70.9,382 h 132.7 l -70.9,-382"
         style="fill:#bdd1f9;fill-opacity:1;fill-rule:nonzero;stroke:none"
         id="path88" />
      <path
         d="m 17578.2,7504.4 h -132.7 l 76,409.8 h 132.7 l -76,-409.8"
         style="fill:#bdd1f9;fill-opacity:1;fill-rule:nonzero;stroke:none"
         id="path90" />
      <path
         d="m 17758.9,7504.4 h -132.7 l 59,317.8 h 132.6 l -58.9,-317.8"
         style="fill:#bdd1f9;fill-opacity:1;fill-rule:nonzero;stroke:none"
         id="path92" />
      <path
         d="m 18630.1,7504.4 h -132.7 l 115.3,621.7 h 132.7 l -115.3,-621.7"
         style="fill:#f99746;fill-opacity:1;fill-rule:nonzero;stroke:none"
         id="path94" />
      <path
         d="m 18810.8,7504.4 h -132.6 l 89.3,481.6 h 132.6 l -89.3,-481.6"
         style="fill:#f99746;fill-opacity:1;fill-rule:nonzero;stroke:none"
         id="path96" />
      <path
         d="m 18991.6,7504.4 h -132.7 l 93.1,502.3 h 132.7 l -93.1,-502.3"
         style="fill:#f99746;fill-opacity:1;fill-rule:nonzero;stroke:none"
         id="path98" />
      <path
         d="m 19172.3,7504.4 h -132.7 l 70.9,382 h 132.7 l -70.9,-382"
         style="fill:#f99746;fill-opacity:1;fill-rule:nonzero;stroke:none"
         id="path100" />
      <path
         d="m 19353.1,7504.4 h -132.7 l 76,409.8 h 132.7 l -76,-409.8"
         style="fill:#f99746;fill-opacity:1;fill-rule:nonzero;stroke:none"
         id="path102" />
      <path
         d="m 19533.8,7504.4 h -132.7 l 59,317.8 h 132.7 l -59,-317.8"
         style="fill:#f99746;fill-opacity:1;fill-rule:nonzero;stroke:none"
         id="path104" />
      <path
         d="M 19268.9,9534 H 18837 l 11.1,59.1 h 431.9 l -11.1,-59.1"
         style="fill:#bdd1f9;fill-opacity:1;fill-rule:nonzero;stroke:none"
         id="path106" />
      <path
         d="m 19798.8,9534 h -477 l 11.2,59.1 h 476.9 l -11.1,-59.1"
         style="fill:#bdd1f9;fill-opacity:1;fill-rule:nonzero;stroke:none"
         id="path108" />
      <path
         d="m 20138.7,9534 h -304.1 l 11.1,59.1 h 304.1 l -11.1,-59.1"
         style="fill:#bdd1f9;fill-opacity:1;fill-rule:nonzero;stroke:none"
         id="path110" />
      <path
         d="m 20422.5,9534 h -234.6 l 11.1,59.1 h 234.6 l -11.1,-59.1"
         style="fill:#bdd1f9;fill-opacity:1;fill-rule:nonzero;stroke:none"
         id="path112" />
      <path
         d="m 19221.5,9281.5 h -431.9 l 11.1,59.2 h 431.9 l -11.1,-59.2"
         style="fill:#bdd1f9;fill-opacity:1;fill-rule:nonzero;stroke:none"
         id="path114" />
      <path
         d="m 19751.3,9281.5 h -476.9 l 11.1,59.2 h 477 l -11.2,-59.2"
         style="fill:#bdd1f9;fill-opacity:1;fill-rule:nonzero;stroke:none"
         id="path116" />
      <path
         d="m 20091.3,9281.5 h -304.1 l 11.1,59.2 h 304.1 l -11.1,-59.2"
         style="fill:#bdd1f9;fill-opacity:1;fill-rule:nonzero;stroke:none"
         id="path118" />
      <path
         d="m 20375.1,9281.5 h -234.6 l 11.1,59.2 h 234.6 l -11.1,-59.2"
         style="fill:#bdd1f9;fill-opacity:1;fill-rule:nonzero;stroke:none"
         id="path120" />
      <path
         d="m 19525.6,9672 h -662.7 l 11.1,59.2 h 662.7 l -11.1,-59.2"
         style="fill:#bdd1f9;fill-opacity:1;fill-rule:nonzero;stroke:none"
         id="path122" />
      <path
         d="m 19970.7,9672 h -382 l 11.1,59.2 h 382 l -11.1,-59.2"
         style="fill:#bdd1f9;fill-opacity:1;fill-rule:nonzero;stroke:none"
         id="path124" />
      <path
         d="m 20448.8,9672 h -424.2 l 11.1,59.2 h 424.2 l -11.1,-59.2"
         style="fill:#bdd1f9;fill-opacity:1;fill-rule:nonzero;stroke:none"
         id="path126" />
      <path
         d="m 19475.2,9403.6 h -662.7 l 11.1,59.2 h 662.7 l -11.1,-59.2"
         style="fill:#bdd1f9;fill-opacity:1;fill-rule:nonzero;stroke:none"
         id="path128" />
      <path
         d="m 19920.3,9403.6 h -382 l 11.1,59.2 h 382 l -11.1,-59.2"
         style="fill:#bdd1f9;fill-opacity:1;fill-rule:nonzero;stroke:none"
         id="path130" />
      <path
         d="m 20398.4,9403.6 h -424.2 l 11.1,59.2 h 424.2 l -11.1,-59.2"
         style="fill:#bdd1f9;fill-opacity:1;fill-rule:nonzero;stroke:none"
         id="path132" />
      <path
         d="m 19174.1,9029.1 h -431.9 l 11.1,59.2 h 431.9 l -11.1,-59.2"
         style="fill:#bdd1f9;fill-opacity:1;fill-rule:nonzero;stroke:none"
         id="path134" />
      <path
         d="M 19703.9,9029.1 H 19227 l 11.1,59.2 h 476.9 l -11.1,-59.2"
         style="fill:#bdd1f9;fill-opacity:1;fill-rule:nonzero;stroke:none"
         id="path136" />
      <path
         d="m 20043.9,9029.1 h -304.1 l 11.1,59.2 h 304.1 l -11.1,-59.2"
         style="fill:#bdd1f9;fill-opacity:1;fill-rule:nonzero;stroke:none"
         id="path138" />
      <path
         d="m 20327.7,9029.1 h -234.6 l 11.1,59.2 h 234.6 l -11.1,-59.2"
         style="fill:#bdd1f9;fill-opacity:1;fill-rule:nonzero;stroke:none"
         id="path140" />
      <path
         d="m 19427.8,9151.2 h -662.7 l 11.1,59.1 h 662.7 l -11.1,-59.1"
         style="fill:#bdd1f9;fill-opacity:1;fill-rule:nonzero;stroke:none"
         id="path142" />
      <path
         d="m 19872.9,9151.2 h -382 l 11.1,59.1 h 382 l -11.1,-59.1"
         style="fill:#bdd1f9;fill-opacity:1;fill-rule:nonzero;stroke:none"
         id="path144" />
      <path
         d="m 20350.9,9151.2 h -424.2 l 11.2,59.1 h 424.2 l -11.2,-59.1"
         style="fill:#bdd1f9;fill-opacity:1;fill-rule:nonzero;stroke:none"
         id="path146" />
      <path
         d="m 19129.7,8792.4 h -432 l 11.1,59.2 h 432 l -11.1,-59.2"
         style="fill:#bdd1f9;fill-opacity:1;fill-rule:nonzero;stroke:none"
         id="path148" />
      <path
         d="m 19659.5,8792.4 h -476.9 l 11.1,59.2 h 476.9 l -11.1,-59.2"
         style="fill:#bdd1f9;fill-opacity:1;fill-rule:nonzero;stroke:none"
         id="path150" />
      <path
         d="m 19999.4,8792.4 h -304 l 11.1,59.2 h 304 l -11.1,-59.2"
         style="fill:#bdd1f9;fill-opacity:1;fill-rule:nonzero;stroke:none"
         id="path152" />
      <path
         d="m 20283.3,8792.4 h -234.6 l 11.1,59.2 h 234.6 l -11.1,-59.2"
         style="fill:#bdd1f9;fill-opacity:1;fill-rule:nonzero;stroke:none"
         id="path154" />
      <path
         d="m 19383.3,8914.5 h -662.6 l 11.1,59.2 h 662.6 l -11.1,-59.2"
         style="fill:#bdd1f9;fill-opacity:1;fill-rule:nonzero;stroke:none"
         id="path156" />
      <path
         d="m 19828.4,8914.5 h -382 l 11.2,59.2 h 381.9 l -11.1,-59.2"
         style="fill:#bdd1f9;fill-opacity:1;fill-rule:nonzero;stroke:none"
         id="path158" />
      <path
         d="m 20306.5,8914.5 h -424.2 l 11.1,59.2 h 424.2 l -11.1,-59.2"
         style="fill:#bdd1f9;fill-opacity:1;fill-rule:nonzero;stroke:none"
         id="path160" />
      <path
         d="m 18146.7,8033.7 h -211.4 l 5.5,28.9 h 211.4 l -5.5,-28.9"
         style="fill:#bdd1f9;fill-opacity:1;fill-rule:nonzero;stroke:none"
         id="path162" />
      <path
         d="m 18406.1,8033.7 h -233.4 l 5.4,28.9 h 233.4 l -5.4,-28.9"
         style="fill:#bdd1f9;fill-opacity:1;fill-rule:nonzero;stroke:none"
         id="path164" />
      <path
         d="m 18123.5,7910.1 h -211.4 l 5.5,29 h 211.4 l -5.5,-29"
         style="fill:#bdd1f9;fill-opacity:1;fill-rule:nonzero;stroke:none"
         id="path166" />
      <path
         d="m 18382.9,7910.1 h -233.4 l 5.4,29 h 233.4 l -5.4,-29"
         style="fill:#bdd1f9;fill-opacity:1;fill-rule:nonzero;stroke:none"
         id="path168" />
      <path
         d="M 18272.4,8101.2 H 17948 l 5.5,29 h 324.3 l -5.4,-29"
         style="fill:#bdd1f9;fill-opacity:1;fill-rule:nonzero;stroke:none"
         id="path170" />
      <path
         d="m 18490.2,8101.2 h -186.9 l 5.4,29 h 187 l -5.5,-29"
         style="fill:#bdd1f9;fill-opacity:1;fill-rule:nonzero;stroke:none"
         id="path172" />
      <path
         d="m 18247.7,7969.8 h -324.3 l 5.4,29 h 324.3 l -5.4,-29"
         style="fill:#bdd1f9;fill-opacity:1;fill-rule:nonzero;stroke:none"
         id="path174" />
      <path
         d="m 18465.6,7969.8 h -187 l 5.4,29 h 187 l -5.4,-29"
         style="fill:#bdd1f9;fill-opacity:1;fill-rule:nonzero;stroke:none"
         id="path176" />
      <path
         d="m 19840.2,8033.7 h -211.4 l 5.5,28.9 h 211.4 l -5.5,-28.9"
         style="fill:#bdd1f9;fill-opacity:1;fill-rule:nonzero;stroke:none"
         id="path178" />
      <path
         d="m 20099.6,8033.7 h -233.5 l 5.5,28.9 h 233.4 l -5.4,-28.9"
         style="fill:#bdd1f9;fill-opacity:1;fill-rule:nonzero;stroke:none"
         id="path180" />
      <path
         d="m 19817,7910.1 h -211.4 l 5.5,29 h 211.4 l -5.5,-29"
         style="fill:#bdd1f9;fill-opacity:1;fill-rule:nonzero;stroke:none"
         id="path182" />
      <path
         d="m 20076.4,7910.1 h -233.5 l 5.5,29 h 233.4 l -5.4,-29"
         style="fill:#bdd1f9;fill-opacity:1;fill-rule:nonzero;stroke:none"
         id="path184" />
      <path
         d="m 19965.9,8101.2 h -324.4 l 5.5,29 h 324.3 l -5.4,-29"
         style="fill:#bdd1f9;fill-opacity:1;fill-rule:nonzero;stroke:none"
         id="path186" />
      <path
         d="m 20183.7,8101.2 h -186.9 l 5.4,29 h 187 l -5.5,-29"
         style="fill:#bdd1f9;fill-opacity:1;fill-rule:nonzero;stroke:none"
         id="path188" />
      <path
         d="m 19941.2,7969.8 h -324.4 l 5.5,29 h 324.3 l -5.4,-29"
         style="fill:#bdd1f9;fill-opacity:1;fill-rule:nonzero;stroke:none"
         id="path190" />
      <path
         d="m 20159.1,7969.8 h -187 l 5.4,29 h 187 l -5.4,-29"
         style="fill:#bdd1f9;fill-opacity:1;fill-rule:nonzero;stroke:none"
         id="path192" />
      <path
         d="m 20965,2787.9 c -7.5,-101.2 -150.2,-102.3 -312.2,-83.5 -162,18.8 -118.9,-22.2 -345.7,-25.3 -226.8,-3.2 -305,71.8 -316,104.2 -9.8,28.7 99.5,52.9 216.3,81.4 14.7,3.5 29.5,7.2 44.2,11 131.8,33.5 219.1,132.1 331.8,218.2 106.8,81.6 244.5,376.8 244.5,376.8 l 309.8,14 c 0,0 -130.4,-264.7 -179.4,-378.7 -28.9,-67.2 -16.6,-149.6 -4.1,-212.9 6.7,-34.4 13.4,-69.6 10.8,-105.2"
         style="fill:#ffb27d;fill-opacity:1;fill-rule:nonzero;stroke:none"
         id="path194" />
      <path
         d="m 20652.8,2704.4 c -162,18.8 -118.9,-22.2 -345.7,-25.3 -226.8,-3.2 -305,71.8 -316,104.2 -9.8,28.7 99.5,52.9 216.3,81.4 l 1.4,-2.2 c 0,0 146.1,-78.3 332.8,-59.6 152.3,15.3 307.6,78.8 412.6,90.2 6.7,-34.4 13.4,-69.6 10.8,-105.2 -7.5,-101.2 -150.2,-102.3 -312.2,-83.5"
         style="fill:#233862;fill-opacity:1;fill-rule:nonzero;stroke:none"
         id="path196" />
      <path
         d="m 23104.8,2766.9 c -7.3,-101.2 -150.1,-102.4 -312.1,-83.8 -162,18.6 -118.9,-22.3 -345.7,-25.7 -226.8,-3.4 -305,71.5 -316,103.9 -9.9,28.8 99.4,53.1 216.2,81.6 14.7,3.6 29.4,7.3 44.2,11 131.7,33.7 218.9,132.4 331.5,218.6 106.7,81.7 0.1,565.3 0.1,565.3 l 340.8,33.1 c 0,0 -16.3,-407.1 -16.1,-592.2 0.1,-73.1 33.7,-143.3 46.3,-206.6 6.7,-34.4 13.4,-69.6 10.8,-105.2"
         style="fill:#ffb27d;fill-opacity:1;fill-rule:nonzero;stroke:none"
         id="path198" />
      <path
         d="m 22792.7,2683.1 c -162,18.6 -118.9,-22.3 -345.7,-25.7 -226.8,-3.4 -305,71.5 -316,103.9 -9.9,28.8 99.4,53.1 216.2,81.6 l 1.4,-2.1 c 0,0 146.1,-78.2 332.9,-59.3 152.2,15.4 307.4,79.1 412.5,90.6 6.7,-34.4 13.4,-69.6 10.8,-105.2 -7.3,-101.2 -150.1,-102.4 -312.1,-83.8"
         style="fill:#233862;fill-opacity:1;fill-rule:nonzero;stroke:none"
         id="path200" />
      <path
         d="m 22110.3,11124.5 c -58.7,241.3 26.3,353.7 103.1,413.5 36.4,88.8 77.9,152.8 120.4,176.9 77.4,44.1 170.2,48.9 235.1,45 -16.7,17.3 -49.6,23.6 -49.6,23.6 40.3,5.9 130.2,-34 130.2,-34 559.9,215.8 647.9,-608.7 636.2,-800.3 -11.7,-191.5 -10.2,-417.1 281.2,-568 555.8,-288 -184.8,-1373.2 -184.8,-1373.2 14.2,154.8 -700.1,971.7 -1072.7,1216.4 -90.7,133.5 -122.9,369.4 -125.3,388 15.6,-187.1 47.6,-292 76.2,-351.1 -169.8,156.3 -195,531.7 -150,863.2"
         style="fill:#a9453d;fill-opacity:1;fill-rule:nonzero;stroke:none"
         id="path202" />
      <path
         d="m 22331.5,10212.2 c -1.9,-0.9 179.9,-95.3 316.6,-57.8 128.6,35 212.7,201.8 210.9,202.2 -54.5,10.8 -70.2,85.6 -69,407.3 l -24.6,-4.9 -414.1,-82 c 0,0 9.5,-130.3 9.7,-253 0.3,-103.1 -5.9,-200.8 -29.5,-211.8"
         style="fill:#ffb27d;fill-opacity:1;fill-rule:nonzero;stroke:none"
         id="path204" />
      <path
         d="m 22351.3,10677 c 0,0 9.5,-130.3 9.7,-253 231.7,6.5 354.2,217.9 404.4,335 l -414.1,-82"
         style="fill:#ed975d;fill-opacity:1;fill-rule:nonzero;stroke:none"
         id="path206" />
      <path
         d="m 20666.8,3306.6 c -20.3,-63.6 25.4,-129.2 92.1,-132.3 l 161.7,-7.6 171.2,-5.2 c 42.8,-1.3 83.7,17.4 110.7,50.6 136.6,167.5 557.1,726.1 812.2,1537.6 7.2,22.8 14.7,45.8 22.7,69.1 168.5,491.2 517.7,1107.7 701.7,1665.7 29.3,88.9 55.6,172.6 79.2,251.7 7.5,25.4 14.9,50.3 21.9,74.8 135.6,471.2 174.9,780.6 211.1,1111.2 l -1328.8,-10.7 c 0,0 -279.8,-2174.3 -1055.7,-4604.9"
         style="fill:#2a4e96;fill-opacity:1;fill-rule:nonzero;stroke:none"
         id="path208" />
      <path
         d="m 21908.5,8675.1 c 3.3,-632.4 -92.8,-903.6 -92.8,-903.6 0,0 569,-289.1 1245.2,-76.3 7.9,2.5 483.7,137.2 483.7,137.2 -11.3,25.6 -105.3,448.7 -116.3,472.2 -142.8,306.6 -181.7,435.3 -198.6,529.5 -31.4,176 -32.1,358.1 -16.5,529.8 41.3,454.6 164,831.9 164,831.9 -184.2,42 -356.8,115.6 -548.5,187.5 -44.1,-54.9 -179,-112.4 -296,-109.7 -134.7,2.9 -178.3,60.6 -171.4,123.5 -143.5,-79.8 -258,-155.3 -258,-155.3 -122,-211.9 -369.4,-417.7 -387.4,-742.7 -4.4,-79.9 192.5,-806.3 192.6,-824"
         style="fill:#ffffff;fill-opacity:1;fill-rule:nonzero;stroke:none"
         id="path210" />
      <path
         d="m 23051.3,8604.6 c 58.1,-82.2 169.4,-581.9 446.5,-644.7 -142.8,356.1 -251.2,512.3 -268.1,621.8 -31.4,204.3 -32.1,415.8 -16.5,615.3 -92.7,162.6 -161.9,274 -161.9,274 -7.3,26.3 -147.4,459.5 -192.3,72.3 -44.8,-387.3 127.4,-846.8 192.3,-938.7"
         style="fill:#5f9aa8;fill-opacity:1;fill-rule:nonzero;stroke:none"
         id="path212" />
      <path
         d="m 22274,10560.8 c 0,0 548.1,-9 548.5,332.4 0.4,341.5 71.4,570.2 -278.6,590.5 -349.9,20.2 -418.1,-110 -445.9,-224 -27.9,-113.9 33.4,-687.8 176,-698.9"
         style="fill:#ffb27d;fill-opacity:1;fill-rule:nonzero;stroke:none"
         id="path214" />
      <path
         d="m 22294.3,11492 c 0,0 150,-400.6 380.4,-459.8 230.3,-59.2 330.2,2.5 330.2,2.5 0,0 -176.7,140.3 -213.3,385.3 0,0 -384.1,262.7 -497.3,72"
         style="fill:#a9453d;fill-opacity:1;fill-rule:nonzero;stroke:none"
         id="path216" />
      <path
         d="m 22331.5,11459.5 c 0,0 -112.1,-89.4 -139.4,-176.4 -27.4,-86.9 -39.7,-265.9 -91.8,-259.8 0,0 -113.1,272.2 14,426.3 134.7,163.3 217.2,9.9 217.2,9.9"
         style="fill:#a9453d;fill-opacity:1;fill-rule:nonzero;stroke:none"
         id="path218" />
      <path
         d="m 21411.5,8236.2 -258.9,-789.4 147.6,-59.2 428.1,697.4 -316.8,151.2"
         style="fill:#ffb27d;fill-opacity:1;fill-rule:nonzero;stroke:none"
         id="path220" />
      <path
         d="m 22109.5,10288.3 c 0,0 -305.3,-121.1 -393.6,-310 -88.4,-188.9 -222.2,-1455.7 -275.4,-1585.8 -53.3,-130.1 -93.4,-233.1 -93.4,-233.1 0,0 153.9,-129.7 308.7,-139.2 154.8,-9.6 453.7,2268.1 453.7,2268.1"
         style="fill:#f99746;fill-opacity:1;fill-rule:nonzero;stroke:none"
         id="path222" />
      <path
         d="m 22361.3,10397.1 c 0,0 -317.1,-783.4 -326.4,-942 -9.3,-158.5 -37.3,-2592.9 -37.3,-2592.9 0,0 18.6,-111.9 -195.9,-65.2 -214.5,46.6 -270.5,93.2 -270.5,93.2 0,0 205.2,1501.6 149.3,2024 -56,522.3 429,1374.1 429,1374.1 l 251.8,108.8"
         style="fill:#f99746;fill-opacity:1;fill-rule:nonzero;stroke:none"
         id="path224" />
      <path
         d="m 20920.6,3166.7 185.8,-5.6 c 33.2,-1.1 65.1,13.2 86.2,38.9 124.9,151.2 560.5,717.4 822.1,1549.7 7.2,22.8 14.7,45.8 22.7,69.1 168.5,491.2 517.7,1107.7 701.7,1665.7 29.3,88.9 55.6,172.6 79.2,251.7 7.5,25.4 14.9,50.3 21.9,74.8 l -195.7,148.5 c 0,0 -587.5,-951.3 -769.4,-1846.6 -158,-777.7 -790.7,-1713.4 -954.5,-1946.2"
         style="fill:#1e3d70;fill-opacity:1;fill-rule:nonzero;stroke:none"
         id="path226" />
      <path
         d="m 22624.1,5029.5 c -3.2,-411.9 16.3,-1329.9 66.5,-1778.7 4.6,-41 39.3,-72 80.6,-72 h 138.7 c 58.4,0 102.1,0.4 131.2,0.8 25.1,0.4 46.6,18.4 51.4,43.1 137.9,701.6 236.6,1284.5 308.8,1788.2 60.4,421.5 114.2,783 155.5,1094.1 41.6,313.1 70.5,575.3 80.8,796.8 1.6,34.9 2.8,68.8 3.5,101.8 0.6,33.1 0.8,65.2 0.6,96.5 L 22493.5,7212 c 14.5,-762.8 132.5,-1929.4 130.6,-2182.5"
         style="fill:#2a4e96;fill-opacity:1;fill-rule:nonzero;stroke:none"
         id="path228" />
      <path
         d="m 22909.9,3178.8 c 52.5,0 93.1,0.3 121.8,0.7 30.6,0.4 56.7,22.3 62.6,52.2 136.9,697.6 235.1,1277.7 307,1779.2 60.4,421.5 114.2,783 155.5,1094.1 41.6,313.1 70.5,575.3 80.8,796.8 L 23216.3,6654 c 0,0 268.9,-94.9 166.3,-813 -102.6,-718.2 -329.9,-2560.6 -472.7,-2662.2"
         style="fill:#1e3d70;fill-opacity:1;fill-rule:nonzero;stroke:none"
         id="path230" />
      <path
         d="m 22855.6,6908.9 c 0,0 80.9,-292.2 360.7,-254.9 279.8,37.3 677.7,205.2 677.7,205.2 0,0 -119.6,377.8 -268.2,874.2 -180,600.9 -402.9,1375.6 -507.9,1864.2 -29.5,137 -49.6,251.3 -57.1,333.2 l -232.1,450.4 c 0,0 -346.1,-776.9 -364.8,-972.7 -18.6,-195.9 391.7,-2499.6 391.7,-2499.6"
         style="fill:#f99746;fill-opacity:1;fill-rule:nonzero;stroke:none"
         id="path232" />
      <path
         d="m 23135,9437.7 -306.3,943.5 c 0.8,-0.4 386.9,-114.9 581.2,-213 0,0 121.4,-156.6 196.5,-517.7 0,0 79.3,-866.9 -97.9,-1184 0,0 -559.6,-112 -1455,195.8 v 205.2 c 0,0 979.4,-51.3 1179.9,-74.6 l -98.4,644.8"
         style="fill:#ffb27d;fill-opacity:1;fill-rule:nonzero;stroke:none"
         id="path234" />
      <path
         d="m 22868,8998.1 c 12.5,-317.1 87.2,-932.7 752.4,-1262.2 1.8,-0.9 3.6,-1.8 5.4,-2.5 -180,600.9 -402.9,1375.6 -507.9,1864.2 -122.2,-182.6 -256.7,-424.9 -249.9,-599.5"
         style="fill:#ed7d2b;fill-opacity:1;fill-rule:nonzero;stroke:none"
         id="path236" />
      <path
         d="m 22828.7,10381.2 c 0,0 567.9,-40 704.7,-344.7 136.8,-304.7 180.3,-1318.2 6.2,-1616.7 0,0 -239.7,-68.2 -663.6,11 -5.2,1 -10.4,2 -15.7,3 0,0 -135.2,331.1 -14,396.4 0,0 357.5,-18.6 320.2,99.5 -37.3,118.1 -337.8,1451.5 -337.8,1451.5"
         style="fill:#f99746;fill-opacity:1;fill-rule:nonzero;stroke:none"
         id="path238" />
      <path
         d="m 21404.7,8740.7 16.7,-53.7 931.9,289.9 c 0,0 12.5,14.1 6.3,32.9 -6.7,20.8 -23,20.8 -23,20.8 l -931.9,-289.9"
         style="fill:#a9453d;fill-opacity:1;fill-rule:nonzero;stroke:none"
         id="path240" />
      <path
         d="m 21337.3,8689.9 67.4,50.8 16.7,-53.7 z"
         style="fill:#a9453d;fill-opacity:1;fill-rule:nonzero;stroke:none"
         id="path242" />
      <path
         d="m 21189.4,7468.4 c 0,0 -236.5,-130.6 -267.6,-230.2 -31.1,-99.5 -9.7,-307.9 27.8,-304.8 37.6,3.1 93.6,224 124.7,239.5 31.1,15.6 74.6,62.2 74.6,28 0,-34.2 -31.1,-96.4 -15.5,-105.8 15.5,-9.3 65.3,87.1 99.5,105.8 34.2,18.7 48.6,172.5 81.8,213.8 33.3,41.3 -125.3,53.7 -125.3,53.7"
         style="fill:#ffb27d;fill-opacity:1;fill-rule:nonzero;stroke:none"
         id="path244" />
      <path
         d="m 22053.5,8867.5 c 0,0 -211.4,130.2 -300.1,110.2 -88.7,-20 -314.7,-183.7 -206,-219.2 108.7,-35.4 196.8,1.7 238.6,-24 41.8,-25.8 72.7,-72.8 267.5,-72.2 194.9,0.7 0,205.2 0,205.2"
         style="fill:#ffb27d;fill-opacity:1;fill-rule:nonzero;stroke:none"
         id="path246" />
      <path
         d="m 11814.1,2708.4 h -3.5 c -10.3,0 -19.7,4.3 -26.3,11.1 h 57.3 c -7.1,-6.9 -16.9,-11.1 -27.5,-11.1"
         style="fill:#a6c4ef;fill-opacity:1;fill-rule:nonzero;stroke:none"
         id="path248" />
      <path
         d="m 11784.3,2719.5 c -6.6,6.8 -10.6,16.1 -10.3,26.4 l 52.9,2294.9 h 158.6 l -131.9,-2295.1 c -0.6,-10.3 -5.1,-19.5 -12,-26.2 h -57.3"
         style="fill:#a1c0ed;fill-opacity:1;fill-rule:nonzero;stroke:none"
         id="path250" />
      <path
         d="m 10861.2,2708.4 h -3.5 c -10.3,0 -19.6,4.2 -26.2,11 h 57.1 c -7.1,-6.8 -16.8,-11 -27.4,-11"
         style="fill:#a6c4ef;fill-opacity:1;fill-rule:nonzero;stroke:none"
         id="path252" />
      <path
         d="m 10831.5,2719.4 c -6.6,6.8 -10.7,16.2 -10.4,26.5 l 53,2299.1 c 11.7,-2.7 23.9,-4.2 36.5,-4.2 h 122 l -131.9,-2295.1 c -0.6,-10.4 -5.1,-19.6 -12.1,-26.3 h -57.1"
         style="fill:#a1c0ed;fill-opacity:1;fill-rule:nonzero;stroke:none"
         id="path254" />
      <path
         d="m 13494.1,2708.4 h -3.5 c -10.7,0 -20.5,4.3 -27.7,11.3 h 57.7 c -6.7,-7 -16.1,-11.3 -26.5,-11.3"
         style="fill:#a6c4ef;fill-opacity:1;fill-rule:nonzero;stroke:none"
         id="path256" />
      <path
         d="m 13462.9,2719.7 c -6.8,6.7 -11.2,15.8 -11.8,26 l -131.9,2295.1 h 158.6 l 52.9,-2294.9 c 0.3,-10.2 -3.6,-19.4 -10.1,-26.2 h -57.7"
         style="fill:#a1c0ed;fill-opacity:1;fill-rule:nonzero;stroke:none"
         id="path258" />
      <path
         d="m 12991.3,5301.1 h -2238.5 v 1648.7 c 0,290.1 235.2,525.3 525.3,525.3 H 12466 c 290.1,0 525.3,-235.2 525.3,-525.3 V 5301.1"
         style="fill:#a1c0ed;fill-opacity:1;fill-rule:nonzero;stroke:none"
         id="path260" />
      <path
         d="m 11743.8,5040.8 h -833.2 c -12.6,0 -24.8,1.5 -36.5,4.2 -69.5,16.5 -121.3,79 -121.3,153.5 v 102.6 h 2238.5 212.8 -1460.3 c -64.4,0 -116.6,-52.2 -116.6,-116.6 v -27.1 c 0,-64.4 52.2,-116.6 116.6,-116.6"
         style="fill:#a1c0ed;fill-opacity:1;fill-rule:nonzero;stroke:none"
         id="path262" />
      <path
         d="m 13478.9,5040.8 h -1735.1 v 0 c -64.4,0 -116.6,52.2 -116.6,116.6 v 27.1 c 0,64.4 52.2,116.6 116.6,116.6 h 1460.3 274.8 c 64.5,0 116.7,-52.2 116.7,-116.6 v -27.1 c 0,-64.4 -52.2,-116.6 -116.7,-116.6"
         style="fill:#a1c0ed;fill-opacity:1;fill-rule:nonzero;stroke:none"
         id="path264" />
      <path
         d="m 14777.1,3667.8 c 16.6,-82.9 134.7,-69.1 266.7,-36.8 132,32.2 100.6,-6.1 288.4,14.7 187.9,20.8 244.8,90.8 250.5,118.7 5.1,24.8 -87.7,33.5 -187.2,45 -12.6,1.4 -25.1,3 -37.7,4.5 -112.4,14.1 -194.7,86.6 -296.8,146.2 -96.7,56.4 -241,286.3 -241,286.3 l -257.6,-20.4 c 0,0 135.2,-205.3 187.5,-294.6 30.7,-52.5 29.1,-121.9 25.3,-175.5 -2,-29.2 -3.9,-58.9 1.9,-88.1"
         style="fill:#ffb27d;fill-opacity:1;fill-rule:nonzero;stroke:none"
         id="path266" />
      <path
         d="m 15043.8,3631 c 132,32.2 100.6,-6.1 288.4,14.7 187.9,20.8 244.8,90.8 250.5,118.7 5.1,24.8 -87.7,33.5 -187.2,45 l -1,-1.9 c 0,0 -112.6,-79.9 -268.9,-83.6 -127.5,-3.1 -262.4,33.4 -350.4,32 -2,-29.2 -3.9,-58.9 1.9,-88.1 16.6,-82.9 134.7,-69.1 266.7,-36.8"
         style="fill:#233862;fill-opacity:1;fill-rule:nonzero;stroke:none"
         id="path268" />
      <path
         d="m 12563.5,3297.1 c -51.2,-67.3 37.3,-146.7 148.8,-224.3 111.5,-77.7 62,-79.5 201.8,-206.6 139.9,-127.1 230,-123.5 254.8,-109.3 22,12.6 -32.9,87.9 -90.1,170.2 -7.3,10.3 -14.4,20.8 -21.6,31.2 -63.8,93.6 -63.8,203.3 -86.7,319.3 -21.6,109.8 157.7,513.5 157.7,513.5 l -288.1,36.3 c 0,0 -37.7,-243.8 -70,-342.1 -19.1,-57.8 -99.1,-95.9 -141.8,-128.4 -23.2,-17.8 -46.8,-36.1 -64.8,-59.8"
         style="fill:#ffb27d;fill-opacity:1;fill-rule:nonzero;stroke:none"
         id="path270" />
      <path
         d="m 12712.3,3072.8 c 111.5,-77.7 62,-79.5 201.8,-206.6 139.9,-127.1 230,-123.5 254.8,-109.3 22,12.6 -32.9,87.9 -90.1,170.2 l -2.1,-0.6 c 0,0 -134.4,31.7 -240.6,146.4 -86.6,93.5 -148.6,218.9 -207.8,284 -23.2,-17.8 -46.8,-36.1 -64.8,-59.8 -51.2,-67.3 37.3,-146.7 148.8,-224.3"
         style="fill:#233862;fill-opacity:1;fill-rule:nonzero;stroke:none"
         id="path272" />
      <path
         d="m 13740.3,5360.8 -263.2,-708.2 -343.6,-924.7 c 0,0 -93.2,-9 -182.5,16.7 -82.2,23.8 -176.5,85.9 -176.5,85.9 0,0 95.4,992.9 273.4,1562.8 45.6,146.3 96.7,264.6 153.1,331.3 275.9,326 539.3,-363.8 539.3,-363.8"
         style="fill:#163560;fill-opacity:1;fill-rule:nonzero;stroke:none"
         id="path274" />
      <path
         d="m 13472.7,6485.5 c -172.4,55.6 -692,22.4 -1185.9,-74.3 l -75.7,132.4 -1067,83.3 c 0,0 -352.1,-780.8 -159.3,-1278.3 28.3,-73.1 84.6,-120 180.6,-121.6 h 15.6 c 0,0 635,0.4 841.2,0.4 530.7,0 1123,364.8 1199.7,380.1 125.4,25.1 175.6,-225.8 301,-489.2 125.4,-263.4 1179,-1166.5 1179,-1166.5 0,0 162,-1.6 228.9,23.5 71.9,27 98.2,62 98.2,62 0,0 -1167.4,2322.8 -1556.3,2448.2"
         style="fill:#2a4e96;fill-opacity:1;fill-rule:nonzero;stroke:none"
         id="path276" />
      <path
         d="m 11837.4,9773.3 c -150.1,35.8 -354.1,-6.2 -387.9,-10.1 -405.2,-47.3 -495.8,-676.8 -465.7,-852.8 55.6,-324.5 -100.3,-415.9 -286.3,-675.4 -372.8,-520.3 -115.3,-948.8 188.3,-1055 182.1,-63.7 430.2,109.8 430.2,109.8 4.6,-1.7 644.3,609 960.8,905.7 531.9,219.2 -56.6,1486.7 -439.4,1577.8"
         style="fill:#233862;fill-opacity:1;fill-rule:nonzero;stroke:none"
         id="path278" />
      <path
         d="m 11924.2,8289.3 c 1.9,-0.6 -165,-109.6 -301,-86.7 -127.9,21.5 -263.3,188.4 -261.6,189 51.7,15.7 97.4,76.1 65.1,387.4 l 24.3,-2.3 408.9,-39.2 c 0,0 3.5,-127.1 15.1,-246 9.7,-99.8 25.3,-193.8 49.2,-202.2"
         style="fill:#ffb27d;fill-opacity:1;fill-rule:nonzero;stroke:none"
         id="path280" />
      <path
         d="m 11859.9,8737.5 c 0,0 3.5,-127.1 15.1,-246 -224.9,-16.1 -364,176.6 -424,285.2 l 408.9,-39.2"
         style="fill:#ed975d;fill-opacity:1;fill-rule:nonzero;stroke:none"
         id="path282" />
      <path
         d="m 11946,8632.4 c 0,0 -529.8,-61.9 -563.3,268.7 -33.5,330.5 -124.4,545.2 212.5,598.7 336.9,53.5 415.5,-66 453.5,-173.6 38,-107.6 34.3,-669.1 -102.7,-693.8"
         style="fill:#ffb27d;fill-opacity:1;fill-rule:nonzero;stroke:none"
         id="path284" />
      <path
         d="m 11985.5,9496 c 0,0 -255.9,-366.3 -473.1,-446 -217.3,-79.7 -320,-29.6 -320,-29.6 0,0 103.6,142.7 137.8,339 10.1,57.9 50.3,106.1 105.7,125.5 155.8,54.4 456.2,137.7 549.6,11.1"
         style="fill:#233862;fill-opacity:1;fill-rule:nonzero;stroke:none"
         id="path286" />
      <path
         d="m 11774,9469 c 0,0 136.8,-78.1 191.4,-148 52.7,-67.4 109.1,-246.5 100.9,-325.4 0,0 86.2,376 -51.8,512.8 -146.3,145.1 -240.5,-39.4 -240.5,-39.4"
         style="fill:#233862;fill-opacity:1;fill-rule:nonzero;stroke:none"
         id="path288" />
      <path
         d="m 12331.6,7412.3 c -16,-1070.3 -4.4,-846.7 -121.5,-948.2 -28.2,-24.5 -107.5,-39 -211.9,-45.9 -328.1,-21.8 -905,32.3 -927,92.9 -75.7,209.9 -22.2,275.1 -85.4,596.3 -6.6,34.2 -14.7,71.2 -24.3,111.5 -52.6,220.6 -103.9,295.7 82.9,650.2 169.5,321.1 352.4,577.6 368.2,568.2 447,-265.3 476.1,-38.2 476.1,-38.2 0,0 450.7,-464.8 442.9,-986.8"
         style="fill:#ffffff;fill-opacity:1;fill-rule:nonzero;stroke:none"
         id="path290" />
      <path
         d="m 13477.1,4652.6 -351.4,-963.2 c 0,0 -126.2,-41.1 -218.2,-27.8 -93.6,13.7 -145,64.8 -145,64.8 0,0 107.4,1097 285.4,1666.9 l 429.2,-740.7"
         style="fill:#2a4e96;fill-opacity:1;fill-rule:nonzero;stroke:none"
         id="path292" />
      <path
         d="m 11888.7,8399.2 c 0,0 459.9,-78 513.9,-276 54.1,-198 449,-1289.2 449,-1289.2 0,0 -310.9,-114.9 -419,-6.9 -108,108 -375.8,1002.1 -375.8,1002.1 l -168.1,570"
         style="fill:#ffffff;fill-opacity:1;fill-rule:nonzero;stroke:none"
         id="path294" />
      <path
         d="m 11998.2,6418.2 c -328.1,-21.8 -905,32.3 -927,92.9 -75.7,209.9 -22.2,275.1 -85.4,596.3 l 154,350.5 c 0,0 -21.9,-401.1 124.5,-531.6 146.2,-130.6 599.3,-252 670.5,-361.1 34.3,-52.4 56.9,-104.9 63.4,-147"
         style="fill:#dfebfd;fill-opacity:1;fill-rule:nonzero;stroke:none"
         id="path296" />
      <path
         d="m 12025,6646.6 c 0,0 97.7,-84.3 125.5,-91.2 27.8,-6.7 43.7,-0.4 43.7,-0.4 l -71.3,83.4 -97.9,8.2"
         style="fill:#ffb27d;fill-opacity:1;fill-rule:nonzero;stroke:none"
         id="path298" />
      <path
         d="m 11986.2,6745.9 247.5,-63.9 c 0,0 -6.4,-17.6 -34.4,-21.9 -28,-4.4 -103.2,7.1 -103.2,7.1 l -109.9,78.7"
         style="fill:#ffb27d;fill-opacity:1;fill-rule:nonzero;stroke:none"
         id="path300" />
      <path
         d="m 11566.6,6609.5 c 0,0 353.3,157.2 419.6,136.4 66.4,-20.8 236.4,-110.8 263.1,-148.7 26.7,-37.9 -139.3,4.7 -191.1,7.9 -33.6,2.1 -111.5,-43.9 -150.2,-66.2 -162.8,-93.5 -275.8,-85.2 -275.8,-85.2 l -65.6,155.8"
         style="fill:#ffb27d;fill-opacity:1;fill-rule:nonzero;stroke:none"
         id="path302" />
      <path
         d="m 11412.6,8437.3 c 0,0 -499.8,-93.8 -592.4,-232.3 -202,-302.3 -632.1,-1554.7 -391.3,-1722.6 271.3,-189.2 1234.5,-49.5 1234.5,-49.5 0,0 32,149.8 -12.6,222.3 -44.5,72.5 -769.3,189.5 -802.7,223 -33.5,33.4 330.4,517.1 291.7,609.7 -124.2,296.5 272.8,949.4 272.8,949.4"
         style="fill:#ffffff;fill-opacity:1;fill-rule:nonzero;stroke:none"
         id="path304" />
      <path
         d="m 13388.5,6662.9 c 0,0 349.8,-94.5 385.7,-148.8 36,-54.3 106.4,-220.3 103.4,-263.6 -3,-43.3 -98.5,85.7 -134.2,118.7 -23.2,21.4 -107.1,33.9 -148.4,40.6 -103.9,16.9 -154.1,64.5 -193,88.2 -26.2,15.9 -57.9,12.9 -57.9,12.9 l 44.4,152"
         style="fill:#ffb27d;fill-opacity:1;fill-rule:nonzero;stroke:none"
         id="path306" />
      <path
         d="m 13743.7,6419 c 0,0 21.2,-119.1 37.4,-140.4 16.3,-21.4 31.5,-26.2 31.5,-26.2 l -2.5,102.8 -66.4,63.8"
         style="fill:#ffb27d;fill-opacity:1;fill-rule:nonzero;stroke:none"
         id="path308" />
      <path
         d="m 13774.2,6514.1 142.3,-192.7 c 0,0 -15.1,-9 -38.1,4.4 -22.9,13.4 -70.8,66.1 -70.8,66.1 l -33.4,122.2"
         style="fill:#ffb27d;fill-opacity:1;fill-rule:nonzero;stroke:none"
         id="path310" />
      <path
         d="m 13402,6498 c 0,0 32.4,-78.7 97.1,-106.9 64.8,-28.3 112.3,-70.7 122.7,-55.4 10.4,15.2 -49,95.5 -49,95.5 L 13402,6498"
         style="fill:#ffb27d;fill-opacity:1;fill-rule:nonzero;stroke:none"
         id="path312" />
      <path
         d="m 12758.7,7092 735.7,-465.1 c 0,0 -77.3,-103.3 -103.1,-112.8 -136.2,-49.9 -748.8,-2.1 -958.7,313 l 326.1,264.9"
         style="fill:#ffffff;fill-opacity:1;fill-rule:nonzero;stroke:none"
         id="path314" />
      <path
         d="m 12467.2,6586.6 c 43.4,0 475.2,29.9 475.2,29.9 0,0 -12.5,-76.5 14.2,-117.5 l -420.8,-80.5 -86.4,25.4 17.8,142.7"
         style="fill:#f9ddbf;fill-opacity:1;fill-rule:nonzero;stroke:none"
         id="path316" />
      <path
         d="m 11747,6517.2 720.2,69.4 c 0,0 -25.3,-133.3 68.6,-168.1 l -793.9,-58.1 c 0,0 -64,90.1 5.1,156.8"
         style="fill:#f99746;fill-opacity:1;fill-rule:nonzero;stroke:none"
         id="path318" />
      <path
         d="m 12941.2,6607 -486.7,-37.5 c 0,0 3.6,16.8 12.7,17.1 9.1,0.2 483.5,34.6 483.5,34.6 l -1.7,-13.3 -7.8,-0.9"
         style="fill:#f99746;fill-opacity:1;fill-rule:nonzero;stroke:none"
         id="path320" />
      <path
         d="m 12535.8,6418.5 428.7,81.5 -4,11.1 -456.8,-87.5 32.1,-5.1"
         style="fill:#f99746;fill-opacity:1;fill-rule:nonzero;stroke:none"
         id="path322" />
      <path
         d="m 7547.7,2712.2 h -3.87 c -22.82,0 -41.16,18.9 -40.64,41.8 l 61.62,2686.6 181.53,21.3 -154.8,-2708.1 c -1.33,-23.3 -20.56,-41.6 -43.84,-41.6"
         style="fill:#77a4e5;fill-opacity:1;fill-rule:nonzero;stroke:none"
         id="path324" />
      <path
         d="m 6489.89,2712.2 h -3.87 c -22.82,0 -41.17,18.9 -40.64,41.8 l 61.63,2686.6 181.52,21.3 -154.79,-2708.1 c -1.34,-23.3 -20.58,-41.6 -43.85,-41.6"
         style="fill:#77a4e5;fill-opacity:1;fill-rule:nonzero;stroke:none"
         id="path326" />
      <path
         d="m 9408.85,2712.2 h 3.87 c 22.82,0 41.16,18.9 40.64,41.8 l -61.63,2686.6 -181.52,21.3 L 9365,2753.8 c 1.34,-23.3 20.57,-41.6 43.85,-41.6"
         style="fill:#77a4e5;fill-opacity:1;fill-rule:nonzero;stroke:none"
         id="path328" />
      <path
         d="m 6369.61,5607.2 v 1841 c 0,323.9 261.07,586.5 583.12,586.5 h 1318.66 c 322.05,0 583.12,-262.6 583.12,-586.5 V 5536.9 l -2484.9,70.3"
         style="fill:#77a4e5;fill-opacity:1;fill-rule:nonzero;stroke:none"
         id="path330" />
      <path
         d="M 9090.77,5316.6 H 6545.21 c -96.98,0 -175.6,78.6 -175.6,175.6 v 115 h 2721.16 v -290.6"
         style="fill:#77a4e5;fill-opacity:1;fill-rule:nonzero;stroke:none"
         id="path332" />
      <path
         d="M 9395.5,5316.6 H 7470.05 c -71.71,0 -129.84,58.1 -129.84,129.8 v 31 c 0,71.7 58.13,129.8 129.84,129.8 H 9395.5 c 71.71,0 129.85,-58.1 129.85,-129.8 v -31 c 0,-71.7 -58.14,-129.8 -129.85,-129.8"
         style="fill:#77a4e5;fill-opacity:1;fill-rule:nonzero;stroke:none"
         id="path334" />
      <path
         d="m 8360.12,8714.7 c 0,0 -110.37,-93.9 -134.35,-337.4 -18.22,-184.9 110.06,-1620.3 206.56,-1734.4 271.55,-320.9 611.9,-185.3 745.22,-234 l 125.76,113 c 0,0 -442.19,326.3 -475.83,432.8 -129.55,409.9 -49.24,1605.2 -467.36,1760"
         style="fill:#f9ddbf;fill-opacity:1;fill-rule:nonzero;stroke:none"
         id="path336" />
      <path
         d="m 8280.78,9885.5 c 0,0 7.47,263.2 -339.72,314.9 -347.19,51.6 -443.12,-29.5 -502.15,-118.1 -59.03,-88.5 -169.72,-450.1 -158.65,-594 11.07,-143.9 407.07,-321.8 400.61,-405.8 -6.45,-83.9 599.91,803 599.91,803"
         style="fill:#163560;fill-opacity:1;fill-rule:nonzero;stroke:none"
         id="path338" />
      <path
         d="m 9891.11,2939.3 c -11.26,-88.9 110.09,-115.1 251.19,-127.5 141.2,-12.4 97.4,-40.3 289.9,-83.1 192.5,-42.9 272.1,8.3 287,34.4 13.4,23.2 -75.4,63.5 -169.9,108.8 -11.9,5.6 -23.9,11.5 -35.8,17.3 -106.3,52.3 -163.4,153.2 -244.4,247.7 -76.8,89.6 -142.7,369.7 -142.7,369.7 l -261.27,66.9 c 0,0 65.08,-252.3 86.96,-359.8 12.88,-63.2 -11.88,-132.5 -33.55,-185.1 -11.69,-28.6 -23.5,-57.9 -27.43,-89.3"
         style="fill:#ffb27d;fill-opacity:1;fill-rule:nonzero;stroke:none"
         id="path340" />
      <path
         d="m 10142.3,2811.8 c 141.2,-12.4 97.4,-40.3 289.9,-83.1 192.5,-42.9 272.1,8.3 287,34.4 13.4,23.2 -75.4,63.5 -169.9,108.8 l -1.6,-1.6 c 0,0 -137.9,-42.1 -293.6,7.2 -127,40.1 -248.1,122.7 -335.56,151.1 -11.69,-28.6 -23.5,-57.9 -27.43,-89.3 -11.26,-88.9 110.09,-115.1 251.19,-127.5"
         style="fill:#233862;fill-opacity:1;fill-rule:nonzero;stroke:none"
         id="path342" />
      <path
         d="m 7934.79,6566.3 c 0,0 1746.84,-181.2 2034.77,-448.7 287.94,-267.4 236.64,-2758.6 236.64,-2758.6 -44.8,-46.5 -77.9,-45.4 -148.7,-39.9 -67.98,5.4 -206.56,63.8 -206.56,63.8 0,0 -374.11,1223.3 -378.78,1506.5 -4.67,283.3 -63.83,763.9 -182.65,792.3 -118.82,28.3 -1533.01,-130.3 -1688.05,316.4 -155.04,446.7 102.4,814.2 102.4,814.2 l 230.93,-246"
         style="fill:#ed7d2b;fill-opacity:1;fill-rule:nonzero;stroke:none"
         id="path344" />
      <path
         d="m 7118.84,6116.9 c 75.38,-50.4 210.15,-128.2 436.28,-136.3 404.66,-14.7 909.59,33.5 1008.98,127.4 25.79,24.2 38.41,64.4 41.95,115.3 10.96,155.3 -63.2,410.8 -113,622.2 -32.33,137.3 -54.35,256 -36.31,316.6 54.9,184.7 225.46,560.9 240.18,684.5 14.73,123.6 -132.82,786.1 -336.8,868.1 -204.1,82.1 -991.39,0 -991.39,0 -307.59,-62.4 -320.54,-718.2 -218.38,-1276.4 2.65,-14.4 5.31,-28.7 8.08,-42.8 110.68,-566.8 -249.89,-1137.7 -39.59,-1278.6"
         style="fill:#f9ddbf;fill-opacity:1;fill-rule:nonzero;stroke:none"
         id="path346" />
      <path
         d="m 8135.98,8594.1 c -5.53,-36 -103.99,-94.3 -314.44,-38.9 -201.66,53.2 -225.87,118.9 -225.83,162.2 0.05,51.4 87.65,120.5 86.52,436.4 l 24.18,-4.8 406.57,-80.5 c 0,0 -9.25,-127.9 -9.52,-248.5 -0.28,-101.2 41.74,-166.1 32.52,-225.9"
         style="fill:#ffb27d;fill-opacity:1;fill-rule:nonzero;stroke:none"
         id="path348" />
      <path
         d="m 8112.98,9068.5 c 0,0 -9.25,-127.9 -9.52,-248.5 -227.52,6.4 -347.78,214 -397.05,329 l 406.57,-80.5"
         style="fill:#ed975d;fill-opacity:1;fill-rule:nonzero;stroke:none"
         id="path350" />
      <path
         d="m 8188.96,8954.4 c 0,0 -538.29,-8.9 -538.66,326.4 -0.37,335.3 -70.1,560 273.57,579.8 343.67,19.9 410.59,-108 437.94,-219.9 27.34,-111.9 -32.84,-675.4 -172.85,-686.3"
         style="fill:#ffb27d;fill-opacity:1;fill-rule:nonzero;stroke:none"
         id="path352" />
      <path
         d="m 8169.04,9868.8 c 0,0 -147.38,-393.3 -373.57,-451.5 -226.19,-58.2 -324.3,2.4 -324.3,2.4 0,0 173.5,137.9 209.5,378.5 0,0 377.19,257.9 488.37,70.6"
         style="fill:#163560;fill-opacity:1;fill-rule:nonzero;stroke:none"
         id="path354" />
      <path
         d="m 8132.51,9836.9 c 0,0 110.07,-87.8 136.9,-173.2 26.84,-85.4 38.91,-261.2 90.14,-255.2 0,0 111.04,267.4 -13.75,418.6 -132.32,160.4 -213.29,9.8 -213.29,9.8"
         style="fill:#163560;fill-opacity:1;fill-rule:nonzero;stroke:none"
         id="path356" />
      <path
         d="m 8579.17,2866.2 c -1.29,-89.7 122.16,-101.7 263.77,-97.7 141.61,3.9 101.22,-28.8 297.25,-49.2 196.03,-20.4 269.41,39.6 281.38,67.3 10.67,24.5 -82.02,54.3 -180.98,88.4 -12.46,4.3 -24.94,8.7 -37.42,13.1 -111.47,39.8 -179.45,133.4 -270.45,218 -86.2,80.1 104.06,467.8 104.06,467.8 l -249.4,123.4 c 0,0 -47.3,-276.7 -108.2,-518.9 -15.73,-62.5 -67.02,-165.6 -82.69,-220.3 -8.43,-29.8 -16.91,-60.3 -17.32,-91.9"
         style="fill:#ffb27d;fill-opacity:1;fill-rule:nonzero;stroke:none"
         id="path358" />
      <path
         d="m 7129.58,6183.6 c 75.38,-50.5 199.41,-194.9 425.54,-203 373.22,84.9 798.13,183.7 1050.93,242.7 10.96,155.3 -63.2,410.8 -113,622.2 -294.75,-90 -733.39,216.6 -880.82,337.8 -154.96,127.3 -150.09,551.4 -150.09,551.4 l -311.79,-296.4 c 2.65,-14.4 5.31,-28.7 8.08,-42.8 110.68,-566.8 -239.14,-1071 -28.85,-1211.9"
         style="fill:#f2ccaa;fill-opacity:1;fill-rule:nonzero;stroke:none"
         id="path360" />
      <path
         d="m 8842.94,2768.5 c 141.61,3.9 101.22,-28.8 297.25,-49.2 196.03,-20.4 269.41,39.6 281.38,67.3 10.67,24.5 -82.02,54.3 -180.98,88.4 l -1.37,-1.7 c 0,0 -132.36,-57.7 -292.56,-26.7 -130.58,25.3 -260.15,93.3 -350.17,111.5 -8.43,-29.8 -16.91,-60.3 -17.32,-91.9 -1.29,-89.7 122.16,-101.7 263.77,-97.7"
         style="fill:#233862;fill-opacity:1;fill-rule:nonzero;stroke:none"
         id="path362" />
      <path
         d="m 7557.87,6459.7 c 443.51,12.7 1768.14,-93.1 2022.62,-284.9 313.22,-236.2 -581.59,-2790.1 -581.59,-2790.1 0,0 -103.9,-10 -136.81,-6.3 -142.11,16.1 -199.99,59.4 -199.99,59.4 0,0 3.46,1503.1 108.01,1790.7 96.61,265.6 155.81,359.6 34.78,375.5 -121.04,15.9 -1631.61,-176.8 -1757.69,279.2 -98.48,356.2 47.02,685.9 47.02,685.9 0,0 54.5,-121 463.65,-109.4"
         style="fill:#f99746;fill-opacity:1;fill-rule:nonzero;stroke:none"
         id="path364" />
      <path
         d="m 7368.73,8714.7 c 0,0 -308.08,-26.1 -332.06,-269.6 -18.2,-184.9 -152.21,-1496.4 -55.71,-1610.5 271.55,-320.9 1177.03,-389 1310.35,-437.7 l 36.67,151.8 c 0,0 -966.63,487 -951.88,597.7 14.76,110.7 288.1,1612.1 -7.37,1568.3"
         style="fill:#f9ddbf;fill-opacity:1;fill-rule:nonzero;stroke:none"
         id="path366" />
      <path
         d="m 7606.58,10068 c 0,0 22.1,140.5 -172.71,176.7 -194.8,36.3 -198.45,-377.5 -219.32,-477.3 -20.87,-99.7 31.16,-159.5 105.45,-165.5 74.3,-6.1 286.58,466.1 286.58,466.1"
         style="fill:#163560;fill-opacity:1;fill-rule:nonzero;stroke:none"
         id="path368" />
      <path
         d="m 8338.48,6555.4 c 0,0 275.29,77.9 340.87,59.7 65.58,-18.2 290.24,-167 258.65,-207.4 -31.58,-40.4 -229.5,24.2 -320.58,11.9 -91.08,-12.2 -161.51,-57.1 -227.08,-47.4 -65.57,9.7 -134.14,35.5 -134.14,35.5 l 82.28,147.7"
         style="fill:#ffb27d;fill-opacity:1;fill-rule:nonzero;stroke:none"
         id="path370" />
      <path
         d="m 8338.48,6555.4 c 0,0 134.69,69.2 173,108.6 4.84,4.9 13.02,3.9 16.73,-2 10.27,-16.2 19.88,-47.4 -27.37,-78.5 -68,-44.8 -162.36,-28.1 -162.36,-28.1"
         style="fill:#ffb27d;fill-opacity:1;fill-rule:nonzero;stroke:none"
         id="path372" />
      <path
         d="m 9303.31,6521.9 c 0,0 285.67,-15.7 341.79,-54.2 56.11,-38.5 220.35,-252.1 177.36,-280.1 -42.99,-28 -209.24,97.4 -299.35,115.4 -90.12,17.9 -171.32,-1.7 -230.19,28.8 -58.88,30.4 -115.37,77.1 -115.37,77.1 l 125.76,113"
         style="fill:#ffb27d;fill-opacity:1;fill-rule:nonzero;stroke:none"
         id="path374" />
      <path
         d="M 7340.81,2688.7 H 6178.45 c -55.9,68.3 -35.31,320 -26.84,402.2 1.74,16.6 2.94,26.2 2.94,26.2 0,0 396.92,317.5 451.44,74.4 1.66,-7.7 3.68,-15.1 5.89,-22.4 68.68,-227.4 376.78,-330.8 554.7,-359.5 115.66,-18.8 158.42,-78.9 174.23,-120.9"
         style="fill:#1b3051;fill-opacity:1;fill-rule:nonzero;stroke:none"
         id="path376" />
      <path
         d="m 4169.17,6465.6 c 41.96,0 1991.05,-365.9 2313.45,-765 161.05,-199.4 185,-2501.8 185,-2501.8 0,0 -199.27,-247.1 -629.6,-103.6 0,0 -315.52,1575.3 -292.21,2053.1 6.44,132.1 -1331.72,19.1 -1576.64,82.5 -244.93,63.4 -843.35,596.2 -711.49,855.7 131.86,259.6 711.49,379.1 711.49,379.1"
         style="fill:#233862;fill-opacity:1;fill-rule:nonzero;stroke:none"
         id="path378" />
      <path
         d="m 5580.44,6573.8 c 0,0 124.74,-107.6 252.66,-138 72.95,-17.4 143.63,-37.2 185.66,-56.5 115.75,-53.1 335.3,-290.2 314.87,-313.8 -65.46,-75.6 -329.14,121.3 -379.59,107.4 -50.45,-13.9 82.75,-128.3 29.91,-159.4 -27.6,-16.3 -79.59,82.6 -128.23,96.5 -65.81,18.8 -109.49,118.2 -129.18,125 -38.37,13.2 -198.52,156.8 -198.52,156.8 l 52.42,182"
         style="fill:#ffb27d;fill-opacity:1;fill-rule:nonzero;stroke:none"
         id="path380" />
      <path
         d="M 7854.52,2688.7 H 6692.16 c -55.9,68.3 -35.3,320 -26.84,402.2 1.74,16.6 2.94,26.2 2.94,26.2 0,0 396.92,317.5 451.44,74.4 1.66,-7.7 3.68,-15.1 5.89,-22.4 68.68,-227.4 376.78,-330.8 554.69,-359.5 115.67,-18.8 158.43,-78.9 174.24,-120.9"
         style="fill:#1e3c68;fill-opacity:1;fill-rule:nonzero;stroke:none"
         id="path382" />
      <path
         d="m 4743.53,6465.6 c 41.96,0 1991.05,-365.9 2313.45,-765 161.06,-199.4 185,-2501.8 185,-2501.8 0,0 -199.26,-247.1 -629.59,-103.6 0,0 -315.52,1575.3 -292.22,2053.1 6.44,132.1 -1331.72,19.1 -1576.64,82.5 -244.93,63.4 -843.35,596.2 -711.49,855.7 131.86,259.6 711.49,379.1 711.49,379.1"
         style="fill:#2b478b;fill-opacity:1;fill-rule:nonzero;stroke:none"
         id="path384" />
      <path
         d="m 4621.55,8834.2 c -140.22,11.6 -287.23,49 -414.29,90.2 -158.83,51.5 -286.85,126.9 -204.35,272 76.03,133.8 199.09,432.7 190.77,680.3 l 295.55,-238.2 200.76,-161.7 c 0,0 -0.82,-95.4 -22.76,-262.6 -4.02,-30.4 -8.71,-63.3 -14.25,-98.5 -4.46,-28.4 8.59,-56.7 33.01,-71.9 1.52,-0.9 3.03,-1.8 4.54,-2.8 99.77,-62.7 48.45,-216.5 -68.98,-206.8"
         style="fill:#ffb27d;fill-opacity:1;fill-rule:nonzero;stroke:none"
         id="path386" />
      <path
         d="m 4689.99,9516.1 c 0,0 10.27,-34.6 -7.37,-162.5 -178.98,29.2 -346.3,172 -346.3,172 91.12,25 124.28,123.5 192.15,114.3 l 161.52,-123.8"
         style="fill:#ed975d;fill-opacity:1;fill-rule:nonzero;stroke:none"
         id="path388" />
      <path
         d="m 4855.55,9487 c 0,0 -688.47,-114.4 -753.1,315.4 -64.63,429.9 -197.02,704.6 239.82,795.8 436.84,91.2 547.11,-59.9 603.57,-198.2 56.47,-138.2 87.13,-872.2 -90.29,-913"
         style="fill:#ffb27d;fill-opacity:1;fill-rule:nonzero;stroke:none"
         id="path390" />
      <path
         d="m 5047.09,10590.2 c 29.58,-103.5 -49.55,-229.5 -182.37,-271 -197.15,-61.7 -153.59,-303.5 -242.31,-300.2 -88.72,3.3 -124.51,139 -203.75,30.6 -67.6,-92.5 56.26,-202.2 47.74,-252.9 -14.63,-87.1 -151.04,-265.3 -273.96,-256.3 -122.92,8.9 -352.93,593.1 -306.93,773.8 46,180.7 230.02,371.3 404.17,397.6 174.16,26.3 416.01,-48.9 471.87,-48.9 55.87,0 269.57,-16.7 285.54,-72.7"
         style="fill:#2b478b;fill-opacity:1;fill-rule:nonzero;stroke:none"
         id="path392" />
      <path
         d="m 5217.85,6594.5 c -11.51,-99.2 -32.4,-166.7 -65.22,-188.6 -102.64,-68.8 -238.74,-154.2 -390.61,-238.9 -538.54,-300.3 -1275.85,-590.1 -1425.8,-82.6 -176.18,596.1 -60.43,1715.4 112.33,2410.6 99.44,400.5 374.52,820.8 560.49,820.4 316.86,-0.6 772.38,-84.2 956.33,-537.9 71.19,-175.8 175.85,-784.9 229.25,-1342.8 31.86,-332.4 45.51,-646.6 23.23,-840.2"
         style="fill:#ffffff;fill-opacity:1;fill-rule:nonzero;stroke:none"
         id="path394" />
      <path
         d="m 3977.1,9311.5 71.75,161.7 c 0,0 636.11,-64.8 744.04,-430.3 0,0 -491.71,260.8 -815.79,268.6"
         style="fill:#dfebfd;fill-opacity:1;fill-rule:nonzero;stroke:none"
         id="path396" />
      <path
         d="m 5217.85,6594.5 c -11.51,-99.2 -32.4,-166.7 -65.22,-188.6 -102.64,-68.8 -238.74,-154.2 -390.61,-238.9 -158.48,96.4 -483.87,326.3 -559.96,597.2 -99.44,354.3 -29.74,790.2 -29.74,790.2 l 1045.53,-959.9"
         style="fill:#dfebfd;fill-opacity:1;fill-rule:nonzero;stroke:none"
         id="path398" />
      <path
         d="m 4106.14,8766.4 c 0,0 55.17,-1522.5 141.75,-1823.5 147.64,-513.4 1494.19,-696.2 1494.19,-696.2 0,0 79.44,90 43.92,239.3 0,0 -805.02,634.5 -828.56,755.3 -23.55,120.8 175.4,939.4 -51.97,1237 -227.36,297.7 -646.57,555.6 -799.33,288.1"
         style="fill:#ffffff;fill-opacity:1;fill-rule:nonzero;stroke:none"
         id="path400" />
      <path
         d="m 2417.96,2703.2 -4.43,0.1 c -36.26,0.7 -64.26,30.3 -60.85,64.4 l 241.9,2415.9 211.09,-18.8 -347.35,-2428.9 c -2.72,-19 -20.07,-33.1 -40.36,-32.7"
         style="fill:#77a4e5;fill-opacity:1;fill-rule:nonzero;stroke:none"
         id="path402" />
      <path
         d="m 3663.1,2703.2 -4.44,0.1 c -36.26,0.7 -64.27,30.3 -60.85,64.4 l 241.91,2415.9 211.08,-18.8 -347.35,-2428.9 c -2.72,-19 -20.07,-33.1 -40.35,-32.7"
         style="fill:#77a4e5;fill-opacity:1;fill-rule:nonzero;stroke:none"
         id="path404" />
      <path
         d="m 6000.63,2703.2 4.44,0.1 c 36.26,0.7 64.27,30.3 60.85,64.4 l -241.9,2415.9 -211.09,-18.8 347.36,-2428.9 c 2.71,-19 20.07,-33.1 40.34,-32.7"
         style="fill:#77a4e5;fill-opacity:1;fill-rule:nonzero;stroke:none"
         id="path406" />
      <path
         d="m 2486.33,5525.8 -229.6,2017.9 c -30.1,290.7 67.21,575.5 486.82,597.5 l 738.21,45 c 437.54,18 635.08,-346.1 690.47,-626.5 l 438.24,-2218 -2124.14,184.1"
         style="fill:#77a4e5;fill-opacity:1;fill-rule:nonzero;stroke:none"
         id="path408" />
      <path
         d="m 2609.69,5148.3 h 3276.4 c 65.83,0 119.69,53.8 119.69,119.7 v 147.3 c 0,65.9 -53.86,119.7 -119.69,119.7 H 2490.01 v -267 c 0,-65.9 53.86,-119.7 119.68,-119.7"
         style="fill:#77a4e5;fill-opacity:1;fill-rule:nonzero;stroke:none"
         id="path410" />
      <path
         d="m 2582.96,5148.3 h 1934.56 c 51.13,0 92.95,41.8 92.95,92.9 v 200.9 c 0,51.1 -41.82,92.9 -92.95,92.9 H 2490.01 v -293.8 c 0,-51.1 41.83,-92.9 92.95,-92.9"
         style="fill:#77a4e5;fill-opacity:1;fill-rule:nonzero;stroke:none"
         id="path412" />
      <path
         d="M 30663.8,2599.5 H 1498.84 c -22.65,0 -41.18,18.5 -41.18,41.1 v 37.5 c 0,22.7 18.53,41.2 41.18,41.2 H 30663.8 c 22.7,0 41.2,-18.5 41.2,-41.2 v -37.5 c 0,-22.6 -18.5,-41.1 -41.2,-41.1"
         style="fill:#2e3552;fill-opacity:1;fill-rule:nonzero;stroke:none"
         id="path414" />
      <path
         d="M 7678.13,11655.2 H 6543.92 c -52.07,0 -94.67,42.6 -94.67,94.7 v 1094.7 c 0,52.1 42.6,94.7 94.67,94.7 h 1134.21 c 52.07,0 94.67,-42.6 94.67,-94.7 v -1094.7 c 0,-52.1 -42.6,-94.7 -94.67,-94.7"
         style="fill:#77a4e5;fill-opacity:1;fill-rule:nonzero;stroke:none"
         id="path416" />
      <path
         d="M 7628.99,11710.8 H 6593.05 c -47.56,0 -86.46,39 -86.46,86.5 v 999.9 c 0,47.5 38.9,86.5 86.46,86.5 h 1035.94 c 47.56,0 86.47,-39 86.47,-86.5 v -999.9 c 0,-47.5 -38.91,-86.5 -86.47,-86.5"
         style="fill:#dfebfd;fill-opacity:1;fill-rule:nonzero;stroke:none"
         id="path418" />
      <path
         d="m 7083.61,12766.5 c 0,15.1 12.27,27.4 27.42,27.4 15.14,0 27.41,-12.3 27.41,-27.4 0,-15.2 -12.27,-27.5 -27.41,-27.5 -15.15,0 -27.42,12.3 -27.42,27.5"
         style="fill:#77a4e5;fill-opacity:1;fill-rule:nonzero;stroke:none"
         id="path420" />
      <path
         d="m 7304.83,12727.7 c 7.36,13.2 24.05,18 37.29,10.7 13.24,-7.4 18,-24.1 10.64,-37.3 -7.35,-13.3 -24.04,-18 -37.28,-10.7 -13.23,7.4 -18,24.1 -10.65,37.3"
         style="fill:#77a4e5;fill-opacity:1;fill-rule:nonzero;stroke:none"
         id="path422" />
      <path
         d="m 7494.37,12577.1 c 12.72,8.2 29.69,4.6 37.9,-8.2 8.21,-12.7 4.55,-29.6 -8.17,-37.9 -12.73,-8.2 -29.7,-4.5 -37.91,8.2 -8.21,12.7 -4.54,29.7 8.18,37.9"
         style="fill:#77a4e5;fill-opacity:1;fill-rule:nonzero;stroke:none"
         id="path424" />
      <path
         d="m 7588.25,12344.1 c 15.14,0 27.42,-12.3 27.42,-27.4 0,-15.2 -12.28,-27.5 -27.42,-27.5 -15.14,0 -27.42,12.3 -27.42,27.5 0,15.1 12.28,27.4 27.42,27.4"
         style="fill:#77a4e5;fill-opacity:1;fill-rule:nonzero;stroke:none"
         id="path426" />
      <path
         d="m 7540.32,12073.6 c 10.71,-10.7 10.71,-28.1 0,-38.8 -10.71,-10.7 -28.07,-10.7 -38.78,0 -10.71,10.7 -10.71,28.1 0,38.8 10.71,10.7 28.07,10.7 38.78,0"
         style="fill:#77a4e5;fill-opacity:1;fill-rule:nonzero;stroke:none"
         id="path428" />
      <path
         d="m 7368.15,11901 c 10.71,-10.7 10.71,-28.1 0,-38.8 -10.71,-10.7 -28.07,-10.7 -38.77,0 -10.71,10.7 -10.71,28.1 0,38.8 10.7,10.7 28.06,10.7 38.77,0"
         style="fill:#77a4e5;fill-opacity:1;fill-rule:nonzero;stroke:none"
         id="path430" />
      <path
         d="m 7083.61,11812 c 0,15.1 12.27,27.4 27.42,27.4 15.14,0 27.41,-12.3 27.41,-27.4 0,-15.1 -12.27,-27.4 -27.41,-27.4 -15.15,0 -27.42,12.3 -27.42,27.4"
         style="fill:#77a4e5;fill-opacity:1;fill-rule:nonzero;stroke:none"
         id="path432" />
      <path
         d="m 6916.34,12727.7 c -7.36,13.2 -24.05,18 -37.29,10.7 -13.23,-7.4 -18,-24.1 -10.64,-37.3 7.35,-13.3 24.05,-18 37.28,-10.7 13.24,7.4 18,24.1 10.65,37.3"
         style="fill:#77a4e5;fill-opacity:1;fill-rule:nonzero;stroke:none"
         id="path434" />
      <path
         d="m 6726.81,12577.1 c -12.73,8.2 -29.7,4.6 -37.9,-8.2 -8.22,-12.7 -4.55,-29.6 8.17,-37.9 12.72,-8.2 29.69,-4.5 37.9,8.2 8.21,12.7 4.55,29.7 -8.17,37.9"
         style="fill:#77a4e5;fill-opacity:1;fill-rule:nonzero;stroke:none"
         id="path436" />
      <path
         d="m 6632.92,12344.1 c -15.14,0 -27.41,-12.3 -27.41,-27.4 0,-15.2 12.27,-27.5 27.41,-27.5 15.15,0 27.42,12.3 27.42,27.5 0,15.1 -12.27,27.4 -27.42,27.4"
         style="fill:#77a4e5;fill-opacity:1;fill-rule:nonzero;stroke:none"
         id="path438" />
      <path
         d="m 6680.86,12073.6 c -10.71,-10.7 -10.71,-28.1 0,-38.8 10.71,-10.7 28.07,-10.7 38.77,0 10.71,10.7 10.71,28.1 0,38.8 -10.7,10.7 -28.06,10.7 -38.77,0"
         style="fill:#77a4e5;fill-opacity:1;fill-rule:nonzero;stroke:none"
         id="path440" />
      <path
         d="m 6853.02,11901 c -10.71,-10.7 -10.71,-28.1 0,-38.8 10.71,-10.7 28.07,-10.7 38.78,0 10.7,10.7 10.7,28.1 0,38.8 -10.71,10.7 -28.07,10.7 -38.78,0"
         style="fill:#77a4e5;fill-opacity:1;fill-rule:nonzero;stroke:none"
         id="path442" />
      <path
         d="m 7103.63,12316.7 c 0,15.1 12.28,27.4 27.42,27.4 15.14,0 27.42,-12.3 27.42,-27.4 0,-15.2 -12.28,-27.5 -27.42,-27.5 -15.14,0 -27.42,12.3 -27.42,27.5"
         style="fill:#77a4e5;fill-opacity:1;fill-rule:nonzero;stroke:none"
         id="path444" />
      <path
         d="m 7134.79,12316.7 h -7.49 v 342.5 h 7.49 v -342.5"
         style="fill:#77a4e5;fill-opacity:1;fill-rule:nonzero;stroke:none"
         id="path446" />
      <path
         d="m 7134.53,12308.3 -13.87,17.7 181.58,142.5 13.87,-17.7 -181.58,-142.5"
         style="fill:#77a4e5;fill-opacity:1;fill-rule:nonzero;stroke:none"
         id="path448" />
    </g>
  </g>
</svg>
